G04 EAGLE Gerber RS-274X export*
G75*
%MOMM*%
%FSLAX34Y34*%
%LPD*%
%INCopper Layer 2*%
%IPPOS*%
%AMOC8*
5,1,8,0,0,1.08239X$1,22.5*%
G01*
%ADD10C,1.408000*%
%ADD11C,1.320800*%
%ADD12C,1.748000*%
%ADD13C,2.888000*%
%ADD14C,0.756400*%

G36*
X769117Y5059D02*
X769117Y5059D01*
X769234Y5071D01*
X769253Y5079D01*
X769273Y5082D01*
X769380Y5131D01*
X769489Y5176D01*
X769507Y5190D01*
X769524Y5198D01*
X769574Y5242D01*
X769677Y5323D01*
X792677Y28323D01*
X792700Y28352D01*
X792725Y28375D01*
X792763Y28436D01*
X792822Y28509D01*
X792830Y28527D01*
X792843Y28544D01*
X792859Y28589D01*
X792871Y28609D01*
X792886Y28661D01*
X792928Y28763D01*
X792931Y28786D01*
X792938Y28803D01*
X792941Y28862D01*
X792945Y28875D01*
X792945Y28892D01*
X792958Y29000D01*
X792958Y576000D01*
X792941Y576117D01*
X792929Y576234D01*
X792921Y576253D01*
X792918Y576273D01*
X792869Y576380D01*
X792824Y576489D01*
X792810Y576507D01*
X792802Y576524D01*
X792758Y576574D01*
X792677Y576677D01*
X775677Y593677D01*
X775583Y593748D01*
X775492Y593822D01*
X775473Y593830D01*
X775456Y593843D01*
X775345Y593883D01*
X775237Y593928D01*
X775214Y593931D01*
X775197Y593938D01*
X775129Y593942D01*
X775000Y593958D01*
X24000Y593958D01*
X23883Y593941D01*
X23766Y593929D01*
X23747Y593921D01*
X23727Y593918D01*
X23620Y593869D01*
X23511Y593824D01*
X23493Y593810D01*
X23476Y593802D01*
X23426Y593758D01*
X23323Y593677D01*
X7323Y577677D01*
X7305Y577654D01*
X7293Y577643D01*
X7272Y577610D01*
X7252Y577583D01*
X7178Y577492D01*
X7170Y577473D01*
X7157Y577456D01*
X7117Y577345D01*
X7072Y577237D01*
X7069Y577214D01*
X7062Y577197D01*
X7058Y577129D01*
X7042Y577000D01*
X7042Y31000D01*
X7059Y30883D01*
X7071Y30766D01*
X7079Y30747D01*
X7082Y30727D01*
X7131Y30620D01*
X7176Y30511D01*
X7190Y30493D01*
X7198Y30476D01*
X7242Y30426D01*
X7323Y30323D01*
X32323Y5323D01*
X32417Y5252D01*
X32509Y5178D01*
X32527Y5170D01*
X32544Y5157D01*
X32655Y5117D01*
X32763Y5072D01*
X32786Y5069D01*
X32803Y5062D01*
X32871Y5058D01*
X33000Y5042D01*
X769000Y5042D01*
X769117Y5059D01*
G37*
%LPC*%
G36*
X96008Y246081D02*
X96008Y246081D01*
X92142Y247683D01*
X89183Y250642D01*
X87581Y254508D01*
X87581Y258692D01*
X89183Y262558D01*
X92142Y265517D01*
X96008Y267119D01*
X100192Y267119D01*
X104058Y265517D01*
X107017Y262558D01*
X108619Y258692D01*
X108619Y254508D01*
X107017Y250642D01*
X104058Y247683D01*
X100192Y246081D01*
X96008Y246081D01*
G37*
%LPD*%
%LPC*%
G36*
X121408Y246081D02*
X121408Y246081D01*
X117542Y247683D01*
X114583Y250642D01*
X112981Y254508D01*
X112981Y258692D01*
X114583Y262558D01*
X117542Y265517D01*
X121408Y267119D01*
X125592Y267119D01*
X129458Y265517D01*
X132417Y262558D01*
X134019Y258692D01*
X134019Y254508D01*
X132417Y250642D01*
X129458Y247683D01*
X125592Y246081D01*
X121408Y246081D01*
G37*
%LPD*%
%LPC*%
G36*
X146808Y246081D02*
X146808Y246081D01*
X142942Y247683D01*
X139983Y250642D01*
X138381Y254508D01*
X138381Y258692D01*
X139983Y262558D01*
X142942Y265517D01*
X146808Y267119D01*
X150992Y267119D01*
X154858Y265517D01*
X157817Y262558D01*
X159419Y258692D01*
X159419Y254508D01*
X157817Y250642D01*
X154858Y247683D01*
X150992Y246081D01*
X146808Y246081D01*
G37*
%LPD*%
%LPC*%
G36*
X470746Y561181D02*
X470746Y561181D01*
X467505Y562524D01*
X465024Y565005D01*
X463681Y568246D01*
X463681Y571754D01*
X465024Y574995D01*
X467505Y577476D01*
X470746Y578819D01*
X474254Y578819D01*
X477495Y577476D01*
X479976Y574995D01*
X481319Y571754D01*
X481319Y568246D01*
X479976Y565005D01*
X477495Y562524D01*
X474254Y561181D01*
X470746Y561181D01*
G37*
%LPD*%
%LPC*%
G36*
X325746Y561181D02*
X325746Y561181D01*
X322505Y562524D01*
X320024Y565005D01*
X318681Y568246D01*
X318681Y571754D01*
X320024Y574995D01*
X322505Y577476D01*
X325746Y578819D01*
X329254Y578819D01*
X332495Y577476D01*
X334976Y574995D01*
X336319Y571754D01*
X336319Y568246D01*
X334976Y565005D01*
X332495Y562524D01*
X329254Y561181D01*
X325746Y561181D01*
G37*
%LPD*%
%LPC*%
G36*
X575746Y80781D02*
X575746Y80781D01*
X572505Y82124D01*
X570024Y84605D01*
X568681Y87846D01*
X568681Y91354D01*
X570024Y94595D01*
X572505Y97076D01*
X575746Y98419D01*
X579254Y98419D01*
X582495Y97076D01*
X584976Y94595D01*
X586319Y91354D01*
X586319Y87846D01*
X584976Y84605D01*
X582495Y82124D01*
X579254Y80781D01*
X575746Y80781D01*
G37*
%LPD*%
%LPC*%
G36*
X470746Y80781D02*
X470746Y80781D01*
X467505Y82124D01*
X465024Y84605D01*
X463681Y87846D01*
X463681Y91354D01*
X465024Y94595D01*
X467505Y97076D01*
X470746Y98419D01*
X474254Y98419D01*
X477495Y97076D01*
X479976Y94595D01*
X481319Y91354D01*
X481319Y87846D01*
X479976Y84605D01*
X477495Y82124D01*
X474254Y80781D01*
X470746Y80781D01*
G37*
%LPD*%
%LPC*%
G36*
X470746Y21181D02*
X470746Y21181D01*
X467505Y22524D01*
X465024Y25005D01*
X463681Y28246D01*
X463681Y31754D01*
X465024Y34995D01*
X467505Y37476D01*
X470746Y38819D01*
X474254Y38819D01*
X477495Y37476D01*
X479976Y34995D01*
X481319Y31754D01*
X481319Y28246D01*
X479976Y25005D01*
X477495Y22524D01*
X474254Y21181D01*
X470746Y21181D01*
G37*
%LPD*%
%LPC*%
G36*
X325746Y21181D02*
X325746Y21181D01*
X322505Y22524D01*
X320024Y25005D01*
X318681Y28246D01*
X318681Y31754D01*
X320024Y34995D01*
X322505Y37476D01*
X325746Y38819D01*
X329254Y38819D01*
X332495Y37476D01*
X334976Y34995D01*
X336319Y31754D01*
X336319Y28246D01*
X334976Y25005D01*
X332495Y22524D01*
X329254Y21181D01*
X325746Y21181D01*
G37*
%LPD*%
%LPC*%
G36*
X325746Y80781D02*
X325746Y80781D01*
X322505Y82124D01*
X320024Y84605D01*
X318681Y87846D01*
X318681Y91354D01*
X320024Y94595D01*
X322505Y97076D01*
X325746Y98419D01*
X329254Y98419D01*
X332495Y97076D01*
X334976Y94595D01*
X336319Y91354D01*
X336319Y87846D01*
X334976Y84605D01*
X332495Y82124D01*
X329254Y80781D01*
X325746Y80781D01*
G37*
%LPD*%
%LPC*%
G36*
X220746Y80781D02*
X220746Y80781D01*
X217505Y82124D01*
X215024Y84605D01*
X213681Y87846D01*
X213681Y91354D01*
X215024Y94595D01*
X217505Y97076D01*
X220746Y98419D01*
X224254Y98419D01*
X227495Y97076D01*
X229976Y94595D01*
X231319Y91354D01*
X231319Y87846D01*
X229976Y84605D01*
X227495Y82124D01*
X224254Y80781D01*
X220746Y80781D01*
G37*
%LPD*%
%LPC*%
G36*
X75746Y80781D02*
X75746Y80781D01*
X72505Y82124D01*
X70024Y84605D01*
X68681Y87846D01*
X68681Y91354D01*
X70024Y94595D01*
X72505Y97076D01*
X75746Y98419D01*
X79254Y98419D01*
X82495Y97076D01*
X84976Y94595D01*
X86319Y91354D01*
X86319Y87846D01*
X84976Y84605D01*
X82495Y82124D01*
X79254Y80781D01*
X75746Y80781D01*
G37*
%LPD*%
%LPC*%
G36*
X720746Y21181D02*
X720746Y21181D01*
X717505Y22524D01*
X715024Y25005D01*
X713681Y28246D01*
X713681Y31754D01*
X715024Y34995D01*
X717505Y37476D01*
X720746Y38819D01*
X724254Y38819D01*
X727495Y37476D01*
X729976Y34995D01*
X731319Y31754D01*
X731319Y28246D01*
X729976Y25005D01*
X727495Y22524D01*
X724254Y21181D01*
X720746Y21181D01*
G37*
%LPD*%
%LPC*%
G36*
X470746Y501581D02*
X470746Y501581D01*
X467505Y502924D01*
X465024Y505405D01*
X463681Y508646D01*
X463681Y512154D01*
X465024Y515395D01*
X467505Y517876D01*
X470746Y519219D01*
X474254Y519219D01*
X477495Y517876D01*
X479976Y515395D01*
X481319Y512154D01*
X481319Y508646D01*
X479976Y505405D01*
X477495Y502924D01*
X474254Y501581D01*
X470746Y501581D01*
G37*
%LPD*%
%LPC*%
G36*
X325746Y501581D02*
X325746Y501581D01*
X322505Y502924D01*
X320024Y505405D01*
X318681Y508646D01*
X318681Y512154D01*
X320024Y515395D01*
X322505Y517876D01*
X325746Y519219D01*
X329254Y519219D01*
X332495Y517876D01*
X334976Y515395D01*
X336319Y512154D01*
X336319Y508646D01*
X334976Y505405D01*
X332495Y502924D01*
X329254Y501581D01*
X325746Y501581D01*
G37*
%LPD*%
%LPC*%
G36*
X75746Y21181D02*
X75746Y21181D01*
X72505Y22524D01*
X70024Y25005D01*
X68681Y28246D01*
X68681Y31754D01*
X70024Y34995D01*
X72505Y37476D01*
X75746Y38819D01*
X79254Y38819D01*
X82495Y37476D01*
X84976Y34995D01*
X86319Y31754D01*
X86319Y28246D01*
X84976Y25005D01*
X82495Y22524D01*
X79254Y21181D01*
X75746Y21181D01*
G37*
%LPD*%
%LPC*%
G36*
X220746Y21181D02*
X220746Y21181D01*
X217505Y22524D01*
X215024Y25005D01*
X213681Y28246D01*
X213681Y31754D01*
X215024Y34995D01*
X217505Y37476D01*
X220746Y38819D01*
X224254Y38819D01*
X227495Y37476D01*
X229976Y34995D01*
X231319Y31754D01*
X231319Y28246D01*
X229976Y25005D01*
X227495Y22524D01*
X224254Y21181D01*
X220746Y21181D01*
G37*
%LPD*%
%LPC*%
G36*
X575746Y21181D02*
X575746Y21181D01*
X572505Y22524D01*
X570024Y25005D01*
X568681Y28246D01*
X568681Y31754D01*
X570024Y34995D01*
X572505Y37476D01*
X575746Y38819D01*
X579254Y38819D01*
X582495Y37476D01*
X584976Y34995D01*
X586319Y31754D01*
X586319Y28246D01*
X584976Y25005D01*
X582495Y22524D01*
X579254Y21181D01*
X575746Y21181D01*
G37*
%LPD*%
%LPC*%
G36*
X720746Y80781D02*
X720746Y80781D01*
X717505Y82124D01*
X715024Y84605D01*
X713681Y87846D01*
X713681Y91354D01*
X715024Y94595D01*
X717505Y97076D01*
X720746Y98419D01*
X724254Y98419D01*
X727495Y97076D01*
X729976Y94595D01*
X731319Y91354D01*
X731319Y87846D01*
X729976Y84605D01*
X727495Y82124D01*
X724254Y80781D01*
X720746Y80781D01*
G37*
%LPD*%
%LPC*%
G36*
X657933Y299417D02*
X657933Y299417D01*
X654852Y300693D01*
X652493Y303052D01*
X651217Y306133D01*
X651217Y309467D01*
X652493Y312548D01*
X654852Y314907D01*
X657933Y316183D01*
X661267Y316183D01*
X664348Y314907D01*
X666707Y312548D01*
X667983Y309467D01*
X667983Y306133D01*
X666707Y303052D01*
X664348Y300693D01*
X661267Y299417D01*
X657933Y299417D01*
G37*
%LPD*%
%LPC*%
G36*
X607133Y375617D02*
X607133Y375617D01*
X604052Y376893D01*
X601693Y379252D01*
X600417Y382333D01*
X600417Y385667D01*
X601693Y388748D01*
X604052Y391107D01*
X607133Y392383D01*
X610467Y392383D01*
X613548Y391107D01*
X615907Y388748D01*
X617183Y385667D01*
X617183Y382333D01*
X615907Y379252D01*
X613548Y376893D01*
X610467Y375617D01*
X607133Y375617D01*
G37*
%LPD*%
%LPC*%
G36*
X683333Y375617D02*
X683333Y375617D01*
X680252Y376893D01*
X677893Y379252D01*
X676617Y382333D01*
X676617Y385667D01*
X677893Y388748D01*
X680252Y391107D01*
X683333Y392383D01*
X686667Y392383D01*
X689748Y391107D01*
X692107Y388748D01*
X693383Y385667D01*
X693383Y382333D01*
X692107Y379252D01*
X689748Y376893D01*
X686667Y375617D01*
X683333Y375617D01*
G37*
%LPD*%
%LPC*%
G36*
X657933Y375617D02*
X657933Y375617D01*
X654852Y376893D01*
X652493Y379252D01*
X651217Y382333D01*
X651217Y385667D01*
X652493Y388748D01*
X654852Y391107D01*
X657933Y392383D01*
X661267Y392383D01*
X664348Y391107D01*
X666707Y388748D01*
X667983Y385667D01*
X667983Y382333D01*
X666707Y379252D01*
X664348Y376893D01*
X661267Y375617D01*
X657933Y375617D01*
G37*
%LPD*%
%LPC*%
G36*
X632533Y375617D02*
X632533Y375617D01*
X629452Y376893D01*
X627093Y379252D01*
X625817Y382333D01*
X625817Y385667D01*
X627093Y388748D01*
X629452Y391107D01*
X632533Y392383D01*
X635867Y392383D01*
X638948Y391107D01*
X641307Y388748D01*
X642583Y385667D01*
X642583Y382333D01*
X641307Y379252D01*
X638948Y376893D01*
X635867Y375617D01*
X632533Y375617D01*
G37*
%LPD*%
%LPC*%
G36*
X683333Y299417D02*
X683333Y299417D01*
X680252Y300693D01*
X677893Y303052D01*
X676617Y306133D01*
X676617Y309467D01*
X677893Y312548D01*
X680252Y314907D01*
X683333Y316183D01*
X686667Y316183D01*
X689748Y314907D01*
X692107Y312548D01*
X693383Y309467D01*
X693383Y306133D01*
X692107Y303052D01*
X689748Y300693D01*
X686667Y299417D01*
X683333Y299417D01*
G37*
%LPD*%
%LPC*%
G36*
X632533Y299417D02*
X632533Y299417D01*
X629452Y300693D01*
X627093Y303052D01*
X625817Y306133D01*
X625817Y309467D01*
X627093Y312548D01*
X629452Y314907D01*
X632533Y316183D01*
X635867Y316183D01*
X638948Y314907D01*
X641307Y312548D01*
X642583Y309467D01*
X642583Y306133D01*
X641307Y303052D01*
X638948Y300693D01*
X635867Y299417D01*
X632533Y299417D01*
G37*
%LPD*%
%LPC*%
G36*
X633894Y66439D02*
X633894Y66439D01*
X631850Y67286D01*
X630286Y68850D01*
X629439Y70894D01*
X629439Y73106D01*
X630286Y75150D01*
X631850Y76714D01*
X633894Y77561D01*
X636106Y77561D01*
X638150Y76714D01*
X639714Y75150D01*
X640115Y74183D01*
X640135Y74149D01*
X640148Y74111D01*
X640205Y74031D01*
X640256Y73945D01*
X640285Y73918D01*
X640308Y73886D01*
X640386Y73826D01*
X640459Y73758D01*
X640495Y73741D01*
X640526Y73717D01*
X640618Y73680D01*
X640707Y73637D01*
X640746Y73630D01*
X640783Y73616D01*
X640882Y73608D01*
X640980Y73591D01*
X641019Y73596D01*
X641058Y73593D01*
X641155Y73613D01*
X641254Y73625D01*
X641290Y73641D01*
X641329Y73649D01*
X641416Y73696D01*
X641507Y73736D01*
X641537Y73762D01*
X641572Y73780D01*
X641642Y73850D01*
X641718Y73914D01*
X641739Y73947D01*
X641767Y73975D01*
X641832Y74089D01*
X641869Y74145D01*
X641874Y74163D01*
X641885Y74183D01*
X642286Y75150D01*
X643850Y76714D01*
X645894Y77561D01*
X648106Y77561D01*
X650150Y76714D01*
X651714Y75150D01*
X652561Y73106D01*
X652561Y70894D01*
X651714Y68850D01*
X650150Y67286D01*
X648106Y66439D01*
X645894Y66439D01*
X643850Y67286D01*
X642286Y68850D01*
X641885Y69817D01*
X641865Y69851D01*
X641852Y69889D01*
X641794Y69970D01*
X641744Y70055D01*
X641715Y70081D01*
X641692Y70114D01*
X641613Y70175D01*
X641541Y70242D01*
X641505Y70259D01*
X641474Y70283D01*
X641382Y70319D01*
X641293Y70363D01*
X641254Y70370D01*
X641217Y70384D01*
X641118Y70392D01*
X641020Y70409D01*
X640981Y70404D01*
X640942Y70407D01*
X640845Y70387D01*
X640746Y70375D01*
X640710Y70359D01*
X640671Y70351D01*
X640584Y70304D01*
X640493Y70264D01*
X640463Y70238D01*
X640428Y70220D01*
X640358Y70150D01*
X640283Y70086D01*
X640261Y70053D01*
X640233Y70025D01*
X640168Y69911D01*
X640131Y69855D01*
X640126Y69837D01*
X640115Y69817D01*
X639714Y68850D01*
X638150Y67286D01*
X636106Y66439D01*
X633894Y66439D01*
G37*
%LPD*%
%LPC*%
G36*
X417682Y182651D02*
X417682Y182651D01*
X415639Y183497D01*
X414074Y185062D01*
X413228Y187105D01*
X413228Y189318D01*
X414074Y191361D01*
X415639Y192926D01*
X417697Y193778D01*
X417807Y193844D01*
X417918Y193907D01*
X417925Y193914D01*
X417934Y193920D01*
X418021Y194014D01*
X418109Y194106D01*
X418114Y194115D01*
X418121Y194123D01*
X418177Y194238D01*
X418236Y194351D01*
X418238Y194361D01*
X418242Y194371D01*
X418263Y194497D01*
X418287Y194623D01*
X418286Y194633D01*
X418288Y194643D01*
X418272Y194771D01*
X418259Y194897D01*
X418255Y194907D01*
X418254Y194917D01*
X418202Y195035D01*
X418154Y195153D01*
X418147Y195161D01*
X418143Y195170D01*
X418107Y195213D01*
X418007Y195341D01*
X417469Y195879D01*
X416622Y197923D01*
X416622Y200135D01*
X417469Y202179D01*
X419033Y203743D01*
X421077Y204590D01*
X423289Y204590D01*
X425333Y203743D01*
X426897Y202179D01*
X427744Y200135D01*
X427744Y197923D01*
X426897Y195879D01*
X425333Y194315D01*
X423275Y193463D01*
X423165Y193397D01*
X423054Y193334D01*
X423047Y193327D01*
X423038Y193321D01*
X422950Y193227D01*
X422862Y193135D01*
X422858Y193126D01*
X422851Y193118D01*
X422794Y193003D01*
X422736Y192889D01*
X422734Y192879D01*
X422729Y192870D01*
X422708Y192744D01*
X422684Y192618D01*
X422685Y192608D01*
X422684Y192598D01*
X422700Y192470D01*
X422713Y192343D01*
X422716Y192334D01*
X422718Y192324D01*
X422769Y192206D01*
X422818Y192088D01*
X422825Y192079D01*
X422828Y192071D01*
X422865Y192028D01*
X422964Y191900D01*
X423503Y191361D01*
X424349Y189318D01*
X424349Y187105D01*
X423503Y185062D01*
X421938Y183497D01*
X419895Y182651D01*
X417682Y182651D01*
G37*
%LPD*%
%LPC*%
G36*
X252894Y378439D02*
X252894Y378439D01*
X250850Y379286D01*
X249286Y380850D01*
X248439Y382894D01*
X248439Y385106D01*
X249286Y387150D01*
X250850Y388714D01*
X252894Y389561D01*
X255106Y389561D01*
X256115Y389143D01*
X256238Y389112D01*
X256362Y389078D01*
X256372Y389078D01*
X256382Y389075D01*
X256510Y389080D01*
X256638Y389083D01*
X256648Y389086D01*
X256658Y389087D01*
X256780Y389128D01*
X256901Y389167D01*
X256910Y389173D01*
X256919Y389176D01*
X257023Y389250D01*
X257129Y389323D01*
X257136Y389331D01*
X257144Y389336D01*
X257223Y389437D01*
X257304Y389537D01*
X257308Y389546D01*
X257314Y389554D01*
X257361Y389674D01*
X257410Y389792D01*
X257411Y389803D01*
X257414Y389811D01*
X257419Y389868D01*
X257439Y390028D01*
X257439Y391908D01*
X258286Y393952D01*
X259850Y395516D01*
X261894Y396363D01*
X264106Y396363D01*
X266150Y395516D01*
X267714Y393952D01*
X268561Y391908D01*
X268561Y389696D01*
X267714Y387652D01*
X266150Y386088D01*
X264106Y385241D01*
X261894Y385241D01*
X260885Y385659D01*
X260762Y385690D01*
X260638Y385724D01*
X260628Y385724D01*
X260618Y385727D01*
X260490Y385722D01*
X260362Y385719D01*
X260352Y385716D01*
X260342Y385715D01*
X260220Y385674D01*
X260099Y385635D01*
X260090Y385629D01*
X260081Y385626D01*
X259977Y385552D01*
X259871Y385479D01*
X259864Y385471D01*
X259856Y385466D01*
X259777Y385365D01*
X259696Y385265D01*
X259692Y385256D01*
X259686Y385248D01*
X259639Y385128D01*
X259590Y385010D01*
X259589Y384999D01*
X259586Y384991D01*
X259581Y384934D01*
X259561Y384774D01*
X259561Y382894D01*
X258714Y380850D01*
X257150Y379286D01*
X255106Y378439D01*
X252894Y378439D01*
G37*
%LPD*%
%LPC*%
G36*
X393894Y73439D02*
X393894Y73439D01*
X391850Y74286D01*
X390286Y75850D01*
X390228Y75989D01*
X390163Y76099D01*
X390100Y76210D01*
X390092Y76217D01*
X390087Y76226D01*
X389993Y76313D01*
X389901Y76401D01*
X389892Y76406D01*
X389884Y76413D01*
X389768Y76469D01*
X389655Y76528D01*
X389645Y76530D01*
X389636Y76534D01*
X389509Y76555D01*
X389384Y76579D01*
X389374Y76578D01*
X389364Y76580D01*
X389237Y76564D01*
X389109Y76551D01*
X389100Y76547D01*
X389090Y76546D01*
X388972Y76495D01*
X388854Y76446D01*
X388845Y76439D01*
X388837Y76435D01*
X388793Y76399D01*
X388666Y76299D01*
X387652Y75286D01*
X385608Y74439D01*
X383396Y74439D01*
X381352Y75286D01*
X379788Y76850D01*
X378942Y78894D01*
X378942Y81106D01*
X379788Y83150D01*
X381352Y84714D01*
X383396Y85561D01*
X385608Y85561D01*
X387652Y84714D01*
X389216Y83150D01*
X389274Y83011D01*
X389339Y82901D01*
X389403Y82790D01*
X389410Y82783D01*
X389415Y82774D01*
X389509Y82688D01*
X389602Y82599D01*
X389611Y82594D01*
X389618Y82587D01*
X389733Y82531D01*
X389847Y82472D01*
X389857Y82470D01*
X389866Y82466D01*
X389993Y82445D01*
X390118Y82421D01*
X390128Y82422D01*
X390139Y82420D01*
X390267Y82436D01*
X390393Y82449D01*
X390402Y82453D01*
X390413Y82454D01*
X390530Y82506D01*
X390648Y82554D01*
X390657Y82561D01*
X390666Y82565D01*
X390708Y82601D01*
X390836Y82701D01*
X391850Y83714D01*
X393894Y84561D01*
X396106Y84561D01*
X398150Y83714D01*
X399714Y82150D01*
X400561Y80106D01*
X400561Y77894D01*
X399714Y75850D01*
X398150Y74286D01*
X396106Y73439D01*
X393894Y73439D01*
G37*
%LPD*%
%LPC*%
G36*
X396105Y125228D02*
X396105Y125228D01*
X394062Y126074D01*
X392497Y127639D01*
X392169Y128431D01*
X392104Y128541D01*
X392040Y128653D01*
X392033Y128660D01*
X392028Y128669D01*
X391934Y128755D01*
X391841Y128844D01*
X391832Y128849D01*
X391825Y128856D01*
X391710Y128912D01*
X391596Y128971D01*
X391586Y128973D01*
X391576Y128977D01*
X391450Y128998D01*
X391324Y129022D01*
X391314Y129021D01*
X391304Y129023D01*
X391177Y129007D01*
X391050Y128994D01*
X391040Y128990D01*
X391030Y128989D01*
X390913Y128937D01*
X390795Y128889D01*
X390786Y128882D01*
X390777Y128878D01*
X390734Y128842D01*
X390606Y128742D01*
X390150Y128286D01*
X388106Y127439D01*
X385894Y127439D01*
X383850Y128286D01*
X382286Y129850D01*
X381439Y131894D01*
X381439Y134106D01*
X382286Y136150D01*
X383850Y137714D01*
X385894Y138561D01*
X388106Y138561D01*
X390150Y137714D01*
X391714Y136150D01*
X392043Y135357D01*
X392108Y135247D01*
X392171Y135136D01*
X392179Y135129D01*
X392184Y135120D01*
X392279Y135033D01*
X392370Y134944D01*
X392379Y134940D01*
X392387Y134933D01*
X392502Y134876D01*
X392616Y134818D01*
X392626Y134816D01*
X392635Y134811D01*
X392761Y134790D01*
X392887Y134766D01*
X392897Y134768D01*
X392907Y134766D01*
X393034Y134782D01*
X393162Y134795D01*
X393171Y134799D01*
X393181Y134800D01*
X393299Y134851D01*
X393417Y134900D01*
X393426Y134907D01*
X393434Y134911D01*
X393477Y134947D01*
X393605Y135046D01*
X394062Y135503D01*
X396105Y136349D01*
X398318Y136349D01*
X400361Y135503D01*
X401926Y133938D01*
X402772Y131895D01*
X402772Y129682D01*
X401926Y127639D01*
X400361Y126074D01*
X398318Y125228D01*
X396105Y125228D01*
G37*
%LPD*%
%LPC*%
G36*
X403894Y515439D02*
X403894Y515439D01*
X401850Y516286D01*
X400286Y517850D01*
X399439Y519894D01*
X399439Y522106D01*
X400286Y524150D01*
X401850Y525714D01*
X403894Y526561D01*
X406106Y526561D01*
X408150Y525714D01*
X409323Y524542D01*
X409386Y524494D01*
X409443Y524440D01*
X409496Y524412D01*
X409544Y524376D01*
X409618Y524349D01*
X409688Y524313D01*
X409747Y524302D01*
X409803Y524281D01*
X409882Y524276D01*
X409959Y524262D01*
X410019Y524268D01*
X410079Y524264D01*
X410155Y524282D01*
X410234Y524290D01*
X410289Y524313D01*
X410348Y524326D01*
X410416Y524365D01*
X410489Y524395D01*
X410543Y524437D01*
X410588Y524463D01*
X410624Y524500D01*
X410677Y524542D01*
X411850Y525714D01*
X413894Y526561D01*
X416106Y526561D01*
X418150Y525714D01*
X419714Y524150D01*
X420561Y522106D01*
X420561Y519894D01*
X419714Y517850D01*
X418150Y516286D01*
X416106Y515439D01*
X413894Y515439D01*
X411850Y516286D01*
X410677Y517458D01*
X410614Y517506D01*
X410557Y517560D01*
X410504Y517588D01*
X410456Y517624D01*
X410382Y517651D01*
X410312Y517687D01*
X410253Y517698D01*
X410197Y517719D01*
X410118Y517724D01*
X410041Y517738D01*
X409981Y517732D01*
X409921Y517736D01*
X409844Y517718D01*
X409766Y517710D01*
X409711Y517687D01*
X409652Y517674D01*
X409584Y517635D01*
X409511Y517605D01*
X409457Y517563D01*
X409412Y517537D01*
X409376Y517500D01*
X409323Y517458D01*
X408150Y516286D01*
X406106Y515439D01*
X403894Y515439D01*
G37*
%LPD*%
%LPC*%
G36*
X215917Y506117D02*
X215917Y506117D01*
X215917Y521075D01*
X217320Y520890D01*
X219470Y520314D01*
X221526Y519462D01*
X223454Y518349D01*
X225220Y516994D01*
X226794Y515420D01*
X228149Y513654D01*
X229262Y511726D01*
X230114Y509670D01*
X230690Y507520D01*
X230875Y506117D01*
X215917Y506117D01*
G37*
%LPD*%
%LPC*%
G36*
X87917Y506117D02*
X87917Y506117D01*
X87917Y521075D01*
X89320Y520890D01*
X91470Y520314D01*
X93526Y519462D01*
X95454Y518349D01*
X97220Y516994D01*
X98794Y515420D01*
X100149Y513654D01*
X101262Y511726D01*
X102114Y509670D01*
X102690Y507520D01*
X102875Y506117D01*
X87917Y506117D01*
G37*
%LPD*%
%LPC*%
G36*
X69125Y506117D02*
X69125Y506117D01*
X69310Y507520D01*
X69886Y509670D01*
X70738Y511726D01*
X71851Y513654D01*
X73206Y515420D01*
X74780Y516994D01*
X76546Y518349D01*
X78474Y519462D01*
X80530Y520314D01*
X82680Y520890D01*
X84083Y521075D01*
X84083Y506117D01*
X69125Y506117D01*
G37*
%LPD*%
%LPC*%
G36*
X87917Y502283D02*
X87917Y502283D01*
X102875Y502283D01*
X102690Y500880D01*
X102114Y498730D01*
X101262Y496674D01*
X100149Y494746D01*
X98794Y492980D01*
X97220Y491406D01*
X95454Y490051D01*
X93526Y488938D01*
X91470Y488086D01*
X89320Y487510D01*
X87917Y487325D01*
X87917Y502283D01*
G37*
%LPD*%
%LPC*%
G36*
X215917Y502283D02*
X215917Y502283D01*
X230875Y502283D01*
X230690Y500880D01*
X230114Y498730D01*
X229262Y496674D01*
X228149Y494746D01*
X226794Y492980D01*
X225220Y491406D01*
X223454Y490051D01*
X221526Y488938D01*
X219470Y488086D01*
X217320Y487510D01*
X215917Y487325D01*
X215917Y502283D01*
G37*
%LPD*%
%LPC*%
G36*
X197125Y506117D02*
X197125Y506117D01*
X197310Y507520D01*
X197886Y509670D01*
X198738Y511726D01*
X199851Y513654D01*
X201206Y515420D01*
X202780Y516994D01*
X204546Y518349D01*
X206474Y519462D01*
X208530Y520314D01*
X210680Y520890D01*
X212083Y521075D01*
X212083Y506117D01*
X197125Y506117D01*
G37*
%LPD*%
%LPC*%
G36*
X210680Y487510D02*
X210680Y487510D01*
X208530Y488086D01*
X206474Y488938D01*
X204546Y490051D01*
X202780Y491406D01*
X201206Y492980D01*
X199851Y494746D01*
X198738Y496674D01*
X197886Y498730D01*
X197310Y500880D01*
X197125Y502283D01*
X212083Y502283D01*
X212083Y487325D01*
X210680Y487510D01*
G37*
%LPD*%
%LPC*%
G36*
X82680Y487510D02*
X82680Y487510D01*
X80530Y488086D01*
X78474Y488938D01*
X76546Y490051D01*
X74780Y491406D01*
X73206Y492980D01*
X71851Y494746D01*
X70738Y496674D01*
X69886Y498730D01*
X69310Y500880D01*
X69125Y502283D01*
X84083Y502283D01*
X84083Y487325D01*
X82680Y487510D01*
G37*
%LPD*%
%LPC*%
G36*
X133894Y67439D02*
X133894Y67439D01*
X131850Y68286D01*
X130286Y69850D01*
X129439Y71894D01*
X129439Y74106D01*
X130286Y76150D01*
X131850Y77714D01*
X133894Y78561D01*
X136106Y78561D01*
X138150Y77714D01*
X139714Y76150D01*
X140561Y74106D01*
X140561Y71894D01*
X139951Y70422D01*
X139929Y70336D01*
X139898Y70252D01*
X139895Y70202D01*
X139883Y70154D01*
X139887Y70065D01*
X139881Y69976D01*
X139892Y69928D01*
X139894Y69878D01*
X139900Y69862D01*
X139884Y69855D01*
X139835Y69845D01*
X139757Y69803D01*
X139675Y69769D01*
X139631Y69734D01*
X139592Y69714D01*
X139551Y69672D01*
X139486Y69622D01*
X138150Y68286D01*
X136106Y67439D01*
X133894Y67439D01*
G37*
%LPD*%
%LPC*%
G36*
X144894Y60439D02*
X144894Y60439D01*
X142850Y61286D01*
X141286Y62850D01*
X140439Y64894D01*
X140439Y67106D01*
X141049Y68578D01*
X141071Y68664D01*
X141102Y68748D01*
X141105Y68798D01*
X141117Y68846D01*
X141113Y68935D01*
X141119Y69024D01*
X141108Y69072D01*
X141106Y69122D01*
X141100Y69138D01*
X141116Y69145D01*
X141165Y69155D01*
X141243Y69197D01*
X141325Y69231D01*
X141369Y69266D01*
X141408Y69286D01*
X141449Y69328D01*
X141514Y69378D01*
X142850Y70714D01*
X144894Y71561D01*
X147106Y71561D01*
X149150Y70714D01*
X150714Y69150D01*
X151561Y67106D01*
X151561Y64894D01*
X150714Y62850D01*
X149150Y61286D01*
X147106Y60439D01*
X144894Y60439D01*
G37*
%LPD*%
%LPC*%
G36*
X688894Y49439D02*
X688894Y49439D01*
X686850Y50286D01*
X685286Y51850D01*
X684439Y53894D01*
X684439Y56106D01*
X685286Y58150D01*
X686850Y59714D01*
X688894Y60561D01*
X691106Y60561D01*
X693150Y59714D01*
X694714Y58150D01*
X695561Y56106D01*
X695561Y53894D01*
X694714Y51850D01*
X693150Y50286D01*
X691106Y49439D01*
X688894Y49439D01*
G37*
%LPD*%
%LPC*%
G36*
X578894Y351439D02*
X578894Y351439D01*
X576850Y352286D01*
X575286Y353850D01*
X574439Y355894D01*
X574439Y358106D01*
X575286Y360150D01*
X576850Y361714D01*
X578894Y362561D01*
X581106Y362561D01*
X583150Y361714D01*
X584714Y360150D01*
X585561Y358106D01*
X585561Y355894D01*
X584714Y353850D01*
X583150Y352286D01*
X581106Y351439D01*
X578894Y351439D01*
G37*
%LPD*%
%LPC*%
G36*
X673894Y55439D02*
X673894Y55439D01*
X671850Y56286D01*
X670286Y57850D01*
X669439Y59894D01*
X669439Y62106D01*
X670286Y64150D01*
X671850Y65714D01*
X673894Y66561D01*
X676106Y66561D01*
X678150Y65714D01*
X679714Y64150D01*
X680561Y62106D01*
X680561Y59894D01*
X679714Y57850D01*
X678150Y56286D01*
X676106Y55439D01*
X673894Y55439D01*
G37*
%LPD*%
%LPC*%
G36*
X443894Y284439D02*
X443894Y284439D01*
X441850Y285286D01*
X440286Y286850D01*
X439439Y288894D01*
X439439Y291106D01*
X440286Y293150D01*
X441850Y294714D01*
X443894Y295561D01*
X446106Y295561D01*
X448150Y294714D01*
X449714Y293150D01*
X450561Y291106D01*
X450561Y288894D01*
X449714Y286850D01*
X448150Y285286D01*
X446106Y284439D01*
X443894Y284439D01*
G37*
%LPD*%
%LPC*%
G36*
X658894Y61439D02*
X658894Y61439D01*
X656850Y62286D01*
X655286Y63850D01*
X654439Y65894D01*
X654439Y68106D01*
X655286Y70150D01*
X656850Y71714D01*
X658894Y72561D01*
X661106Y72561D01*
X663150Y71714D01*
X664714Y70150D01*
X665561Y68106D01*
X665561Y65894D01*
X664714Y63850D01*
X663150Y62286D01*
X661106Y61439D01*
X658894Y61439D01*
G37*
%LPD*%
%LPC*%
G36*
X188894Y45799D02*
X188894Y45799D01*
X186850Y46646D01*
X185286Y48210D01*
X184439Y50254D01*
X184439Y52466D01*
X185286Y54510D01*
X186850Y56074D01*
X188894Y56920D01*
X191106Y56920D01*
X193150Y56074D01*
X194714Y54510D01*
X195561Y52466D01*
X195561Y50254D01*
X194714Y48210D01*
X193150Y46646D01*
X191106Y45799D01*
X188894Y45799D01*
G37*
%LPD*%
%LPC*%
G36*
X158894Y426439D02*
X158894Y426439D01*
X156850Y427286D01*
X155286Y428850D01*
X154439Y430894D01*
X154439Y433106D01*
X155286Y435150D01*
X156850Y436714D01*
X158894Y437561D01*
X161106Y437561D01*
X163150Y436714D01*
X164714Y435150D01*
X165561Y433106D01*
X165561Y430894D01*
X164714Y428850D01*
X163150Y427286D01*
X161106Y426439D01*
X158894Y426439D01*
G37*
%LPD*%
%LPC*%
G36*
X29894Y543439D02*
X29894Y543439D01*
X27850Y544286D01*
X26286Y545850D01*
X25439Y547894D01*
X25439Y550106D01*
X26286Y552150D01*
X27850Y553714D01*
X29894Y554561D01*
X32106Y554561D01*
X34150Y553714D01*
X35714Y552150D01*
X36561Y550106D01*
X36561Y547894D01*
X35714Y545850D01*
X34150Y544286D01*
X32106Y543439D01*
X29894Y543439D01*
G37*
%LPD*%
%LPC*%
G36*
X388894Y515439D02*
X388894Y515439D01*
X386850Y516286D01*
X385286Y517850D01*
X384439Y519894D01*
X384439Y522106D01*
X385286Y524150D01*
X386850Y525714D01*
X388894Y526561D01*
X391106Y526561D01*
X393150Y525714D01*
X394714Y524150D01*
X395561Y522106D01*
X395561Y519894D01*
X394714Y517850D01*
X393150Y516286D01*
X391106Y515439D01*
X388894Y515439D01*
G37*
%LPD*%
%LPC*%
G36*
X373894Y515439D02*
X373894Y515439D01*
X371850Y516286D01*
X370286Y517850D01*
X369439Y519894D01*
X369439Y522106D01*
X370286Y524150D01*
X371850Y525714D01*
X373894Y526561D01*
X376106Y526561D01*
X378150Y525714D01*
X379714Y524150D01*
X380561Y522106D01*
X380561Y519894D01*
X379714Y517850D01*
X378150Y516286D01*
X376106Y515439D01*
X373894Y515439D01*
G37*
%LPD*%
%LPC*%
G36*
X358894Y515439D02*
X358894Y515439D01*
X356850Y516286D01*
X355286Y517850D01*
X354439Y519894D01*
X354439Y522106D01*
X355286Y524150D01*
X356850Y525714D01*
X358894Y526561D01*
X361106Y526561D01*
X363150Y525714D01*
X364714Y524150D01*
X365561Y522106D01*
X365561Y519894D01*
X364714Y517850D01*
X363150Y516286D01*
X361106Y515439D01*
X358894Y515439D01*
G37*
%LPD*%
%LPC*%
G36*
X94894Y357439D02*
X94894Y357439D01*
X92850Y358286D01*
X91286Y359850D01*
X90439Y361894D01*
X90439Y364106D01*
X91286Y366150D01*
X92850Y367714D01*
X94894Y368561D01*
X97106Y368561D01*
X99150Y367714D01*
X100714Y366150D01*
X101561Y364106D01*
X101561Y361894D01*
X100714Y359850D01*
X99150Y358286D01*
X97106Y357439D01*
X94894Y357439D01*
G37*
%LPD*%
%LPC*%
G36*
X455894Y290439D02*
X455894Y290439D01*
X453850Y291286D01*
X452286Y292850D01*
X451439Y294894D01*
X451439Y297106D01*
X452286Y299150D01*
X453850Y300714D01*
X455894Y301561D01*
X458106Y301561D01*
X460150Y300714D01*
X461714Y299150D01*
X462561Y297106D01*
X462561Y294894D01*
X461714Y292850D01*
X460150Y291286D01*
X458106Y290439D01*
X455894Y290439D01*
G37*
%LPD*%
%LPC*%
G36*
X370894Y298439D02*
X370894Y298439D01*
X368850Y299286D01*
X367286Y300850D01*
X366439Y302894D01*
X366439Y305106D01*
X367286Y307150D01*
X368850Y308714D01*
X370894Y309561D01*
X373106Y309561D01*
X375150Y308714D01*
X376714Y307150D01*
X377561Y305106D01*
X377561Y302894D01*
X376714Y300850D01*
X375150Y299286D01*
X373106Y298439D01*
X370894Y298439D01*
G37*
%LPD*%
%LPC*%
G36*
X625894Y270439D02*
X625894Y270439D01*
X623850Y271286D01*
X622286Y272850D01*
X621439Y274894D01*
X621439Y277106D01*
X622286Y279150D01*
X623850Y280714D01*
X625894Y281561D01*
X628106Y281561D01*
X630150Y280714D01*
X631714Y279150D01*
X632561Y277106D01*
X632561Y274894D01*
X631714Y272850D01*
X630150Y271286D01*
X628106Y270439D01*
X625894Y270439D01*
G37*
%LPD*%
%LPC*%
G36*
X200894Y267439D02*
X200894Y267439D01*
X198850Y268286D01*
X197286Y269850D01*
X196439Y271894D01*
X196439Y274106D01*
X197286Y276150D01*
X198850Y277714D01*
X200894Y278561D01*
X203106Y278561D01*
X205150Y277714D01*
X206714Y276150D01*
X207561Y274106D01*
X207561Y271894D01*
X206714Y269850D01*
X205150Y268286D01*
X203106Y267439D01*
X200894Y267439D01*
G37*
%LPD*%
%LPC*%
G36*
X460894Y456439D02*
X460894Y456439D01*
X458850Y457286D01*
X457286Y458850D01*
X456439Y460894D01*
X456439Y463106D01*
X457286Y465150D01*
X458850Y466714D01*
X460894Y467561D01*
X463106Y467561D01*
X465150Y466714D01*
X466714Y465150D01*
X467561Y463106D01*
X467561Y460894D01*
X466714Y458850D01*
X465150Y457286D01*
X463106Y456439D01*
X460894Y456439D01*
G37*
%LPD*%
%LPC*%
G36*
X438645Y472439D02*
X438645Y472439D01*
X436601Y473286D01*
X435037Y474850D01*
X434190Y476894D01*
X434190Y479106D01*
X435037Y481150D01*
X436601Y482714D01*
X438645Y483561D01*
X440857Y483561D01*
X442901Y482714D01*
X444465Y481150D01*
X445312Y479106D01*
X445312Y476894D01*
X444465Y474850D01*
X442901Y473286D01*
X440857Y472439D01*
X438645Y472439D01*
G37*
%LPD*%
%LPC*%
G36*
X107894Y308439D02*
X107894Y308439D01*
X105850Y309286D01*
X104286Y310850D01*
X103439Y312894D01*
X103439Y315106D01*
X104286Y317150D01*
X105850Y318714D01*
X107894Y319561D01*
X110106Y319561D01*
X112150Y318714D01*
X113714Y317150D01*
X114561Y315106D01*
X114561Y312894D01*
X113714Y310850D01*
X112150Y309286D01*
X110106Y308439D01*
X107894Y308439D01*
G37*
%LPD*%
%LPC*%
G36*
X25894Y254439D02*
X25894Y254439D01*
X23850Y255286D01*
X22286Y256850D01*
X21439Y258894D01*
X21439Y261106D01*
X22286Y263150D01*
X23850Y264714D01*
X25894Y265561D01*
X28106Y265561D01*
X30150Y264714D01*
X31714Y263150D01*
X32561Y261106D01*
X32561Y258894D01*
X31714Y256850D01*
X30150Y255286D01*
X28106Y254439D01*
X25894Y254439D01*
G37*
%LPD*%
%LPC*%
G36*
X339894Y227439D02*
X339894Y227439D01*
X337850Y228286D01*
X336286Y229850D01*
X335439Y231894D01*
X335439Y234106D01*
X336286Y236150D01*
X337850Y237714D01*
X339894Y238561D01*
X342106Y238561D01*
X344150Y237714D01*
X345714Y236150D01*
X346561Y234106D01*
X346561Y231894D01*
X345714Y229850D01*
X344150Y228286D01*
X342106Y227439D01*
X339894Y227439D01*
G37*
%LPD*%
%LPC*%
G36*
X354420Y327039D02*
X354420Y327039D01*
X352376Y327886D01*
X350812Y329450D01*
X349965Y331494D01*
X349965Y333706D01*
X350812Y335750D01*
X352376Y337314D01*
X354420Y338161D01*
X356632Y338161D01*
X358676Y337314D01*
X360240Y335750D01*
X361087Y333706D01*
X361087Y331494D01*
X360240Y329450D01*
X358676Y327886D01*
X356632Y327039D01*
X354420Y327039D01*
G37*
%LPD*%
%LPC*%
G36*
X70894Y149439D02*
X70894Y149439D01*
X68850Y150286D01*
X67286Y151850D01*
X66439Y153894D01*
X66439Y156106D01*
X67286Y158150D01*
X68850Y159714D01*
X70894Y160561D01*
X73106Y160561D01*
X75150Y159714D01*
X76714Y158150D01*
X77561Y156106D01*
X77561Y153894D01*
X76714Y151850D01*
X75150Y150286D01*
X73106Y149439D01*
X70894Y149439D01*
G37*
%LPD*%
%LPC*%
G36*
X582894Y129439D02*
X582894Y129439D01*
X580850Y130286D01*
X579286Y131850D01*
X578439Y133894D01*
X578439Y136106D01*
X579286Y138150D01*
X580850Y139714D01*
X582894Y140561D01*
X585106Y140561D01*
X587150Y139714D01*
X588714Y138150D01*
X589561Y136106D01*
X589561Y133894D01*
X588714Y131850D01*
X587150Y130286D01*
X585106Y129439D01*
X582894Y129439D01*
G37*
%LPD*%
%LPC*%
G36*
X443864Y341469D02*
X443864Y341469D01*
X441820Y342316D01*
X440256Y343880D01*
X439409Y345924D01*
X439409Y348136D01*
X440256Y350180D01*
X441820Y351744D01*
X443864Y352591D01*
X446076Y352591D01*
X448120Y351744D01*
X449684Y350180D01*
X450531Y348136D01*
X450531Y345924D01*
X449684Y343880D01*
X448120Y342316D01*
X446076Y341469D01*
X443864Y341469D01*
G37*
%LPD*%
%LPC*%
G36*
X416894Y126439D02*
X416894Y126439D01*
X414850Y127286D01*
X413286Y128850D01*
X412439Y130894D01*
X412439Y133106D01*
X413286Y135150D01*
X414850Y136714D01*
X416894Y137561D01*
X419106Y137561D01*
X421150Y136714D01*
X422714Y135150D01*
X423561Y133106D01*
X423561Y130894D01*
X422714Y128850D01*
X421150Y127286D01*
X419106Y126439D01*
X416894Y126439D01*
G37*
%LPD*%
%LPC*%
G36*
X609143Y113439D02*
X609143Y113439D01*
X607099Y114286D01*
X605535Y115850D01*
X604688Y117894D01*
X604688Y120106D01*
X605535Y122150D01*
X607099Y123714D01*
X609143Y124561D01*
X611355Y124561D01*
X613399Y123714D01*
X614963Y122150D01*
X615810Y120106D01*
X615810Y117894D01*
X614963Y115850D01*
X613399Y114286D01*
X611355Y113439D01*
X609143Y113439D01*
G37*
%LPD*%
%LPC*%
G36*
X108894Y109439D02*
X108894Y109439D01*
X106850Y110286D01*
X105286Y111850D01*
X104439Y113894D01*
X104439Y116106D01*
X105286Y118150D01*
X106850Y119714D01*
X108894Y120561D01*
X111106Y120561D01*
X113150Y119714D01*
X114714Y118150D01*
X115561Y116106D01*
X115561Y113894D01*
X114714Y111850D01*
X113150Y110286D01*
X111106Y109439D01*
X108894Y109439D01*
G37*
%LPD*%
%LPC*%
G36*
X359878Y108688D02*
X359878Y108688D01*
X357834Y109535D01*
X356270Y111099D01*
X355423Y113143D01*
X355423Y115355D01*
X356270Y117399D01*
X357834Y118963D01*
X359878Y119810D01*
X362090Y119810D01*
X364134Y118963D01*
X365698Y117399D01*
X366545Y115355D01*
X366545Y113143D01*
X365698Y111099D01*
X364134Y109535D01*
X362090Y108688D01*
X359878Y108688D01*
G37*
%LPD*%
%LPC*%
G36*
X498894Y97439D02*
X498894Y97439D01*
X496850Y98286D01*
X495286Y99850D01*
X494439Y101894D01*
X494439Y104106D01*
X495286Y106150D01*
X496850Y107714D01*
X498894Y108561D01*
X501106Y108561D01*
X503150Y107714D01*
X504714Y106150D01*
X505561Y104106D01*
X505561Y101894D01*
X504714Y99850D01*
X503150Y98286D01*
X501106Y97439D01*
X498894Y97439D01*
G37*
%LPD*%
%LPC*%
G36*
X356044Y356589D02*
X356044Y356589D01*
X354000Y357436D01*
X352436Y359000D01*
X351589Y361044D01*
X351589Y363256D01*
X352436Y365300D01*
X354000Y366864D01*
X356044Y367711D01*
X358256Y367711D01*
X360300Y366864D01*
X361864Y365300D01*
X362711Y363256D01*
X362711Y361044D01*
X361864Y359000D01*
X360300Y357436D01*
X358256Y356589D01*
X356044Y356589D01*
G37*
%LPD*%
%LPC*%
G36*
X345894Y454439D02*
X345894Y454439D01*
X343850Y455286D01*
X342286Y456850D01*
X341439Y458894D01*
X341439Y461106D01*
X342286Y463150D01*
X343850Y464714D01*
X345894Y465561D01*
X348106Y465561D01*
X350150Y464714D01*
X351714Y463150D01*
X352561Y461106D01*
X352561Y458894D01*
X351714Y456850D01*
X350150Y455286D01*
X348106Y454439D01*
X345894Y454439D01*
G37*
%LPD*%
%LPC*%
G36*
X444894Y371439D02*
X444894Y371439D01*
X442850Y372286D01*
X441286Y373850D01*
X440439Y375894D01*
X440439Y378106D01*
X441286Y380150D01*
X442850Y381714D01*
X444894Y382561D01*
X447106Y382561D01*
X449150Y381714D01*
X450714Y380150D01*
X451561Y378106D01*
X451561Y375894D01*
X450714Y373850D01*
X449150Y372286D01*
X447106Y371439D01*
X444894Y371439D01*
G37*
%LPD*%
%LPC*%
G36*
X375894Y390439D02*
X375894Y390439D01*
X373850Y391286D01*
X372286Y392850D01*
X371439Y394894D01*
X371439Y397106D01*
X372286Y399150D01*
X373850Y400714D01*
X375894Y401561D01*
X378106Y401561D01*
X380150Y400714D01*
X381714Y399150D01*
X382561Y397106D01*
X382561Y394894D01*
X381714Y392850D01*
X380150Y391286D01*
X378106Y390439D01*
X375894Y390439D01*
G37*
%LPD*%
%LPC*%
G36*
X406894Y390439D02*
X406894Y390439D01*
X404850Y391286D01*
X403286Y392850D01*
X402439Y394894D01*
X402439Y397106D01*
X403286Y399150D01*
X404850Y400714D01*
X406894Y401561D01*
X409106Y401561D01*
X411150Y400714D01*
X412714Y399150D01*
X413561Y397106D01*
X413561Y394894D01*
X412714Y392850D01*
X411150Y391286D01*
X409106Y390439D01*
X406894Y390439D01*
G37*
%LPD*%
%LPC*%
G36*
X464894Y394439D02*
X464894Y394439D01*
X462850Y395286D01*
X461286Y396850D01*
X460439Y398894D01*
X460439Y401106D01*
X461286Y403150D01*
X462850Y404714D01*
X464894Y405561D01*
X467106Y405561D01*
X469150Y404714D01*
X470714Y403150D01*
X471561Y401106D01*
X471561Y398894D01*
X470714Y396850D01*
X469150Y395286D01*
X467106Y394439D01*
X464894Y394439D01*
G37*
%LPD*%
%LPC*%
G36*
X438894Y74439D02*
X438894Y74439D01*
X436850Y75286D01*
X435286Y76850D01*
X434439Y78894D01*
X434439Y81106D01*
X435286Y83150D01*
X436850Y84714D01*
X438894Y85561D01*
X441106Y85561D01*
X443150Y84714D01*
X444714Y83150D01*
X445561Y81106D01*
X445561Y78894D01*
X444714Y76850D01*
X443150Y75286D01*
X441106Y74439D01*
X438894Y74439D01*
G37*
%LPD*%
%LPC*%
G36*
X423894Y74439D02*
X423894Y74439D01*
X421850Y75286D01*
X420286Y76850D01*
X419439Y78894D01*
X419439Y81106D01*
X420286Y83150D01*
X421850Y84714D01*
X423894Y85561D01*
X426106Y85561D01*
X428150Y84714D01*
X429714Y83150D01*
X430561Y81106D01*
X430561Y78894D01*
X429714Y76850D01*
X428150Y75286D01*
X426106Y74439D01*
X423894Y74439D01*
G37*
%LPD*%
%LPC*%
G36*
X75894Y399439D02*
X75894Y399439D01*
X73850Y400286D01*
X72286Y401850D01*
X71439Y403894D01*
X71439Y406106D01*
X72286Y408150D01*
X73850Y409714D01*
X75894Y410561D01*
X78106Y410561D01*
X80150Y409714D01*
X81714Y408150D01*
X82561Y406106D01*
X82561Y403894D01*
X81714Y401850D01*
X80150Y400286D01*
X78106Y399439D01*
X75894Y399439D01*
G37*
%LPD*%
%LPC*%
G36*
X408894Y73439D02*
X408894Y73439D01*
X406850Y74286D01*
X405286Y75850D01*
X404439Y77894D01*
X404439Y80106D01*
X405286Y82150D01*
X406850Y83714D01*
X408894Y84561D01*
X411106Y84561D01*
X413150Y83714D01*
X414714Y82150D01*
X415561Y80106D01*
X415561Y77894D01*
X414714Y75850D01*
X413150Y74286D01*
X411106Y73439D01*
X408894Y73439D01*
G37*
%LPD*%
%LPC*%
G36*
X243894Y410439D02*
X243894Y410439D01*
X241850Y411286D01*
X240286Y412850D01*
X239439Y414894D01*
X239439Y417106D01*
X240286Y419150D01*
X241850Y420714D01*
X243894Y421561D01*
X246106Y421561D01*
X248150Y420714D01*
X249714Y419150D01*
X250561Y417106D01*
X250561Y414894D01*
X249714Y412850D01*
X248150Y411286D01*
X246106Y410439D01*
X243894Y410439D01*
G37*
%LPD*%
%LPC*%
G36*
X185894Y425439D02*
X185894Y425439D01*
X183850Y426286D01*
X182286Y427850D01*
X181439Y429894D01*
X181439Y432106D01*
X182286Y434150D01*
X183850Y435714D01*
X185894Y436561D01*
X188106Y436561D01*
X190150Y435714D01*
X191714Y434150D01*
X192561Y432106D01*
X192561Y429894D01*
X191714Y427850D01*
X190150Y426286D01*
X188106Y425439D01*
X185894Y425439D01*
G37*
%LPD*%
%LPC*%
G36*
X138894Y426439D02*
X138894Y426439D01*
X136850Y427286D01*
X135286Y428850D01*
X134439Y430894D01*
X134439Y433106D01*
X135286Y435150D01*
X136850Y436714D01*
X138894Y437561D01*
X141106Y437561D01*
X143150Y436714D01*
X144714Y435150D01*
X145561Y433106D01*
X145561Y430894D01*
X144714Y428850D01*
X143150Y427286D01*
X141106Y426439D01*
X138894Y426439D01*
G37*
%LPD*%
%LPC*%
G36*
X402864Y298469D02*
X402864Y298469D01*
X400820Y299316D01*
X399256Y300880D01*
X398409Y302924D01*
X398409Y305136D01*
X399256Y307180D01*
X400820Y308744D01*
X402864Y309591D01*
X405076Y309591D01*
X407120Y308744D01*
X408684Y307180D01*
X409531Y305136D01*
X409531Y302924D01*
X408684Y300880D01*
X407120Y299316D01*
X405076Y298469D01*
X402864Y298469D01*
G37*
%LPD*%
%LPC*%
G36*
X158894Y53439D02*
X158894Y53439D01*
X156850Y54286D01*
X155286Y55850D01*
X154439Y57894D01*
X154439Y60106D01*
X155286Y62150D01*
X156850Y63714D01*
X158894Y64561D01*
X161106Y64561D01*
X163150Y63714D01*
X164714Y62150D01*
X165561Y60106D01*
X165561Y57894D01*
X164714Y55850D01*
X163150Y54286D01*
X161106Y53439D01*
X158894Y53439D01*
G37*
%LPD*%
%LPC*%
G36*
X173894Y49495D02*
X173894Y49495D01*
X171850Y50341D01*
X170286Y51905D01*
X169439Y53949D01*
X169439Y56162D01*
X170286Y58205D01*
X171850Y59770D01*
X173894Y60616D01*
X176106Y60616D01*
X178150Y59770D01*
X179714Y58205D01*
X180561Y56162D01*
X180561Y53949D01*
X179714Y51905D01*
X178150Y50341D01*
X176106Y49495D01*
X173894Y49495D01*
G37*
%LPD*%
%LPC*%
G36*
X768446Y566249D02*
X768446Y566249D01*
X766249Y568446D01*
X766249Y571554D01*
X768446Y573751D01*
X771554Y573751D01*
X773751Y571554D01*
X773751Y568446D01*
X771554Y566249D01*
X768446Y566249D01*
G37*
%LPD*%
%LPC*%
G36*
X28446Y566249D02*
X28446Y566249D01*
X26249Y568446D01*
X26249Y571554D01*
X28446Y573751D01*
X31554Y573751D01*
X33751Y571554D01*
X33751Y568446D01*
X31554Y566249D01*
X28446Y566249D01*
G37*
%LPD*%
%LPC*%
G36*
X768446Y26249D02*
X768446Y26249D01*
X766249Y28446D01*
X766249Y31554D01*
X768446Y33751D01*
X771554Y33751D01*
X773751Y31554D01*
X773751Y28446D01*
X771554Y26249D01*
X768446Y26249D01*
G37*
%LPD*%
%LPC*%
G36*
X28446Y26249D02*
X28446Y26249D01*
X26249Y28446D01*
X26249Y31554D01*
X28446Y33751D01*
X31554Y33751D01*
X33751Y31554D01*
X33751Y28446D01*
X31554Y26249D01*
X28446Y26249D01*
G37*
%LPD*%
%LPC*%
G36*
X610717Y309717D02*
X610717Y309717D01*
X610717Y316743D01*
X611467Y316593D01*
X613132Y315904D01*
X614629Y314903D01*
X615903Y313629D01*
X616904Y312132D01*
X617593Y310467D01*
X617743Y309717D01*
X610717Y309717D01*
G37*
%LPD*%
%LPC*%
G36*
X599857Y309717D02*
X599857Y309717D01*
X600007Y310467D01*
X600696Y312132D01*
X601697Y313629D01*
X602971Y314903D01*
X604468Y315904D01*
X606133Y316593D01*
X606883Y316743D01*
X606883Y309717D01*
X599857Y309717D01*
G37*
%LPD*%
%LPC*%
G36*
X610717Y305883D02*
X610717Y305883D01*
X617743Y305883D01*
X617593Y305133D01*
X616904Y303468D01*
X615903Y301971D01*
X614629Y300697D01*
X613132Y299696D01*
X611467Y299007D01*
X610717Y298857D01*
X610717Y305883D01*
G37*
%LPD*%
%LPC*%
G36*
X606133Y299007D02*
X606133Y299007D01*
X604468Y299696D01*
X602971Y300697D01*
X601697Y301971D01*
X600696Y303468D01*
X600007Y305133D01*
X599857Y305883D01*
X606883Y305883D01*
X606883Y298857D01*
X606133Y299007D01*
G37*
%LPD*%
%LPC*%
G36*
X608799Y307799D02*
X608799Y307799D01*
X608799Y307801D01*
X608801Y307801D01*
X608801Y307799D01*
X608799Y307799D01*
G37*
%LPD*%
%LPC*%
G36*
X85999Y504199D02*
X85999Y504199D01*
X85999Y504201D01*
X86001Y504201D01*
X86001Y504199D01*
X85999Y504199D01*
G37*
%LPD*%
%LPC*%
G36*
X213999Y504199D02*
X213999Y504199D01*
X213999Y504201D01*
X214001Y504201D01*
X214001Y504199D01*
X213999Y504199D01*
G37*
%LPD*%
D10*
X577500Y89600D03*
X577500Y30000D03*
X722500Y89600D03*
X722500Y30000D03*
X472500Y510400D03*
X472500Y570000D03*
X327500Y510400D03*
X327500Y570000D03*
X77500Y89600D03*
X77500Y30000D03*
X222500Y89600D03*
X222500Y30000D03*
X327500Y89600D03*
X327500Y30000D03*
X472500Y89600D03*
X472500Y30000D03*
D11*
X685000Y307800D03*
X659600Y307800D03*
X659600Y384000D03*
X685000Y384000D03*
X634200Y307800D03*
X608800Y307800D03*
X634200Y384000D03*
X608800Y384000D03*
D12*
X148900Y256600D03*
X123500Y256600D03*
X98100Y256600D03*
D13*
X214000Y504200D03*
X86000Y504200D03*
D14*
X395000Y79000D03*
X146000Y66000D03*
X647000Y72000D03*
X405000Y521000D03*
X410000Y79000D03*
X160000Y59000D03*
X660000Y67000D03*
X390000Y521000D03*
X425000Y80000D03*
X175000Y55055D03*
X675000Y61000D03*
X375000Y521000D03*
X440000Y80000D03*
X190000Y51360D03*
X690000Y55000D03*
X360000Y521000D03*
X418788Y188212D03*
X387000Y133000D03*
X422183Y199029D03*
X397212Y130788D03*
X135000Y73000D03*
X384502Y80000D03*
X635000Y72000D03*
X415000Y521000D03*
X115000Y433000D03*
X115000Y80000D03*
X365000Y79000D03*
X615000Y80000D03*
X435000Y520000D03*
X438000Y363000D03*
X392000Y436249D03*
X355000Y377000D03*
X322000Y346000D03*
X329000Y308000D03*
X387031Y270000D03*
X417000Y271000D03*
X240000Y330000D03*
X204000Y357000D03*
X190000Y331000D03*
X108000Y349000D03*
X171000Y230000D03*
X178000Y426000D03*
X377000Y396000D03*
X408000Y396000D03*
X446000Y377000D03*
X444970Y347030D03*
X357150Y362150D03*
X355526Y332600D03*
X372000Y304000D03*
X403970Y304030D03*
X445000Y290000D03*
X457000Y296000D03*
X254000Y384000D03*
X96000Y363000D03*
X263000Y390802D03*
X109000Y314000D03*
X110000Y115000D03*
X439751Y478000D03*
X610249Y119000D03*
X360984Y114249D03*
X140000Y432000D03*
X160000Y432000D03*
X187000Y431000D03*
X31000Y549000D03*
X27000Y260000D03*
X77000Y405000D03*
X72000Y155000D03*
X202000Y273000D03*
X245000Y416000D03*
X347000Y460000D03*
X462000Y462000D03*
X466000Y400000D03*
X580000Y357000D03*
X627000Y276000D03*
X584000Y135000D03*
X500000Y103000D03*
X418000Y132000D03*
X341000Y233000D03*
M02*
