G04 EAGLE Gerber RS-274X export*
G75*
%MOMM*%
%FSLAX34Y34*%
%LPD*%
%INTop Copper*%
%IPPOS*%
%AMOC8*
5,1,8,0,0,1.08239X$1,22.5*%
G01*
%ADD10P,2.336880X8X22.500000*%
%ADD11R,0.300000X2.600000*%
%ADD12C,1.620000*%
%ADD13R,1.473200X0.279400*%
%ADD14R,0.279400X1.473200*%
%ADD15C,1.463037*%
%ADD16C,0.300000*%
%ADD17R,2.232000X2.232000*%
%ADD18C,2.232000*%
%ADD19P,1.583577X8X112.500000*%
%ADD20P,1.583577X8X292.500000*%
%ADD21C,0.502400*%
%ADD22C,0.152400*%

G36*
X508468Y367395D02*
X508468Y367395D01*
X508472Y367399D01*
X508475Y367399D01*
X508477Y367397D01*
X509884Y367824D01*
X509889Y367830D01*
X509893Y367827D01*
X511190Y368521D01*
X511193Y368527D01*
X511198Y368526D01*
X512335Y369459D01*
X512336Y369466D01*
X512341Y369465D01*
X513274Y370602D01*
X513274Y370609D01*
X513279Y370610D01*
X513973Y371907D01*
X513972Y371913D01*
X513975Y371915D01*
X513976Y371916D01*
X514126Y372409D01*
X514141Y372458D01*
X514365Y373197D01*
X514403Y373323D01*
X514401Y373329D01*
X514405Y373332D01*
X514549Y374795D01*
X514547Y374798D01*
X514549Y374800D01*
X514549Y392800D01*
X514547Y392803D01*
X514549Y392805D01*
X514405Y394268D01*
X514400Y394273D01*
X514403Y394277D01*
X513976Y395684D01*
X513970Y395689D01*
X513973Y395693D01*
X513279Y396990D01*
X513273Y396993D01*
X513274Y396998D01*
X512341Y398135D01*
X512334Y398136D01*
X512335Y398141D01*
X511198Y399074D01*
X511191Y399074D01*
X511190Y399079D01*
X509893Y399773D01*
X509886Y399771D01*
X509884Y399776D01*
X508477Y400203D01*
X508471Y400201D01*
X508468Y400205D01*
X507005Y400349D01*
X507001Y400347D01*
X506997Y400347D01*
X506995Y400349D01*
X505532Y400205D01*
X505527Y400200D01*
X505523Y400203D01*
X504116Y399776D01*
X504111Y399770D01*
X504107Y399773D01*
X502810Y399079D01*
X502807Y399073D01*
X502802Y399074D01*
X501665Y398141D01*
X501664Y398134D01*
X501659Y398135D01*
X500726Y396998D01*
X500726Y396991D01*
X500721Y396990D01*
X500027Y395693D01*
X500029Y395686D01*
X500024Y395684D01*
X499933Y395386D01*
X499918Y395337D01*
X499694Y394598D01*
X499597Y394277D01*
X499600Y394271D01*
X499595Y394268D01*
X499451Y392805D01*
X499453Y392802D01*
X499451Y392800D01*
X499451Y374800D01*
X499453Y374797D01*
X499451Y374795D01*
X499595Y373332D01*
X499600Y373327D01*
X499597Y373323D01*
X500024Y371916D01*
X500030Y371911D01*
X500027Y371907D01*
X500721Y370610D01*
X500727Y370607D01*
X500726Y370602D01*
X501659Y369465D01*
X501666Y369464D01*
X501665Y369459D01*
X502802Y368526D01*
X502809Y368526D01*
X502810Y368521D01*
X504107Y367827D01*
X504114Y367829D01*
X504116Y367824D01*
X505523Y367397D01*
X505527Y367399D01*
X505530Y367399D01*
X505532Y367395D01*
X506995Y367251D01*
X507001Y367255D01*
X507005Y367251D01*
X508468Y367395D01*
G37*
G36*
X363468Y367395D02*
X363468Y367395D01*
X363472Y367399D01*
X363475Y367399D01*
X363477Y367397D01*
X364884Y367824D01*
X364889Y367830D01*
X364893Y367827D01*
X366190Y368521D01*
X366193Y368527D01*
X366198Y368526D01*
X367335Y369459D01*
X367336Y369466D01*
X367341Y369465D01*
X368274Y370602D01*
X368274Y370609D01*
X368279Y370610D01*
X368973Y371907D01*
X368972Y371913D01*
X368975Y371915D01*
X368976Y371916D01*
X369126Y372409D01*
X369141Y372458D01*
X369365Y373197D01*
X369403Y373323D01*
X369401Y373329D01*
X369405Y373332D01*
X369549Y374795D01*
X369547Y374798D01*
X369549Y374800D01*
X369549Y392800D01*
X369547Y392803D01*
X369549Y392805D01*
X369405Y394268D01*
X369400Y394273D01*
X369403Y394277D01*
X368976Y395684D01*
X368970Y395689D01*
X368973Y395693D01*
X368279Y396990D01*
X368273Y396993D01*
X368274Y396998D01*
X367341Y398135D01*
X367334Y398136D01*
X367335Y398141D01*
X366198Y399074D01*
X366191Y399074D01*
X366190Y399079D01*
X364893Y399773D01*
X364886Y399771D01*
X364884Y399776D01*
X363477Y400203D01*
X363471Y400201D01*
X363468Y400205D01*
X362005Y400349D01*
X362001Y400347D01*
X361997Y400347D01*
X361995Y400349D01*
X360532Y400205D01*
X360527Y400200D01*
X360523Y400203D01*
X359116Y399776D01*
X359111Y399770D01*
X359107Y399773D01*
X357810Y399079D01*
X357807Y399073D01*
X357802Y399074D01*
X356665Y398141D01*
X356664Y398134D01*
X356659Y398135D01*
X355726Y396998D01*
X355726Y396991D01*
X355721Y396990D01*
X355027Y395693D01*
X355029Y395686D01*
X355024Y395684D01*
X354933Y395386D01*
X354918Y395337D01*
X354694Y394598D01*
X354597Y394277D01*
X354600Y394271D01*
X354595Y394268D01*
X354451Y392805D01*
X354453Y392802D01*
X354451Y392800D01*
X354451Y374800D01*
X354453Y374797D01*
X354451Y374795D01*
X354595Y373332D01*
X354600Y373327D01*
X354597Y373323D01*
X355024Y371916D01*
X355030Y371911D01*
X355027Y371907D01*
X355721Y370610D01*
X355727Y370607D01*
X355726Y370602D01*
X356659Y369465D01*
X356666Y369464D01*
X356665Y369459D01*
X357802Y368526D01*
X357809Y368526D01*
X357810Y368521D01*
X359107Y367827D01*
X359114Y367829D01*
X359116Y367824D01*
X360523Y367397D01*
X360527Y367399D01*
X360530Y367399D01*
X360532Y367395D01*
X361995Y367251D01*
X362001Y367255D01*
X362005Y367251D01*
X363468Y367395D01*
G37*
G36*
X-172632Y106695D02*
X-172632Y106695D01*
X-172628Y106698D01*
X-172625Y106698D01*
X-172625Y106699D01*
X-172623Y106697D01*
X-171216Y107124D01*
X-171211Y107130D01*
X-171207Y107127D01*
X-169910Y107821D01*
X-169907Y107827D01*
X-169902Y107826D01*
X-168765Y108759D01*
X-168764Y108766D01*
X-168759Y108765D01*
X-167826Y109902D01*
X-167826Y109909D01*
X-167821Y109910D01*
X-167127Y111207D01*
X-167128Y111213D01*
X-167125Y111215D01*
X-167124Y111216D01*
X-166900Y111955D01*
X-166885Y112004D01*
X-166697Y112623D01*
X-166700Y112629D01*
X-166695Y112632D01*
X-166551Y114095D01*
X-166553Y114098D01*
X-166551Y114100D01*
X-166551Y132100D01*
X-166553Y132103D01*
X-166551Y132105D01*
X-166695Y133568D01*
X-166700Y133573D01*
X-166697Y133577D01*
X-167124Y134984D01*
X-167130Y134989D01*
X-167127Y134993D01*
X-167821Y136290D01*
X-167827Y136293D01*
X-167826Y136298D01*
X-168759Y137435D01*
X-168766Y137436D01*
X-168765Y137441D01*
X-169902Y138374D01*
X-169909Y138374D01*
X-169910Y138379D01*
X-171207Y139073D01*
X-171214Y139071D01*
X-171216Y139076D01*
X-172623Y139503D01*
X-172629Y139501D01*
X-172632Y139505D01*
X-174095Y139649D01*
X-174099Y139647D01*
X-174103Y139647D01*
X-174105Y139649D01*
X-175568Y139505D01*
X-175573Y139500D01*
X-175577Y139503D01*
X-176984Y139076D01*
X-176989Y139070D01*
X-176993Y139073D01*
X-178290Y138379D01*
X-178293Y138373D01*
X-178298Y138374D01*
X-179435Y137441D01*
X-179436Y137434D01*
X-179441Y137435D01*
X-180374Y136298D01*
X-180374Y136291D01*
X-180379Y136290D01*
X-181073Y134993D01*
X-181071Y134986D01*
X-181076Y134984D01*
X-181107Y134883D01*
X-181331Y134144D01*
X-181346Y134095D01*
X-181503Y133577D01*
X-181501Y133571D01*
X-181505Y133568D01*
X-181649Y132105D01*
X-181647Y132102D01*
X-181649Y132100D01*
X-181649Y114100D01*
X-181647Y114097D01*
X-181649Y114095D01*
X-181505Y112632D01*
X-181500Y112627D01*
X-181503Y112623D01*
X-181076Y111216D01*
X-181070Y111211D01*
X-181073Y111207D01*
X-180379Y109910D01*
X-180373Y109907D01*
X-180374Y109902D01*
X-179441Y108765D01*
X-179434Y108764D01*
X-179435Y108759D01*
X-178298Y107826D01*
X-178291Y107826D01*
X-178290Y107821D01*
X-176993Y107127D01*
X-176986Y107129D01*
X-176984Y107124D01*
X-175577Y106697D01*
X-175574Y106698D01*
X-175570Y106698D01*
X-175568Y106695D01*
X-174105Y106551D01*
X-174099Y106555D01*
X-174095Y106551D01*
X-172632Y106695D01*
G37*
G36*
X-27632Y106695D02*
X-27632Y106695D01*
X-27628Y106698D01*
X-27625Y106698D01*
X-27625Y106699D01*
X-27623Y106697D01*
X-26216Y107124D01*
X-26211Y107130D01*
X-26207Y107127D01*
X-24910Y107821D01*
X-24907Y107827D01*
X-24902Y107826D01*
X-23765Y108759D01*
X-23764Y108766D01*
X-23759Y108765D01*
X-22826Y109902D01*
X-22826Y109909D01*
X-22821Y109910D01*
X-22127Y111207D01*
X-22128Y111213D01*
X-22125Y111215D01*
X-22124Y111216D01*
X-21900Y111955D01*
X-21885Y112004D01*
X-21697Y112623D01*
X-21700Y112629D01*
X-21695Y112632D01*
X-21551Y114095D01*
X-21553Y114098D01*
X-21551Y114100D01*
X-21551Y132100D01*
X-21553Y132103D01*
X-21551Y132105D01*
X-21695Y133568D01*
X-21700Y133573D01*
X-21697Y133577D01*
X-22124Y134984D01*
X-22130Y134989D01*
X-22127Y134993D01*
X-22821Y136290D01*
X-22827Y136293D01*
X-22826Y136298D01*
X-23759Y137435D01*
X-23766Y137436D01*
X-23765Y137441D01*
X-24902Y138374D01*
X-24909Y138374D01*
X-24910Y138379D01*
X-26207Y139073D01*
X-26214Y139071D01*
X-26216Y139076D01*
X-27623Y139503D01*
X-27629Y139501D01*
X-27632Y139505D01*
X-29095Y139649D01*
X-29099Y139647D01*
X-29103Y139647D01*
X-29105Y139649D01*
X-30568Y139505D01*
X-30573Y139500D01*
X-30577Y139503D01*
X-31984Y139076D01*
X-31989Y139070D01*
X-31993Y139073D01*
X-33290Y138379D01*
X-33293Y138373D01*
X-33298Y138374D01*
X-34435Y137441D01*
X-34436Y137434D01*
X-34441Y137435D01*
X-35374Y136298D01*
X-35374Y136291D01*
X-35379Y136290D01*
X-36073Y134993D01*
X-36071Y134986D01*
X-36076Y134984D01*
X-36107Y134883D01*
X-36331Y134144D01*
X-36346Y134095D01*
X-36503Y133577D01*
X-36501Y133571D01*
X-36505Y133568D01*
X-36649Y132105D01*
X-36647Y132102D01*
X-36649Y132100D01*
X-36649Y114100D01*
X-36647Y114097D01*
X-36649Y114095D01*
X-36505Y112632D01*
X-36500Y112627D01*
X-36503Y112623D01*
X-36076Y111216D01*
X-36070Y111211D01*
X-36073Y111207D01*
X-35379Y109910D01*
X-35373Y109907D01*
X-35374Y109902D01*
X-34441Y108765D01*
X-34434Y108764D01*
X-34435Y108759D01*
X-33298Y107826D01*
X-33291Y107826D01*
X-33290Y107821D01*
X-31993Y107127D01*
X-31986Y107129D01*
X-31984Y107124D01*
X-30577Y106697D01*
X-30574Y106698D01*
X-30570Y106698D01*
X-30568Y106695D01*
X-29105Y106551D01*
X-29099Y106555D01*
X-29095Y106551D01*
X-27632Y106695D01*
G37*
G36*
X360768Y106695D02*
X360768Y106695D01*
X360772Y106698D01*
X360775Y106698D01*
X360775Y106699D01*
X360777Y106697D01*
X362184Y107124D01*
X362189Y107130D01*
X362193Y107127D01*
X363490Y107821D01*
X363493Y107827D01*
X363498Y107826D01*
X364635Y108759D01*
X364636Y108766D01*
X364641Y108765D01*
X365574Y109902D01*
X365574Y109909D01*
X365579Y109910D01*
X366273Y111207D01*
X366272Y111213D01*
X366275Y111215D01*
X366276Y111216D01*
X366500Y111955D01*
X366501Y111955D01*
X366515Y112004D01*
X366703Y112623D01*
X366701Y112629D01*
X366705Y112632D01*
X366849Y114095D01*
X366847Y114098D01*
X366849Y114100D01*
X366849Y132100D01*
X366847Y132103D01*
X366849Y132105D01*
X366705Y133568D01*
X366700Y133573D01*
X366703Y133577D01*
X366276Y134984D01*
X366270Y134989D01*
X366273Y134993D01*
X365579Y136290D01*
X365573Y136293D01*
X365574Y136298D01*
X364641Y137435D01*
X364634Y137436D01*
X364635Y137441D01*
X363498Y138374D01*
X363491Y138374D01*
X363490Y138379D01*
X362193Y139073D01*
X362186Y139071D01*
X362184Y139076D01*
X360777Y139503D01*
X360771Y139501D01*
X360768Y139505D01*
X359305Y139649D01*
X359301Y139647D01*
X359297Y139647D01*
X359295Y139649D01*
X357832Y139505D01*
X357827Y139500D01*
X357823Y139503D01*
X356416Y139076D01*
X356411Y139070D01*
X356407Y139073D01*
X355110Y138379D01*
X355107Y138373D01*
X355102Y138374D01*
X353965Y137441D01*
X353964Y137434D01*
X353959Y137435D01*
X353026Y136298D01*
X353026Y136291D01*
X353021Y136290D01*
X352327Y134993D01*
X352329Y134986D01*
X352324Y134984D01*
X352293Y134883D01*
X352069Y134144D01*
X352054Y134095D01*
X351897Y133577D01*
X351900Y133571D01*
X351895Y133568D01*
X351751Y132105D01*
X351753Y132102D01*
X351751Y132100D01*
X351751Y114100D01*
X351753Y114097D01*
X351751Y114095D01*
X351895Y112632D01*
X351900Y112627D01*
X351897Y112623D01*
X352324Y111216D01*
X352330Y111211D01*
X352327Y111207D01*
X353021Y109910D01*
X353027Y109907D01*
X353026Y109902D01*
X353959Y108765D01*
X353966Y108764D01*
X353965Y108759D01*
X355102Y107826D01*
X355109Y107826D01*
X355110Y107821D01*
X356407Y107127D01*
X356414Y107129D01*
X356416Y107124D01*
X357823Y106697D01*
X357827Y106698D01*
X357830Y106698D01*
X357832Y106695D01*
X359295Y106551D01*
X359301Y106555D01*
X359305Y106551D01*
X360768Y106695D01*
G37*
G36*
X239068Y106695D02*
X239068Y106695D01*
X239072Y106698D01*
X239075Y106698D01*
X239075Y106699D01*
X239077Y106697D01*
X240484Y107124D01*
X240489Y107130D01*
X240493Y107127D01*
X241790Y107821D01*
X241793Y107827D01*
X241798Y107826D01*
X242935Y108759D01*
X242936Y108766D01*
X242941Y108765D01*
X243874Y109902D01*
X243874Y109909D01*
X243879Y109910D01*
X244573Y111207D01*
X244572Y111213D01*
X244575Y111215D01*
X244576Y111216D01*
X244800Y111955D01*
X244801Y111955D01*
X244815Y112004D01*
X245003Y112623D01*
X245001Y112629D01*
X245005Y112632D01*
X245149Y114095D01*
X245147Y114098D01*
X245149Y114100D01*
X245149Y132100D01*
X245147Y132103D01*
X245149Y132105D01*
X245005Y133568D01*
X245000Y133573D01*
X245003Y133577D01*
X244576Y134984D01*
X244570Y134989D01*
X244573Y134993D01*
X243879Y136290D01*
X243873Y136293D01*
X243874Y136298D01*
X242941Y137435D01*
X242934Y137436D01*
X242935Y137441D01*
X241798Y138374D01*
X241791Y138374D01*
X241790Y138379D01*
X240493Y139073D01*
X240486Y139071D01*
X240484Y139076D01*
X239077Y139503D01*
X239071Y139501D01*
X239068Y139505D01*
X237605Y139649D01*
X237601Y139647D01*
X237597Y139647D01*
X237595Y139649D01*
X236132Y139505D01*
X236127Y139500D01*
X236123Y139503D01*
X234716Y139076D01*
X234711Y139070D01*
X234707Y139073D01*
X233410Y138379D01*
X233407Y138373D01*
X233402Y138374D01*
X232265Y137441D01*
X232264Y137434D01*
X232259Y137435D01*
X231326Y136298D01*
X231326Y136291D01*
X231321Y136290D01*
X230627Y134993D01*
X230629Y134986D01*
X230624Y134984D01*
X230593Y134883D01*
X230369Y134144D01*
X230354Y134095D01*
X230197Y133577D01*
X230200Y133571D01*
X230195Y133568D01*
X230051Y132105D01*
X230053Y132102D01*
X230051Y132100D01*
X230051Y114100D01*
X230053Y114097D01*
X230051Y114095D01*
X230195Y112632D01*
X230200Y112627D01*
X230197Y112623D01*
X230624Y111216D01*
X230630Y111211D01*
X230627Y111207D01*
X231321Y109910D01*
X231327Y109907D01*
X231326Y109902D01*
X232259Y108765D01*
X232266Y108764D01*
X232265Y108759D01*
X233402Y107826D01*
X233409Y107826D01*
X233410Y107821D01*
X234707Y107127D01*
X234714Y107129D01*
X234716Y107124D01*
X236123Y106697D01*
X236127Y106698D01*
X236130Y106698D01*
X236132Y106695D01*
X237595Y106551D01*
X237601Y106555D01*
X237605Y106551D01*
X239068Y106695D01*
G37*
G36*
X94068Y106695D02*
X94068Y106695D01*
X94072Y106698D01*
X94075Y106698D01*
X94075Y106699D01*
X94077Y106697D01*
X95484Y107124D01*
X95489Y107130D01*
X95493Y107127D01*
X96790Y107821D01*
X96793Y107827D01*
X96798Y107826D01*
X97935Y108759D01*
X97936Y108766D01*
X97941Y108765D01*
X98874Y109902D01*
X98874Y109909D01*
X98879Y109910D01*
X99573Y111207D01*
X99572Y111213D01*
X99575Y111215D01*
X99576Y111216D01*
X99800Y111955D01*
X99801Y111955D01*
X99815Y112004D01*
X100003Y112623D01*
X100001Y112629D01*
X100005Y112632D01*
X100149Y114095D01*
X100147Y114098D01*
X100149Y114100D01*
X100149Y132100D01*
X100147Y132103D01*
X100149Y132105D01*
X100005Y133568D01*
X100000Y133573D01*
X100003Y133577D01*
X99576Y134984D01*
X99570Y134989D01*
X99573Y134993D01*
X98879Y136290D01*
X98873Y136293D01*
X98874Y136298D01*
X97941Y137435D01*
X97934Y137436D01*
X97935Y137441D01*
X96798Y138374D01*
X96791Y138374D01*
X96790Y138379D01*
X95493Y139073D01*
X95486Y139071D01*
X95484Y139076D01*
X94077Y139503D01*
X94071Y139501D01*
X94068Y139505D01*
X92605Y139649D01*
X92601Y139647D01*
X92597Y139647D01*
X92595Y139649D01*
X91132Y139505D01*
X91127Y139500D01*
X91123Y139503D01*
X89716Y139076D01*
X89711Y139070D01*
X89707Y139073D01*
X88410Y138379D01*
X88407Y138373D01*
X88402Y138374D01*
X87265Y137441D01*
X87264Y137434D01*
X87259Y137435D01*
X86326Y136298D01*
X86326Y136291D01*
X86321Y136290D01*
X85627Y134993D01*
X85629Y134986D01*
X85624Y134984D01*
X85593Y134883D01*
X85369Y134144D01*
X85354Y134095D01*
X85197Y133577D01*
X85200Y133571D01*
X85195Y133568D01*
X85051Y132105D01*
X85053Y132102D01*
X85051Y132100D01*
X85051Y114100D01*
X85053Y114097D01*
X85051Y114095D01*
X85195Y112632D01*
X85200Y112627D01*
X85197Y112623D01*
X85624Y111216D01*
X85630Y111211D01*
X85627Y111207D01*
X86321Y109910D01*
X86327Y109907D01*
X86326Y109902D01*
X87259Y108765D01*
X87266Y108764D01*
X87265Y108759D01*
X88402Y107826D01*
X88409Y107826D01*
X88410Y107821D01*
X89707Y107127D01*
X89714Y107129D01*
X89716Y107124D01*
X91123Y106697D01*
X91127Y106698D01*
X91130Y106698D01*
X91132Y106695D01*
X92595Y106551D01*
X92601Y106555D01*
X92605Y106551D01*
X94068Y106695D01*
G37*
G36*
X505768Y106695D02*
X505768Y106695D01*
X505772Y106698D01*
X505775Y106698D01*
X505775Y106699D01*
X505777Y106697D01*
X507184Y107124D01*
X507189Y107130D01*
X507193Y107127D01*
X508490Y107821D01*
X508493Y107827D01*
X508498Y107826D01*
X509635Y108759D01*
X509636Y108766D01*
X509641Y108765D01*
X510574Y109902D01*
X510574Y109909D01*
X510579Y109910D01*
X511273Y111207D01*
X511272Y111213D01*
X511275Y111215D01*
X511276Y111216D01*
X511500Y111955D01*
X511501Y111955D01*
X511515Y112004D01*
X511703Y112623D01*
X511701Y112629D01*
X511705Y112632D01*
X511849Y114095D01*
X511847Y114098D01*
X511849Y114100D01*
X511849Y132100D01*
X511847Y132103D01*
X511849Y132105D01*
X511705Y133568D01*
X511700Y133573D01*
X511703Y133577D01*
X511276Y134984D01*
X511270Y134989D01*
X511273Y134993D01*
X510579Y136290D01*
X510573Y136293D01*
X510574Y136298D01*
X509641Y137435D01*
X509634Y137436D01*
X509635Y137441D01*
X508498Y138374D01*
X508491Y138374D01*
X508490Y138379D01*
X507193Y139073D01*
X507186Y139071D01*
X507184Y139076D01*
X505777Y139503D01*
X505771Y139501D01*
X505768Y139505D01*
X504305Y139649D01*
X504301Y139647D01*
X504297Y139647D01*
X504295Y139649D01*
X502832Y139505D01*
X502827Y139500D01*
X502823Y139503D01*
X501416Y139076D01*
X501411Y139070D01*
X501407Y139073D01*
X500110Y138379D01*
X500107Y138373D01*
X500102Y138374D01*
X498965Y137441D01*
X498964Y137434D01*
X498959Y137435D01*
X498026Y136298D01*
X498026Y136291D01*
X498021Y136290D01*
X497327Y134993D01*
X497329Y134986D01*
X497324Y134984D01*
X497293Y134883D01*
X497069Y134144D01*
X497054Y134095D01*
X496897Y133577D01*
X496900Y133571D01*
X496895Y133568D01*
X496751Y132105D01*
X496753Y132102D01*
X496751Y132100D01*
X496751Y114100D01*
X496753Y114097D01*
X496751Y114095D01*
X496895Y112632D01*
X496900Y112627D01*
X496897Y112623D01*
X497324Y111216D01*
X497330Y111211D01*
X497327Y111207D01*
X498021Y109910D01*
X498027Y109907D01*
X498026Y109902D01*
X498959Y108765D01*
X498966Y108764D01*
X498965Y108759D01*
X500102Y107826D01*
X500109Y107826D01*
X500110Y107821D01*
X501407Y107127D01*
X501414Y107129D01*
X501416Y107124D01*
X502823Y106697D01*
X502827Y106698D01*
X502830Y106698D01*
X502832Y106695D01*
X504295Y106551D01*
X504301Y106555D01*
X504305Y106551D01*
X505768Y106695D01*
G37*
G36*
X508468Y431995D02*
X508468Y431995D01*
X508472Y431999D01*
X508475Y431999D01*
X508477Y431997D01*
X509884Y432424D01*
X509889Y432430D01*
X509893Y432427D01*
X511190Y433121D01*
X511193Y433127D01*
X511198Y433126D01*
X512335Y434059D01*
X512336Y434066D01*
X512341Y434065D01*
X513274Y435202D01*
X513274Y435209D01*
X513279Y435210D01*
X513973Y436507D01*
X513972Y436513D01*
X513975Y436515D01*
X513976Y436516D01*
X514126Y437009D01*
X514141Y437058D01*
X514365Y437797D01*
X514403Y437923D01*
X514401Y437929D01*
X514405Y437932D01*
X514549Y439395D01*
X514547Y439398D01*
X514549Y439400D01*
X514549Y447400D01*
X514547Y447403D01*
X514549Y447405D01*
X514405Y448868D01*
X514400Y448873D01*
X514403Y448877D01*
X513976Y450284D01*
X513970Y450289D01*
X513973Y450293D01*
X513279Y451590D01*
X513273Y451593D01*
X513274Y451598D01*
X512341Y452735D01*
X512334Y452736D01*
X512335Y452741D01*
X511198Y453674D01*
X511191Y453674D01*
X511190Y453679D01*
X509893Y454373D01*
X509886Y454371D01*
X509884Y454376D01*
X508477Y454803D01*
X508473Y454801D01*
X508470Y454801D01*
X508468Y454805D01*
X507005Y454949D01*
X507003Y454948D01*
X507003Y454949D01*
X506997Y454949D01*
X506996Y454948D01*
X506995Y454949D01*
X505532Y454805D01*
X505528Y454801D01*
X505525Y454801D01*
X505523Y454803D01*
X504116Y454376D01*
X504111Y454370D01*
X504107Y454373D01*
X502810Y453679D01*
X502807Y453673D01*
X502802Y453674D01*
X501665Y452741D01*
X501664Y452734D01*
X501659Y452735D01*
X500726Y451598D01*
X500726Y451591D01*
X500721Y451590D01*
X500027Y450293D01*
X500028Y450287D01*
X500026Y450285D01*
X500024Y450284D01*
X499964Y450087D01*
X499740Y449348D01*
X499725Y449299D01*
X499597Y448877D01*
X499600Y448871D01*
X499595Y448868D01*
X499451Y447405D01*
X499453Y447402D01*
X499451Y447400D01*
X499451Y439400D01*
X499453Y439397D01*
X499451Y439395D01*
X499595Y437932D01*
X499600Y437927D01*
X499597Y437923D01*
X500024Y436516D01*
X500030Y436511D01*
X500027Y436507D01*
X500721Y435210D01*
X500727Y435207D01*
X500726Y435202D01*
X501659Y434065D01*
X501666Y434064D01*
X501665Y434059D01*
X502802Y433126D01*
X502809Y433126D01*
X502810Y433121D01*
X504107Y432427D01*
X504114Y432429D01*
X504116Y432424D01*
X505523Y431997D01*
X505527Y431999D01*
X505530Y431999D01*
X505532Y431995D01*
X506995Y431851D01*
X507001Y431855D01*
X507005Y431851D01*
X508468Y431995D01*
G37*
G36*
X363468Y431995D02*
X363468Y431995D01*
X363472Y431999D01*
X363475Y431999D01*
X363477Y431997D01*
X364884Y432424D01*
X364889Y432430D01*
X364893Y432427D01*
X366190Y433121D01*
X366193Y433127D01*
X366198Y433126D01*
X367335Y434059D01*
X367336Y434066D01*
X367341Y434065D01*
X368274Y435202D01*
X368274Y435209D01*
X368279Y435210D01*
X368973Y436507D01*
X368972Y436513D01*
X368975Y436515D01*
X368976Y436516D01*
X369126Y437009D01*
X369141Y437058D01*
X369365Y437797D01*
X369403Y437923D01*
X369401Y437929D01*
X369405Y437932D01*
X369549Y439395D01*
X369547Y439398D01*
X369549Y439400D01*
X369549Y447400D01*
X369547Y447403D01*
X369549Y447405D01*
X369405Y448868D01*
X369400Y448873D01*
X369403Y448877D01*
X368976Y450284D01*
X368970Y450289D01*
X368973Y450293D01*
X368279Y451590D01*
X368273Y451593D01*
X368274Y451598D01*
X367341Y452735D01*
X367334Y452736D01*
X367335Y452741D01*
X366198Y453674D01*
X366191Y453674D01*
X366190Y453679D01*
X364893Y454373D01*
X364886Y454371D01*
X364884Y454376D01*
X363477Y454803D01*
X363473Y454801D01*
X363470Y454801D01*
X363468Y454805D01*
X362005Y454949D01*
X362003Y454948D01*
X362003Y454949D01*
X361997Y454949D01*
X361996Y454948D01*
X361995Y454949D01*
X360532Y454805D01*
X360528Y454801D01*
X360525Y454801D01*
X360523Y454803D01*
X359116Y454376D01*
X359111Y454370D01*
X359107Y454373D01*
X357810Y453679D01*
X357807Y453673D01*
X357802Y453674D01*
X356665Y452741D01*
X356664Y452734D01*
X356659Y452735D01*
X355726Y451598D01*
X355726Y451591D01*
X355721Y451590D01*
X355027Y450293D01*
X355028Y450287D01*
X355026Y450285D01*
X355024Y450284D01*
X354964Y450087D01*
X354740Y449348D01*
X354725Y449299D01*
X354597Y448877D01*
X354600Y448871D01*
X354595Y448868D01*
X354451Y447405D01*
X354453Y447402D01*
X354451Y447400D01*
X354451Y439400D01*
X354453Y439397D01*
X354451Y439395D01*
X354595Y437932D01*
X354600Y437927D01*
X354597Y437923D01*
X355024Y436516D01*
X355030Y436511D01*
X355027Y436507D01*
X355721Y435210D01*
X355727Y435207D01*
X355726Y435202D01*
X356659Y434065D01*
X356666Y434064D01*
X356665Y434059D01*
X357802Y433126D01*
X357809Y433126D01*
X357810Y433121D01*
X359107Y432427D01*
X359114Y432429D01*
X359116Y432424D01*
X360523Y431997D01*
X360527Y431999D01*
X360530Y431999D01*
X360532Y431995D01*
X361995Y431851D01*
X362001Y431855D01*
X362005Y431851D01*
X363468Y431995D01*
G37*
G36*
X-27632Y52095D02*
X-27632Y52095D01*
X-27628Y52099D01*
X-27625Y52099D01*
X-27623Y52097D01*
X-26216Y52524D01*
X-26211Y52530D01*
X-26207Y52527D01*
X-24910Y53221D01*
X-24907Y53227D01*
X-24902Y53226D01*
X-23765Y54159D01*
X-23764Y54166D01*
X-23759Y54165D01*
X-22826Y55302D01*
X-22826Y55309D01*
X-22821Y55310D01*
X-22127Y56607D01*
X-22128Y56613D01*
X-22125Y56615D01*
X-22124Y56616D01*
X-21974Y57109D01*
X-21959Y57158D01*
X-21735Y57897D01*
X-21697Y58023D01*
X-21700Y58029D01*
X-21695Y58032D01*
X-21551Y59495D01*
X-21553Y59498D01*
X-21551Y59500D01*
X-21551Y67500D01*
X-21553Y67503D01*
X-21551Y67505D01*
X-21695Y68968D01*
X-21700Y68973D01*
X-21697Y68977D01*
X-22124Y70384D01*
X-22130Y70389D01*
X-22127Y70393D01*
X-22821Y71690D01*
X-22827Y71693D01*
X-22826Y71698D01*
X-23759Y72835D01*
X-23766Y72836D01*
X-23765Y72841D01*
X-24902Y73774D01*
X-24909Y73774D01*
X-24910Y73779D01*
X-26207Y74473D01*
X-26214Y74471D01*
X-26216Y74476D01*
X-27623Y74903D01*
X-27627Y74901D01*
X-27630Y74901D01*
X-27632Y74905D01*
X-29095Y75049D01*
X-29097Y75048D01*
X-29097Y75049D01*
X-29103Y75049D01*
X-29104Y75048D01*
X-29105Y75049D01*
X-30568Y74905D01*
X-30572Y74901D01*
X-30575Y74901D01*
X-30577Y74903D01*
X-31984Y74476D01*
X-31989Y74470D01*
X-31993Y74473D01*
X-33290Y73779D01*
X-33293Y73773D01*
X-33298Y73774D01*
X-34435Y72841D01*
X-34436Y72834D01*
X-34441Y72835D01*
X-35374Y71698D01*
X-35374Y71691D01*
X-35379Y71690D01*
X-36073Y70393D01*
X-36072Y70387D01*
X-36074Y70385D01*
X-36076Y70384D01*
X-36136Y70187D01*
X-36360Y69448D01*
X-36375Y69399D01*
X-36503Y68977D01*
X-36501Y68971D01*
X-36505Y68968D01*
X-36649Y67505D01*
X-36647Y67502D01*
X-36649Y67500D01*
X-36649Y59500D01*
X-36647Y59497D01*
X-36649Y59495D01*
X-36505Y58032D01*
X-36500Y58027D01*
X-36503Y58023D01*
X-36076Y56616D01*
X-36070Y56611D01*
X-36073Y56607D01*
X-35379Y55310D01*
X-35373Y55307D01*
X-35374Y55302D01*
X-34441Y54165D01*
X-34434Y54164D01*
X-34435Y54159D01*
X-33298Y53226D01*
X-33291Y53226D01*
X-33290Y53221D01*
X-31993Y52527D01*
X-31986Y52529D01*
X-31984Y52524D01*
X-30577Y52097D01*
X-30573Y52099D01*
X-30570Y52099D01*
X-30568Y52095D01*
X-29105Y51951D01*
X-29099Y51955D01*
X-29095Y51951D01*
X-27632Y52095D01*
G37*
G36*
X239068Y52095D02*
X239068Y52095D01*
X239072Y52099D01*
X239075Y52099D01*
X239077Y52097D01*
X240484Y52524D01*
X240489Y52530D01*
X240493Y52527D01*
X241790Y53221D01*
X241793Y53227D01*
X241798Y53226D01*
X242935Y54159D01*
X242936Y54166D01*
X242941Y54165D01*
X243874Y55302D01*
X243874Y55309D01*
X243879Y55310D01*
X244573Y56607D01*
X244572Y56613D01*
X244575Y56615D01*
X244576Y56616D01*
X244726Y57109D01*
X244741Y57158D01*
X244965Y57897D01*
X245003Y58023D01*
X245001Y58029D01*
X245005Y58032D01*
X245149Y59495D01*
X245147Y59498D01*
X245149Y59500D01*
X245149Y67500D01*
X245147Y67503D01*
X245149Y67505D01*
X245005Y68968D01*
X245000Y68973D01*
X245003Y68977D01*
X244576Y70384D01*
X244570Y70389D01*
X244573Y70393D01*
X243879Y71690D01*
X243873Y71693D01*
X243874Y71698D01*
X242941Y72835D01*
X242934Y72836D01*
X242935Y72841D01*
X241798Y73774D01*
X241791Y73774D01*
X241790Y73779D01*
X240493Y74473D01*
X240486Y74471D01*
X240484Y74476D01*
X239077Y74903D01*
X239073Y74901D01*
X239070Y74901D01*
X239068Y74905D01*
X237605Y75049D01*
X237603Y75048D01*
X237603Y75049D01*
X237597Y75049D01*
X237596Y75048D01*
X237595Y75049D01*
X236132Y74905D01*
X236128Y74901D01*
X236125Y74901D01*
X236123Y74903D01*
X234716Y74476D01*
X234711Y74470D01*
X234707Y74473D01*
X233410Y73779D01*
X233407Y73773D01*
X233402Y73774D01*
X232265Y72841D01*
X232264Y72834D01*
X232259Y72835D01*
X231326Y71698D01*
X231326Y71691D01*
X231321Y71690D01*
X230627Y70393D01*
X230628Y70387D01*
X230626Y70385D01*
X230624Y70384D01*
X230564Y70187D01*
X230340Y69448D01*
X230325Y69399D01*
X230197Y68977D01*
X230200Y68971D01*
X230195Y68968D01*
X230051Y67505D01*
X230053Y67502D01*
X230051Y67500D01*
X230051Y59500D01*
X230053Y59497D01*
X230051Y59495D01*
X230195Y58032D01*
X230200Y58027D01*
X230197Y58023D01*
X230624Y56616D01*
X230630Y56611D01*
X230627Y56607D01*
X231321Y55310D01*
X231327Y55307D01*
X231326Y55302D01*
X232259Y54165D01*
X232266Y54164D01*
X232265Y54159D01*
X233402Y53226D01*
X233409Y53226D01*
X233410Y53221D01*
X234707Y52527D01*
X234714Y52529D01*
X234716Y52524D01*
X236123Y52097D01*
X236127Y52099D01*
X236130Y52099D01*
X236132Y52095D01*
X237595Y51951D01*
X237601Y51955D01*
X237605Y51951D01*
X239068Y52095D01*
G37*
G36*
X360768Y52095D02*
X360768Y52095D01*
X360772Y52099D01*
X360775Y52099D01*
X360777Y52097D01*
X362184Y52524D01*
X362189Y52530D01*
X362193Y52527D01*
X363490Y53221D01*
X363493Y53227D01*
X363498Y53226D01*
X364635Y54159D01*
X364636Y54166D01*
X364641Y54165D01*
X365574Y55302D01*
X365574Y55309D01*
X365579Y55310D01*
X366273Y56607D01*
X366272Y56613D01*
X366275Y56615D01*
X366276Y56616D01*
X366426Y57109D01*
X366441Y57158D01*
X366665Y57897D01*
X366703Y58023D01*
X366701Y58029D01*
X366705Y58032D01*
X366849Y59495D01*
X366847Y59498D01*
X366849Y59500D01*
X366849Y67500D01*
X366847Y67503D01*
X366849Y67505D01*
X366705Y68968D01*
X366700Y68973D01*
X366703Y68977D01*
X366276Y70384D01*
X366270Y70389D01*
X366273Y70393D01*
X365579Y71690D01*
X365573Y71693D01*
X365574Y71698D01*
X364641Y72835D01*
X364634Y72836D01*
X364635Y72841D01*
X363498Y73774D01*
X363491Y73774D01*
X363490Y73779D01*
X362193Y74473D01*
X362186Y74471D01*
X362184Y74476D01*
X360777Y74903D01*
X360773Y74901D01*
X360770Y74901D01*
X360768Y74905D01*
X359305Y75049D01*
X359303Y75048D01*
X359303Y75049D01*
X359297Y75049D01*
X359296Y75048D01*
X359295Y75049D01*
X357832Y74905D01*
X357828Y74901D01*
X357825Y74901D01*
X357823Y74903D01*
X356416Y74476D01*
X356411Y74470D01*
X356407Y74473D01*
X355110Y73779D01*
X355107Y73773D01*
X355102Y73774D01*
X353965Y72841D01*
X353964Y72834D01*
X353959Y72835D01*
X353026Y71698D01*
X353026Y71691D01*
X353021Y71690D01*
X352327Y70393D01*
X352328Y70387D01*
X352326Y70385D01*
X352324Y70384D01*
X352264Y70187D01*
X352040Y69448D01*
X352025Y69399D01*
X351897Y68977D01*
X351900Y68971D01*
X351895Y68968D01*
X351751Y67505D01*
X351753Y67502D01*
X351751Y67500D01*
X351751Y59500D01*
X351753Y59497D01*
X351751Y59495D01*
X351895Y58032D01*
X351900Y58027D01*
X351897Y58023D01*
X352324Y56616D01*
X352330Y56611D01*
X352327Y56607D01*
X353021Y55310D01*
X353027Y55307D01*
X353026Y55302D01*
X353959Y54165D01*
X353966Y54164D01*
X353965Y54159D01*
X355102Y53226D01*
X355109Y53226D01*
X355110Y53221D01*
X356407Y52527D01*
X356414Y52529D01*
X356416Y52524D01*
X357823Y52097D01*
X357827Y52099D01*
X357830Y52099D01*
X357832Y52095D01*
X359295Y51951D01*
X359301Y51955D01*
X359305Y51951D01*
X360768Y52095D01*
G37*
G36*
X-172632Y52095D02*
X-172632Y52095D01*
X-172628Y52099D01*
X-172625Y52099D01*
X-172623Y52097D01*
X-171216Y52524D01*
X-171211Y52530D01*
X-171207Y52527D01*
X-169910Y53221D01*
X-169907Y53227D01*
X-169902Y53226D01*
X-168765Y54159D01*
X-168764Y54166D01*
X-168759Y54165D01*
X-167826Y55302D01*
X-167826Y55309D01*
X-167821Y55310D01*
X-167127Y56607D01*
X-167128Y56613D01*
X-167125Y56615D01*
X-167124Y56616D01*
X-166974Y57109D01*
X-166959Y57158D01*
X-166735Y57897D01*
X-166697Y58023D01*
X-166700Y58029D01*
X-166695Y58032D01*
X-166551Y59495D01*
X-166553Y59498D01*
X-166551Y59500D01*
X-166551Y67500D01*
X-166553Y67503D01*
X-166551Y67505D01*
X-166695Y68968D01*
X-166700Y68973D01*
X-166697Y68977D01*
X-167124Y70384D01*
X-167130Y70389D01*
X-167127Y70393D01*
X-167821Y71690D01*
X-167827Y71693D01*
X-167826Y71698D01*
X-168759Y72835D01*
X-168766Y72836D01*
X-168765Y72841D01*
X-169902Y73774D01*
X-169909Y73774D01*
X-169910Y73779D01*
X-171207Y74473D01*
X-171214Y74471D01*
X-171216Y74476D01*
X-172623Y74903D01*
X-172627Y74901D01*
X-172630Y74901D01*
X-172632Y74905D01*
X-174095Y75049D01*
X-174097Y75048D01*
X-174097Y75049D01*
X-174103Y75049D01*
X-174104Y75048D01*
X-174105Y75049D01*
X-175568Y74905D01*
X-175572Y74901D01*
X-175575Y74901D01*
X-175577Y74903D01*
X-176984Y74476D01*
X-176989Y74470D01*
X-176993Y74473D01*
X-178290Y73779D01*
X-178293Y73773D01*
X-178298Y73774D01*
X-179435Y72841D01*
X-179436Y72834D01*
X-179441Y72835D01*
X-180374Y71698D01*
X-180374Y71691D01*
X-180379Y71690D01*
X-181073Y70393D01*
X-181072Y70387D01*
X-181074Y70385D01*
X-181076Y70384D01*
X-181136Y70187D01*
X-181360Y69448D01*
X-181375Y69399D01*
X-181503Y68977D01*
X-181501Y68971D01*
X-181505Y68968D01*
X-181649Y67505D01*
X-181647Y67502D01*
X-181649Y67500D01*
X-181649Y59500D01*
X-181647Y59497D01*
X-181649Y59495D01*
X-181505Y58032D01*
X-181500Y58027D01*
X-181503Y58023D01*
X-181076Y56616D01*
X-181070Y56611D01*
X-181073Y56607D01*
X-180379Y55310D01*
X-180373Y55307D01*
X-180374Y55302D01*
X-179441Y54165D01*
X-179434Y54164D01*
X-179435Y54159D01*
X-178298Y53226D01*
X-178291Y53226D01*
X-178290Y53221D01*
X-176993Y52527D01*
X-176986Y52529D01*
X-176984Y52524D01*
X-175577Y52097D01*
X-175573Y52099D01*
X-175570Y52099D01*
X-175568Y52095D01*
X-174105Y51951D01*
X-174099Y51955D01*
X-174095Y51951D01*
X-172632Y52095D01*
G37*
G36*
X94068Y52095D02*
X94068Y52095D01*
X94072Y52099D01*
X94075Y52099D01*
X94077Y52097D01*
X95484Y52524D01*
X95489Y52530D01*
X95493Y52527D01*
X96790Y53221D01*
X96793Y53227D01*
X96798Y53226D01*
X97935Y54159D01*
X97936Y54166D01*
X97941Y54165D01*
X98874Y55302D01*
X98874Y55309D01*
X98879Y55310D01*
X99573Y56607D01*
X99572Y56613D01*
X99575Y56615D01*
X99576Y56616D01*
X99726Y57109D01*
X99741Y57158D01*
X99965Y57897D01*
X100003Y58023D01*
X100001Y58029D01*
X100005Y58032D01*
X100149Y59495D01*
X100147Y59498D01*
X100149Y59500D01*
X100149Y67500D01*
X100147Y67503D01*
X100149Y67505D01*
X100005Y68968D01*
X100000Y68973D01*
X100003Y68977D01*
X99576Y70384D01*
X99570Y70389D01*
X99573Y70393D01*
X98879Y71690D01*
X98873Y71693D01*
X98874Y71698D01*
X97941Y72835D01*
X97934Y72836D01*
X97935Y72841D01*
X96798Y73774D01*
X96791Y73774D01*
X96790Y73779D01*
X95493Y74473D01*
X95486Y74471D01*
X95484Y74476D01*
X94077Y74903D01*
X94073Y74901D01*
X94070Y74901D01*
X94068Y74905D01*
X92605Y75049D01*
X92603Y75048D01*
X92603Y75049D01*
X92597Y75049D01*
X92596Y75048D01*
X92595Y75049D01*
X91132Y74905D01*
X91128Y74901D01*
X91125Y74901D01*
X91123Y74903D01*
X89716Y74476D01*
X89711Y74470D01*
X89707Y74473D01*
X88410Y73779D01*
X88407Y73773D01*
X88402Y73774D01*
X87265Y72841D01*
X87264Y72834D01*
X87259Y72835D01*
X86326Y71698D01*
X86326Y71691D01*
X86321Y71690D01*
X85627Y70393D01*
X85628Y70387D01*
X85626Y70385D01*
X85624Y70384D01*
X85564Y70187D01*
X85340Y69448D01*
X85325Y69399D01*
X85197Y68977D01*
X85200Y68971D01*
X85195Y68968D01*
X85051Y67505D01*
X85053Y67502D01*
X85051Y67500D01*
X85051Y59500D01*
X85053Y59497D01*
X85051Y59495D01*
X85195Y58032D01*
X85200Y58027D01*
X85197Y58023D01*
X85624Y56616D01*
X85630Y56611D01*
X85627Y56607D01*
X86321Y55310D01*
X86327Y55307D01*
X86326Y55302D01*
X87259Y54165D01*
X87266Y54164D01*
X87265Y54159D01*
X88402Y53226D01*
X88409Y53226D01*
X88410Y53221D01*
X89707Y52527D01*
X89714Y52529D01*
X89716Y52524D01*
X91123Y52097D01*
X91127Y52099D01*
X91130Y52099D01*
X91132Y52095D01*
X92595Y51951D01*
X92601Y51955D01*
X92605Y51951D01*
X94068Y52095D01*
G37*
G36*
X505768Y52095D02*
X505768Y52095D01*
X505772Y52099D01*
X505775Y52099D01*
X505777Y52097D01*
X507184Y52524D01*
X507189Y52530D01*
X507193Y52527D01*
X508490Y53221D01*
X508493Y53227D01*
X508498Y53226D01*
X509635Y54159D01*
X509636Y54166D01*
X509641Y54165D01*
X510574Y55302D01*
X510574Y55309D01*
X510579Y55310D01*
X511273Y56607D01*
X511272Y56613D01*
X511275Y56615D01*
X511276Y56616D01*
X511426Y57109D01*
X511441Y57158D01*
X511665Y57897D01*
X511703Y58023D01*
X511701Y58029D01*
X511705Y58032D01*
X511849Y59495D01*
X511847Y59498D01*
X511849Y59500D01*
X511849Y67500D01*
X511847Y67503D01*
X511849Y67505D01*
X511705Y68968D01*
X511700Y68973D01*
X511703Y68977D01*
X511276Y70384D01*
X511270Y70389D01*
X511273Y70393D01*
X510579Y71690D01*
X510573Y71693D01*
X510574Y71698D01*
X509641Y72835D01*
X509634Y72836D01*
X509635Y72841D01*
X508498Y73774D01*
X508491Y73774D01*
X508490Y73779D01*
X507193Y74473D01*
X507186Y74471D01*
X507184Y74476D01*
X505777Y74903D01*
X505773Y74901D01*
X505770Y74901D01*
X505768Y74905D01*
X504305Y75049D01*
X504303Y75048D01*
X504303Y75049D01*
X504297Y75049D01*
X504296Y75048D01*
X504295Y75049D01*
X502832Y74905D01*
X502828Y74901D01*
X502825Y74901D01*
X502823Y74903D01*
X501416Y74476D01*
X501411Y74470D01*
X501407Y74473D01*
X500110Y73779D01*
X500107Y73773D01*
X500102Y73774D01*
X498965Y72841D01*
X498964Y72834D01*
X498959Y72835D01*
X498026Y71698D01*
X498026Y71691D01*
X498021Y71690D01*
X497327Y70393D01*
X497328Y70387D01*
X497326Y70385D01*
X497324Y70384D01*
X497264Y70187D01*
X497040Y69448D01*
X497025Y69399D01*
X496897Y68977D01*
X496900Y68971D01*
X496895Y68968D01*
X496751Y67505D01*
X496753Y67502D01*
X496751Y67500D01*
X496751Y59500D01*
X496753Y59497D01*
X496751Y59495D01*
X496895Y58032D01*
X496900Y58027D01*
X496897Y58023D01*
X497324Y56616D01*
X497330Y56611D01*
X497327Y56607D01*
X498021Y55310D01*
X498027Y55307D01*
X498026Y55302D01*
X498959Y54165D01*
X498966Y54164D01*
X498965Y54159D01*
X500102Y53226D01*
X500109Y53226D01*
X500110Y53221D01*
X501407Y52527D01*
X501414Y52529D01*
X501416Y52524D01*
X502823Y52097D01*
X502827Y52099D01*
X502830Y52099D01*
X502832Y52095D01*
X504295Y51951D01*
X504301Y51955D01*
X504305Y51951D01*
X505768Y52095D01*
G37*
D10*
X167800Y400700D03*
D11*
X386800Y130700D03*
X476800Y130700D03*
X431800Y130700D03*
X456800Y130700D03*
X406800Y130700D03*
X396800Y130700D03*
X391800Y130700D03*
X401800Y130700D03*
X411800Y130700D03*
X416800Y130700D03*
X421800Y130700D03*
X426800Y130700D03*
X436800Y130700D03*
X441800Y130700D03*
X446800Y130700D03*
X451800Y130700D03*
X461800Y130700D03*
X466800Y130700D03*
X471800Y130700D03*
D12*
X359300Y123100D03*
X359300Y63500D03*
X504300Y123100D03*
X504300Y63500D03*
D11*
X479500Y376200D03*
X389500Y376200D03*
X434500Y376200D03*
X409500Y376200D03*
X459500Y376200D03*
X469500Y376200D03*
X474500Y376200D03*
X464500Y376200D03*
X454500Y376200D03*
X449500Y376200D03*
X444500Y376200D03*
X439500Y376200D03*
X429500Y376200D03*
X424500Y376200D03*
X419500Y376200D03*
X414500Y376200D03*
X404500Y376200D03*
X399500Y376200D03*
X394500Y376200D03*
D12*
X507000Y383800D03*
X507000Y443400D03*
X362000Y383800D03*
X362000Y443400D03*
D11*
X-146600Y130700D03*
X-56600Y130700D03*
X-101600Y130700D03*
X-76600Y130700D03*
X-126600Y130700D03*
X-136600Y130700D03*
X-141600Y130700D03*
X-131600Y130700D03*
X-121600Y130700D03*
X-116600Y130700D03*
X-111600Y130700D03*
X-106600Y130700D03*
X-96600Y130700D03*
X-91600Y130700D03*
X-86600Y130700D03*
X-81600Y130700D03*
X-71600Y130700D03*
X-66600Y130700D03*
X-61600Y130700D03*
D12*
X-174100Y123100D03*
X-174100Y63500D03*
X-29100Y123100D03*
X-29100Y63500D03*
D11*
X120100Y130700D03*
X210100Y130700D03*
X165100Y130700D03*
X190100Y130700D03*
X140100Y130700D03*
X130100Y130700D03*
X125100Y130700D03*
X135100Y130700D03*
X145100Y130700D03*
X150100Y130700D03*
X155100Y130700D03*
X160100Y130700D03*
X170100Y130700D03*
X175100Y130700D03*
X180100Y130700D03*
X185100Y130700D03*
X195100Y130700D03*
X200100Y130700D03*
X205100Y130700D03*
D12*
X92600Y123100D03*
X92600Y63500D03*
X237600Y123100D03*
X237600Y63500D03*
D13*
X105250Y299692D03*
X105250Y294612D03*
X105250Y289532D03*
X105250Y284706D03*
X105250Y279626D03*
X105250Y274546D03*
X105250Y269720D03*
X105250Y264640D03*
X105250Y259560D03*
X105250Y254480D03*
X105250Y249654D03*
X105250Y244574D03*
X105250Y239494D03*
X105250Y234668D03*
X105250Y229588D03*
X105250Y224508D03*
D14*
X124808Y204950D03*
X129888Y204950D03*
X134968Y204950D03*
X139794Y204950D03*
X144874Y204950D03*
X149954Y204950D03*
X154780Y204950D03*
X159860Y204950D03*
X164940Y204950D03*
X170020Y204950D03*
X174846Y204950D03*
X179926Y204950D03*
X185006Y204950D03*
X189832Y204950D03*
X194912Y204950D03*
X199992Y204950D03*
D13*
X219550Y224508D03*
X219550Y229588D03*
X219550Y234668D03*
X219550Y239494D03*
X219550Y244574D03*
X219550Y249654D03*
X219550Y254480D03*
X219550Y259560D03*
X219550Y264640D03*
X219550Y269720D03*
X219550Y274546D03*
X219550Y279626D03*
X219550Y284706D03*
X219550Y289532D03*
X219550Y294612D03*
X219550Y299692D03*
D14*
X199992Y319250D03*
X194912Y319250D03*
X189832Y319250D03*
X185006Y319250D03*
X179926Y319250D03*
X174846Y319250D03*
X170020Y319250D03*
X164940Y319250D03*
X159860Y319250D03*
X154780Y319250D03*
X149954Y319250D03*
X144874Y319250D03*
X139794Y319250D03*
X134968Y319250D03*
X129888Y319250D03*
X124808Y319250D03*
D15*
X-45200Y234800D03*
X-19800Y234800D03*
X-19800Y311000D03*
X-45200Y311000D03*
X5600Y234800D03*
X31000Y234800D03*
X5600Y311000D03*
X31000Y311000D03*
D16*
X415350Y309500D02*
X431450Y309500D01*
X415350Y309500D02*
X415350Y312500D01*
X431450Y312500D01*
X431450Y309500D01*
X431450Y312350D02*
X415350Y312350D01*
X415350Y296800D02*
X431450Y296800D01*
X415350Y296800D02*
X415350Y299800D01*
X431450Y299800D01*
X431450Y296800D01*
X431450Y299650D02*
X415350Y299650D01*
X415350Y284100D02*
X431450Y284100D01*
X415350Y284100D02*
X415350Y287100D01*
X431450Y287100D01*
X431450Y284100D01*
X431450Y286950D02*
X415350Y286950D01*
X415350Y271400D02*
X431450Y271400D01*
X415350Y271400D02*
X415350Y274400D01*
X431450Y274400D01*
X431450Y271400D01*
X431450Y274250D02*
X415350Y274250D01*
X415350Y258700D02*
X431450Y258700D01*
X415350Y258700D02*
X415350Y261700D01*
X431450Y261700D01*
X431450Y258700D01*
X431450Y261550D02*
X415350Y261550D01*
X415350Y246000D02*
X431450Y246000D01*
X415350Y246000D02*
X415350Y249000D01*
X431450Y249000D01*
X431450Y246000D01*
X431450Y248850D02*
X415350Y248850D01*
X415350Y233300D02*
X431450Y233300D01*
X415350Y233300D02*
X415350Y236300D01*
X431450Y236300D01*
X431450Y233300D01*
X431450Y236150D02*
X415350Y236150D01*
X464550Y233300D02*
X480650Y233300D01*
X464550Y233300D02*
X464550Y236300D01*
X480650Y236300D01*
X480650Y233300D01*
X480650Y236150D02*
X464550Y236150D01*
X464550Y246000D02*
X480650Y246000D01*
X464550Y246000D02*
X464550Y249000D01*
X480650Y249000D01*
X480650Y246000D01*
X480650Y248850D02*
X464550Y248850D01*
X464550Y258700D02*
X480650Y258700D01*
X464550Y258700D02*
X464550Y261700D01*
X480650Y261700D01*
X480650Y258700D01*
X480650Y261550D02*
X464550Y261550D01*
X464550Y271400D02*
X480650Y271400D01*
X464550Y271400D02*
X464550Y274400D01*
X480650Y274400D01*
X480650Y271400D01*
X480650Y274250D02*
X464550Y274250D01*
X464550Y284100D02*
X480650Y284100D01*
X464550Y284100D02*
X464550Y287100D01*
X480650Y287100D01*
X480650Y284100D01*
X480650Y286950D02*
X464550Y286950D01*
X464550Y296800D02*
X480650Y296800D01*
X464550Y296800D02*
X464550Y299800D01*
X480650Y299800D01*
X480650Y296800D01*
X480650Y299650D02*
X464550Y299650D01*
X464550Y309500D02*
X480650Y309500D01*
X464550Y309500D02*
X464550Y312500D01*
X480650Y312500D01*
X480650Y309500D01*
X480650Y312350D02*
X464550Y312350D01*
D10*
X294800Y400700D03*
X254000Y400700D03*
X215900Y400700D03*
D17*
X299100Y268600D03*
D18*
X324500Y268600D03*
X349900Y268600D03*
D19*
X-130000Y201900D03*
X-130000Y278100D03*
X-190000Y201900D03*
X-190000Y278100D03*
D20*
X-160000Y278100D03*
X-160000Y201900D03*
D21*
X161080Y186068D03*
D22*
X156177Y203553D02*
X154780Y204950D01*
X156177Y203553D02*
X156177Y196637D01*
X161080Y191735D02*
X161080Y186068D01*
X161080Y191735D02*
X156177Y196637D01*
D21*
X230000Y170000D03*
D22*
X220000Y160000D01*
X190000Y160000D01*
X180100Y150100D01*
X180100Y130700D01*
D21*
X170000Y190000D03*
D22*
X161257Y203553D02*
X159860Y204950D01*
X161257Y203553D02*
X161257Y196637D01*
X162596Y195298D01*
X164702Y195298D01*
X170000Y190000D01*
D21*
X230047Y179953D03*
D22*
X225776Y179953D01*
X210584Y164760D01*
X179733Y164760D02*
X170100Y155127D01*
X179733Y164760D02*
X210584Y164760D01*
X170100Y155127D02*
X170100Y130700D01*
X138651Y213263D02*
X134264Y217650D01*
X121202Y217650D01*
X138651Y206093D02*
X139794Y204950D01*
X138651Y206093D02*
X138651Y213263D01*
X195100Y144900D02*
X195100Y130700D01*
X109017Y205465D02*
X121202Y217650D01*
X109017Y205465D02*
X109017Y200000D01*
D21*
X109017Y200000D03*
X190000Y150000D03*
D22*
X195100Y144900D01*
X144874Y204950D02*
X143477Y206347D01*
X143477Y210000D01*
D21*
X104816Y190000D03*
D22*
X104816Y195620D02*
X102949Y197487D01*
X104816Y195620D02*
X104816Y190000D01*
X102949Y203708D02*
X119939Y220698D01*
X102949Y203708D02*
X102949Y197487D01*
X185100Y130700D02*
X185100Y115100D01*
X180000Y110000D01*
D21*
X180000Y110000D03*
D22*
X143477Y210000D02*
X143477Y213263D01*
X136042Y220698D01*
X119939Y220698D01*
X220000Y150000D02*
X220000Y140600D01*
X210100Y130700D01*
X124808Y194808D02*
X124808Y204950D01*
X124808Y194808D02*
X120000Y190000D01*
D21*
X120000Y190000D03*
X220000Y150000D03*
D22*
X128491Y213263D02*
X127152Y214602D01*
X122464Y214602D01*
X128491Y206347D02*
X129888Y204950D01*
X128491Y206347D02*
X128491Y213263D01*
X122464Y214602D02*
X118105Y210243D01*
X118105Y200000D01*
D21*
X118105Y200000D03*
X210000Y150000D03*
D22*
X200100Y150000D01*
X200100Y130700D01*
X504300Y123100D02*
X504300Y381100D01*
X507000Y383800D01*
X504300Y63500D02*
X359300Y63500D01*
X92600Y123100D02*
X-29100Y123100D01*
X-29100Y63500D02*
X-174100Y63500D01*
X362000Y443400D02*
X507000Y443400D01*
X439500Y376200D02*
X440000Y375700D01*
X440000Y350000D01*
D21*
X440000Y350000D03*
X540000Y330000D03*
D22*
X546230Y323770D01*
X546230Y100000D02*
X529278Y83048D01*
X546230Y100000D02*
X546230Y323770D01*
D21*
X320000Y80000D03*
X280000Y80000D03*
D22*
X274311Y80000D01*
X400000Y83048D02*
X529278Y83048D01*
X426800Y130700D02*
X426800Y169024D01*
X425732Y170092D01*
D21*
X425732Y170092D03*
X360000Y166068D03*
D22*
X354650Y166068D01*
X352514Y168204D01*
X320000Y81419D02*
X320000Y80000D01*
X339244Y168204D02*
X352514Y168204D01*
X339244Y168204D02*
X307836Y136796D01*
X307836Y93583D01*
X320000Y81419D01*
X170000Y90000D02*
X166096Y90000D01*
X163048Y93048D01*
X170000Y90000D02*
X176952Y83048D01*
X163048Y93048D02*
X-100000Y93048D01*
X160100Y110100D02*
X160100Y130700D01*
X160100Y110100D02*
X160000Y110000D01*
D21*
X160000Y110000D03*
X170000Y90000D03*
D22*
X-100000Y93048D02*
X-106600Y99648D01*
X-106600Y130700D01*
X207359Y83048D02*
X218315Y94004D01*
X260307Y94004D02*
X274311Y80000D01*
X260307Y94004D02*
X218315Y94004D01*
X207359Y83048D02*
X176952Y83048D01*
X393048Y90000D02*
X400000Y83048D01*
X330000Y90000D02*
X320000Y80000D01*
X330000Y90000D02*
X393048Y90000D01*
X424500Y354500D02*
X424500Y376200D01*
X424500Y354500D02*
X420000Y350000D01*
D21*
X420000Y350000D03*
X530000Y330000D03*
D22*
X543182Y316818D01*
X543182Y110000D02*
X519278Y86096D01*
X543182Y110000D02*
X543182Y316818D01*
D21*
X320000Y90000D03*
X280000Y90000D03*
X440000Y160000D03*
D22*
X440586Y131914D02*
X441800Y130700D01*
X440586Y131914D02*
X440586Y144647D01*
X440000Y145233D01*
X440000Y160000D01*
D21*
X350000Y162136D03*
D22*
X320000Y91419D02*
X320000Y90000D01*
X337487Y162136D02*
X350000Y162136D01*
X337487Y162136D02*
X310884Y135534D01*
X310884Y100535D01*
X320000Y91419D01*
X280000Y90000D02*
X270000Y90000D01*
X210000Y90000D02*
X190000Y90000D01*
X175100Y115100D02*
X175100Y130700D01*
X175100Y115100D02*
X170000Y110000D01*
D21*
X170000Y110000D03*
X190000Y90000D03*
D22*
X-91600Y101600D02*
X-91600Y130700D01*
X180000Y90000D02*
X190000Y90000D01*
X262948Y97052D02*
X270000Y90000D01*
X217052Y97052D02*
X210000Y90000D01*
X217052Y97052D02*
X262948Y97052D01*
X180000Y90000D02*
X173048Y96952D01*
X-86952Y96952D01*
X-91600Y101600D01*
X403904Y86096D02*
X519278Y86096D01*
X396096Y93904D02*
X330523Y93904D01*
X330495Y93932D01*
X396096Y93904D02*
X403904Y86096D01*
X323932Y93932D02*
X320000Y90000D01*
X323932Y93932D02*
X330495Y93932D01*
X410000Y375700D02*
X409500Y376200D01*
X410000Y375700D02*
X410000Y350000D01*
D21*
X410000Y350000D03*
X520000Y330000D03*
D22*
X540000Y310000D01*
X540000Y111129D01*
X518871Y90000D01*
D21*
X320000Y100000D03*
X280000Y100000D03*
D22*
X456800Y130700D02*
X456800Y153200D01*
X450000Y160000D01*
D21*
X450000Y160000D03*
X340000Y156068D03*
D22*
X320000Y101419D02*
X320000Y100000D01*
X320000Y101419D02*
X313932Y107487D01*
X313932Y130000D02*
X340000Y156068D01*
X313932Y130000D02*
X313932Y107487D01*
X190100Y110000D02*
X190100Y130700D01*
X279900Y100100D02*
X280000Y100000D01*
X279900Y100100D02*
X204032Y100100D01*
X200000Y100100D01*
X200000Y100000D01*
X-70000Y100000D02*
X-76600Y106600D01*
X-76600Y130700D01*
X-70000Y100000D02*
X200000Y100000D01*
D21*
X190100Y110000D03*
X200000Y96068D03*
D22*
X204032Y100100D01*
X320000Y100000D02*
X328737Y100000D01*
X398737Y96952D02*
X405689Y90000D01*
X331785Y96952D02*
X328737Y100000D01*
X331785Y96952D02*
X398737Y96952D01*
X405689Y90000D02*
X518871Y90000D01*
X394500Y355500D02*
X394500Y376200D01*
X394500Y355500D02*
X400000Y350000D01*
D21*
X400000Y350000D03*
X510368Y330000D03*
D22*
X536952Y303416D01*
X536952Y112391D02*
X517609Y93048D01*
X536952Y112391D02*
X536952Y303416D01*
X333048Y100000D02*
X323048Y110000D01*
X320000Y110000D01*
D21*
X320000Y110000D03*
X280000Y110000D03*
X470000Y150000D03*
D22*
X470586Y131914D02*
X471800Y130700D01*
X470586Y131914D02*
X470586Y144647D01*
X470000Y145233D01*
X470000Y150000D01*
D21*
X350000Y150000D03*
D22*
X340000Y150000D01*
X320000Y130000D01*
X320000Y110000D01*
X205100Y104900D02*
X205100Y130700D01*
X274900Y104900D02*
X280000Y110000D01*
X274900Y104900D02*
X270000Y104900D01*
X210000Y104900D02*
X205100Y104900D01*
X193582Y104900D01*
X192614Y103932D01*
X-53932Y103932D01*
X-61600Y111600D02*
X-61600Y130700D01*
X-61600Y111600D02*
X-53932Y103932D01*
X268248Y103148D02*
X270000Y104900D01*
X211752Y103148D02*
X210000Y104900D01*
X211752Y103148D02*
X268248Y103148D01*
X400000Y100000D02*
X406952Y93048D01*
X400000Y100000D02*
X333048Y100000D01*
X406952Y93048D02*
X517609Y93048D01*
X225212Y206301D02*
X207767Y223746D01*
X225212Y206301D02*
X225212Y183699D01*
X209321Y167808D01*
X177808Y167808D01*
X171163Y213263D02*
X181646Y223746D01*
X207767Y223746D01*
X171163Y206093D02*
X170020Y204950D01*
X171163Y206093D02*
X171163Y213263D01*
X165100Y155100D02*
X165100Y130700D01*
X165100Y155100D02*
X177808Y167808D01*
X222164Y205039D02*
X206505Y220698D01*
X222164Y205039D02*
X222164Y184961D01*
X208059Y170856D01*
X170856Y170856D01*
X175481Y212501D02*
X183678Y220698D01*
X206505Y220698D01*
X175481Y205585D02*
X174846Y204950D01*
X175481Y205585D02*
X175481Y212501D01*
X155100Y155100D02*
X155100Y130700D01*
X155100Y155100D02*
X170856Y170856D01*
X-82814Y144647D02*
X-84084Y145916D01*
X-84153Y145986D01*
X-94047Y145986D02*
X-95386Y144647D01*
X-82814Y131914D02*
X-81600Y130700D01*
X-82814Y131914D02*
X-82814Y144647D01*
X-95386Y144647D02*
X-95386Y131914D01*
X-96600Y130700D01*
X-94047Y145986D02*
X-84153Y145986D01*
X-79116Y145916D02*
X-79047Y145986D01*
X-64047Y145986D01*
X-79116Y145916D02*
X-84084Y145916D01*
X-64047Y145986D02*
X-46985Y163048D01*
X40000Y163048D01*
X80884Y203932D01*
X86937Y238351D02*
X104107Y238351D01*
X105250Y239494D01*
X80884Y232298D02*
X80884Y203932D01*
X80884Y232298D02*
X86937Y238351D01*
X95598Y242230D02*
X96937Y240891D01*
X95598Y251998D02*
X96937Y253337D01*
X103853Y240891D02*
X105250Y239494D01*
X103853Y240891D02*
X96937Y240891D01*
X96937Y253337D02*
X104107Y253337D01*
X105250Y254480D01*
X95598Y251998D02*
X95598Y242230D01*
X105250Y254480D02*
X103853Y255877D01*
X103853Y268323D02*
X105250Y269720D01*
X96937Y270863D02*
X95598Y272202D01*
X95598Y281970D02*
X96937Y283309D01*
X104107Y270863D02*
X105250Y269720D01*
X104107Y270863D02*
X96937Y270863D01*
X96937Y283309D02*
X103853Y283309D01*
X105250Y284706D01*
X95598Y281970D02*
X95598Y272202D01*
X88323Y268323D02*
X80000Y260000D01*
X84123Y255877D01*
X103853Y255877D01*
X103853Y268323D02*
X88323Y268323D01*
X-66600Y143433D02*
X-66600Y130700D01*
X-66600Y143433D02*
X-64047Y145986D01*
X-56600Y130700D02*
X-56600Y116600D01*
X-50000Y110000D01*
D21*
X-50000Y110000D03*
X-70000Y110000D03*
X-85532Y110000D03*
D22*
X-86600Y111068D01*
X-86600Y130700D01*
X-56600Y130700D02*
X-27300Y160000D01*
X50000Y160000D01*
X83932Y193932D01*
X86937Y233271D02*
X103853Y233271D01*
X105250Y234668D01*
X83932Y230266D02*
X83932Y193932D01*
X83932Y230266D02*
X86937Y233271D01*
X117487Y233932D02*
X122514Y233932D01*
X126068Y237487D01*
X126068Y242514D01*
X106647Y248257D02*
X105250Y249654D01*
X105250Y234668D02*
X116751Y234668D01*
X117487Y233932D01*
X126068Y242514D02*
X120325Y248257D01*
X120000Y248257D01*
X106647Y248257D01*
X113563Y250797D02*
X114902Y252136D01*
X114902Y261904D02*
X113563Y263243D01*
X106647Y263243D01*
X105250Y264640D01*
X114902Y261904D02*
X114902Y252136D01*
X106393Y250797D02*
X105250Y249654D01*
X106393Y250797D02*
X113563Y250797D01*
X120000Y249088D02*
X120000Y248257D01*
D21*
X120000Y249088D03*
X120000Y282136D03*
D22*
X117490Y279626D01*
X105250Y279626D01*
X-70000Y110000D02*
X-71600Y111600D01*
X-71600Y130700D01*
X399500Y376200D02*
X399500Y404272D01*
X398432Y404272D01*
D21*
X398432Y404272D03*
D22*
X429500Y403204D02*
X429500Y376200D01*
D21*
X429500Y403204D03*
D22*
X413932Y376768D02*
X414500Y376200D01*
X413932Y376768D02*
X413932Y403772D01*
D21*
X413932Y403772D03*
D22*
X444500Y392938D02*
X444500Y376200D01*
X444500Y392938D02*
X446068Y394506D01*
D21*
X446068Y394506D03*
D22*
X164940Y319250D02*
X164940Y294940D01*
X164940Y319250D02*
X166337Y320647D01*
X186952Y391263D02*
X186952Y411263D01*
X198737Y423048D01*
X166337Y370648D02*
X166337Y320647D01*
X166337Y370648D02*
X186952Y391263D01*
X443048Y397526D02*
X446068Y394506D01*
X443048Y397526D02*
X443048Y411263D01*
X431263Y423048D01*
X198737Y423048D01*
X160000Y290000D02*
X150000Y290000D01*
X160000Y290000D02*
X164940Y294940D01*
X178529Y317853D02*
X179926Y319250D01*
X150000Y290000D02*
X134968Y305032D01*
X134968Y319250D01*
X150000Y294262D02*
X150000Y290000D01*
X150000Y294262D02*
X149954Y294308D01*
X149954Y319250D01*
X168495Y293932D02*
X173522Y293932D01*
X168495Y293932D02*
X167487Y294940D01*
X164940Y294940D01*
X178529Y298940D02*
X178529Y317853D01*
X178529Y298940D02*
X173522Y293932D01*
X389500Y376200D02*
X390000Y376700D01*
X390000Y410000D01*
X420000Y410000D02*
X440000Y410000D01*
X420000Y410000D02*
X410000Y410000D01*
X404500Y404500D02*
X404500Y376200D01*
X404500Y404500D02*
X410000Y410000D01*
X420000Y376700D02*
X419500Y376200D01*
X420000Y376700D02*
X420000Y410000D01*
X435714Y377414D02*
X434500Y376200D01*
X435714Y377414D02*
X435714Y390147D01*
X440000Y394433D02*
X440000Y410000D01*
X440000Y394433D02*
X435714Y390147D01*
X174846Y374846D02*
X174846Y319250D01*
X174846Y374846D02*
X190000Y390000D01*
X400000Y420000D02*
X410000Y410000D01*
X190000Y410000D02*
X190000Y390000D01*
X190000Y410000D02*
X200000Y420000D01*
X400000Y420000D01*
X129888Y329888D02*
X129888Y319250D01*
X129888Y329888D02*
X140000Y340000D01*
X150000Y340000D01*
X144874Y334874D02*
X144874Y319250D01*
X144874Y334874D02*
X150000Y340000D01*
X180881Y395282D02*
X180881Y406118D01*
X173500Y413500D01*
X173218Y413781D01*
X162382Y413781D01*
X151732Y341732D02*
X150000Y340000D01*
X151732Y403131D02*
X162382Y413781D01*
X151732Y403131D02*
X151732Y341732D01*
X159860Y319250D02*
X159860Y374261D01*
X180881Y395282D01*
X173500Y413500D02*
X180000Y420000D01*
D21*
X180000Y420000D03*
X200000Y410000D03*
D22*
X200000Y420000D01*
X390000Y410000D02*
X400000Y420000D01*
X220947Y248257D02*
X219550Y249654D01*
X278232Y201768D02*
X280000Y200000D01*
X278232Y201768D02*
X278232Y225039D01*
X255014Y248257D01*
X220947Y248257D01*
X421800Y130700D02*
X421800Y130000D01*
X421800Y109619D01*
X428399Y103020D01*
D21*
X428399Y103020D03*
X470000Y110000D03*
D22*
X466800Y113200D01*
X466800Y130700D01*
D21*
X440000Y110000D03*
D22*
X438014Y129486D02*
X436800Y130700D01*
X438014Y129486D02*
X438014Y116753D01*
X440000Y114767D02*
X440000Y110000D01*
X440000Y114767D02*
X438014Y116753D01*
X451800Y111068D02*
X451800Y130700D01*
X451800Y111068D02*
X452868Y110000D01*
D21*
X452868Y110000D03*
D22*
X420586Y166656D02*
X418621Y168621D01*
X417242Y170000D01*
X410000Y170000D01*
X410000Y190000D01*
X400000Y200000D01*
X280000Y200000D01*
X-110386Y131914D02*
X-111600Y130700D01*
X-110386Y131914D02*
X-110386Y144647D01*
X25039Y172636D02*
X66096Y213693D01*
X66096Y256566D01*
X79530Y270000D01*
X-82397Y172636D02*
X-110386Y144647D01*
X-82397Y172636D02*
X25039Y172636D01*
D21*
X129718Y260642D03*
D22*
X129718Y259940D02*
X140004Y249654D01*
X200000Y249654D01*
X219550Y249654D01*
X129718Y259940D02*
X129718Y260642D01*
D21*
X79530Y270000D03*
D22*
X210716Y264640D02*
X219550Y264640D01*
X210716Y264640D02*
X206878Y268478D01*
D21*
X206878Y268478D03*
X197375Y280614D03*
D22*
X218562Y280614D01*
X219550Y279626D01*
X211237Y303375D02*
X227863Y303375D01*
X229202Y302036D01*
X229202Y297348D01*
X227863Y296009D01*
X206850Y298988D02*
X206850Y290089D01*
X197375Y280614D01*
X206850Y298988D02*
X211237Y303375D01*
X220947Y296009D02*
X227863Y296009D01*
X220947Y296009D02*
X219550Y294612D01*
D21*
X206878Y240000D03*
D22*
X206878Y242776D01*
X200000Y249654D01*
X420586Y166656D02*
X421800Y165442D01*
X421800Y130700D01*
X431800Y130700D02*
X431800Y108200D01*
X440000Y100000D01*
X450000Y100000D01*
X460000Y100000D01*
X480000Y100000D01*
X446800Y103200D02*
X446800Y130700D01*
X446800Y103200D02*
X450000Y100000D01*
X461800Y101800D02*
X461800Y130700D01*
X461800Y101800D02*
X460000Y100000D01*
X476800Y103200D02*
X476800Y130700D01*
X476800Y103200D02*
X480000Y100000D01*
X431800Y130700D02*
X431800Y178200D01*
X406952Y203048D02*
X290000Y203048D01*
X220693Y253337D02*
X219550Y254480D01*
X281280Y211768D02*
X290000Y203048D01*
X281280Y211768D02*
X281280Y226301D01*
X254244Y253337D01*
X220693Y253337D01*
X406952Y203048D02*
X431800Y178200D01*
X460586Y131914D02*
X461800Y130700D01*
X460586Y131914D02*
X460586Y157996D01*
X408582Y210000D01*
X300000Y210000D01*
X236868Y269720D02*
X219550Y269720D01*
X240280Y269720D02*
X300000Y210000D01*
X-75445Y169588D02*
X-100386Y144647D01*
X-100386Y130700D02*
X-101600Y130700D01*
X-100386Y130700D02*
X-100386Y144647D01*
X27424Y169588D02*
X70000Y212164D01*
X27424Y169588D02*
X-75445Y169588D01*
D21*
X130000Y270000D03*
D22*
X140000Y260000D01*
X140000Y253969D01*
X141267Y252702D01*
X210602Y252702D01*
X211237Y253337D01*
X220693Y253337D01*
X72164Y250000D02*
X70000Y247836D01*
D21*
X72164Y250000D03*
D22*
X70000Y247836D02*
X70000Y212164D01*
X209898Y287188D02*
X211237Y285849D01*
X209898Y296956D02*
X211237Y298295D01*
X218407Y285849D02*
X219550Y284706D01*
X218407Y285849D02*
X211237Y285849D01*
X211237Y298295D02*
X218153Y298295D01*
X219550Y299692D01*
X209898Y296956D02*
X209898Y287188D01*
X236868Y269720D02*
X240280Y269720D01*
X236868Y269720D02*
X235626Y268478D01*
D21*
X235626Y268478D03*
X240000Y280614D03*
D22*
X227863Y283309D02*
X220947Y283309D01*
X219550Y284706D01*
X230558Y280614D02*
X240000Y280614D01*
X230558Y280614D02*
X227863Y283309D01*
X124808Y319250D02*
X114808Y329250D01*
X-177922Y329250D01*
X-225386Y281786D01*
X-225386Y209486D01*
X-146600Y130700D01*
X194912Y319250D02*
X196309Y320647D01*
X196309Y327563D01*
X208746Y340000D01*
X470000Y340000D01*
X480000Y350000D01*
X480000Y375700D02*
X479500Y376200D01*
X480000Y375700D02*
X480000Y350000D01*
X386800Y173200D02*
X386800Y130700D01*
X386800Y173200D02*
X380000Y180000D01*
X260000Y180000D01*
X260000Y220000D01*
X245332Y234668D01*
X219550Y234668D01*
X194912Y204950D02*
X193515Y203553D01*
X193515Y196637D01*
X176878Y180000D01*
X120100Y150100D02*
X120100Y130700D01*
X150000Y180000D02*
X176878Y180000D01*
X150000Y180000D02*
X120100Y150100D01*
X400586Y131914D02*
X401800Y130700D01*
X400586Y131914D02*
X400586Y178035D01*
X388621Y190000D01*
X272136Y190000D01*
X272136Y222514D02*
X255156Y239494D01*
X219550Y239494D01*
X272136Y222514D02*
X272136Y190000D01*
X405586Y131914D02*
X406800Y130700D01*
X405586Y131914D02*
X405586Y177346D01*
X389884Y193048D01*
X220947Y243177D02*
X219550Y244574D01*
X275184Y223776D02*
X275184Y193048D01*
X275184Y223776D02*
X255783Y243177D01*
X220947Y243177D01*
X275184Y193048D02*
X389884Y193048D01*
X191229Y320647D02*
X189832Y319250D01*
X191229Y320647D02*
X191229Y327563D01*
X206714Y343048D01*
X464500Y354500D02*
X464500Y376200D01*
X453048Y343048D02*
X206714Y343048D01*
X453048Y343048D02*
X464500Y354500D01*
D21*
X90000Y432164D03*
X90000Y420000D03*
D22*
X90000Y335318D01*
D21*
X90000Y335318D03*
X90000Y320000D03*
D22*
X113563Y303375D02*
X114902Y302036D01*
X114902Y297348D01*
X113563Y296009D01*
X113563Y303375D02*
X106625Y303375D01*
X106647Y296009D02*
X113563Y296009D01*
X106647Y296009D02*
X105250Y294612D01*
X106625Y303375D02*
X90000Y320000D01*
X340856Y429144D02*
X433788Y429144D01*
X456466Y406466D02*
X458286Y404646D01*
X456466Y406466D02*
X433788Y429144D01*
X340856Y429144D02*
X337836Y432164D01*
X90000Y432164D01*
X458286Y404646D02*
X459500Y403432D01*
X459500Y376200D01*
X-130386Y131914D02*
X-131600Y130700D01*
X-130386Y131914D02*
X-130386Y144647D01*
X-130000Y145033D01*
X34048Y204048D02*
X60000Y230000D01*
X22514Y178732D02*
X-118329Y178732D01*
X22514Y178732D02*
X34048Y190267D01*
X34048Y204048D01*
X60000Y230000D02*
X60000Y290000D01*
X70000Y300000D01*
X104942Y300000D01*
X105250Y299692D01*
X-130000Y167061D02*
X-130000Y145033D01*
X-130000Y167061D02*
X-118329Y178732D01*
X-126600Y163400D02*
X-126600Y130700D01*
X63048Y283048D02*
X70000Y290000D01*
X63048Y214956D02*
X23776Y175684D01*
X63048Y214956D02*
X63048Y283048D01*
X-114316Y175684D02*
X-126600Y163400D01*
X-114316Y175684D02*
X23776Y175684D01*
D21*
X70000Y290000D03*
X190000Y306578D03*
D22*
X185006Y311572D01*
X185006Y319250D01*
X216068Y202514D02*
X216068Y187487D01*
X190467Y212501D02*
X192568Y214602D01*
X203980Y214602D01*
X216068Y202514D01*
X190467Y205585D02*
X189832Y204950D01*
X190467Y205585D02*
X190467Y212501D01*
X216068Y187487D02*
X205534Y176952D01*
X158619Y176952D01*
X135100Y153433D02*
X135100Y130700D01*
X135100Y153433D02*
X158619Y176952D01*
X205242Y217650D02*
X219116Y203776D01*
X219116Y186224D01*
X206796Y173904D01*
X163904Y173904D01*
X186149Y213263D02*
X190536Y217650D01*
X205242Y217650D01*
X186149Y206093D02*
X185006Y204950D01*
X186149Y206093D02*
X186149Y213263D01*
X140100Y150100D02*
X140100Y130700D01*
X140100Y150100D02*
X163904Y173904D01*
X-116600Y156600D02*
X-116600Y130700D01*
X-116600Y156600D02*
X-120000Y160000D01*
D21*
X-120000Y160000D03*
X-120000Y340000D03*
D22*
X449500Y389357D02*
X452136Y391993D01*
X449500Y389357D02*
X449500Y376200D01*
X452136Y406485D02*
X432525Y426096D01*
X452136Y406485D02*
X452136Y391993D01*
X-33904Y426096D02*
X-120000Y340000D01*
X-33904Y426096D02*
X432525Y426096D01*
X150100Y130700D02*
X150100Y110100D01*
X150000Y110000D01*
D21*
X150000Y110000D03*
X150000Y73932D03*
D22*
X208243Y73932D01*
X221263Y86952D01*
X258737Y86952D01*
X274805Y70884D02*
X323776Y70884D01*
X274805Y70884D02*
X258737Y86952D01*
X323776Y70884D02*
X336796Y83904D01*
X377515Y83904D01*
D21*
X410000Y70000D03*
D22*
X387487Y73932D02*
X377515Y83904D01*
X406068Y73932D02*
X410000Y70000D01*
X406068Y73932D02*
X387487Y73932D01*
D21*
X411160Y111160D03*
D22*
X411160Y112327D01*
X416800Y117967D02*
X416800Y130700D01*
X416800Y117967D02*
X411160Y112327D01*
X-135386Y131914D02*
X-136600Y130700D01*
X-135386Y131914D02*
X-135386Y165986D01*
X31000Y194800D02*
X31000Y234800D01*
X31000Y194800D02*
X21000Y184800D01*
X20000Y184800D01*
X-116572Y184800D01*
X-130000Y171372D01*
X154780Y319250D02*
X154780Y387680D01*
X167800Y400700D01*
X395586Y131914D02*
X396800Y130700D01*
X395586Y131914D02*
X395586Y168725D01*
X381263Y183048D01*
X263048Y186952D02*
X263048Y220000D01*
X266068Y220000D01*
D21*
X266068Y220000D03*
X260000Y260000D03*
D22*
X245454Y274546D01*
X219550Y274546D01*
X266952Y183048D02*
X381263Y183048D01*
X266952Y183048D02*
X263048Y186952D01*
X486068Y324468D02*
X486068Y350000D01*
X486068Y324468D02*
X472600Y311000D01*
D21*
X486068Y350000D03*
X470000Y350000D03*
D22*
X396800Y130700D02*
X396800Y116938D01*
X416786Y96952D01*
X481263Y96952D01*
X484436Y100125D01*
X484436Y220000D01*
X484436Y301368D01*
X474804Y311000D01*
X472600Y311000D01*
D21*
X119243Y159243D03*
X129032Y149455D03*
D22*
X130100Y148387D01*
X130100Y130700D01*
X119243Y159243D02*
X149954Y189954D01*
X149954Y204950D01*
D21*
X149954Y189954D03*
X179148Y190852D03*
D22*
X179148Y204172D01*
X179926Y204950D01*
X149954Y204950D02*
X148557Y206347D01*
X148557Y213263D01*
X132232Y229588D01*
X110000Y229588D01*
D21*
X20000Y184800D03*
D22*
X105250Y229588D02*
X110000Y229588D01*
D21*
X90000Y190000D03*
D22*
X103853Y228191D02*
X108603Y228191D01*
X110000Y229588D01*
X90000Y217805D02*
X90000Y190000D01*
X92912Y259560D02*
X105250Y259560D01*
X92912Y259560D02*
X90527Y261945D01*
D21*
X90527Y261945D03*
X90000Y217805D03*
X90000Y290000D03*
D22*
X104782Y290000D01*
X105250Y289532D01*
X139400Y289532D01*
X150000Y278932D01*
D21*
X150000Y278932D03*
X156022Y296821D03*
D22*
X154780Y298063D01*
X154780Y319250D01*
X150000Y278932D02*
X154386Y274546D01*
X219550Y274546D01*
X105250Y229588D02*
X103853Y228191D01*
X96937Y228191D01*
X95598Y226852D01*
X95598Y223403D01*
X90000Y217805D01*
X469500Y376200D02*
X470000Y375700D01*
X470000Y350000D01*
X-130000Y201900D02*
X-160000Y201900D01*
X-130000Y201900D02*
X-130000Y171372D01*
X-135386Y165986D01*
X423400Y260200D02*
X431068Y252532D01*
X432913Y252532D01*
X465445Y220000D02*
X484436Y220000D01*
X465445Y220000D02*
X432913Y252532D01*
X-221600Y274600D02*
X-221600Y210700D01*
X-185200Y311000D02*
X-45200Y311000D01*
X-185200Y311000D02*
X-221600Y274600D01*
X389247Y115414D02*
X390000Y116167D01*
X389247Y115414D02*
X384353Y115414D01*
X370000Y129767D01*
X370000Y173932D01*
D21*
X370000Y173932D03*
X370000Y220000D03*
D22*
X349900Y240100D01*
X349900Y268600D01*
X392300Y311000D01*
X423400Y311000D01*
X474500Y376200D02*
X475714Y377414D01*
X475714Y390147D01*
X495567Y410000D01*
X530000Y410000D01*
X549278Y390722D01*
X549278Y90000D02*
X539278Y80000D01*
X549278Y90000D02*
X549278Y390722D01*
X539278Y80000D02*
X398737Y80000D01*
X390000Y80000D01*
D21*
X390000Y110000D03*
D22*
X390586Y129486D02*
X391800Y130700D01*
X390586Y129486D02*
X390586Y116753D01*
X390000Y116167D01*
X390000Y110000D01*
D21*
X390000Y80000D03*
D22*
X322514Y73932D02*
X276068Y73932D01*
X210000Y80000D02*
X120000Y80000D01*
X125100Y115100D02*
X125100Y130700D01*
X125100Y115100D02*
X120000Y110000D01*
D21*
X120000Y110000D03*
X120000Y80000D03*
D22*
X-130000Y80000D02*
X-141600Y91600D01*
X-141600Y130700D01*
X-130000Y80000D02*
X120000Y80000D01*
X210000Y80000D02*
X220000Y90000D01*
X260000Y90000D01*
X276068Y73932D01*
X391785Y86952D02*
X398737Y80000D01*
X391785Y86952D02*
X335534Y86952D01*
X322514Y73932D01*
X-141600Y130700D02*
X-143068Y132168D01*
X-143068Y144542D01*
X-144258Y145732D01*
X-156632Y145732D01*
X-190450Y179550D01*
X-221600Y210700D01*
X-190000Y201900D02*
X-190000Y180000D01*
X-190450Y179550D01*
X411818Y282637D02*
X413887Y280568D01*
X411818Y301263D02*
X413887Y303332D01*
X415732Y280568D02*
X423400Y272900D01*
X415732Y280568D02*
X413887Y280568D01*
X413887Y303332D02*
X415732Y303332D01*
X423400Y311000D01*
X411818Y301263D02*
X411818Y282637D01*
X139794Y308788D02*
X139794Y319250D01*
X139794Y308788D02*
X142004Y306578D01*
D21*
X142004Y306578D03*
D22*
X164940Y226137D02*
X164940Y204950D01*
D21*
X164940Y226137D03*
X140000Y190000D03*
D22*
X134968Y195032D01*
X134968Y204950D01*
X164940Y204950D02*
X166337Y206347D01*
X166337Y213263D01*
X182662Y229588D01*
X219550Y229588D01*
X164940Y226137D02*
X146503Y244574D01*
X136503Y244574D01*
D21*
X136503Y244574D03*
X120000Y240000D03*
D22*
X113563Y243177D02*
X106647Y243177D01*
X105250Y244574D01*
X116740Y240000D02*
X120000Y240000D01*
X116740Y240000D02*
X113563Y243177D01*
X117950Y263127D02*
X136503Y244574D01*
X117950Y263127D02*
X117950Y269016D01*
X112420Y274546D01*
X105250Y274546D01*
D21*
X140000Y280000D03*
X260000Y270000D03*
D22*
X282986Y247014D01*
D21*
X240000Y260000D03*
D22*
X239560Y259560D01*
X219550Y259560D01*
X125965Y274546D02*
X105250Y274546D01*
X125965Y274546D02*
X127487Y276068D01*
X135000Y275000D02*
X140000Y280000D01*
X135000Y275000D02*
X133932Y276068D01*
X127487Y276068D01*
X219550Y289532D02*
X240468Y289532D01*
X260000Y270000D01*
X239012Y229588D02*
X219550Y229588D01*
X239012Y229588D02*
X240000Y228600D01*
D21*
X240000Y228600D03*
D22*
X170020Y300988D02*
X170020Y319250D01*
X170020Y300988D02*
X171008Y300000D01*
D21*
X171008Y300000D03*
D22*
X302914Y247014D02*
X324500Y268600D01*
X302914Y247014D02*
X282986Y247014D01*
X-160000Y278100D02*
X-190000Y278100D01*
X-160000Y278100D02*
X-143219Y278100D01*
X-133872Y287447D01*
X88118Y324544D02*
X96345Y324544D01*
X51021Y287447D02*
X-133872Y287447D01*
X140557Y292326D02*
X145677Y287206D01*
X191117Y287206D01*
X88118Y324544D02*
X51021Y287447D01*
X191117Y287206D02*
X210080Y306169D01*
X140557Y292326D02*
X128563Y292326D01*
X96345Y324544D01*
X210080Y306169D02*
X261531Y306169D01*
X299100Y268600D01*
D21*
X450000Y250000D03*
D22*
X470100Y250000D01*
X472600Y247500D01*
D21*
X450000Y260000D03*
D22*
X472400Y260000D01*
X472600Y260200D01*
X205050Y204950D02*
X199992Y204950D01*
X205050Y204950D02*
X210000Y200000D01*
D21*
X210000Y200000D03*
X230047Y210047D03*
D22*
X219550Y220545D01*
X219550Y224508D01*
X465186Y280314D02*
X472600Y272900D01*
X465186Y280314D02*
X462982Y280314D01*
X308399Y336952D02*
X270000Y336952D01*
X435236Y308060D02*
X462982Y280314D01*
X435236Y308060D02*
X435236Y314068D01*
X425372Y323932D01*
X321419Y323932D01*
X308399Y336952D01*
X270000Y336952D02*
X270000Y333932D01*
D21*
X270000Y333932D03*
X270000Y360000D03*
D22*
X254000Y376000D01*
X254000Y400700D01*
X465186Y305714D02*
X472600Y298300D01*
X465186Y305714D02*
X462982Y305714D01*
X431744Y336952D02*
X320000Y336952D01*
X431744Y336952D02*
X462982Y305714D01*
X320000Y333932D02*
X320000Y336952D01*
D21*
X320000Y333932D03*
X320000Y360000D03*
D22*
X294800Y385200D01*
X294800Y400700D01*
D21*
X330000Y330000D03*
D22*
X465186Y293014D02*
X472600Y285600D01*
X465186Y293014D02*
X462982Y293014D01*
X425996Y330000D02*
X330000Y330000D01*
X425996Y330000D02*
X462982Y293014D01*
D21*
X330000Y360000D03*
D22*
X330000Y406952D01*
X320000Y416952D01*
X226952Y416952D01*
X215900Y405900D02*
X215900Y400700D01*
X215900Y405900D02*
X226952Y416952D01*
X-110000Y258100D02*
X-130000Y278100D01*
X-110000Y258100D02*
X-110000Y200000D01*
X-101094Y191094D01*
X20000Y191094D01*
D21*
X20000Y191094D03*
X98405Y200000D03*
D22*
X100155Y201750D01*
X100155Y204865D01*
X105250Y209960D02*
X105250Y224508D01*
X105250Y209960D02*
X100155Y204865D01*
M02*
