G04 EAGLE Gerber RS-274X export*
G75*
%MOMM*%
%FSLAX34Y34*%
%LPD*%
%INSilkscreen Bottom*%
%IPPOS*%
%AMOC8*
5,1,8,0,0,1.08239X$1,22.5*%
G01*
%ADD10C,0.152400*%
%ADD11C,0.127000*%
%ADD12C,0.200000*%
%ADD13C,0.076200*%
%ADD14C,0.101600*%


D10*
X596100Y375110D02*
X697700Y375110D01*
X697700Y316690D02*
X596100Y316690D01*
X596100Y375110D01*
X697700Y375110D02*
X697700Y356060D01*
X697700Y335740D02*
X697700Y316690D01*
X697700Y335740D02*
X697453Y335743D01*
X697205Y335752D01*
X696958Y335767D01*
X696712Y335788D01*
X696466Y335815D01*
X696221Y335848D01*
X695976Y335887D01*
X695733Y335932D01*
X695491Y335983D01*
X695250Y336040D01*
X695011Y336102D01*
X694773Y336171D01*
X694537Y336245D01*
X694303Y336325D01*
X694071Y336410D01*
X693841Y336502D01*
X693613Y336598D01*
X693388Y336701D01*
X693165Y336808D01*
X692945Y336922D01*
X692728Y337040D01*
X692513Y337164D01*
X692302Y337293D01*
X692094Y337427D01*
X691889Y337566D01*
X691688Y337710D01*
X691490Y337858D01*
X691296Y338012D01*
X691106Y338170D01*
X690920Y338333D01*
X690738Y338500D01*
X690560Y338672D01*
X690386Y338848D01*
X690216Y339028D01*
X690051Y339213D01*
X689891Y339401D01*
X689735Y339593D01*
X689583Y339789D01*
X689437Y339988D01*
X689295Y340191D01*
X689159Y340398D01*
X689027Y340607D01*
X688901Y340820D01*
X688780Y341036D01*
X688664Y341254D01*
X688554Y341476D01*
X688449Y341700D01*
X688349Y341926D01*
X688255Y342155D01*
X688167Y342386D01*
X688084Y342620D01*
X688007Y342855D01*
X687936Y343092D01*
X687870Y343330D01*
X687811Y343570D01*
X687757Y343812D01*
X687709Y344055D01*
X687667Y344298D01*
X687631Y344543D01*
X687601Y344789D01*
X687577Y345035D01*
X687559Y345282D01*
X687547Y345529D01*
X687541Y345776D01*
X687541Y346024D01*
X687547Y346271D01*
X687559Y346518D01*
X687577Y346765D01*
X687601Y347011D01*
X687631Y347257D01*
X687667Y347502D01*
X687709Y347745D01*
X687757Y347988D01*
X687811Y348230D01*
X687870Y348470D01*
X687936Y348708D01*
X688007Y348945D01*
X688084Y349180D01*
X688167Y349414D01*
X688255Y349645D01*
X688349Y349874D01*
X688449Y350100D01*
X688554Y350324D01*
X688664Y350546D01*
X688780Y350764D01*
X688901Y350980D01*
X689027Y351193D01*
X689159Y351402D01*
X689295Y351609D01*
X689437Y351812D01*
X689583Y352011D01*
X689735Y352207D01*
X689891Y352399D01*
X690051Y352587D01*
X690216Y352772D01*
X690386Y352952D01*
X690560Y353128D01*
X690738Y353300D01*
X690920Y353467D01*
X691106Y353630D01*
X691296Y353788D01*
X691490Y353942D01*
X691688Y354090D01*
X691889Y354234D01*
X692094Y354373D01*
X692302Y354507D01*
X692513Y354636D01*
X692728Y354760D01*
X692945Y354878D01*
X693165Y354992D01*
X693388Y355099D01*
X693613Y355202D01*
X693841Y355298D01*
X694071Y355390D01*
X694303Y355475D01*
X694537Y355555D01*
X694773Y355629D01*
X695011Y355698D01*
X695250Y355760D01*
X695491Y355817D01*
X695733Y355868D01*
X695976Y355913D01*
X696221Y355952D01*
X696466Y355985D01*
X696712Y356012D01*
X696958Y356033D01*
X697205Y356048D01*
X697453Y356057D01*
X697700Y356060D01*
D11*
X678015Y352885D02*
X674205Y364315D01*
X670395Y352885D01*
X671348Y355743D02*
X677063Y355743D01*
X663537Y352885D02*
X663537Y364315D01*
X666712Y364315D02*
X660362Y364315D01*
X653631Y364315D02*
X653631Y352885D01*
X656806Y364315D02*
X650456Y364315D01*
X645249Y364315D02*
X645249Y352885D01*
X646519Y352885D02*
X643979Y352885D01*
X643979Y364315D02*
X646519Y364315D01*
X638899Y364315D02*
X638899Y352885D01*
X632549Y352885D02*
X638899Y364315D01*
X632549Y364315D02*
X632549Y352885D01*
X623913Y358918D02*
X627723Y364315D01*
X623913Y358918D02*
X620103Y364315D01*
X623913Y358918D02*
X623913Y352885D01*
X615658Y356060D02*
X615656Y356171D01*
X615650Y356281D01*
X615641Y356392D01*
X615627Y356502D01*
X615610Y356611D01*
X615589Y356720D01*
X615564Y356828D01*
X615535Y356935D01*
X615503Y357041D01*
X615467Y357146D01*
X615427Y357249D01*
X615384Y357351D01*
X615337Y357452D01*
X615286Y357551D01*
X615233Y357648D01*
X615176Y357742D01*
X615115Y357835D01*
X615052Y357926D01*
X614985Y358015D01*
X614915Y358101D01*
X614842Y358184D01*
X614767Y358266D01*
X614689Y358344D01*
X614607Y358419D01*
X614524Y358492D01*
X614438Y358562D01*
X614349Y358629D01*
X614258Y358692D01*
X614165Y358753D01*
X614071Y358810D01*
X613974Y358863D01*
X613875Y358914D01*
X613774Y358961D01*
X613672Y359004D01*
X613569Y359044D01*
X613464Y359080D01*
X613358Y359112D01*
X613251Y359141D01*
X613143Y359166D01*
X613034Y359187D01*
X612925Y359204D01*
X612815Y359218D01*
X612704Y359227D01*
X612594Y359233D01*
X612483Y359235D01*
X612372Y359233D01*
X612262Y359227D01*
X612151Y359218D01*
X612041Y359204D01*
X611932Y359187D01*
X611823Y359166D01*
X611715Y359141D01*
X611608Y359112D01*
X611502Y359080D01*
X611397Y359044D01*
X611294Y359004D01*
X611192Y358961D01*
X611091Y358914D01*
X610992Y358863D01*
X610896Y358810D01*
X610801Y358753D01*
X610708Y358692D01*
X610617Y358629D01*
X610528Y358562D01*
X610442Y358492D01*
X610359Y358419D01*
X610277Y358344D01*
X610199Y358266D01*
X610124Y358184D01*
X610051Y358101D01*
X609981Y358015D01*
X609914Y357926D01*
X609851Y357835D01*
X609790Y357742D01*
X609733Y357648D01*
X609680Y357551D01*
X609629Y357452D01*
X609582Y357351D01*
X609539Y357249D01*
X609499Y357146D01*
X609463Y357041D01*
X609431Y356935D01*
X609402Y356828D01*
X609377Y356720D01*
X609356Y356611D01*
X609339Y356502D01*
X609325Y356392D01*
X609316Y356281D01*
X609310Y356171D01*
X609308Y356060D01*
X609310Y355949D01*
X609316Y355839D01*
X609325Y355728D01*
X609339Y355618D01*
X609356Y355509D01*
X609377Y355400D01*
X609402Y355292D01*
X609431Y355185D01*
X609463Y355079D01*
X609499Y354974D01*
X609539Y354871D01*
X609582Y354769D01*
X609629Y354668D01*
X609680Y354569D01*
X609733Y354473D01*
X609790Y354378D01*
X609851Y354285D01*
X609914Y354194D01*
X609981Y354105D01*
X610051Y354019D01*
X610124Y353936D01*
X610199Y353854D01*
X610277Y353776D01*
X610359Y353701D01*
X610442Y353628D01*
X610528Y353558D01*
X610617Y353491D01*
X610708Y353428D01*
X610801Y353367D01*
X610896Y353310D01*
X610992Y353257D01*
X611091Y353206D01*
X611192Y353159D01*
X611294Y353116D01*
X611397Y353076D01*
X611502Y353040D01*
X611608Y353008D01*
X611715Y352979D01*
X611823Y352954D01*
X611932Y352933D01*
X612041Y352916D01*
X612151Y352902D01*
X612262Y352893D01*
X612372Y352887D01*
X612483Y352885D01*
X612594Y352887D01*
X612704Y352893D01*
X612815Y352902D01*
X612925Y352916D01*
X613034Y352933D01*
X613143Y352954D01*
X613251Y352979D01*
X613358Y353008D01*
X613464Y353040D01*
X613569Y353076D01*
X613672Y353116D01*
X613774Y353159D01*
X613875Y353206D01*
X613974Y353257D01*
X614071Y353310D01*
X614165Y353367D01*
X614258Y353428D01*
X614349Y353491D01*
X614438Y353558D01*
X614524Y353628D01*
X614607Y353701D01*
X614689Y353776D01*
X614767Y353854D01*
X614842Y353936D01*
X614915Y354019D01*
X614985Y354105D01*
X615052Y354194D01*
X615115Y354285D01*
X615176Y354378D01*
X615233Y354472D01*
X615286Y354569D01*
X615337Y354668D01*
X615384Y354769D01*
X615427Y354871D01*
X615467Y354974D01*
X615503Y355079D01*
X615535Y355185D01*
X615564Y355292D01*
X615589Y355400D01*
X615610Y355509D01*
X615627Y355618D01*
X615641Y355728D01*
X615650Y355839D01*
X615656Y355949D01*
X615658Y356060D01*
X615023Y361775D02*
X615021Y361875D01*
X615015Y361974D01*
X615005Y362074D01*
X614992Y362172D01*
X614974Y362271D01*
X614953Y362368D01*
X614928Y362464D01*
X614899Y362560D01*
X614866Y362654D01*
X614830Y362747D01*
X614790Y362838D01*
X614746Y362928D01*
X614699Y363016D01*
X614649Y363102D01*
X614595Y363186D01*
X614538Y363268D01*
X614478Y363347D01*
X614414Y363425D01*
X614348Y363499D01*
X614279Y363571D01*
X614207Y363640D01*
X614133Y363706D01*
X614055Y363770D01*
X613976Y363830D01*
X613894Y363887D01*
X613810Y363941D01*
X613724Y363991D01*
X613636Y364038D01*
X613546Y364082D01*
X613455Y364122D01*
X613362Y364158D01*
X613268Y364191D01*
X613172Y364220D01*
X613076Y364245D01*
X612979Y364266D01*
X612880Y364284D01*
X612782Y364297D01*
X612682Y364307D01*
X612583Y364313D01*
X612483Y364315D01*
X612383Y364313D01*
X612284Y364307D01*
X612184Y364297D01*
X612086Y364284D01*
X611987Y364266D01*
X611890Y364245D01*
X611794Y364220D01*
X611698Y364191D01*
X611604Y364158D01*
X611511Y364122D01*
X611420Y364082D01*
X611330Y364038D01*
X611242Y363991D01*
X611156Y363941D01*
X611072Y363887D01*
X610990Y363830D01*
X610911Y363770D01*
X610833Y363706D01*
X610759Y363640D01*
X610687Y363571D01*
X610618Y363499D01*
X610552Y363425D01*
X610488Y363347D01*
X610428Y363268D01*
X610371Y363186D01*
X610317Y363102D01*
X610267Y363016D01*
X610220Y362928D01*
X610176Y362838D01*
X610136Y362747D01*
X610100Y362654D01*
X610067Y362560D01*
X610038Y362464D01*
X610013Y362368D01*
X609992Y362271D01*
X609974Y362172D01*
X609961Y362074D01*
X609951Y361974D01*
X609945Y361875D01*
X609943Y361775D01*
X609945Y361675D01*
X609951Y361576D01*
X609961Y361476D01*
X609974Y361378D01*
X609992Y361279D01*
X610013Y361182D01*
X610038Y361086D01*
X610067Y360990D01*
X610100Y360896D01*
X610136Y360803D01*
X610176Y360712D01*
X610220Y360622D01*
X610267Y360534D01*
X610317Y360448D01*
X610371Y360364D01*
X610428Y360282D01*
X610488Y360203D01*
X610552Y360125D01*
X610618Y360051D01*
X610687Y359979D01*
X610759Y359910D01*
X610833Y359844D01*
X610911Y359780D01*
X610990Y359720D01*
X611072Y359663D01*
X611156Y359609D01*
X611242Y359559D01*
X611330Y359512D01*
X611420Y359468D01*
X611511Y359428D01*
X611604Y359392D01*
X611698Y359359D01*
X611794Y359330D01*
X611890Y359305D01*
X611987Y359284D01*
X612086Y359266D01*
X612184Y359253D01*
X612284Y359243D01*
X612383Y359237D01*
X612483Y359235D01*
X612583Y359237D01*
X612682Y359243D01*
X612782Y359253D01*
X612880Y359266D01*
X612979Y359284D01*
X613076Y359305D01*
X613172Y359330D01*
X613268Y359359D01*
X613362Y359392D01*
X613455Y359428D01*
X613546Y359468D01*
X613636Y359512D01*
X613724Y359559D01*
X613810Y359609D01*
X613894Y359663D01*
X613976Y359720D01*
X614055Y359780D01*
X614133Y359844D01*
X614207Y359910D01*
X614279Y359979D01*
X614348Y360051D01*
X614414Y360125D01*
X614478Y360203D01*
X614538Y360282D01*
X614595Y360364D01*
X614649Y360448D01*
X614699Y360534D01*
X614746Y360622D01*
X614790Y360712D01*
X614830Y360803D01*
X614866Y360896D01*
X614899Y360990D01*
X614928Y361086D01*
X614953Y361182D01*
X614974Y361279D01*
X614992Y361378D01*
X615005Y361476D01*
X615015Y361576D01*
X615021Y361675D01*
X615023Y361775D01*
X604228Y352885D02*
X600418Y352885D01*
X600318Y352887D01*
X600219Y352893D01*
X600119Y352903D01*
X600021Y352916D01*
X599922Y352934D01*
X599825Y352955D01*
X599729Y352980D01*
X599633Y353009D01*
X599539Y353042D01*
X599446Y353078D01*
X599355Y353118D01*
X599265Y353162D01*
X599177Y353209D01*
X599091Y353259D01*
X599007Y353313D01*
X598925Y353370D01*
X598846Y353430D01*
X598768Y353494D01*
X598694Y353560D01*
X598622Y353629D01*
X598553Y353701D01*
X598487Y353775D01*
X598423Y353853D01*
X598363Y353932D01*
X598306Y354014D01*
X598252Y354098D01*
X598202Y354184D01*
X598155Y354272D01*
X598111Y354362D01*
X598071Y354453D01*
X598035Y354546D01*
X598002Y354640D01*
X597973Y354736D01*
X597948Y354832D01*
X597927Y354929D01*
X597909Y355028D01*
X597896Y355126D01*
X597886Y355226D01*
X597880Y355325D01*
X597878Y355425D01*
X597878Y356695D01*
X597880Y356795D01*
X597886Y356894D01*
X597896Y356994D01*
X597909Y357092D01*
X597927Y357191D01*
X597948Y357288D01*
X597973Y357384D01*
X598002Y357480D01*
X598035Y357574D01*
X598071Y357667D01*
X598111Y357758D01*
X598155Y357848D01*
X598202Y357936D01*
X598252Y358022D01*
X598306Y358106D01*
X598363Y358188D01*
X598423Y358267D01*
X598487Y358345D01*
X598553Y358419D01*
X598622Y358491D01*
X598694Y358560D01*
X598768Y358626D01*
X598846Y358690D01*
X598925Y358750D01*
X599007Y358807D01*
X599091Y358861D01*
X599177Y358911D01*
X599265Y358958D01*
X599355Y359002D01*
X599446Y359042D01*
X599539Y359078D01*
X599633Y359111D01*
X599729Y359140D01*
X599825Y359165D01*
X599922Y359186D01*
X600021Y359204D01*
X600119Y359217D01*
X600219Y359227D01*
X600318Y359233D01*
X600418Y359235D01*
X604228Y359235D01*
X604228Y364315D01*
X597878Y364315D01*
X176200Y285200D02*
X176200Y238200D01*
X70800Y238200D01*
X70800Y285200D01*
X176200Y285200D01*
D12*
X147900Y231200D02*
X147902Y231263D01*
X147908Y231325D01*
X147918Y231387D01*
X147931Y231449D01*
X147949Y231509D01*
X147970Y231568D01*
X147995Y231626D01*
X148024Y231682D01*
X148056Y231736D01*
X148091Y231788D01*
X148129Y231837D01*
X148171Y231885D01*
X148215Y231929D01*
X148263Y231971D01*
X148312Y232009D01*
X148364Y232044D01*
X148418Y232076D01*
X148474Y232105D01*
X148532Y232130D01*
X148591Y232151D01*
X148651Y232169D01*
X148713Y232182D01*
X148775Y232192D01*
X148837Y232198D01*
X148900Y232200D01*
X148963Y232198D01*
X149025Y232192D01*
X149087Y232182D01*
X149149Y232169D01*
X149209Y232151D01*
X149268Y232130D01*
X149326Y232105D01*
X149382Y232076D01*
X149436Y232044D01*
X149488Y232009D01*
X149537Y231971D01*
X149585Y231929D01*
X149629Y231885D01*
X149671Y231837D01*
X149709Y231788D01*
X149744Y231736D01*
X149776Y231682D01*
X149805Y231626D01*
X149830Y231568D01*
X149851Y231509D01*
X149869Y231449D01*
X149882Y231387D01*
X149892Y231325D01*
X149898Y231263D01*
X149900Y231200D01*
X149898Y231137D01*
X149892Y231075D01*
X149882Y231013D01*
X149869Y230951D01*
X149851Y230891D01*
X149830Y230832D01*
X149805Y230774D01*
X149776Y230718D01*
X149744Y230664D01*
X149709Y230612D01*
X149671Y230563D01*
X149629Y230515D01*
X149585Y230471D01*
X149537Y230429D01*
X149488Y230391D01*
X149436Y230356D01*
X149382Y230324D01*
X149326Y230295D01*
X149268Y230270D01*
X149209Y230249D01*
X149149Y230231D01*
X149087Y230218D01*
X149025Y230208D01*
X148963Y230202D01*
X148900Y230200D01*
X148837Y230202D01*
X148775Y230208D01*
X148713Y230218D01*
X148651Y230231D01*
X148591Y230249D01*
X148532Y230270D01*
X148474Y230295D01*
X148418Y230324D01*
X148364Y230356D01*
X148312Y230391D01*
X148263Y230429D01*
X148215Y230471D01*
X148171Y230515D01*
X148129Y230563D01*
X148091Y230612D01*
X148056Y230664D01*
X148024Y230718D01*
X147995Y230774D01*
X147970Y230832D01*
X147949Y230891D01*
X147931Y230951D01*
X147918Y231013D01*
X147908Y231075D01*
X147902Y231137D01*
X147900Y231200D01*
D13*
X166919Y272081D02*
X166919Y281479D01*
X166919Y272081D02*
X162742Y272081D01*
X158924Y272081D02*
X158924Y281479D01*
X155792Y276258D01*
X152659Y281479D01*
X152659Y272081D01*
X148344Y272081D02*
X145733Y272081D01*
X145632Y272083D01*
X145531Y272089D01*
X145430Y272099D01*
X145330Y272112D01*
X145230Y272130D01*
X145131Y272151D01*
X145033Y272177D01*
X144936Y272206D01*
X144840Y272238D01*
X144746Y272275D01*
X144653Y272315D01*
X144561Y272359D01*
X144472Y272406D01*
X144384Y272457D01*
X144298Y272511D01*
X144215Y272568D01*
X144133Y272628D01*
X144055Y272692D01*
X143978Y272758D01*
X143905Y272828D01*
X143834Y272900D01*
X143766Y272975D01*
X143701Y273053D01*
X143639Y273133D01*
X143580Y273215D01*
X143524Y273300D01*
X143472Y273387D01*
X143423Y273475D01*
X143377Y273566D01*
X143336Y273658D01*
X143297Y273752D01*
X143263Y273847D01*
X143232Y273943D01*
X143205Y274041D01*
X143181Y274139D01*
X143162Y274239D01*
X143146Y274339D01*
X143134Y274439D01*
X143126Y274540D01*
X143122Y274641D01*
X143122Y274743D01*
X143126Y274844D01*
X143134Y274945D01*
X143146Y275045D01*
X143162Y275145D01*
X143181Y275245D01*
X143205Y275343D01*
X143232Y275441D01*
X143263Y275537D01*
X143297Y275632D01*
X143336Y275726D01*
X143377Y275818D01*
X143423Y275909D01*
X143472Y275998D01*
X143524Y276084D01*
X143580Y276169D01*
X143639Y276251D01*
X143701Y276331D01*
X143766Y276409D01*
X143834Y276484D01*
X143905Y276556D01*
X143978Y276626D01*
X144055Y276692D01*
X144133Y276756D01*
X144215Y276816D01*
X144298Y276873D01*
X144384Y276927D01*
X144472Y276978D01*
X144561Y277025D01*
X144653Y277069D01*
X144746Y277109D01*
X144840Y277146D01*
X144936Y277178D01*
X145033Y277207D01*
X145131Y277233D01*
X145230Y277254D01*
X145330Y277272D01*
X145430Y277285D01*
X145531Y277295D01*
X145632Y277301D01*
X145733Y277303D01*
X145211Y281479D02*
X148344Y281479D01*
X145211Y281479D02*
X145121Y281477D01*
X145032Y281471D01*
X144942Y281462D01*
X144853Y281448D01*
X144765Y281431D01*
X144678Y281410D01*
X144591Y281385D01*
X144506Y281356D01*
X144422Y281324D01*
X144340Y281289D01*
X144259Y281249D01*
X144180Y281207D01*
X144103Y281161D01*
X144028Y281111D01*
X143955Y281059D01*
X143884Y281003D01*
X143816Y280945D01*
X143751Y280883D01*
X143688Y280819D01*
X143628Y280752D01*
X143571Y280683D01*
X143517Y280611D01*
X143466Y280537D01*
X143418Y280461D01*
X143374Y280383D01*
X143333Y280303D01*
X143295Y280221D01*
X143261Y280138D01*
X143231Y280053D01*
X143204Y279967D01*
X143181Y279881D01*
X143162Y279793D01*
X143147Y279704D01*
X143135Y279615D01*
X143127Y279526D01*
X143123Y279436D01*
X143123Y279346D01*
X143127Y279256D01*
X143135Y279167D01*
X143147Y279078D01*
X143162Y278989D01*
X143181Y278901D01*
X143204Y278815D01*
X143231Y278729D01*
X143261Y278644D01*
X143295Y278561D01*
X143333Y278479D01*
X143374Y278399D01*
X143418Y278321D01*
X143466Y278245D01*
X143517Y278171D01*
X143571Y278099D01*
X143628Y278030D01*
X143688Y277963D01*
X143751Y277899D01*
X143816Y277837D01*
X143884Y277779D01*
X143955Y277723D01*
X144028Y277671D01*
X144103Y277621D01*
X144180Y277575D01*
X144259Y277533D01*
X144340Y277493D01*
X144422Y277458D01*
X144506Y277426D01*
X144591Y277397D01*
X144678Y277372D01*
X144765Y277351D01*
X144853Y277334D01*
X144942Y277320D01*
X145032Y277311D01*
X145121Y277305D01*
X145211Y277303D01*
X145211Y277302D02*
X147300Y277302D01*
X139200Y279391D02*
X136589Y281479D01*
X136589Y272081D01*
X133979Y272081D02*
X139200Y272081D01*
X130056Y280435D02*
X130056Y281479D01*
X124835Y281479D01*
X127445Y272081D01*
X118911Y272081D02*
X118911Y281479D01*
X121521Y281479D02*
X116300Y281479D01*
X109028Y277302D02*
X107461Y277302D01*
X107461Y272081D01*
X110594Y272081D01*
X110683Y272083D01*
X110771Y272089D01*
X110859Y272098D01*
X110947Y272111D01*
X111034Y272128D01*
X111120Y272148D01*
X111205Y272173D01*
X111290Y272200D01*
X111373Y272232D01*
X111454Y272266D01*
X111534Y272305D01*
X111612Y272346D01*
X111689Y272391D01*
X111763Y272439D01*
X111836Y272490D01*
X111906Y272544D01*
X111973Y272602D01*
X112039Y272662D01*
X112101Y272724D01*
X112161Y272790D01*
X112219Y272857D01*
X112273Y272927D01*
X112324Y273000D01*
X112372Y273074D01*
X112417Y273151D01*
X112458Y273229D01*
X112497Y273309D01*
X112531Y273390D01*
X112563Y273473D01*
X112590Y273558D01*
X112615Y273643D01*
X112635Y273729D01*
X112652Y273816D01*
X112665Y273904D01*
X112674Y273992D01*
X112680Y274080D01*
X112682Y274169D01*
X112682Y279391D01*
X112680Y279480D01*
X112674Y279568D01*
X112665Y279656D01*
X112652Y279744D01*
X112635Y279831D01*
X112615Y279917D01*
X112590Y280002D01*
X112563Y280087D01*
X112531Y280170D01*
X112497Y280251D01*
X112458Y280331D01*
X112417Y280409D01*
X112372Y280486D01*
X112324Y280560D01*
X112273Y280633D01*
X112219Y280703D01*
X112161Y280770D01*
X112101Y280836D01*
X112039Y280898D01*
X111973Y280958D01*
X111906Y281016D01*
X111836Y281070D01*
X111763Y281121D01*
X111689Y281169D01*
X111612Y281214D01*
X111534Y281255D01*
X111454Y281294D01*
X111373Y281328D01*
X111290Y281360D01*
X111205Y281387D01*
X111120Y281412D01*
X111034Y281432D01*
X110947Y281449D01*
X110859Y281462D01*
X110771Y281471D01*
X110683Y281477D01*
X110594Y281479D01*
X107461Y281479D01*
D12*
X134000Y311490D02*
X166000Y311490D01*
X166000Y360510D01*
X134000Y360510D01*
X134000Y311490D01*
X130500Y308100D02*
X115250Y308100D01*
D14*
X162308Y344158D02*
X162308Y355842D01*
X163606Y344158D02*
X161010Y344158D01*
X161010Y355842D02*
X163606Y355842D01*
X153846Y344158D02*
X151250Y344158D01*
X153846Y344158D02*
X153945Y344160D01*
X154045Y344166D01*
X154144Y344175D01*
X154242Y344188D01*
X154340Y344205D01*
X154438Y344226D01*
X154534Y344251D01*
X154629Y344279D01*
X154723Y344311D01*
X154816Y344346D01*
X154908Y344385D01*
X154998Y344428D01*
X155086Y344473D01*
X155173Y344523D01*
X155257Y344575D01*
X155340Y344631D01*
X155420Y344689D01*
X155498Y344751D01*
X155573Y344816D01*
X155646Y344884D01*
X155716Y344954D01*
X155784Y345027D01*
X155849Y345102D01*
X155911Y345180D01*
X155969Y345260D01*
X156025Y345343D01*
X156077Y345427D01*
X156127Y345514D01*
X156172Y345602D01*
X156215Y345692D01*
X156254Y345784D01*
X156289Y345877D01*
X156321Y345971D01*
X156349Y346066D01*
X156374Y346162D01*
X156395Y346260D01*
X156412Y346358D01*
X156425Y346456D01*
X156434Y346555D01*
X156440Y346655D01*
X156442Y346754D01*
X156443Y346754D02*
X156443Y353246D01*
X156442Y353246D02*
X156440Y353345D01*
X156434Y353445D01*
X156425Y353544D01*
X156412Y353642D01*
X156395Y353740D01*
X156374Y353838D01*
X156349Y353934D01*
X156321Y354029D01*
X156289Y354123D01*
X156254Y354216D01*
X156215Y354308D01*
X156172Y354398D01*
X156127Y354486D01*
X156077Y354573D01*
X156025Y354657D01*
X155969Y354740D01*
X155911Y354820D01*
X155849Y354898D01*
X155784Y354973D01*
X155716Y355046D01*
X155646Y355116D01*
X155573Y355184D01*
X155498Y355249D01*
X155420Y355311D01*
X155340Y355369D01*
X155257Y355425D01*
X155173Y355477D01*
X155086Y355527D01*
X154998Y355572D01*
X154908Y355615D01*
X154816Y355654D01*
X154723Y355689D01*
X154629Y355721D01*
X154534Y355749D01*
X154438Y355774D01*
X154340Y355795D01*
X154242Y355812D01*
X154144Y355825D01*
X154045Y355834D01*
X153945Y355840D01*
X153846Y355842D01*
X151250Y355842D01*
X146885Y353246D02*
X143639Y355842D01*
X143639Y344158D01*
X140394Y344158D02*
X146885Y344158D01*
X220999Y407208D02*
X223596Y407208D01*
X223695Y407210D01*
X223795Y407216D01*
X223894Y407225D01*
X223992Y407238D01*
X224090Y407255D01*
X224188Y407276D01*
X224284Y407301D01*
X224379Y407329D01*
X224473Y407361D01*
X224566Y407396D01*
X224658Y407435D01*
X224748Y407478D01*
X224836Y407523D01*
X224923Y407573D01*
X225007Y407625D01*
X225090Y407681D01*
X225170Y407739D01*
X225248Y407801D01*
X225323Y407866D01*
X225396Y407934D01*
X225466Y408004D01*
X225534Y408077D01*
X225599Y408152D01*
X225661Y408230D01*
X225719Y408310D01*
X225775Y408393D01*
X225827Y408477D01*
X225877Y408564D01*
X225922Y408652D01*
X225965Y408742D01*
X226004Y408834D01*
X226039Y408927D01*
X226071Y409021D01*
X226099Y409116D01*
X226124Y409212D01*
X226145Y409310D01*
X226162Y409408D01*
X226175Y409506D01*
X226184Y409605D01*
X226190Y409705D01*
X226192Y409804D01*
X226192Y416296D01*
X226190Y416395D01*
X226184Y416495D01*
X226175Y416594D01*
X226162Y416692D01*
X226145Y416790D01*
X226124Y416888D01*
X226099Y416984D01*
X226071Y417079D01*
X226039Y417173D01*
X226004Y417266D01*
X225965Y417358D01*
X225922Y417448D01*
X225877Y417536D01*
X225827Y417623D01*
X225775Y417707D01*
X225719Y417790D01*
X225661Y417870D01*
X225599Y417948D01*
X225534Y418023D01*
X225466Y418096D01*
X225396Y418166D01*
X225323Y418234D01*
X225248Y418299D01*
X225170Y418361D01*
X225090Y418419D01*
X225007Y418475D01*
X224923Y418527D01*
X224836Y418577D01*
X224748Y418622D01*
X224658Y418665D01*
X224566Y418704D01*
X224473Y418739D01*
X224379Y418771D01*
X224284Y418799D01*
X224188Y418824D01*
X224090Y418845D01*
X223992Y418862D01*
X223894Y418875D01*
X223795Y418884D01*
X223695Y418890D01*
X223596Y418892D01*
X220999Y418892D01*
X216634Y416296D02*
X213388Y418892D01*
X213388Y407208D01*
X210143Y407208D02*
X216634Y407208D01*
X172261Y386108D02*
X169664Y386108D01*
X172261Y386108D02*
X172360Y386110D01*
X172460Y386116D01*
X172559Y386125D01*
X172657Y386138D01*
X172755Y386155D01*
X172853Y386176D01*
X172949Y386201D01*
X173044Y386229D01*
X173138Y386261D01*
X173231Y386296D01*
X173323Y386335D01*
X173413Y386378D01*
X173501Y386423D01*
X173588Y386473D01*
X173672Y386525D01*
X173755Y386581D01*
X173835Y386639D01*
X173913Y386701D01*
X173988Y386766D01*
X174061Y386834D01*
X174131Y386904D01*
X174199Y386977D01*
X174264Y387052D01*
X174326Y387130D01*
X174384Y387210D01*
X174440Y387293D01*
X174492Y387377D01*
X174542Y387464D01*
X174587Y387552D01*
X174630Y387642D01*
X174669Y387734D01*
X174704Y387827D01*
X174736Y387921D01*
X174764Y388016D01*
X174789Y388112D01*
X174810Y388210D01*
X174827Y388308D01*
X174840Y388406D01*
X174849Y388505D01*
X174855Y388605D01*
X174857Y388704D01*
X174857Y395196D01*
X174855Y395295D01*
X174849Y395395D01*
X174840Y395494D01*
X174827Y395592D01*
X174810Y395690D01*
X174789Y395788D01*
X174764Y395884D01*
X174736Y395979D01*
X174704Y396073D01*
X174669Y396166D01*
X174630Y396258D01*
X174587Y396348D01*
X174542Y396436D01*
X174492Y396523D01*
X174440Y396607D01*
X174384Y396690D01*
X174326Y396770D01*
X174264Y396848D01*
X174199Y396923D01*
X174131Y396996D01*
X174061Y397066D01*
X173988Y397134D01*
X173913Y397199D01*
X173835Y397261D01*
X173755Y397319D01*
X173672Y397375D01*
X173588Y397427D01*
X173501Y397477D01*
X173413Y397522D01*
X173323Y397565D01*
X173231Y397604D01*
X173138Y397639D01*
X173044Y397671D01*
X172949Y397699D01*
X172853Y397724D01*
X172755Y397745D01*
X172657Y397762D01*
X172559Y397775D01*
X172460Y397784D01*
X172360Y397790D01*
X172261Y397792D01*
X169664Y397792D01*
X161729Y397792D02*
X161622Y397790D01*
X161516Y397784D01*
X161410Y397774D01*
X161304Y397761D01*
X161198Y397743D01*
X161094Y397722D01*
X160990Y397697D01*
X160887Y397668D01*
X160786Y397636D01*
X160686Y397599D01*
X160587Y397559D01*
X160489Y397516D01*
X160393Y397469D01*
X160299Y397418D01*
X160207Y397364D01*
X160117Y397307D01*
X160029Y397247D01*
X159944Y397183D01*
X159861Y397116D01*
X159780Y397046D01*
X159702Y396974D01*
X159626Y396898D01*
X159554Y396820D01*
X159484Y396739D01*
X159417Y396656D01*
X159353Y396571D01*
X159293Y396483D01*
X159236Y396393D01*
X159182Y396301D01*
X159131Y396207D01*
X159084Y396111D01*
X159041Y396013D01*
X159001Y395914D01*
X158964Y395814D01*
X158932Y395713D01*
X158903Y395610D01*
X158878Y395506D01*
X158857Y395402D01*
X158839Y395296D01*
X158826Y395190D01*
X158816Y395084D01*
X158810Y394978D01*
X158808Y394871D01*
X161729Y397792D02*
X161850Y397790D01*
X161971Y397784D01*
X162091Y397774D01*
X162212Y397761D01*
X162331Y397743D01*
X162451Y397722D01*
X162569Y397697D01*
X162686Y397668D01*
X162803Y397635D01*
X162918Y397599D01*
X163032Y397558D01*
X163145Y397515D01*
X163257Y397467D01*
X163366Y397416D01*
X163474Y397361D01*
X163581Y397303D01*
X163685Y397242D01*
X163787Y397177D01*
X163887Y397109D01*
X163985Y397038D01*
X164081Y396964D01*
X164174Y396887D01*
X164264Y396806D01*
X164352Y396723D01*
X164437Y396637D01*
X164520Y396548D01*
X164599Y396457D01*
X164676Y396363D01*
X164749Y396267D01*
X164819Y396169D01*
X164886Y396068D01*
X164950Y395965D01*
X165011Y395860D01*
X165068Y395753D01*
X165121Y395645D01*
X165171Y395535D01*
X165217Y395423D01*
X165260Y395310D01*
X165299Y395195D01*
X159782Y392599D02*
X159703Y392677D01*
X159627Y392757D01*
X159554Y392840D01*
X159484Y392926D01*
X159417Y393013D01*
X159353Y393104D01*
X159293Y393196D01*
X159235Y393290D01*
X159181Y393387D01*
X159131Y393485D01*
X159084Y393585D01*
X159040Y393686D01*
X159000Y393789D01*
X158964Y393894D01*
X158932Y393999D01*
X158903Y394106D01*
X158878Y394213D01*
X158856Y394322D01*
X158839Y394431D01*
X158825Y394540D01*
X158816Y394650D01*
X158810Y394761D01*
X158808Y394871D01*
X159782Y392599D02*
X165299Y386108D01*
X158808Y386108D01*
X138596Y424208D02*
X135999Y424208D01*
X138596Y424208D02*
X138695Y424210D01*
X138795Y424216D01*
X138894Y424225D01*
X138992Y424238D01*
X139090Y424255D01*
X139188Y424276D01*
X139284Y424301D01*
X139379Y424329D01*
X139473Y424361D01*
X139566Y424396D01*
X139658Y424435D01*
X139748Y424478D01*
X139836Y424523D01*
X139923Y424573D01*
X140007Y424625D01*
X140090Y424681D01*
X140170Y424739D01*
X140248Y424801D01*
X140323Y424866D01*
X140396Y424934D01*
X140466Y425004D01*
X140534Y425077D01*
X140599Y425152D01*
X140661Y425230D01*
X140719Y425310D01*
X140775Y425393D01*
X140827Y425477D01*
X140877Y425564D01*
X140922Y425652D01*
X140965Y425742D01*
X141004Y425834D01*
X141039Y425927D01*
X141071Y426021D01*
X141099Y426116D01*
X141124Y426212D01*
X141145Y426310D01*
X141162Y426408D01*
X141175Y426506D01*
X141184Y426605D01*
X141190Y426705D01*
X141192Y426804D01*
X141192Y433296D01*
X141190Y433395D01*
X141184Y433495D01*
X141175Y433594D01*
X141162Y433692D01*
X141145Y433790D01*
X141124Y433888D01*
X141099Y433984D01*
X141071Y434079D01*
X141039Y434173D01*
X141004Y434266D01*
X140965Y434358D01*
X140922Y434448D01*
X140877Y434536D01*
X140827Y434623D01*
X140775Y434707D01*
X140719Y434790D01*
X140661Y434870D01*
X140599Y434948D01*
X140534Y435023D01*
X140466Y435096D01*
X140396Y435166D01*
X140323Y435234D01*
X140248Y435299D01*
X140170Y435361D01*
X140090Y435419D01*
X140007Y435475D01*
X139923Y435527D01*
X139836Y435577D01*
X139748Y435622D01*
X139658Y435665D01*
X139566Y435704D01*
X139473Y435739D01*
X139379Y435771D01*
X139284Y435799D01*
X139188Y435824D01*
X139090Y435845D01*
X138992Y435862D01*
X138894Y435875D01*
X138795Y435884D01*
X138695Y435890D01*
X138596Y435892D01*
X135999Y435892D01*
X131634Y424208D02*
X128388Y424208D01*
X128275Y424210D01*
X128162Y424216D01*
X128049Y424226D01*
X127936Y424240D01*
X127824Y424257D01*
X127713Y424279D01*
X127603Y424304D01*
X127493Y424334D01*
X127385Y424367D01*
X127278Y424404D01*
X127172Y424444D01*
X127068Y424489D01*
X126965Y424537D01*
X126864Y424588D01*
X126765Y424643D01*
X126668Y424701D01*
X126573Y424763D01*
X126480Y424828D01*
X126390Y424896D01*
X126302Y424967D01*
X126216Y425042D01*
X126133Y425119D01*
X126053Y425199D01*
X125976Y425282D01*
X125901Y425368D01*
X125830Y425456D01*
X125762Y425546D01*
X125697Y425639D01*
X125635Y425734D01*
X125577Y425831D01*
X125522Y425930D01*
X125471Y426031D01*
X125423Y426134D01*
X125378Y426238D01*
X125338Y426344D01*
X125301Y426451D01*
X125268Y426559D01*
X125238Y426669D01*
X125213Y426779D01*
X125191Y426890D01*
X125174Y427002D01*
X125160Y427115D01*
X125150Y427228D01*
X125144Y427341D01*
X125142Y427454D01*
X125144Y427567D01*
X125150Y427680D01*
X125160Y427793D01*
X125174Y427906D01*
X125191Y428018D01*
X125213Y428129D01*
X125238Y428239D01*
X125268Y428349D01*
X125301Y428457D01*
X125338Y428564D01*
X125378Y428670D01*
X125423Y428774D01*
X125471Y428877D01*
X125522Y428978D01*
X125577Y429077D01*
X125635Y429174D01*
X125697Y429269D01*
X125762Y429362D01*
X125830Y429452D01*
X125901Y429540D01*
X125976Y429626D01*
X126053Y429709D01*
X126133Y429789D01*
X126216Y429866D01*
X126302Y429941D01*
X126390Y430012D01*
X126480Y430080D01*
X126573Y430145D01*
X126668Y430207D01*
X126765Y430265D01*
X126864Y430320D01*
X126965Y430371D01*
X127068Y430419D01*
X127172Y430464D01*
X127278Y430504D01*
X127385Y430541D01*
X127493Y430574D01*
X127603Y430604D01*
X127713Y430629D01*
X127824Y430651D01*
X127936Y430668D01*
X128049Y430682D01*
X128162Y430692D01*
X128275Y430698D01*
X128388Y430700D01*
X127739Y435892D02*
X131634Y435892D01*
X127739Y435892D02*
X127638Y435890D01*
X127538Y435884D01*
X127438Y435874D01*
X127338Y435861D01*
X127239Y435843D01*
X127140Y435822D01*
X127043Y435797D01*
X126946Y435768D01*
X126851Y435735D01*
X126757Y435699D01*
X126665Y435659D01*
X126574Y435616D01*
X126485Y435569D01*
X126398Y435519D01*
X126312Y435465D01*
X126229Y435408D01*
X126149Y435348D01*
X126070Y435285D01*
X125994Y435218D01*
X125921Y435149D01*
X125851Y435077D01*
X125783Y435003D01*
X125718Y434926D01*
X125657Y434846D01*
X125598Y434764D01*
X125543Y434680D01*
X125491Y434594D01*
X125442Y434506D01*
X125397Y434416D01*
X125355Y434324D01*
X125317Y434231D01*
X125283Y434136D01*
X125252Y434041D01*
X125225Y433944D01*
X125202Y433846D01*
X125182Y433747D01*
X125167Y433647D01*
X125155Y433547D01*
X125147Y433447D01*
X125143Y433346D01*
X125143Y433246D01*
X125147Y433145D01*
X125155Y433045D01*
X125167Y432945D01*
X125182Y432845D01*
X125202Y432746D01*
X125225Y432648D01*
X125252Y432551D01*
X125283Y432456D01*
X125317Y432361D01*
X125355Y432268D01*
X125397Y432176D01*
X125442Y432086D01*
X125491Y431998D01*
X125543Y431912D01*
X125598Y431828D01*
X125657Y431746D01*
X125718Y431666D01*
X125783Y431589D01*
X125851Y431515D01*
X125921Y431443D01*
X125994Y431374D01*
X126070Y431307D01*
X126149Y431244D01*
X126229Y431184D01*
X126312Y431127D01*
X126398Y431073D01*
X126485Y431023D01*
X126574Y430976D01*
X126665Y430933D01*
X126757Y430893D01*
X126851Y430857D01*
X126946Y430824D01*
X127043Y430795D01*
X127140Y430770D01*
X127239Y430749D01*
X127338Y430731D01*
X127438Y430718D01*
X127538Y430708D01*
X127638Y430702D01*
X127739Y430700D01*
X127739Y430699D02*
X130336Y430699D01*
X220999Y383208D02*
X223596Y383208D01*
X223695Y383210D01*
X223795Y383216D01*
X223894Y383225D01*
X223992Y383238D01*
X224090Y383255D01*
X224188Y383276D01*
X224284Y383301D01*
X224379Y383329D01*
X224473Y383361D01*
X224566Y383396D01*
X224658Y383435D01*
X224748Y383478D01*
X224836Y383523D01*
X224923Y383573D01*
X225007Y383625D01*
X225090Y383681D01*
X225170Y383739D01*
X225248Y383801D01*
X225323Y383866D01*
X225396Y383934D01*
X225466Y384004D01*
X225534Y384077D01*
X225599Y384152D01*
X225661Y384230D01*
X225719Y384310D01*
X225775Y384393D01*
X225827Y384477D01*
X225877Y384564D01*
X225922Y384652D01*
X225965Y384742D01*
X226004Y384834D01*
X226039Y384927D01*
X226071Y385021D01*
X226099Y385116D01*
X226124Y385212D01*
X226145Y385310D01*
X226162Y385408D01*
X226175Y385506D01*
X226184Y385605D01*
X226190Y385705D01*
X226192Y385804D01*
X226192Y392296D01*
X226190Y392395D01*
X226184Y392495D01*
X226175Y392594D01*
X226162Y392692D01*
X226145Y392790D01*
X226124Y392888D01*
X226099Y392984D01*
X226071Y393079D01*
X226039Y393173D01*
X226004Y393266D01*
X225965Y393358D01*
X225922Y393448D01*
X225877Y393536D01*
X225827Y393623D01*
X225775Y393707D01*
X225719Y393790D01*
X225661Y393870D01*
X225599Y393948D01*
X225534Y394023D01*
X225466Y394096D01*
X225396Y394166D01*
X225323Y394234D01*
X225248Y394299D01*
X225170Y394361D01*
X225090Y394419D01*
X225007Y394475D01*
X224923Y394527D01*
X224836Y394577D01*
X224748Y394622D01*
X224658Y394665D01*
X224566Y394704D01*
X224473Y394739D01*
X224379Y394771D01*
X224284Y394799D01*
X224188Y394824D01*
X224090Y394845D01*
X223992Y394862D01*
X223894Y394875D01*
X223795Y394884D01*
X223695Y394890D01*
X223596Y394892D01*
X220999Y394892D01*
X214037Y394892D02*
X216634Y385804D01*
X210143Y385804D01*
X212090Y388401D02*
X212090Y383208D01*
X141005Y373792D02*
X141005Y362108D01*
X141005Y373792D02*
X137760Y373792D01*
X137647Y373790D01*
X137534Y373784D01*
X137421Y373774D01*
X137308Y373760D01*
X137196Y373743D01*
X137085Y373721D01*
X136975Y373696D01*
X136865Y373666D01*
X136757Y373633D01*
X136650Y373596D01*
X136544Y373556D01*
X136440Y373511D01*
X136337Y373463D01*
X136236Y373412D01*
X136137Y373357D01*
X136040Y373299D01*
X135945Y373237D01*
X135852Y373172D01*
X135762Y373104D01*
X135674Y373033D01*
X135588Y372958D01*
X135505Y372881D01*
X135425Y372801D01*
X135348Y372718D01*
X135273Y372632D01*
X135202Y372544D01*
X135134Y372454D01*
X135069Y372361D01*
X135007Y372266D01*
X134949Y372169D01*
X134894Y372070D01*
X134843Y371969D01*
X134795Y371866D01*
X134750Y371762D01*
X134710Y371656D01*
X134673Y371549D01*
X134640Y371441D01*
X134610Y371331D01*
X134585Y371221D01*
X134563Y371110D01*
X134546Y370998D01*
X134532Y370885D01*
X134522Y370772D01*
X134516Y370659D01*
X134514Y370546D01*
X134516Y370433D01*
X134522Y370320D01*
X134532Y370207D01*
X134546Y370094D01*
X134563Y369982D01*
X134585Y369871D01*
X134610Y369761D01*
X134640Y369651D01*
X134673Y369543D01*
X134710Y369436D01*
X134750Y369330D01*
X134795Y369226D01*
X134843Y369123D01*
X134894Y369022D01*
X134949Y368923D01*
X135007Y368826D01*
X135069Y368731D01*
X135134Y368638D01*
X135202Y368548D01*
X135273Y368460D01*
X135348Y368374D01*
X135425Y368291D01*
X135505Y368211D01*
X135588Y368134D01*
X135674Y368059D01*
X135762Y367988D01*
X135852Y367920D01*
X135945Y367855D01*
X136040Y367793D01*
X136137Y367735D01*
X136236Y367680D01*
X136337Y367629D01*
X136440Y367581D01*
X136544Y367536D01*
X136650Y367496D01*
X136757Y367459D01*
X136865Y367426D01*
X136975Y367396D01*
X137085Y367371D01*
X137196Y367349D01*
X137308Y367332D01*
X137421Y367318D01*
X137534Y367308D01*
X137647Y367302D01*
X137760Y367300D01*
X137760Y367301D02*
X141005Y367301D01*
X137111Y367301D02*
X134514Y362108D01*
X129649Y371196D02*
X126404Y373792D01*
X126404Y362108D01*
X129649Y362108D02*
X123158Y362108D01*
X176842Y400208D02*
X176842Y411892D01*
X173596Y411892D01*
X173483Y411890D01*
X173370Y411884D01*
X173257Y411874D01*
X173144Y411860D01*
X173032Y411843D01*
X172921Y411821D01*
X172811Y411796D01*
X172701Y411766D01*
X172593Y411733D01*
X172486Y411696D01*
X172380Y411656D01*
X172276Y411611D01*
X172173Y411563D01*
X172072Y411512D01*
X171973Y411457D01*
X171876Y411399D01*
X171781Y411337D01*
X171688Y411272D01*
X171598Y411204D01*
X171510Y411133D01*
X171424Y411058D01*
X171341Y410981D01*
X171261Y410901D01*
X171184Y410818D01*
X171109Y410732D01*
X171038Y410644D01*
X170970Y410554D01*
X170905Y410461D01*
X170843Y410366D01*
X170785Y410269D01*
X170730Y410170D01*
X170679Y410069D01*
X170631Y409966D01*
X170586Y409862D01*
X170546Y409756D01*
X170509Y409649D01*
X170476Y409541D01*
X170446Y409431D01*
X170421Y409321D01*
X170399Y409210D01*
X170382Y409098D01*
X170368Y408985D01*
X170358Y408872D01*
X170352Y408759D01*
X170350Y408646D01*
X170352Y408533D01*
X170358Y408420D01*
X170368Y408307D01*
X170382Y408194D01*
X170399Y408082D01*
X170421Y407971D01*
X170446Y407861D01*
X170476Y407751D01*
X170509Y407643D01*
X170546Y407536D01*
X170586Y407430D01*
X170631Y407326D01*
X170679Y407223D01*
X170730Y407122D01*
X170785Y407023D01*
X170843Y406926D01*
X170905Y406831D01*
X170970Y406738D01*
X171038Y406648D01*
X171109Y406560D01*
X171184Y406474D01*
X171261Y406391D01*
X171341Y406311D01*
X171424Y406234D01*
X171510Y406159D01*
X171598Y406088D01*
X171688Y406020D01*
X171781Y405955D01*
X171876Y405893D01*
X171973Y405835D01*
X172072Y405780D01*
X172173Y405729D01*
X172276Y405681D01*
X172380Y405636D01*
X172486Y405596D01*
X172593Y405559D01*
X172701Y405526D01*
X172811Y405496D01*
X172921Y405471D01*
X173032Y405449D01*
X173144Y405432D01*
X173257Y405418D01*
X173370Y405408D01*
X173483Y405402D01*
X173596Y405400D01*
X173596Y405401D02*
X176842Y405401D01*
X172947Y405401D02*
X170351Y400208D01*
X158995Y408971D02*
X158997Y409078D01*
X159003Y409184D01*
X159013Y409290D01*
X159026Y409396D01*
X159044Y409502D01*
X159065Y409606D01*
X159090Y409710D01*
X159119Y409813D01*
X159151Y409914D01*
X159188Y410014D01*
X159228Y410113D01*
X159271Y410211D01*
X159318Y410307D01*
X159369Y410401D01*
X159423Y410493D01*
X159480Y410583D01*
X159540Y410671D01*
X159604Y410756D01*
X159671Y410839D01*
X159741Y410920D01*
X159813Y410998D01*
X159889Y411074D01*
X159967Y411146D01*
X160048Y411216D01*
X160131Y411283D01*
X160216Y411347D01*
X160304Y411407D01*
X160394Y411464D01*
X160486Y411518D01*
X160580Y411569D01*
X160676Y411616D01*
X160774Y411659D01*
X160873Y411699D01*
X160973Y411736D01*
X161074Y411768D01*
X161177Y411797D01*
X161281Y411822D01*
X161385Y411843D01*
X161491Y411861D01*
X161597Y411874D01*
X161703Y411884D01*
X161809Y411890D01*
X161916Y411892D01*
X162037Y411890D01*
X162158Y411884D01*
X162278Y411874D01*
X162399Y411861D01*
X162518Y411843D01*
X162638Y411822D01*
X162756Y411797D01*
X162873Y411768D01*
X162990Y411735D01*
X163105Y411699D01*
X163219Y411658D01*
X163332Y411615D01*
X163444Y411567D01*
X163553Y411516D01*
X163661Y411461D01*
X163768Y411403D01*
X163872Y411342D01*
X163974Y411277D01*
X164074Y411209D01*
X164172Y411138D01*
X164268Y411064D01*
X164361Y410987D01*
X164451Y410906D01*
X164539Y410823D01*
X164624Y410737D01*
X164707Y410648D01*
X164786Y410557D01*
X164863Y410463D01*
X164936Y410367D01*
X165006Y410269D01*
X165073Y410168D01*
X165137Y410065D01*
X165198Y409960D01*
X165255Y409853D01*
X165308Y409745D01*
X165358Y409635D01*
X165404Y409523D01*
X165447Y409410D01*
X165486Y409295D01*
X159969Y406699D02*
X159890Y406777D01*
X159814Y406857D01*
X159741Y406940D01*
X159671Y407026D01*
X159604Y407113D01*
X159540Y407204D01*
X159480Y407296D01*
X159422Y407390D01*
X159368Y407487D01*
X159318Y407585D01*
X159271Y407685D01*
X159227Y407786D01*
X159187Y407889D01*
X159151Y407994D01*
X159119Y408099D01*
X159090Y408206D01*
X159065Y408313D01*
X159043Y408422D01*
X159026Y408531D01*
X159012Y408640D01*
X159003Y408750D01*
X158997Y408861D01*
X158995Y408971D01*
X159968Y406699D02*
X165486Y400208D01*
X158995Y400208D01*
X229664Y321108D02*
X232261Y321108D01*
X232360Y321110D01*
X232460Y321116D01*
X232559Y321125D01*
X232657Y321138D01*
X232755Y321155D01*
X232853Y321176D01*
X232949Y321201D01*
X233044Y321229D01*
X233138Y321261D01*
X233231Y321296D01*
X233323Y321335D01*
X233413Y321378D01*
X233501Y321423D01*
X233588Y321473D01*
X233672Y321525D01*
X233755Y321581D01*
X233835Y321639D01*
X233913Y321701D01*
X233988Y321766D01*
X234061Y321834D01*
X234131Y321904D01*
X234199Y321977D01*
X234264Y322052D01*
X234326Y322130D01*
X234384Y322210D01*
X234440Y322293D01*
X234492Y322377D01*
X234542Y322464D01*
X234587Y322552D01*
X234630Y322642D01*
X234669Y322734D01*
X234704Y322827D01*
X234736Y322921D01*
X234764Y323016D01*
X234789Y323112D01*
X234810Y323210D01*
X234827Y323308D01*
X234840Y323406D01*
X234849Y323505D01*
X234855Y323605D01*
X234857Y323704D01*
X234857Y330196D01*
X234855Y330295D01*
X234849Y330395D01*
X234840Y330494D01*
X234827Y330592D01*
X234810Y330690D01*
X234789Y330788D01*
X234764Y330884D01*
X234736Y330979D01*
X234704Y331073D01*
X234669Y331166D01*
X234630Y331258D01*
X234587Y331348D01*
X234542Y331436D01*
X234492Y331523D01*
X234440Y331607D01*
X234384Y331690D01*
X234326Y331770D01*
X234264Y331848D01*
X234199Y331923D01*
X234131Y331996D01*
X234061Y332066D01*
X233988Y332134D01*
X233913Y332199D01*
X233835Y332261D01*
X233755Y332319D01*
X233672Y332375D01*
X233588Y332427D01*
X233501Y332477D01*
X233413Y332522D01*
X233323Y332565D01*
X233231Y332604D01*
X233138Y332639D01*
X233044Y332671D01*
X232949Y332699D01*
X232853Y332724D01*
X232755Y332745D01*
X232657Y332762D01*
X232559Y332775D01*
X232460Y332784D01*
X232360Y332790D01*
X232261Y332792D01*
X229664Y332792D01*
X225299Y321108D02*
X221404Y321108D01*
X221305Y321110D01*
X221205Y321116D01*
X221106Y321125D01*
X221008Y321138D01*
X220910Y321155D01*
X220812Y321176D01*
X220716Y321201D01*
X220621Y321229D01*
X220527Y321261D01*
X220434Y321296D01*
X220342Y321335D01*
X220252Y321378D01*
X220164Y321423D01*
X220077Y321473D01*
X219993Y321525D01*
X219910Y321581D01*
X219830Y321639D01*
X219752Y321701D01*
X219677Y321766D01*
X219604Y321834D01*
X219534Y321904D01*
X219466Y321977D01*
X219401Y322052D01*
X219339Y322130D01*
X219281Y322210D01*
X219225Y322293D01*
X219173Y322377D01*
X219123Y322464D01*
X219078Y322552D01*
X219035Y322642D01*
X218996Y322734D01*
X218961Y322827D01*
X218929Y322921D01*
X218901Y323016D01*
X218876Y323112D01*
X218855Y323210D01*
X218838Y323308D01*
X218825Y323406D01*
X218816Y323505D01*
X218810Y323605D01*
X218808Y323704D01*
X218808Y325003D01*
X218810Y325102D01*
X218816Y325202D01*
X218825Y325301D01*
X218838Y325399D01*
X218855Y325497D01*
X218876Y325595D01*
X218901Y325691D01*
X218929Y325786D01*
X218961Y325880D01*
X218996Y325973D01*
X219035Y326065D01*
X219078Y326155D01*
X219123Y326243D01*
X219173Y326330D01*
X219225Y326414D01*
X219281Y326497D01*
X219339Y326577D01*
X219401Y326655D01*
X219466Y326730D01*
X219534Y326803D01*
X219604Y326873D01*
X219677Y326941D01*
X219752Y327006D01*
X219830Y327068D01*
X219910Y327126D01*
X219993Y327182D01*
X220077Y327234D01*
X220164Y327284D01*
X220252Y327329D01*
X220342Y327372D01*
X220434Y327411D01*
X220527Y327446D01*
X220621Y327478D01*
X220716Y327506D01*
X220812Y327531D01*
X220910Y327552D01*
X221008Y327569D01*
X221106Y327582D01*
X221205Y327591D01*
X221305Y327597D01*
X221404Y327599D01*
X225299Y327599D01*
X225299Y332792D01*
X218808Y332792D01*
D11*
X216360Y400919D02*
X216360Y405745D01*
X214215Y405745D01*
X214215Y403600D02*
X216360Y403600D01*
X211478Y403600D02*
X210138Y403600D01*
X210138Y403601D02*
X210067Y403599D01*
X209995Y403593D01*
X209925Y403584D01*
X209855Y403571D01*
X209785Y403554D01*
X209717Y403533D01*
X209650Y403509D01*
X209584Y403481D01*
X209520Y403450D01*
X209457Y403415D01*
X209397Y403377D01*
X209338Y403336D01*
X209282Y403292D01*
X209228Y403245D01*
X209177Y403196D01*
X209129Y403143D01*
X209083Y403088D01*
X209041Y403031D01*
X209001Y402971D01*
X208965Y402910D01*
X208932Y402846D01*
X208903Y402781D01*
X208877Y402715D01*
X208854Y402647D01*
X208835Y402578D01*
X208820Y402508D01*
X208809Y402438D01*
X208801Y402367D01*
X208797Y402296D01*
X208797Y402224D01*
X208801Y402153D01*
X208809Y402082D01*
X208820Y402012D01*
X208835Y401942D01*
X208854Y401873D01*
X208877Y401805D01*
X208903Y401739D01*
X208932Y401674D01*
X208965Y401610D01*
X209001Y401549D01*
X209041Y401489D01*
X209083Y401432D01*
X209129Y401377D01*
X209177Y401324D01*
X209228Y401275D01*
X209282Y401228D01*
X209338Y401184D01*
X209397Y401143D01*
X209457Y401105D01*
X209520Y401070D01*
X209584Y401039D01*
X209650Y401011D01*
X209717Y400987D01*
X209785Y400966D01*
X209855Y400949D01*
X209925Y400936D01*
X209995Y400927D01*
X210067Y400921D01*
X210138Y400919D01*
X211478Y400919D01*
X211478Y405745D01*
X210138Y405745D01*
X210073Y405743D01*
X210009Y405737D01*
X209945Y405727D01*
X209881Y405714D01*
X209819Y405696D01*
X209758Y405675D01*
X209698Y405651D01*
X209640Y405622D01*
X209583Y405590D01*
X209529Y405555D01*
X209477Y405517D01*
X209427Y405475D01*
X209380Y405431D01*
X209336Y405384D01*
X209294Y405334D01*
X209256Y405282D01*
X209221Y405228D01*
X209189Y405171D01*
X209160Y405113D01*
X209136Y405053D01*
X209115Y404992D01*
X209097Y404930D01*
X209084Y404866D01*
X209074Y404802D01*
X209068Y404738D01*
X209066Y404673D01*
X209068Y404608D01*
X209074Y404544D01*
X209084Y404480D01*
X209097Y404416D01*
X209115Y404354D01*
X209136Y404293D01*
X209160Y404233D01*
X209189Y404175D01*
X209221Y404118D01*
X209256Y404064D01*
X209294Y404012D01*
X209336Y403962D01*
X209380Y403915D01*
X209427Y403871D01*
X209477Y403829D01*
X209529Y403791D01*
X209583Y403756D01*
X209640Y403724D01*
X209698Y403695D01*
X209758Y403671D01*
X209819Y403650D01*
X209881Y403632D01*
X209945Y403619D01*
X210009Y403609D01*
X210073Y403603D01*
X210138Y403601D01*
X206321Y404673D02*
X204981Y405745D01*
X204981Y400919D01*
X206321Y400919D02*
X203640Y400919D01*
D14*
X98005Y336792D02*
X98005Y325108D01*
X98005Y336792D02*
X94760Y336792D01*
X94647Y336790D01*
X94534Y336784D01*
X94421Y336774D01*
X94308Y336760D01*
X94196Y336743D01*
X94085Y336721D01*
X93975Y336696D01*
X93865Y336666D01*
X93757Y336633D01*
X93650Y336596D01*
X93544Y336556D01*
X93440Y336511D01*
X93337Y336463D01*
X93236Y336412D01*
X93137Y336357D01*
X93040Y336299D01*
X92945Y336237D01*
X92852Y336172D01*
X92762Y336104D01*
X92674Y336033D01*
X92588Y335958D01*
X92505Y335881D01*
X92425Y335801D01*
X92348Y335718D01*
X92273Y335632D01*
X92202Y335544D01*
X92134Y335454D01*
X92069Y335361D01*
X92007Y335266D01*
X91949Y335169D01*
X91894Y335070D01*
X91843Y334969D01*
X91795Y334866D01*
X91750Y334762D01*
X91710Y334656D01*
X91673Y334549D01*
X91640Y334441D01*
X91610Y334331D01*
X91585Y334221D01*
X91563Y334110D01*
X91546Y333998D01*
X91532Y333885D01*
X91522Y333772D01*
X91516Y333659D01*
X91514Y333546D01*
X91516Y333433D01*
X91522Y333320D01*
X91532Y333207D01*
X91546Y333094D01*
X91563Y332982D01*
X91585Y332871D01*
X91610Y332761D01*
X91640Y332651D01*
X91673Y332543D01*
X91710Y332436D01*
X91750Y332330D01*
X91795Y332226D01*
X91843Y332123D01*
X91894Y332022D01*
X91949Y331923D01*
X92007Y331826D01*
X92069Y331731D01*
X92134Y331638D01*
X92202Y331548D01*
X92273Y331460D01*
X92348Y331374D01*
X92425Y331291D01*
X92505Y331211D01*
X92588Y331134D01*
X92674Y331059D01*
X92762Y330988D01*
X92852Y330920D01*
X92945Y330855D01*
X93040Y330793D01*
X93137Y330735D01*
X93236Y330680D01*
X93337Y330629D01*
X93440Y330581D01*
X93544Y330536D01*
X93650Y330496D01*
X93757Y330459D01*
X93865Y330426D01*
X93975Y330396D01*
X94085Y330371D01*
X94196Y330349D01*
X94308Y330332D01*
X94421Y330318D01*
X94534Y330308D01*
X94647Y330302D01*
X94760Y330300D01*
X94760Y330301D02*
X98005Y330301D01*
X94111Y330301D02*
X91514Y325108D01*
X86649Y325108D02*
X83404Y325108D01*
X83291Y325110D01*
X83178Y325116D01*
X83065Y325126D01*
X82952Y325140D01*
X82840Y325157D01*
X82729Y325179D01*
X82619Y325204D01*
X82509Y325234D01*
X82401Y325267D01*
X82294Y325304D01*
X82188Y325344D01*
X82084Y325389D01*
X81981Y325437D01*
X81880Y325488D01*
X81781Y325543D01*
X81684Y325601D01*
X81589Y325663D01*
X81496Y325728D01*
X81406Y325796D01*
X81318Y325867D01*
X81232Y325942D01*
X81149Y326019D01*
X81069Y326099D01*
X80992Y326182D01*
X80917Y326268D01*
X80846Y326356D01*
X80778Y326446D01*
X80713Y326539D01*
X80651Y326634D01*
X80593Y326731D01*
X80538Y326830D01*
X80487Y326931D01*
X80439Y327034D01*
X80394Y327138D01*
X80354Y327244D01*
X80317Y327351D01*
X80284Y327459D01*
X80254Y327569D01*
X80229Y327679D01*
X80207Y327790D01*
X80190Y327902D01*
X80176Y328015D01*
X80166Y328128D01*
X80160Y328241D01*
X80158Y328354D01*
X80160Y328467D01*
X80166Y328580D01*
X80176Y328693D01*
X80190Y328806D01*
X80207Y328918D01*
X80229Y329029D01*
X80254Y329139D01*
X80284Y329249D01*
X80317Y329357D01*
X80354Y329464D01*
X80394Y329570D01*
X80439Y329674D01*
X80487Y329777D01*
X80538Y329878D01*
X80593Y329977D01*
X80651Y330074D01*
X80713Y330169D01*
X80778Y330262D01*
X80846Y330352D01*
X80917Y330440D01*
X80992Y330526D01*
X81069Y330609D01*
X81149Y330689D01*
X81232Y330766D01*
X81318Y330841D01*
X81406Y330912D01*
X81496Y330980D01*
X81589Y331045D01*
X81684Y331107D01*
X81781Y331165D01*
X81880Y331220D01*
X81981Y331271D01*
X82084Y331319D01*
X82188Y331364D01*
X82294Y331404D01*
X82401Y331441D01*
X82509Y331474D01*
X82619Y331504D01*
X82729Y331529D01*
X82840Y331551D01*
X82952Y331568D01*
X83065Y331582D01*
X83178Y331592D01*
X83291Y331598D01*
X83404Y331600D01*
X82754Y336792D02*
X86649Y336792D01*
X82754Y336792D02*
X82653Y336790D01*
X82553Y336784D01*
X82453Y336774D01*
X82353Y336761D01*
X82254Y336743D01*
X82155Y336722D01*
X82058Y336697D01*
X81961Y336668D01*
X81866Y336635D01*
X81772Y336599D01*
X81680Y336559D01*
X81589Y336516D01*
X81500Y336469D01*
X81413Y336419D01*
X81327Y336365D01*
X81244Y336308D01*
X81164Y336248D01*
X81085Y336185D01*
X81009Y336118D01*
X80936Y336049D01*
X80866Y335977D01*
X80798Y335903D01*
X80733Y335826D01*
X80672Y335746D01*
X80613Y335664D01*
X80558Y335580D01*
X80506Y335494D01*
X80457Y335406D01*
X80412Y335316D01*
X80370Y335224D01*
X80332Y335131D01*
X80298Y335036D01*
X80267Y334941D01*
X80240Y334844D01*
X80217Y334746D01*
X80197Y334647D01*
X80182Y334547D01*
X80170Y334447D01*
X80162Y334347D01*
X80158Y334246D01*
X80158Y334146D01*
X80162Y334045D01*
X80170Y333945D01*
X80182Y333845D01*
X80197Y333745D01*
X80217Y333646D01*
X80240Y333548D01*
X80267Y333451D01*
X80298Y333356D01*
X80332Y333261D01*
X80370Y333168D01*
X80412Y333076D01*
X80457Y332986D01*
X80506Y332898D01*
X80558Y332812D01*
X80613Y332728D01*
X80672Y332646D01*
X80733Y332566D01*
X80798Y332489D01*
X80866Y332415D01*
X80936Y332343D01*
X81009Y332274D01*
X81085Y332207D01*
X81164Y332144D01*
X81244Y332084D01*
X81327Y332027D01*
X81413Y331973D01*
X81500Y331923D01*
X81589Y331876D01*
X81680Y331833D01*
X81772Y331793D01*
X81866Y331757D01*
X81961Y331724D01*
X82058Y331695D01*
X82155Y331670D01*
X82254Y331649D01*
X82353Y331631D01*
X82453Y331618D01*
X82553Y331608D01*
X82653Y331602D01*
X82754Y331600D01*
X82754Y331599D02*
X85351Y331599D01*
X98005Y306792D02*
X98005Y295108D01*
X98005Y306792D02*
X94760Y306792D01*
X94647Y306790D01*
X94534Y306784D01*
X94421Y306774D01*
X94308Y306760D01*
X94196Y306743D01*
X94085Y306721D01*
X93975Y306696D01*
X93865Y306666D01*
X93757Y306633D01*
X93650Y306596D01*
X93544Y306556D01*
X93440Y306511D01*
X93337Y306463D01*
X93236Y306412D01*
X93137Y306357D01*
X93040Y306299D01*
X92945Y306237D01*
X92852Y306172D01*
X92762Y306104D01*
X92674Y306033D01*
X92588Y305958D01*
X92505Y305881D01*
X92425Y305801D01*
X92348Y305718D01*
X92273Y305632D01*
X92202Y305544D01*
X92134Y305454D01*
X92069Y305361D01*
X92007Y305266D01*
X91949Y305169D01*
X91894Y305070D01*
X91843Y304969D01*
X91795Y304866D01*
X91750Y304762D01*
X91710Y304656D01*
X91673Y304549D01*
X91640Y304441D01*
X91610Y304331D01*
X91585Y304221D01*
X91563Y304110D01*
X91546Y303998D01*
X91532Y303885D01*
X91522Y303772D01*
X91516Y303659D01*
X91514Y303546D01*
X91516Y303433D01*
X91522Y303320D01*
X91532Y303207D01*
X91546Y303094D01*
X91563Y302982D01*
X91585Y302871D01*
X91610Y302761D01*
X91640Y302651D01*
X91673Y302543D01*
X91710Y302436D01*
X91750Y302330D01*
X91795Y302226D01*
X91843Y302123D01*
X91894Y302022D01*
X91949Y301923D01*
X92007Y301826D01*
X92069Y301731D01*
X92134Y301638D01*
X92202Y301548D01*
X92273Y301460D01*
X92348Y301374D01*
X92425Y301291D01*
X92505Y301211D01*
X92588Y301134D01*
X92674Y301059D01*
X92762Y300988D01*
X92852Y300920D01*
X92945Y300855D01*
X93040Y300793D01*
X93137Y300735D01*
X93236Y300680D01*
X93337Y300629D01*
X93440Y300581D01*
X93544Y300536D01*
X93650Y300496D01*
X93757Y300459D01*
X93865Y300426D01*
X93975Y300396D01*
X94085Y300371D01*
X94196Y300349D01*
X94308Y300332D01*
X94421Y300318D01*
X94534Y300308D01*
X94647Y300302D01*
X94760Y300300D01*
X94760Y300301D02*
X98005Y300301D01*
X94111Y300301D02*
X91514Y295108D01*
X86649Y305494D02*
X86649Y306792D01*
X80158Y306792D01*
X83404Y295108D01*
X119005Y204792D02*
X119005Y193108D01*
X119005Y204792D02*
X115760Y204792D01*
X115647Y204790D01*
X115534Y204784D01*
X115421Y204774D01*
X115308Y204760D01*
X115196Y204743D01*
X115085Y204721D01*
X114975Y204696D01*
X114865Y204666D01*
X114757Y204633D01*
X114650Y204596D01*
X114544Y204556D01*
X114440Y204511D01*
X114337Y204463D01*
X114236Y204412D01*
X114137Y204357D01*
X114040Y204299D01*
X113945Y204237D01*
X113852Y204172D01*
X113762Y204104D01*
X113674Y204033D01*
X113588Y203958D01*
X113505Y203881D01*
X113425Y203801D01*
X113348Y203718D01*
X113273Y203632D01*
X113202Y203544D01*
X113134Y203454D01*
X113069Y203361D01*
X113007Y203266D01*
X112949Y203169D01*
X112894Y203070D01*
X112843Y202969D01*
X112795Y202866D01*
X112750Y202762D01*
X112710Y202656D01*
X112673Y202549D01*
X112640Y202441D01*
X112610Y202331D01*
X112585Y202221D01*
X112563Y202110D01*
X112546Y201998D01*
X112532Y201885D01*
X112522Y201772D01*
X112516Y201659D01*
X112514Y201546D01*
X112516Y201433D01*
X112522Y201320D01*
X112532Y201207D01*
X112546Y201094D01*
X112563Y200982D01*
X112585Y200871D01*
X112610Y200761D01*
X112640Y200651D01*
X112673Y200543D01*
X112710Y200436D01*
X112750Y200330D01*
X112795Y200226D01*
X112843Y200123D01*
X112894Y200022D01*
X112949Y199923D01*
X113007Y199826D01*
X113069Y199731D01*
X113134Y199638D01*
X113202Y199548D01*
X113273Y199460D01*
X113348Y199374D01*
X113425Y199291D01*
X113505Y199211D01*
X113588Y199134D01*
X113674Y199059D01*
X113762Y198988D01*
X113852Y198920D01*
X113945Y198855D01*
X114040Y198793D01*
X114137Y198735D01*
X114236Y198680D01*
X114337Y198629D01*
X114440Y198581D01*
X114544Y198536D01*
X114650Y198496D01*
X114757Y198459D01*
X114865Y198426D01*
X114975Y198396D01*
X115085Y198371D01*
X115196Y198349D01*
X115308Y198332D01*
X115421Y198318D01*
X115534Y198308D01*
X115647Y198302D01*
X115760Y198300D01*
X115760Y198301D02*
X119005Y198301D01*
X115111Y198301D02*
X112514Y193108D01*
X107650Y196354D02*
X107648Y196467D01*
X107642Y196580D01*
X107632Y196693D01*
X107618Y196806D01*
X107601Y196918D01*
X107579Y197029D01*
X107554Y197139D01*
X107524Y197249D01*
X107491Y197357D01*
X107454Y197464D01*
X107414Y197570D01*
X107369Y197674D01*
X107321Y197777D01*
X107270Y197878D01*
X107215Y197977D01*
X107157Y198074D01*
X107095Y198169D01*
X107030Y198262D01*
X106962Y198352D01*
X106891Y198440D01*
X106816Y198526D01*
X106739Y198609D01*
X106659Y198689D01*
X106576Y198766D01*
X106490Y198841D01*
X106402Y198912D01*
X106312Y198980D01*
X106219Y199045D01*
X106124Y199107D01*
X106027Y199165D01*
X105928Y199220D01*
X105827Y199271D01*
X105724Y199319D01*
X105620Y199364D01*
X105514Y199404D01*
X105407Y199441D01*
X105299Y199474D01*
X105189Y199504D01*
X105079Y199529D01*
X104968Y199551D01*
X104856Y199568D01*
X104743Y199582D01*
X104630Y199592D01*
X104517Y199598D01*
X104404Y199600D01*
X104291Y199598D01*
X104178Y199592D01*
X104065Y199582D01*
X103952Y199568D01*
X103840Y199551D01*
X103729Y199529D01*
X103619Y199504D01*
X103509Y199474D01*
X103401Y199441D01*
X103294Y199404D01*
X103188Y199364D01*
X103084Y199319D01*
X102981Y199271D01*
X102880Y199220D01*
X102781Y199165D01*
X102684Y199107D01*
X102589Y199045D01*
X102496Y198980D01*
X102406Y198912D01*
X102318Y198841D01*
X102232Y198766D01*
X102149Y198689D01*
X102069Y198609D01*
X101992Y198526D01*
X101917Y198440D01*
X101846Y198352D01*
X101778Y198262D01*
X101713Y198169D01*
X101651Y198074D01*
X101593Y197977D01*
X101538Y197878D01*
X101487Y197777D01*
X101439Y197674D01*
X101394Y197570D01*
X101354Y197464D01*
X101317Y197357D01*
X101284Y197249D01*
X101254Y197139D01*
X101229Y197029D01*
X101207Y196918D01*
X101190Y196806D01*
X101176Y196693D01*
X101166Y196580D01*
X101160Y196467D01*
X101158Y196354D01*
X101160Y196241D01*
X101166Y196128D01*
X101176Y196015D01*
X101190Y195902D01*
X101207Y195790D01*
X101229Y195679D01*
X101254Y195569D01*
X101284Y195459D01*
X101317Y195351D01*
X101354Y195244D01*
X101394Y195138D01*
X101439Y195034D01*
X101487Y194931D01*
X101538Y194830D01*
X101593Y194731D01*
X101651Y194634D01*
X101713Y194539D01*
X101778Y194446D01*
X101846Y194356D01*
X101917Y194268D01*
X101992Y194182D01*
X102069Y194099D01*
X102149Y194019D01*
X102232Y193942D01*
X102318Y193867D01*
X102406Y193796D01*
X102496Y193728D01*
X102589Y193663D01*
X102684Y193601D01*
X102781Y193543D01*
X102880Y193488D01*
X102981Y193437D01*
X103084Y193389D01*
X103188Y193344D01*
X103294Y193304D01*
X103401Y193267D01*
X103509Y193234D01*
X103619Y193204D01*
X103729Y193179D01*
X103840Y193157D01*
X103952Y193140D01*
X104065Y193126D01*
X104178Y193116D01*
X104291Y193110D01*
X104404Y193108D01*
X104517Y193110D01*
X104630Y193116D01*
X104743Y193126D01*
X104856Y193140D01*
X104968Y193157D01*
X105079Y193179D01*
X105189Y193204D01*
X105299Y193234D01*
X105407Y193267D01*
X105514Y193304D01*
X105620Y193344D01*
X105724Y193389D01*
X105827Y193437D01*
X105928Y193488D01*
X106027Y193543D01*
X106124Y193601D01*
X106219Y193663D01*
X106312Y193728D01*
X106402Y193796D01*
X106490Y193867D01*
X106576Y193942D01*
X106659Y194019D01*
X106739Y194099D01*
X106816Y194182D01*
X106891Y194268D01*
X106962Y194356D01*
X107030Y194446D01*
X107095Y194539D01*
X107157Y194634D01*
X107215Y194731D01*
X107270Y194830D01*
X107321Y194931D01*
X107369Y195034D01*
X107414Y195138D01*
X107454Y195244D01*
X107491Y195351D01*
X107524Y195459D01*
X107554Y195569D01*
X107579Y195679D01*
X107601Y195790D01*
X107618Y195902D01*
X107632Y196015D01*
X107642Y196128D01*
X107648Y196241D01*
X107650Y196354D01*
X107000Y202196D02*
X106998Y202297D01*
X106992Y202397D01*
X106982Y202497D01*
X106969Y202597D01*
X106951Y202696D01*
X106930Y202795D01*
X106905Y202892D01*
X106876Y202989D01*
X106843Y203084D01*
X106807Y203178D01*
X106767Y203270D01*
X106724Y203361D01*
X106677Y203450D01*
X106627Y203537D01*
X106573Y203623D01*
X106516Y203706D01*
X106456Y203786D01*
X106393Y203865D01*
X106326Y203941D01*
X106257Y204014D01*
X106185Y204084D01*
X106111Y204152D01*
X106034Y204217D01*
X105954Y204278D01*
X105872Y204337D01*
X105788Y204392D01*
X105702Y204444D01*
X105614Y204493D01*
X105524Y204538D01*
X105432Y204580D01*
X105339Y204618D01*
X105244Y204652D01*
X105149Y204683D01*
X105052Y204710D01*
X104954Y204733D01*
X104855Y204753D01*
X104755Y204768D01*
X104655Y204780D01*
X104555Y204788D01*
X104454Y204792D01*
X104354Y204792D01*
X104253Y204788D01*
X104153Y204780D01*
X104053Y204768D01*
X103953Y204753D01*
X103854Y204733D01*
X103756Y204710D01*
X103659Y204683D01*
X103564Y204652D01*
X103469Y204618D01*
X103376Y204580D01*
X103284Y204538D01*
X103194Y204493D01*
X103106Y204444D01*
X103020Y204392D01*
X102936Y204337D01*
X102854Y204278D01*
X102774Y204217D01*
X102697Y204152D01*
X102623Y204084D01*
X102551Y204014D01*
X102482Y203941D01*
X102415Y203865D01*
X102352Y203786D01*
X102292Y203706D01*
X102235Y203623D01*
X102181Y203537D01*
X102131Y203450D01*
X102084Y203361D01*
X102041Y203270D01*
X102001Y203178D01*
X101965Y203084D01*
X101932Y202989D01*
X101903Y202892D01*
X101878Y202795D01*
X101857Y202696D01*
X101839Y202597D01*
X101826Y202497D01*
X101816Y202397D01*
X101810Y202297D01*
X101808Y202196D01*
X101810Y202095D01*
X101816Y201995D01*
X101826Y201895D01*
X101839Y201795D01*
X101857Y201696D01*
X101878Y201597D01*
X101903Y201500D01*
X101932Y201403D01*
X101965Y201308D01*
X102001Y201214D01*
X102041Y201122D01*
X102084Y201031D01*
X102131Y200942D01*
X102181Y200855D01*
X102235Y200769D01*
X102292Y200686D01*
X102352Y200606D01*
X102415Y200527D01*
X102482Y200451D01*
X102551Y200378D01*
X102623Y200308D01*
X102697Y200240D01*
X102774Y200175D01*
X102854Y200114D01*
X102936Y200055D01*
X103020Y200000D01*
X103106Y199948D01*
X103194Y199899D01*
X103284Y199854D01*
X103376Y199812D01*
X103469Y199774D01*
X103564Y199740D01*
X103659Y199709D01*
X103756Y199682D01*
X103854Y199659D01*
X103953Y199639D01*
X104053Y199624D01*
X104153Y199612D01*
X104253Y199604D01*
X104354Y199600D01*
X104454Y199600D01*
X104555Y199604D01*
X104655Y199612D01*
X104755Y199624D01*
X104855Y199639D01*
X104954Y199659D01*
X105052Y199682D01*
X105149Y199709D01*
X105244Y199740D01*
X105339Y199774D01*
X105432Y199812D01*
X105524Y199854D01*
X105614Y199899D01*
X105702Y199948D01*
X105788Y200000D01*
X105872Y200055D01*
X105954Y200114D01*
X106034Y200175D01*
X106111Y200240D01*
X106185Y200308D01*
X106257Y200378D01*
X106326Y200451D01*
X106393Y200527D01*
X106456Y200606D01*
X106516Y200686D01*
X106573Y200769D01*
X106627Y200855D01*
X106677Y200942D01*
X106724Y201031D01*
X106767Y201122D01*
X106807Y201214D01*
X106843Y201308D01*
X106876Y201403D01*
X106905Y201500D01*
X106930Y201597D01*
X106951Y201696D01*
X106969Y201795D01*
X106982Y201895D01*
X106992Y201995D01*
X106998Y202095D01*
X107000Y202196D01*
X161005Y204792D02*
X161005Y193108D01*
X161005Y204792D02*
X157760Y204792D01*
X157647Y204790D01*
X157534Y204784D01*
X157421Y204774D01*
X157308Y204760D01*
X157196Y204743D01*
X157085Y204721D01*
X156975Y204696D01*
X156865Y204666D01*
X156757Y204633D01*
X156650Y204596D01*
X156544Y204556D01*
X156440Y204511D01*
X156337Y204463D01*
X156236Y204412D01*
X156137Y204357D01*
X156040Y204299D01*
X155945Y204237D01*
X155852Y204172D01*
X155762Y204104D01*
X155674Y204033D01*
X155588Y203958D01*
X155505Y203881D01*
X155425Y203801D01*
X155348Y203718D01*
X155273Y203632D01*
X155202Y203544D01*
X155134Y203454D01*
X155069Y203361D01*
X155007Y203266D01*
X154949Y203169D01*
X154894Y203070D01*
X154843Y202969D01*
X154795Y202866D01*
X154750Y202762D01*
X154710Y202656D01*
X154673Y202549D01*
X154640Y202441D01*
X154610Y202331D01*
X154585Y202221D01*
X154563Y202110D01*
X154546Y201998D01*
X154532Y201885D01*
X154522Y201772D01*
X154516Y201659D01*
X154514Y201546D01*
X154516Y201433D01*
X154522Y201320D01*
X154532Y201207D01*
X154546Y201094D01*
X154563Y200982D01*
X154585Y200871D01*
X154610Y200761D01*
X154640Y200651D01*
X154673Y200543D01*
X154710Y200436D01*
X154750Y200330D01*
X154795Y200226D01*
X154843Y200123D01*
X154894Y200022D01*
X154949Y199923D01*
X155007Y199826D01*
X155069Y199731D01*
X155134Y199638D01*
X155202Y199548D01*
X155273Y199460D01*
X155348Y199374D01*
X155425Y199291D01*
X155505Y199211D01*
X155588Y199134D01*
X155674Y199059D01*
X155762Y198988D01*
X155852Y198920D01*
X155945Y198855D01*
X156040Y198793D01*
X156137Y198735D01*
X156236Y198680D01*
X156337Y198629D01*
X156440Y198581D01*
X156544Y198536D01*
X156650Y198496D01*
X156757Y198459D01*
X156865Y198426D01*
X156975Y198396D01*
X157085Y198371D01*
X157196Y198349D01*
X157308Y198332D01*
X157421Y198318D01*
X157534Y198308D01*
X157647Y198302D01*
X157760Y198300D01*
X157760Y198301D02*
X161005Y198301D01*
X157111Y198301D02*
X154514Y193108D01*
X147053Y198301D02*
X143158Y198301D01*
X147053Y198301D02*
X147152Y198303D01*
X147252Y198309D01*
X147351Y198318D01*
X147449Y198331D01*
X147547Y198348D01*
X147645Y198369D01*
X147741Y198394D01*
X147836Y198422D01*
X147930Y198454D01*
X148023Y198489D01*
X148115Y198528D01*
X148205Y198571D01*
X148293Y198616D01*
X148380Y198666D01*
X148464Y198718D01*
X148547Y198774D01*
X148627Y198832D01*
X148705Y198894D01*
X148780Y198959D01*
X148853Y199027D01*
X148923Y199097D01*
X148991Y199170D01*
X149056Y199245D01*
X149118Y199323D01*
X149176Y199403D01*
X149232Y199486D01*
X149284Y199570D01*
X149334Y199657D01*
X149379Y199745D01*
X149422Y199835D01*
X149461Y199927D01*
X149496Y200020D01*
X149528Y200114D01*
X149556Y200209D01*
X149581Y200305D01*
X149602Y200403D01*
X149619Y200501D01*
X149632Y200599D01*
X149641Y200698D01*
X149647Y200798D01*
X149649Y200897D01*
X149649Y201546D01*
X149650Y201546D02*
X149648Y201659D01*
X149642Y201772D01*
X149632Y201885D01*
X149618Y201998D01*
X149601Y202110D01*
X149579Y202221D01*
X149554Y202331D01*
X149524Y202441D01*
X149491Y202549D01*
X149454Y202656D01*
X149414Y202762D01*
X149369Y202866D01*
X149321Y202969D01*
X149270Y203070D01*
X149215Y203169D01*
X149157Y203266D01*
X149095Y203361D01*
X149030Y203454D01*
X148962Y203544D01*
X148891Y203632D01*
X148816Y203718D01*
X148739Y203801D01*
X148659Y203881D01*
X148576Y203958D01*
X148490Y204033D01*
X148402Y204104D01*
X148312Y204172D01*
X148219Y204237D01*
X148124Y204299D01*
X148027Y204357D01*
X147928Y204412D01*
X147827Y204463D01*
X147724Y204511D01*
X147620Y204556D01*
X147514Y204596D01*
X147407Y204633D01*
X147299Y204666D01*
X147189Y204696D01*
X147079Y204721D01*
X146968Y204743D01*
X146856Y204760D01*
X146743Y204774D01*
X146630Y204784D01*
X146517Y204790D01*
X146404Y204792D01*
X146291Y204790D01*
X146178Y204784D01*
X146065Y204774D01*
X145952Y204760D01*
X145840Y204743D01*
X145729Y204721D01*
X145619Y204696D01*
X145509Y204666D01*
X145401Y204633D01*
X145294Y204596D01*
X145188Y204556D01*
X145084Y204511D01*
X144981Y204463D01*
X144880Y204412D01*
X144781Y204357D01*
X144684Y204299D01*
X144589Y204237D01*
X144496Y204172D01*
X144406Y204104D01*
X144318Y204033D01*
X144232Y203958D01*
X144149Y203881D01*
X144069Y203801D01*
X143992Y203718D01*
X143917Y203632D01*
X143846Y203544D01*
X143778Y203454D01*
X143713Y203361D01*
X143651Y203266D01*
X143593Y203169D01*
X143538Y203070D01*
X143487Y202969D01*
X143439Y202866D01*
X143394Y202762D01*
X143354Y202656D01*
X143317Y202549D01*
X143284Y202441D01*
X143254Y202331D01*
X143229Y202221D01*
X143207Y202110D01*
X143190Y201998D01*
X143176Y201885D01*
X143166Y201772D01*
X143160Y201659D01*
X143158Y201546D01*
X143158Y198301D01*
X143160Y198158D01*
X143166Y198015D01*
X143176Y197872D01*
X143190Y197730D01*
X143207Y197588D01*
X143229Y197446D01*
X143254Y197305D01*
X143284Y197165D01*
X143317Y197026D01*
X143354Y196888D01*
X143395Y196751D01*
X143439Y196615D01*
X143488Y196480D01*
X143540Y196347D01*
X143595Y196215D01*
X143655Y196085D01*
X143718Y195956D01*
X143784Y195829D01*
X143854Y195705D01*
X143927Y195582D01*
X144004Y195461D01*
X144084Y195342D01*
X144167Y195226D01*
X144253Y195111D01*
X144342Y195000D01*
X144435Y194890D01*
X144530Y194784D01*
X144629Y194680D01*
X144730Y194579D01*
X144834Y194480D01*
X144940Y194385D01*
X145050Y194292D01*
X145161Y194203D01*
X145276Y194117D01*
X145392Y194034D01*
X145511Y193954D01*
X145632Y193877D01*
X145754Y193804D01*
X145879Y193734D01*
X146006Y193668D01*
X146135Y193605D01*
X146265Y193545D01*
X146397Y193490D01*
X146530Y193438D01*
X146665Y193389D01*
X146801Y193345D01*
X146938Y193304D01*
X147076Y193267D01*
X147215Y193234D01*
X147355Y193204D01*
X147496Y193179D01*
X147638Y193157D01*
X147780Y193140D01*
X147922Y193126D01*
X148065Y193116D01*
X148208Y193110D01*
X148351Y193108D01*
M02*
