G04 EAGLE Gerber RS-274X export*
G75*
%MOMM*%
%FSLAX34Y34*%
%LPD*%
%INSolderpaste Top*%
%IPPOS*%
%AMOC8*
5,1,8,0,0,1.08239X$1,22.5*%
G01*
%ADD10R,0.300000X2.600000*%
%ADD11R,1.473200X0.279400*%
%ADD12R,0.279400X1.473200*%
%ADD13R,1.300000X3.000000*%
%ADD14R,1.500000X1.300000*%


D10*
X605000Y97200D03*
X695000Y97200D03*
X650000Y97200D03*
X675000Y97200D03*
X625000Y97200D03*
X615000Y97200D03*
X610000Y97200D03*
X620000Y97200D03*
X630000Y97200D03*
X635000Y97200D03*
X640000Y97200D03*
X645000Y97200D03*
X655000Y97200D03*
X660000Y97200D03*
X665000Y97200D03*
X670000Y97200D03*
X680000Y97200D03*
X685000Y97200D03*
X690000Y97200D03*
X445000Y502800D03*
X355000Y502800D03*
X400000Y502800D03*
X375000Y502800D03*
X425000Y502800D03*
X435000Y502800D03*
X440000Y502800D03*
X430000Y502800D03*
X420000Y502800D03*
X415000Y502800D03*
X410000Y502800D03*
X405000Y502800D03*
X395000Y502800D03*
X390000Y502800D03*
X385000Y502800D03*
X380000Y502800D03*
X370000Y502800D03*
X365000Y502800D03*
X360000Y502800D03*
X105000Y97200D03*
X195000Y97200D03*
X150000Y97200D03*
X175000Y97200D03*
X125000Y97200D03*
X115000Y97200D03*
X110000Y97200D03*
X120000Y97200D03*
X130000Y97200D03*
X135000Y97200D03*
X140000Y97200D03*
X145000Y97200D03*
X155000Y97200D03*
X160000Y97200D03*
X165000Y97200D03*
X170000Y97200D03*
X180000Y97200D03*
X185000Y97200D03*
X190000Y97200D03*
X355000Y97200D03*
X445000Y97200D03*
X400000Y97200D03*
X425000Y97200D03*
X375000Y97200D03*
X365000Y97200D03*
X360000Y97200D03*
X370000Y97200D03*
X380000Y97200D03*
X385000Y97200D03*
X390000Y97200D03*
X395000Y97200D03*
X405000Y97200D03*
X410000Y97200D03*
X415000Y97200D03*
X420000Y97200D03*
X430000Y97200D03*
X435000Y97200D03*
X440000Y97200D03*
D11*
X342850Y387592D03*
X342850Y382512D03*
X342850Y377432D03*
X342850Y372606D03*
X342850Y367526D03*
X342850Y362446D03*
X342850Y357620D03*
X342850Y352540D03*
X342850Y347460D03*
X342850Y342380D03*
X342850Y337554D03*
X342850Y332474D03*
X342850Y327394D03*
X342850Y322568D03*
X342850Y317488D03*
X342850Y312408D03*
D12*
X362408Y292850D03*
X367488Y292850D03*
X372568Y292850D03*
X377394Y292850D03*
X382474Y292850D03*
X387554Y292850D03*
X392380Y292850D03*
X397460Y292850D03*
X402540Y292850D03*
X407620Y292850D03*
X412446Y292850D03*
X417526Y292850D03*
X422606Y292850D03*
X427432Y292850D03*
X432512Y292850D03*
X437592Y292850D03*
D11*
X457150Y312408D03*
X457150Y317488D03*
X457150Y322568D03*
X457150Y327394D03*
X457150Y332474D03*
X457150Y337554D03*
X457150Y342380D03*
X457150Y347460D03*
X457150Y352540D03*
X457150Y357620D03*
X457150Y362446D03*
X457150Y367526D03*
X457150Y372606D03*
X457150Y377432D03*
X457150Y382512D03*
X457150Y387592D03*
D12*
X437592Y407150D03*
X432512Y407150D03*
X427432Y407150D03*
X422606Y407150D03*
X417526Y407150D03*
X412446Y407150D03*
X407620Y407150D03*
X402540Y407150D03*
X397460Y407150D03*
X392380Y407150D03*
X387554Y407150D03*
X382474Y407150D03*
X377394Y407150D03*
X372568Y407150D03*
X367488Y407150D03*
X362408Y407150D03*
D13*
X185000Y467200D03*
X160000Y467200D03*
X140000Y467200D03*
X115000Y467200D03*
D14*
X343000Y283500D03*
X343000Y264500D03*
M02*
