M48
;GenerationSoftware,Autodesk,EAGLE,9.6.2*%
;CreationDate,2022-10-22T16:07:58Z*%
FMAT,2
ICI,OFF
METRIC,TZ,000.000
T5C0.350
T4C0.813
T3C0.900
T2C1.240
T1C2.380
%
G90
M71
T1
X8600Y50420
X21400Y50420
T2
X14890Y25660
X12350Y25660
X9810Y25660
T3
X72250Y8960
X57750Y8960
X57750Y3000
X72250Y3000
X47250Y51040
X47250Y57000
X32750Y51040
X32750Y57000
X7750Y8960
X7750Y3000
X22250Y8960
X22250Y3000
X32750Y8960
X32750Y3000
X47250Y8960
X47250Y3000
T4
X68500Y30780
X65960Y30780
X65960Y38400
X68500Y38400
X63420Y30780
X60880Y30780
X63420Y38400
X60880Y38400
T5
X43800Y36300
X39200Y43625
X35500Y37700
X32200Y34600
X32900Y30800
X38703Y27000
X41700Y27100
X24000Y33000
X20400Y35700
X19000Y33100
X10800Y34900
X17100Y23000
X17800Y42600
X37700Y39600
X40800Y39600
X44600Y37700
X44497Y34703
X35715Y36215
X35553Y33260
X37200Y30400
X40397Y30403
X44500Y29000
X45700Y29600
X25400Y38400
X9600Y36300
X26300Y39080
X19000Y5136
X11000Y11500
X43975Y47800
X61025Y11900
X36098Y11425
X14000Y43200
X16000Y43200
X18700Y43100
X3100Y54900
X2700Y26000
X7700Y40500
X7200Y15500
X20200Y27300
X24500Y41600
X34700Y46000
X46200Y46200
X46600Y40000
X58000Y35700
X62700Y27600
X58400Y13500
X50000Y10300
X41800Y13200
X34100Y23300
X3000Y57000
X3000Y3000
X77000Y57000
X77000Y3000
X39500Y7900
X14600Y6600
X64700Y7200
X40500Y52100
X41000Y7900
X16000Y5900
X66000Y6700
X39000Y52100
X42500Y8000
X17500Y5506
X67500Y6100
X37500Y52100
X44000Y8000
X69000Y5500
X36000Y52100
X10900Y31400
X41879Y18821
X38700Y13300
X42218Y19903
X39721Y13079
X13500Y7300
X38450Y8000
X63500Y7200
X41500Y52100
X11500Y43300
X11500Y8000
X36500Y7900
X61500Y8000
X43500Y52000
M30