G04 EAGLE Gerber RS-274X export*
G75*
%MOMM*%
%FSLAX34Y34*%
%LPD*%
%INBottom Copper*%
%IPPOS*%
%AMOC8*
5,1,8,0,0,1.08239X$1,22.5*%
G01*
%ADD10P,2.336880X8X22.500000*%
%ADD11C,1.620000*%
%ADD12C,1.463037*%
%ADD13R,2.232000X2.232000*%
%ADD14C,2.232000*%
%ADD15C,0.502400*%
%ADD16C,0.152400*%

G36*
X508468Y367395D02*
X508468Y367395D01*
X508472Y367399D01*
X508475Y367399D01*
X508477Y367397D01*
X509884Y367824D01*
X509889Y367830D01*
X509893Y367827D01*
X511190Y368521D01*
X511193Y368527D01*
X511198Y368526D01*
X512335Y369459D01*
X512336Y369466D01*
X512341Y369465D01*
X513274Y370602D01*
X513274Y370609D01*
X513279Y370610D01*
X513973Y371907D01*
X513972Y371913D01*
X513975Y371915D01*
X513976Y371916D01*
X514126Y372409D01*
X514141Y372458D01*
X514365Y373197D01*
X514403Y373323D01*
X514401Y373329D01*
X514405Y373332D01*
X514549Y374795D01*
X514547Y374798D01*
X514549Y374800D01*
X514549Y392800D01*
X514547Y392803D01*
X514549Y392805D01*
X514405Y394268D01*
X514400Y394273D01*
X514403Y394277D01*
X513976Y395684D01*
X513970Y395689D01*
X513973Y395693D01*
X513279Y396990D01*
X513273Y396993D01*
X513274Y396998D01*
X512341Y398135D01*
X512334Y398136D01*
X512335Y398141D01*
X511198Y399074D01*
X511191Y399074D01*
X511190Y399079D01*
X509893Y399773D01*
X509886Y399771D01*
X509884Y399776D01*
X508477Y400203D01*
X508471Y400201D01*
X508468Y400205D01*
X507005Y400349D01*
X507001Y400347D01*
X506997Y400347D01*
X506995Y400349D01*
X505532Y400205D01*
X505527Y400200D01*
X505523Y400203D01*
X504116Y399776D01*
X504111Y399770D01*
X504107Y399773D01*
X502810Y399079D01*
X502807Y399073D01*
X502802Y399074D01*
X501665Y398141D01*
X501664Y398134D01*
X501659Y398135D01*
X500726Y396998D01*
X500726Y396991D01*
X500721Y396990D01*
X500027Y395693D01*
X500029Y395686D01*
X500024Y395684D01*
X499933Y395386D01*
X499918Y395337D01*
X499694Y394598D01*
X499597Y394277D01*
X499600Y394271D01*
X499595Y394268D01*
X499451Y392805D01*
X499453Y392802D01*
X499451Y392800D01*
X499451Y374800D01*
X499453Y374797D01*
X499451Y374795D01*
X499595Y373332D01*
X499600Y373327D01*
X499597Y373323D01*
X500024Y371916D01*
X500030Y371911D01*
X500027Y371907D01*
X500721Y370610D01*
X500727Y370607D01*
X500726Y370602D01*
X501659Y369465D01*
X501666Y369464D01*
X501665Y369459D01*
X502802Y368526D01*
X502809Y368526D01*
X502810Y368521D01*
X504107Y367827D01*
X504114Y367829D01*
X504116Y367824D01*
X505523Y367397D01*
X505527Y367399D01*
X505530Y367399D01*
X505532Y367395D01*
X506995Y367251D01*
X507001Y367255D01*
X507005Y367251D01*
X508468Y367395D01*
G37*
G36*
X363468Y367395D02*
X363468Y367395D01*
X363472Y367399D01*
X363475Y367399D01*
X363477Y367397D01*
X364884Y367824D01*
X364889Y367830D01*
X364893Y367827D01*
X366190Y368521D01*
X366193Y368527D01*
X366198Y368526D01*
X367335Y369459D01*
X367336Y369466D01*
X367341Y369465D01*
X368274Y370602D01*
X368274Y370609D01*
X368279Y370610D01*
X368973Y371907D01*
X368972Y371913D01*
X368975Y371915D01*
X368976Y371916D01*
X369126Y372409D01*
X369141Y372458D01*
X369365Y373197D01*
X369403Y373323D01*
X369401Y373329D01*
X369405Y373332D01*
X369549Y374795D01*
X369547Y374798D01*
X369549Y374800D01*
X369549Y392800D01*
X369547Y392803D01*
X369549Y392805D01*
X369405Y394268D01*
X369400Y394273D01*
X369403Y394277D01*
X368976Y395684D01*
X368970Y395689D01*
X368973Y395693D01*
X368279Y396990D01*
X368273Y396993D01*
X368274Y396998D01*
X367341Y398135D01*
X367334Y398136D01*
X367335Y398141D01*
X366198Y399074D01*
X366191Y399074D01*
X366190Y399079D01*
X364893Y399773D01*
X364886Y399771D01*
X364884Y399776D01*
X363477Y400203D01*
X363471Y400201D01*
X363468Y400205D01*
X362005Y400349D01*
X362001Y400347D01*
X361997Y400347D01*
X361995Y400349D01*
X360532Y400205D01*
X360527Y400200D01*
X360523Y400203D01*
X359116Y399776D01*
X359111Y399770D01*
X359107Y399773D01*
X357810Y399079D01*
X357807Y399073D01*
X357802Y399074D01*
X356665Y398141D01*
X356664Y398134D01*
X356659Y398135D01*
X355726Y396998D01*
X355726Y396991D01*
X355721Y396990D01*
X355027Y395693D01*
X355029Y395686D01*
X355024Y395684D01*
X354933Y395386D01*
X354918Y395337D01*
X354694Y394598D01*
X354597Y394277D01*
X354600Y394271D01*
X354595Y394268D01*
X354451Y392805D01*
X354453Y392802D01*
X354451Y392800D01*
X354451Y374800D01*
X354453Y374797D01*
X354451Y374795D01*
X354595Y373332D01*
X354600Y373327D01*
X354597Y373323D01*
X355024Y371916D01*
X355030Y371911D01*
X355027Y371907D01*
X355721Y370610D01*
X355727Y370607D01*
X355726Y370602D01*
X356659Y369465D01*
X356666Y369464D01*
X356665Y369459D01*
X357802Y368526D01*
X357809Y368526D01*
X357810Y368521D01*
X359107Y367827D01*
X359114Y367829D01*
X359116Y367824D01*
X360523Y367397D01*
X360527Y367399D01*
X360530Y367399D01*
X360532Y367395D01*
X361995Y367251D01*
X362001Y367255D01*
X362005Y367251D01*
X363468Y367395D01*
G37*
G36*
X-172632Y106695D02*
X-172632Y106695D01*
X-172628Y106698D01*
X-172625Y106698D01*
X-172625Y106699D01*
X-172623Y106697D01*
X-171216Y107124D01*
X-171211Y107130D01*
X-171207Y107127D01*
X-169910Y107821D01*
X-169907Y107827D01*
X-169902Y107826D01*
X-168765Y108759D01*
X-168764Y108766D01*
X-168759Y108765D01*
X-167826Y109902D01*
X-167826Y109909D01*
X-167821Y109910D01*
X-167127Y111207D01*
X-167128Y111213D01*
X-167125Y111215D01*
X-167124Y111216D01*
X-166900Y111955D01*
X-166885Y112004D01*
X-166697Y112623D01*
X-166700Y112629D01*
X-166695Y112632D01*
X-166551Y114095D01*
X-166553Y114098D01*
X-166551Y114100D01*
X-166551Y132100D01*
X-166553Y132103D01*
X-166551Y132105D01*
X-166695Y133568D01*
X-166700Y133573D01*
X-166697Y133577D01*
X-167124Y134984D01*
X-167130Y134989D01*
X-167127Y134993D01*
X-167821Y136290D01*
X-167827Y136293D01*
X-167826Y136298D01*
X-168759Y137435D01*
X-168766Y137436D01*
X-168765Y137441D01*
X-169902Y138374D01*
X-169909Y138374D01*
X-169910Y138379D01*
X-171207Y139073D01*
X-171214Y139071D01*
X-171216Y139076D01*
X-172623Y139503D01*
X-172629Y139501D01*
X-172632Y139505D01*
X-174095Y139649D01*
X-174099Y139647D01*
X-174103Y139647D01*
X-174105Y139649D01*
X-175568Y139505D01*
X-175573Y139500D01*
X-175577Y139503D01*
X-176984Y139076D01*
X-176989Y139070D01*
X-176993Y139073D01*
X-178290Y138379D01*
X-178293Y138373D01*
X-178298Y138374D01*
X-179435Y137441D01*
X-179436Y137434D01*
X-179441Y137435D01*
X-180374Y136298D01*
X-180374Y136291D01*
X-180379Y136290D01*
X-181073Y134993D01*
X-181071Y134986D01*
X-181076Y134984D01*
X-181107Y134883D01*
X-181331Y134144D01*
X-181346Y134095D01*
X-181503Y133577D01*
X-181501Y133571D01*
X-181505Y133568D01*
X-181649Y132105D01*
X-181647Y132102D01*
X-181649Y132100D01*
X-181649Y114100D01*
X-181647Y114097D01*
X-181649Y114095D01*
X-181505Y112632D01*
X-181500Y112627D01*
X-181503Y112623D01*
X-181076Y111216D01*
X-181070Y111211D01*
X-181073Y111207D01*
X-180379Y109910D01*
X-180373Y109907D01*
X-180374Y109902D01*
X-179441Y108765D01*
X-179434Y108764D01*
X-179435Y108759D01*
X-178298Y107826D01*
X-178291Y107826D01*
X-178290Y107821D01*
X-176993Y107127D01*
X-176986Y107129D01*
X-176984Y107124D01*
X-175577Y106697D01*
X-175574Y106698D01*
X-175570Y106698D01*
X-175568Y106695D01*
X-174105Y106551D01*
X-174099Y106555D01*
X-174095Y106551D01*
X-172632Y106695D01*
G37*
G36*
X-27632Y106695D02*
X-27632Y106695D01*
X-27628Y106698D01*
X-27625Y106698D01*
X-27625Y106699D01*
X-27623Y106697D01*
X-26216Y107124D01*
X-26211Y107130D01*
X-26207Y107127D01*
X-24910Y107821D01*
X-24907Y107827D01*
X-24902Y107826D01*
X-23765Y108759D01*
X-23764Y108766D01*
X-23759Y108765D01*
X-22826Y109902D01*
X-22826Y109909D01*
X-22821Y109910D01*
X-22127Y111207D01*
X-22128Y111213D01*
X-22125Y111215D01*
X-22124Y111216D01*
X-21900Y111955D01*
X-21885Y112004D01*
X-21697Y112623D01*
X-21700Y112629D01*
X-21695Y112632D01*
X-21551Y114095D01*
X-21553Y114098D01*
X-21551Y114100D01*
X-21551Y132100D01*
X-21553Y132103D01*
X-21551Y132105D01*
X-21695Y133568D01*
X-21700Y133573D01*
X-21697Y133577D01*
X-22124Y134984D01*
X-22130Y134989D01*
X-22127Y134993D01*
X-22821Y136290D01*
X-22827Y136293D01*
X-22826Y136298D01*
X-23759Y137435D01*
X-23766Y137436D01*
X-23765Y137441D01*
X-24902Y138374D01*
X-24909Y138374D01*
X-24910Y138379D01*
X-26207Y139073D01*
X-26214Y139071D01*
X-26216Y139076D01*
X-27623Y139503D01*
X-27629Y139501D01*
X-27632Y139505D01*
X-29095Y139649D01*
X-29099Y139647D01*
X-29103Y139647D01*
X-29105Y139649D01*
X-30568Y139505D01*
X-30573Y139500D01*
X-30577Y139503D01*
X-31984Y139076D01*
X-31989Y139070D01*
X-31993Y139073D01*
X-33290Y138379D01*
X-33293Y138373D01*
X-33298Y138374D01*
X-34435Y137441D01*
X-34436Y137434D01*
X-34441Y137435D01*
X-35374Y136298D01*
X-35374Y136291D01*
X-35379Y136290D01*
X-36073Y134993D01*
X-36071Y134986D01*
X-36076Y134984D01*
X-36107Y134883D01*
X-36331Y134144D01*
X-36346Y134095D01*
X-36503Y133577D01*
X-36501Y133571D01*
X-36505Y133568D01*
X-36649Y132105D01*
X-36647Y132102D01*
X-36649Y132100D01*
X-36649Y114100D01*
X-36647Y114097D01*
X-36649Y114095D01*
X-36505Y112632D01*
X-36500Y112627D01*
X-36503Y112623D01*
X-36076Y111216D01*
X-36070Y111211D01*
X-36073Y111207D01*
X-35379Y109910D01*
X-35373Y109907D01*
X-35374Y109902D01*
X-34441Y108765D01*
X-34434Y108764D01*
X-34435Y108759D01*
X-33298Y107826D01*
X-33291Y107826D01*
X-33290Y107821D01*
X-31993Y107127D01*
X-31986Y107129D01*
X-31984Y107124D01*
X-30577Y106697D01*
X-30574Y106698D01*
X-30570Y106698D01*
X-30568Y106695D01*
X-29105Y106551D01*
X-29099Y106555D01*
X-29095Y106551D01*
X-27632Y106695D01*
G37*
G36*
X360768Y106695D02*
X360768Y106695D01*
X360772Y106698D01*
X360775Y106698D01*
X360775Y106699D01*
X360777Y106697D01*
X362184Y107124D01*
X362189Y107130D01*
X362193Y107127D01*
X363490Y107821D01*
X363493Y107827D01*
X363498Y107826D01*
X364635Y108759D01*
X364636Y108766D01*
X364641Y108765D01*
X365574Y109902D01*
X365574Y109909D01*
X365579Y109910D01*
X366273Y111207D01*
X366272Y111213D01*
X366275Y111215D01*
X366276Y111216D01*
X366500Y111955D01*
X366501Y111955D01*
X366515Y112004D01*
X366703Y112623D01*
X366701Y112629D01*
X366705Y112632D01*
X366849Y114095D01*
X366847Y114098D01*
X366849Y114100D01*
X366849Y132100D01*
X366847Y132103D01*
X366849Y132105D01*
X366705Y133568D01*
X366700Y133573D01*
X366703Y133577D01*
X366276Y134984D01*
X366270Y134989D01*
X366273Y134993D01*
X365579Y136290D01*
X365573Y136293D01*
X365574Y136298D01*
X364641Y137435D01*
X364634Y137436D01*
X364635Y137441D01*
X363498Y138374D01*
X363491Y138374D01*
X363490Y138379D01*
X362193Y139073D01*
X362186Y139071D01*
X362184Y139076D01*
X360777Y139503D01*
X360771Y139501D01*
X360768Y139505D01*
X359305Y139649D01*
X359301Y139647D01*
X359297Y139647D01*
X359295Y139649D01*
X357832Y139505D01*
X357827Y139500D01*
X357823Y139503D01*
X356416Y139076D01*
X356411Y139070D01*
X356407Y139073D01*
X355110Y138379D01*
X355107Y138373D01*
X355102Y138374D01*
X353965Y137441D01*
X353964Y137434D01*
X353959Y137435D01*
X353026Y136298D01*
X353026Y136291D01*
X353021Y136290D01*
X352327Y134993D01*
X352329Y134986D01*
X352324Y134984D01*
X352293Y134883D01*
X352069Y134144D01*
X352054Y134095D01*
X351897Y133577D01*
X351900Y133571D01*
X351895Y133568D01*
X351751Y132105D01*
X351753Y132102D01*
X351751Y132100D01*
X351751Y114100D01*
X351753Y114097D01*
X351751Y114095D01*
X351895Y112632D01*
X351900Y112627D01*
X351897Y112623D01*
X352324Y111216D01*
X352330Y111211D01*
X352327Y111207D01*
X353021Y109910D01*
X353027Y109907D01*
X353026Y109902D01*
X353959Y108765D01*
X353966Y108764D01*
X353965Y108759D01*
X355102Y107826D01*
X355109Y107826D01*
X355110Y107821D01*
X356407Y107127D01*
X356414Y107129D01*
X356416Y107124D01*
X357823Y106697D01*
X357827Y106698D01*
X357830Y106698D01*
X357832Y106695D01*
X359295Y106551D01*
X359301Y106555D01*
X359305Y106551D01*
X360768Y106695D01*
G37*
G36*
X239068Y106695D02*
X239068Y106695D01*
X239072Y106698D01*
X239075Y106698D01*
X239075Y106699D01*
X239077Y106697D01*
X240484Y107124D01*
X240489Y107130D01*
X240493Y107127D01*
X241790Y107821D01*
X241793Y107827D01*
X241798Y107826D01*
X242935Y108759D01*
X242936Y108766D01*
X242941Y108765D01*
X243874Y109902D01*
X243874Y109909D01*
X243879Y109910D01*
X244573Y111207D01*
X244572Y111213D01*
X244575Y111215D01*
X244576Y111216D01*
X244800Y111955D01*
X244801Y111955D01*
X244815Y112004D01*
X245003Y112623D01*
X245001Y112629D01*
X245005Y112632D01*
X245149Y114095D01*
X245147Y114098D01*
X245149Y114100D01*
X245149Y132100D01*
X245147Y132103D01*
X245149Y132105D01*
X245005Y133568D01*
X245000Y133573D01*
X245003Y133577D01*
X244576Y134984D01*
X244570Y134989D01*
X244573Y134993D01*
X243879Y136290D01*
X243873Y136293D01*
X243874Y136298D01*
X242941Y137435D01*
X242934Y137436D01*
X242935Y137441D01*
X241798Y138374D01*
X241791Y138374D01*
X241790Y138379D01*
X240493Y139073D01*
X240486Y139071D01*
X240484Y139076D01*
X239077Y139503D01*
X239071Y139501D01*
X239068Y139505D01*
X237605Y139649D01*
X237601Y139647D01*
X237597Y139647D01*
X237595Y139649D01*
X236132Y139505D01*
X236127Y139500D01*
X236123Y139503D01*
X234716Y139076D01*
X234711Y139070D01*
X234707Y139073D01*
X233410Y138379D01*
X233407Y138373D01*
X233402Y138374D01*
X232265Y137441D01*
X232264Y137434D01*
X232259Y137435D01*
X231326Y136298D01*
X231326Y136291D01*
X231321Y136290D01*
X230627Y134993D01*
X230629Y134986D01*
X230624Y134984D01*
X230593Y134883D01*
X230369Y134144D01*
X230354Y134095D01*
X230197Y133577D01*
X230200Y133571D01*
X230195Y133568D01*
X230051Y132105D01*
X230053Y132102D01*
X230051Y132100D01*
X230051Y114100D01*
X230053Y114097D01*
X230051Y114095D01*
X230195Y112632D01*
X230200Y112627D01*
X230197Y112623D01*
X230624Y111216D01*
X230630Y111211D01*
X230627Y111207D01*
X231321Y109910D01*
X231327Y109907D01*
X231326Y109902D01*
X232259Y108765D01*
X232266Y108764D01*
X232265Y108759D01*
X233402Y107826D01*
X233409Y107826D01*
X233410Y107821D01*
X234707Y107127D01*
X234714Y107129D01*
X234716Y107124D01*
X236123Y106697D01*
X236127Y106698D01*
X236130Y106698D01*
X236132Y106695D01*
X237595Y106551D01*
X237601Y106555D01*
X237605Y106551D01*
X239068Y106695D01*
G37*
G36*
X94068Y106695D02*
X94068Y106695D01*
X94072Y106698D01*
X94075Y106698D01*
X94075Y106699D01*
X94077Y106697D01*
X95484Y107124D01*
X95489Y107130D01*
X95493Y107127D01*
X96790Y107821D01*
X96793Y107827D01*
X96798Y107826D01*
X97935Y108759D01*
X97936Y108766D01*
X97941Y108765D01*
X98874Y109902D01*
X98874Y109909D01*
X98879Y109910D01*
X99573Y111207D01*
X99572Y111213D01*
X99575Y111215D01*
X99576Y111216D01*
X99800Y111955D01*
X99801Y111955D01*
X99815Y112004D01*
X100003Y112623D01*
X100001Y112629D01*
X100005Y112632D01*
X100149Y114095D01*
X100147Y114098D01*
X100149Y114100D01*
X100149Y132100D01*
X100147Y132103D01*
X100149Y132105D01*
X100005Y133568D01*
X100000Y133573D01*
X100003Y133577D01*
X99576Y134984D01*
X99570Y134989D01*
X99573Y134993D01*
X98879Y136290D01*
X98873Y136293D01*
X98874Y136298D01*
X97941Y137435D01*
X97934Y137436D01*
X97935Y137441D01*
X96798Y138374D01*
X96791Y138374D01*
X96790Y138379D01*
X95493Y139073D01*
X95486Y139071D01*
X95484Y139076D01*
X94077Y139503D01*
X94071Y139501D01*
X94068Y139505D01*
X92605Y139649D01*
X92601Y139647D01*
X92597Y139647D01*
X92595Y139649D01*
X91132Y139505D01*
X91127Y139500D01*
X91123Y139503D01*
X89716Y139076D01*
X89711Y139070D01*
X89707Y139073D01*
X88410Y138379D01*
X88407Y138373D01*
X88402Y138374D01*
X87265Y137441D01*
X87264Y137434D01*
X87259Y137435D01*
X86326Y136298D01*
X86326Y136291D01*
X86321Y136290D01*
X85627Y134993D01*
X85629Y134986D01*
X85624Y134984D01*
X85593Y134883D01*
X85369Y134144D01*
X85354Y134095D01*
X85197Y133577D01*
X85200Y133571D01*
X85195Y133568D01*
X85051Y132105D01*
X85053Y132102D01*
X85051Y132100D01*
X85051Y114100D01*
X85053Y114097D01*
X85051Y114095D01*
X85195Y112632D01*
X85200Y112627D01*
X85197Y112623D01*
X85624Y111216D01*
X85630Y111211D01*
X85627Y111207D01*
X86321Y109910D01*
X86327Y109907D01*
X86326Y109902D01*
X87259Y108765D01*
X87266Y108764D01*
X87265Y108759D01*
X88402Y107826D01*
X88409Y107826D01*
X88410Y107821D01*
X89707Y107127D01*
X89714Y107129D01*
X89716Y107124D01*
X91123Y106697D01*
X91127Y106698D01*
X91130Y106698D01*
X91132Y106695D01*
X92595Y106551D01*
X92601Y106555D01*
X92605Y106551D01*
X94068Y106695D01*
G37*
G36*
X505768Y106695D02*
X505768Y106695D01*
X505772Y106698D01*
X505775Y106698D01*
X505775Y106699D01*
X505777Y106697D01*
X507184Y107124D01*
X507189Y107130D01*
X507193Y107127D01*
X508490Y107821D01*
X508493Y107827D01*
X508498Y107826D01*
X509635Y108759D01*
X509636Y108766D01*
X509641Y108765D01*
X510574Y109902D01*
X510574Y109909D01*
X510579Y109910D01*
X511273Y111207D01*
X511272Y111213D01*
X511275Y111215D01*
X511276Y111216D01*
X511500Y111955D01*
X511501Y111955D01*
X511515Y112004D01*
X511703Y112623D01*
X511701Y112629D01*
X511705Y112632D01*
X511849Y114095D01*
X511847Y114098D01*
X511849Y114100D01*
X511849Y132100D01*
X511847Y132103D01*
X511849Y132105D01*
X511705Y133568D01*
X511700Y133573D01*
X511703Y133577D01*
X511276Y134984D01*
X511270Y134989D01*
X511273Y134993D01*
X510579Y136290D01*
X510573Y136293D01*
X510574Y136298D01*
X509641Y137435D01*
X509634Y137436D01*
X509635Y137441D01*
X508498Y138374D01*
X508491Y138374D01*
X508490Y138379D01*
X507193Y139073D01*
X507186Y139071D01*
X507184Y139076D01*
X505777Y139503D01*
X505771Y139501D01*
X505768Y139505D01*
X504305Y139649D01*
X504301Y139647D01*
X504297Y139647D01*
X504295Y139649D01*
X502832Y139505D01*
X502827Y139500D01*
X502823Y139503D01*
X501416Y139076D01*
X501411Y139070D01*
X501407Y139073D01*
X500110Y138379D01*
X500107Y138373D01*
X500102Y138374D01*
X498965Y137441D01*
X498964Y137434D01*
X498959Y137435D01*
X498026Y136298D01*
X498026Y136291D01*
X498021Y136290D01*
X497327Y134993D01*
X497329Y134986D01*
X497324Y134984D01*
X497293Y134883D01*
X497069Y134144D01*
X497054Y134095D01*
X496897Y133577D01*
X496900Y133571D01*
X496895Y133568D01*
X496751Y132105D01*
X496753Y132102D01*
X496751Y132100D01*
X496751Y114100D01*
X496753Y114097D01*
X496751Y114095D01*
X496895Y112632D01*
X496900Y112627D01*
X496897Y112623D01*
X497324Y111216D01*
X497330Y111211D01*
X497327Y111207D01*
X498021Y109910D01*
X498027Y109907D01*
X498026Y109902D01*
X498959Y108765D01*
X498966Y108764D01*
X498965Y108759D01*
X500102Y107826D01*
X500109Y107826D01*
X500110Y107821D01*
X501407Y107127D01*
X501414Y107129D01*
X501416Y107124D01*
X502823Y106697D01*
X502827Y106698D01*
X502830Y106698D01*
X502832Y106695D01*
X504295Y106551D01*
X504301Y106555D01*
X504305Y106551D01*
X505768Y106695D01*
G37*
G36*
X508468Y431995D02*
X508468Y431995D01*
X508472Y431999D01*
X508475Y431999D01*
X508477Y431997D01*
X509884Y432424D01*
X509889Y432430D01*
X509893Y432427D01*
X511190Y433121D01*
X511193Y433127D01*
X511198Y433126D01*
X512335Y434059D01*
X512336Y434066D01*
X512341Y434065D01*
X513274Y435202D01*
X513274Y435209D01*
X513279Y435210D01*
X513973Y436507D01*
X513972Y436513D01*
X513975Y436515D01*
X513976Y436516D01*
X514126Y437009D01*
X514141Y437058D01*
X514365Y437797D01*
X514403Y437923D01*
X514401Y437929D01*
X514405Y437932D01*
X514549Y439395D01*
X514547Y439398D01*
X514549Y439400D01*
X514549Y447400D01*
X514547Y447403D01*
X514549Y447405D01*
X514405Y448868D01*
X514400Y448873D01*
X514403Y448877D01*
X513976Y450284D01*
X513970Y450289D01*
X513973Y450293D01*
X513279Y451590D01*
X513273Y451593D01*
X513274Y451598D01*
X512341Y452735D01*
X512334Y452736D01*
X512335Y452741D01*
X511198Y453674D01*
X511191Y453674D01*
X511190Y453679D01*
X509893Y454373D01*
X509886Y454371D01*
X509884Y454376D01*
X508477Y454803D01*
X508473Y454801D01*
X508470Y454801D01*
X508468Y454805D01*
X507005Y454949D01*
X507003Y454948D01*
X507003Y454949D01*
X506997Y454949D01*
X506996Y454948D01*
X506995Y454949D01*
X505532Y454805D01*
X505528Y454801D01*
X505525Y454801D01*
X505523Y454803D01*
X504116Y454376D01*
X504111Y454370D01*
X504107Y454373D01*
X502810Y453679D01*
X502807Y453673D01*
X502802Y453674D01*
X501665Y452741D01*
X501664Y452734D01*
X501659Y452735D01*
X500726Y451598D01*
X500726Y451591D01*
X500721Y451590D01*
X500027Y450293D01*
X500028Y450287D01*
X500026Y450285D01*
X500024Y450284D01*
X499964Y450087D01*
X499740Y449348D01*
X499725Y449299D01*
X499597Y448877D01*
X499600Y448871D01*
X499595Y448868D01*
X499451Y447405D01*
X499453Y447402D01*
X499451Y447400D01*
X499451Y439400D01*
X499453Y439397D01*
X499451Y439395D01*
X499595Y437932D01*
X499600Y437927D01*
X499597Y437923D01*
X500024Y436516D01*
X500030Y436511D01*
X500027Y436507D01*
X500721Y435210D01*
X500727Y435207D01*
X500726Y435202D01*
X501659Y434065D01*
X501666Y434064D01*
X501665Y434059D01*
X502802Y433126D01*
X502809Y433126D01*
X502810Y433121D01*
X504107Y432427D01*
X504114Y432429D01*
X504116Y432424D01*
X505523Y431997D01*
X505527Y431999D01*
X505530Y431999D01*
X505532Y431995D01*
X506995Y431851D01*
X507001Y431855D01*
X507005Y431851D01*
X508468Y431995D01*
G37*
G36*
X363468Y431995D02*
X363468Y431995D01*
X363472Y431999D01*
X363475Y431999D01*
X363477Y431997D01*
X364884Y432424D01*
X364889Y432430D01*
X364893Y432427D01*
X366190Y433121D01*
X366193Y433127D01*
X366198Y433126D01*
X367335Y434059D01*
X367336Y434066D01*
X367341Y434065D01*
X368274Y435202D01*
X368274Y435209D01*
X368279Y435210D01*
X368973Y436507D01*
X368972Y436513D01*
X368975Y436515D01*
X368976Y436516D01*
X369126Y437009D01*
X369141Y437058D01*
X369365Y437797D01*
X369403Y437923D01*
X369401Y437929D01*
X369405Y437932D01*
X369549Y439395D01*
X369547Y439398D01*
X369549Y439400D01*
X369549Y447400D01*
X369547Y447403D01*
X369549Y447405D01*
X369405Y448868D01*
X369400Y448873D01*
X369403Y448877D01*
X368976Y450284D01*
X368970Y450289D01*
X368973Y450293D01*
X368279Y451590D01*
X368273Y451593D01*
X368274Y451598D01*
X367341Y452735D01*
X367334Y452736D01*
X367335Y452741D01*
X366198Y453674D01*
X366191Y453674D01*
X366190Y453679D01*
X364893Y454373D01*
X364886Y454371D01*
X364884Y454376D01*
X363477Y454803D01*
X363473Y454801D01*
X363470Y454801D01*
X363468Y454805D01*
X362005Y454949D01*
X362003Y454948D01*
X362003Y454949D01*
X361997Y454949D01*
X361996Y454948D01*
X361995Y454949D01*
X360532Y454805D01*
X360528Y454801D01*
X360525Y454801D01*
X360523Y454803D01*
X359116Y454376D01*
X359111Y454370D01*
X359107Y454373D01*
X357810Y453679D01*
X357807Y453673D01*
X357802Y453674D01*
X356665Y452741D01*
X356664Y452734D01*
X356659Y452735D01*
X355726Y451598D01*
X355726Y451591D01*
X355721Y451590D01*
X355027Y450293D01*
X355028Y450287D01*
X355026Y450285D01*
X355024Y450284D01*
X354964Y450087D01*
X354740Y449348D01*
X354725Y449299D01*
X354597Y448877D01*
X354600Y448871D01*
X354595Y448868D01*
X354451Y447405D01*
X354453Y447402D01*
X354451Y447400D01*
X354451Y439400D01*
X354453Y439397D01*
X354451Y439395D01*
X354595Y437932D01*
X354600Y437927D01*
X354597Y437923D01*
X355024Y436516D01*
X355030Y436511D01*
X355027Y436507D01*
X355721Y435210D01*
X355727Y435207D01*
X355726Y435202D01*
X356659Y434065D01*
X356666Y434064D01*
X356665Y434059D01*
X357802Y433126D01*
X357809Y433126D01*
X357810Y433121D01*
X359107Y432427D01*
X359114Y432429D01*
X359116Y432424D01*
X360523Y431997D01*
X360527Y431999D01*
X360530Y431999D01*
X360532Y431995D01*
X361995Y431851D01*
X362001Y431855D01*
X362005Y431851D01*
X363468Y431995D01*
G37*
G36*
X-27632Y52095D02*
X-27632Y52095D01*
X-27628Y52099D01*
X-27625Y52099D01*
X-27623Y52097D01*
X-26216Y52524D01*
X-26211Y52530D01*
X-26207Y52527D01*
X-24910Y53221D01*
X-24907Y53227D01*
X-24902Y53226D01*
X-23765Y54159D01*
X-23764Y54166D01*
X-23759Y54165D01*
X-22826Y55302D01*
X-22826Y55309D01*
X-22821Y55310D01*
X-22127Y56607D01*
X-22128Y56613D01*
X-22125Y56615D01*
X-22124Y56616D01*
X-21974Y57109D01*
X-21959Y57158D01*
X-21735Y57897D01*
X-21697Y58023D01*
X-21700Y58029D01*
X-21695Y58032D01*
X-21551Y59495D01*
X-21553Y59498D01*
X-21551Y59500D01*
X-21551Y67500D01*
X-21553Y67503D01*
X-21551Y67505D01*
X-21695Y68968D01*
X-21700Y68973D01*
X-21697Y68977D01*
X-22124Y70384D01*
X-22130Y70389D01*
X-22127Y70393D01*
X-22821Y71690D01*
X-22827Y71693D01*
X-22826Y71698D01*
X-23759Y72835D01*
X-23766Y72836D01*
X-23765Y72841D01*
X-24902Y73774D01*
X-24909Y73774D01*
X-24910Y73779D01*
X-26207Y74473D01*
X-26214Y74471D01*
X-26216Y74476D01*
X-27623Y74903D01*
X-27627Y74901D01*
X-27630Y74901D01*
X-27632Y74905D01*
X-29095Y75049D01*
X-29097Y75048D01*
X-29097Y75049D01*
X-29103Y75049D01*
X-29104Y75048D01*
X-29105Y75049D01*
X-30568Y74905D01*
X-30572Y74901D01*
X-30575Y74901D01*
X-30577Y74903D01*
X-31984Y74476D01*
X-31989Y74470D01*
X-31993Y74473D01*
X-33290Y73779D01*
X-33293Y73773D01*
X-33298Y73774D01*
X-34435Y72841D01*
X-34436Y72834D01*
X-34441Y72835D01*
X-35374Y71698D01*
X-35374Y71691D01*
X-35379Y71690D01*
X-36073Y70393D01*
X-36072Y70387D01*
X-36074Y70385D01*
X-36076Y70384D01*
X-36136Y70187D01*
X-36360Y69448D01*
X-36375Y69399D01*
X-36503Y68977D01*
X-36501Y68971D01*
X-36505Y68968D01*
X-36649Y67505D01*
X-36647Y67502D01*
X-36649Y67500D01*
X-36649Y59500D01*
X-36647Y59497D01*
X-36649Y59495D01*
X-36505Y58032D01*
X-36500Y58027D01*
X-36503Y58023D01*
X-36076Y56616D01*
X-36070Y56611D01*
X-36073Y56607D01*
X-35379Y55310D01*
X-35373Y55307D01*
X-35374Y55302D01*
X-34441Y54165D01*
X-34434Y54164D01*
X-34435Y54159D01*
X-33298Y53226D01*
X-33291Y53226D01*
X-33290Y53221D01*
X-31993Y52527D01*
X-31986Y52529D01*
X-31984Y52524D01*
X-30577Y52097D01*
X-30573Y52099D01*
X-30570Y52099D01*
X-30568Y52095D01*
X-29105Y51951D01*
X-29099Y51955D01*
X-29095Y51951D01*
X-27632Y52095D01*
G37*
G36*
X239068Y52095D02*
X239068Y52095D01*
X239072Y52099D01*
X239075Y52099D01*
X239077Y52097D01*
X240484Y52524D01*
X240489Y52530D01*
X240493Y52527D01*
X241790Y53221D01*
X241793Y53227D01*
X241798Y53226D01*
X242935Y54159D01*
X242936Y54166D01*
X242941Y54165D01*
X243874Y55302D01*
X243874Y55309D01*
X243879Y55310D01*
X244573Y56607D01*
X244572Y56613D01*
X244575Y56615D01*
X244576Y56616D01*
X244726Y57109D01*
X244741Y57158D01*
X244965Y57897D01*
X245003Y58023D01*
X245001Y58029D01*
X245005Y58032D01*
X245149Y59495D01*
X245147Y59498D01*
X245149Y59500D01*
X245149Y67500D01*
X245147Y67503D01*
X245149Y67505D01*
X245005Y68968D01*
X245000Y68973D01*
X245003Y68977D01*
X244576Y70384D01*
X244570Y70389D01*
X244573Y70393D01*
X243879Y71690D01*
X243873Y71693D01*
X243874Y71698D01*
X242941Y72835D01*
X242934Y72836D01*
X242935Y72841D01*
X241798Y73774D01*
X241791Y73774D01*
X241790Y73779D01*
X240493Y74473D01*
X240486Y74471D01*
X240484Y74476D01*
X239077Y74903D01*
X239073Y74901D01*
X239070Y74901D01*
X239068Y74905D01*
X237605Y75049D01*
X237603Y75048D01*
X237603Y75049D01*
X237597Y75049D01*
X237596Y75048D01*
X237595Y75049D01*
X236132Y74905D01*
X236128Y74901D01*
X236125Y74901D01*
X236123Y74903D01*
X234716Y74476D01*
X234711Y74470D01*
X234707Y74473D01*
X233410Y73779D01*
X233407Y73773D01*
X233402Y73774D01*
X232265Y72841D01*
X232264Y72834D01*
X232259Y72835D01*
X231326Y71698D01*
X231326Y71691D01*
X231321Y71690D01*
X230627Y70393D01*
X230628Y70387D01*
X230626Y70385D01*
X230624Y70384D01*
X230564Y70187D01*
X230340Y69448D01*
X230325Y69399D01*
X230197Y68977D01*
X230200Y68971D01*
X230195Y68968D01*
X230051Y67505D01*
X230053Y67502D01*
X230051Y67500D01*
X230051Y59500D01*
X230053Y59497D01*
X230051Y59495D01*
X230195Y58032D01*
X230200Y58027D01*
X230197Y58023D01*
X230624Y56616D01*
X230630Y56611D01*
X230627Y56607D01*
X231321Y55310D01*
X231327Y55307D01*
X231326Y55302D01*
X232259Y54165D01*
X232266Y54164D01*
X232265Y54159D01*
X233402Y53226D01*
X233409Y53226D01*
X233410Y53221D01*
X234707Y52527D01*
X234714Y52529D01*
X234716Y52524D01*
X236123Y52097D01*
X236127Y52099D01*
X236130Y52099D01*
X236132Y52095D01*
X237595Y51951D01*
X237601Y51955D01*
X237605Y51951D01*
X239068Y52095D01*
G37*
G36*
X360768Y52095D02*
X360768Y52095D01*
X360772Y52099D01*
X360775Y52099D01*
X360777Y52097D01*
X362184Y52524D01*
X362189Y52530D01*
X362193Y52527D01*
X363490Y53221D01*
X363493Y53227D01*
X363498Y53226D01*
X364635Y54159D01*
X364636Y54166D01*
X364641Y54165D01*
X365574Y55302D01*
X365574Y55309D01*
X365579Y55310D01*
X366273Y56607D01*
X366272Y56613D01*
X366275Y56615D01*
X366276Y56616D01*
X366426Y57109D01*
X366441Y57158D01*
X366665Y57897D01*
X366703Y58023D01*
X366701Y58029D01*
X366705Y58032D01*
X366849Y59495D01*
X366847Y59498D01*
X366849Y59500D01*
X366849Y67500D01*
X366847Y67503D01*
X366849Y67505D01*
X366705Y68968D01*
X366700Y68973D01*
X366703Y68977D01*
X366276Y70384D01*
X366270Y70389D01*
X366273Y70393D01*
X365579Y71690D01*
X365573Y71693D01*
X365574Y71698D01*
X364641Y72835D01*
X364634Y72836D01*
X364635Y72841D01*
X363498Y73774D01*
X363491Y73774D01*
X363490Y73779D01*
X362193Y74473D01*
X362186Y74471D01*
X362184Y74476D01*
X360777Y74903D01*
X360773Y74901D01*
X360770Y74901D01*
X360768Y74905D01*
X359305Y75049D01*
X359303Y75048D01*
X359303Y75049D01*
X359297Y75049D01*
X359296Y75048D01*
X359295Y75049D01*
X357832Y74905D01*
X357828Y74901D01*
X357825Y74901D01*
X357823Y74903D01*
X356416Y74476D01*
X356411Y74470D01*
X356407Y74473D01*
X355110Y73779D01*
X355107Y73773D01*
X355102Y73774D01*
X353965Y72841D01*
X353964Y72834D01*
X353959Y72835D01*
X353026Y71698D01*
X353026Y71691D01*
X353021Y71690D01*
X352327Y70393D01*
X352328Y70387D01*
X352326Y70385D01*
X352324Y70384D01*
X352264Y70187D01*
X352040Y69448D01*
X352025Y69399D01*
X351897Y68977D01*
X351900Y68971D01*
X351895Y68968D01*
X351751Y67505D01*
X351753Y67502D01*
X351751Y67500D01*
X351751Y59500D01*
X351753Y59497D01*
X351751Y59495D01*
X351895Y58032D01*
X351900Y58027D01*
X351897Y58023D01*
X352324Y56616D01*
X352330Y56611D01*
X352327Y56607D01*
X353021Y55310D01*
X353027Y55307D01*
X353026Y55302D01*
X353959Y54165D01*
X353966Y54164D01*
X353965Y54159D01*
X355102Y53226D01*
X355109Y53226D01*
X355110Y53221D01*
X356407Y52527D01*
X356414Y52529D01*
X356416Y52524D01*
X357823Y52097D01*
X357827Y52099D01*
X357830Y52099D01*
X357832Y52095D01*
X359295Y51951D01*
X359301Y51955D01*
X359305Y51951D01*
X360768Y52095D01*
G37*
G36*
X-172632Y52095D02*
X-172632Y52095D01*
X-172628Y52099D01*
X-172625Y52099D01*
X-172623Y52097D01*
X-171216Y52524D01*
X-171211Y52530D01*
X-171207Y52527D01*
X-169910Y53221D01*
X-169907Y53227D01*
X-169902Y53226D01*
X-168765Y54159D01*
X-168764Y54166D01*
X-168759Y54165D01*
X-167826Y55302D01*
X-167826Y55309D01*
X-167821Y55310D01*
X-167127Y56607D01*
X-167128Y56613D01*
X-167125Y56615D01*
X-167124Y56616D01*
X-166974Y57109D01*
X-166959Y57158D01*
X-166735Y57897D01*
X-166697Y58023D01*
X-166700Y58029D01*
X-166695Y58032D01*
X-166551Y59495D01*
X-166553Y59498D01*
X-166551Y59500D01*
X-166551Y67500D01*
X-166553Y67503D01*
X-166551Y67505D01*
X-166695Y68968D01*
X-166700Y68973D01*
X-166697Y68977D01*
X-167124Y70384D01*
X-167130Y70389D01*
X-167127Y70393D01*
X-167821Y71690D01*
X-167827Y71693D01*
X-167826Y71698D01*
X-168759Y72835D01*
X-168766Y72836D01*
X-168765Y72841D01*
X-169902Y73774D01*
X-169909Y73774D01*
X-169910Y73779D01*
X-171207Y74473D01*
X-171214Y74471D01*
X-171216Y74476D01*
X-172623Y74903D01*
X-172627Y74901D01*
X-172630Y74901D01*
X-172632Y74905D01*
X-174095Y75049D01*
X-174097Y75048D01*
X-174097Y75049D01*
X-174103Y75049D01*
X-174104Y75048D01*
X-174105Y75049D01*
X-175568Y74905D01*
X-175572Y74901D01*
X-175575Y74901D01*
X-175577Y74903D01*
X-176984Y74476D01*
X-176989Y74470D01*
X-176993Y74473D01*
X-178290Y73779D01*
X-178293Y73773D01*
X-178298Y73774D01*
X-179435Y72841D01*
X-179436Y72834D01*
X-179441Y72835D01*
X-180374Y71698D01*
X-180374Y71691D01*
X-180379Y71690D01*
X-181073Y70393D01*
X-181072Y70387D01*
X-181074Y70385D01*
X-181076Y70384D01*
X-181136Y70187D01*
X-181360Y69448D01*
X-181375Y69399D01*
X-181503Y68977D01*
X-181501Y68971D01*
X-181505Y68968D01*
X-181649Y67505D01*
X-181647Y67502D01*
X-181649Y67500D01*
X-181649Y59500D01*
X-181647Y59497D01*
X-181649Y59495D01*
X-181505Y58032D01*
X-181500Y58027D01*
X-181503Y58023D01*
X-181076Y56616D01*
X-181070Y56611D01*
X-181073Y56607D01*
X-180379Y55310D01*
X-180373Y55307D01*
X-180374Y55302D01*
X-179441Y54165D01*
X-179434Y54164D01*
X-179435Y54159D01*
X-178298Y53226D01*
X-178291Y53226D01*
X-178290Y53221D01*
X-176993Y52527D01*
X-176986Y52529D01*
X-176984Y52524D01*
X-175577Y52097D01*
X-175573Y52099D01*
X-175570Y52099D01*
X-175568Y52095D01*
X-174105Y51951D01*
X-174099Y51955D01*
X-174095Y51951D01*
X-172632Y52095D01*
G37*
G36*
X94068Y52095D02*
X94068Y52095D01*
X94072Y52099D01*
X94075Y52099D01*
X94077Y52097D01*
X95484Y52524D01*
X95489Y52530D01*
X95493Y52527D01*
X96790Y53221D01*
X96793Y53227D01*
X96798Y53226D01*
X97935Y54159D01*
X97936Y54166D01*
X97941Y54165D01*
X98874Y55302D01*
X98874Y55309D01*
X98879Y55310D01*
X99573Y56607D01*
X99572Y56613D01*
X99575Y56615D01*
X99576Y56616D01*
X99726Y57109D01*
X99741Y57158D01*
X99965Y57897D01*
X100003Y58023D01*
X100001Y58029D01*
X100005Y58032D01*
X100149Y59495D01*
X100147Y59498D01*
X100149Y59500D01*
X100149Y67500D01*
X100147Y67503D01*
X100149Y67505D01*
X100005Y68968D01*
X100000Y68973D01*
X100003Y68977D01*
X99576Y70384D01*
X99570Y70389D01*
X99573Y70393D01*
X98879Y71690D01*
X98873Y71693D01*
X98874Y71698D01*
X97941Y72835D01*
X97934Y72836D01*
X97935Y72841D01*
X96798Y73774D01*
X96791Y73774D01*
X96790Y73779D01*
X95493Y74473D01*
X95486Y74471D01*
X95484Y74476D01*
X94077Y74903D01*
X94073Y74901D01*
X94070Y74901D01*
X94068Y74905D01*
X92605Y75049D01*
X92603Y75048D01*
X92603Y75049D01*
X92597Y75049D01*
X92596Y75048D01*
X92595Y75049D01*
X91132Y74905D01*
X91128Y74901D01*
X91125Y74901D01*
X91123Y74903D01*
X89716Y74476D01*
X89711Y74470D01*
X89707Y74473D01*
X88410Y73779D01*
X88407Y73773D01*
X88402Y73774D01*
X87265Y72841D01*
X87264Y72834D01*
X87259Y72835D01*
X86326Y71698D01*
X86326Y71691D01*
X86321Y71690D01*
X85627Y70393D01*
X85628Y70387D01*
X85626Y70385D01*
X85624Y70384D01*
X85564Y70187D01*
X85340Y69448D01*
X85325Y69399D01*
X85197Y68977D01*
X85200Y68971D01*
X85195Y68968D01*
X85051Y67505D01*
X85053Y67502D01*
X85051Y67500D01*
X85051Y59500D01*
X85053Y59497D01*
X85051Y59495D01*
X85195Y58032D01*
X85200Y58027D01*
X85197Y58023D01*
X85624Y56616D01*
X85630Y56611D01*
X85627Y56607D01*
X86321Y55310D01*
X86327Y55307D01*
X86326Y55302D01*
X87259Y54165D01*
X87266Y54164D01*
X87265Y54159D01*
X88402Y53226D01*
X88409Y53226D01*
X88410Y53221D01*
X89707Y52527D01*
X89714Y52529D01*
X89716Y52524D01*
X91123Y52097D01*
X91127Y52099D01*
X91130Y52099D01*
X91132Y52095D01*
X92595Y51951D01*
X92601Y51955D01*
X92605Y51951D01*
X94068Y52095D01*
G37*
G36*
X505768Y52095D02*
X505768Y52095D01*
X505772Y52099D01*
X505775Y52099D01*
X505777Y52097D01*
X507184Y52524D01*
X507189Y52530D01*
X507193Y52527D01*
X508490Y53221D01*
X508493Y53227D01*
X508498Y53226D01*
X509635Y54159D01*
X509636Y54166D01*
X509641Y54165D01*
X510574Y55302D01*
X510574Y55309D01*
X510579Y55310D01*
X511273Y56607D01*
X511272Y56613D01*
X511275Y56615D01*
X511276Y56616D01*
X511426Y57109D01*
X511441Y57158D01*
X511665Y57897D01*
X511703Y58023D01*
X511701Y58029D01*
X511705Y58032D01*
X511849Y59495D01*
X511847Y59498D01*
X511849Y59500D01*
X511849Y67500D01*
X511847Y67503D01*
X511849Y67505D01*
X511705Y68968D01*
X511700Y68973D01*
X511703Y68977D01*
X511276Y70384D01*
X511270Y70389D01*
X511273Y70393D01*
X510579Y71690D01*
X510573Y71693D01*
X510574Y71698D01*
X509641Y72835D01*
X509634Y72836D01*
X509635Y72841D01*
X508498Y73774D01*
X508491Y73774D01*
X508490Y73779D01*
X507193Y74473D01*
X507186Y74471D01*
X507184Y74476D01*
X505777Y74903D01*
X505773Y74901D01*
X505770Y74901D01*
X505768Y74905D01*
X504305Y75049D01*
X504303Y75048D01*
X504303Y75049D01*
X504297Y75049D01*
X504296Y75048D01*
X504295Y75049D01*
X502832Y74905D01*
X502828Y74901D01*
X502825Y74901D01*
X502823Y74903D01*
X501416Y74476D01*
X501411Y74470D01*
X501407Y74473D01*
X500110Y73779D01*
X500107Y73773D01*
X500102Y73774D01*
X498965Y72841D01*
X498964Y72834D01*
X498959Y72835D01*
X498026Y71698D01*
X498026Y71691D01*
X498021Y71690D01*
X497327Y70393D01*
X497328Y70387D01*
X497326Y70385D01*
X497324Y70384D01*
X497264Y70187D01*
X497040Y69448D01*
X497025Y69399D01*
X496897Y68977D01*
X496900Y68971D01*
X496895Y68968D01*
X496751Y67505D01*
X496753Y67502D01*
X496751Y67500D01*
X496751Y59500D01*
X496753Y59497D01*
X496751Y59495D01*
X496895Y58032D01*
X496900Y58027D01*
X496897Y58023D01*
X497324Y56616D01*
X497330Y56611D01*
X497327Y56607D01*
X498021Y55310D01*
X498027Y55307D01*
X498026Y55302D01*
X498959Y54165D01*
X498966Y54164D01*
X498965Y54159D01*
X500102Y53226D01*
X500109Y53226D01*
X500110Y53221D01*
X501407Y52527D01*
X501414Y52529D01*
X501416Y52524D01*
X502823Y52097D01*
X502827Y52099D01*
X502830Y52099D01*
X502832Y52095D01*
X504295Y51951D01*
X504301Y51955D01*
X504305Y51951D01*
X505768Y52095D01*
G37*
D10*
X167800Y400700D03*
D11*
X359300Y123100D03*
X359300Y63500D03*
X504300Y123100D03*
X504300Y63500D03*
X507000Y383800D03*
X507000Y443400D03*
X362000Y383800D03*
X362000Y443400D03*
X-174100Y123100D03*
X-174100Y63500D03*
X-29100Y123100D03*
X-29100Y63500D03*
X92600Y123100D03*
X92600Y63500D03*
X237600Y123100D03*
X237600Y63500D03*
D12*
X-45200Y234800D03*
X-19800Y234800D03*
X-19800Y311000D03*
X-45200Y311000D03*
X5600Y234800D03*
X31000Y234800D03*
X5600Y311000D03*
X31000Y311000D03*
D10*
X294800Y400700D03*
X254000Y400700D03*
X215900Y400700D03*
D13*
X299100Y268600D03*
D14*
X324500Y268600D03*
X349900Y268600D03*
D15*
X161080Y186068D03*
D16*
X165351Y186068D01*
X177487Y173932D01*
X226068Y173932D01*
D15*
X230000Y170000D03*
D16*
X226068Y173932D01*
D15*
X170000Y190000D03*
D16*
X180000Y180000D02*
X230000Y180000D01*
X180000Y180000D02*
X170000Y190000D01*
X230000Y180000D02*
X230047Y179953D01*
D15*
X230047Y179953D03*
X109017Y200000D03*
D16*
X110884Y198133D01*
X110884Y180495D01*
X180000Y160000D02*
X190000Y150000D01*
X180000Y160000D02*
X131379Y160000D01*
D15*
X190000Y150000D03*
D16*
X131379Y160000D02*
X110884Y180495D01*
D15*
X104816Y190000D03*
D16*
X107836Y186980D01*
X107836Y179232D01*
X133136Y153932D01*
X177487Y153932D01*
D15*
X180000Y110000D03*
D16*
X180000Y151419D02*
X177487Y153932D01*
X180000Y151419D02*
X180000Y110000D01*
D15*
X120000Y190000D03*
D16*
X120000Y180000D01*
X130000Y170000D01*
X200000Y170000D01*
X220000Y150000D01*
D15*
X220000Y150000D03*
X118105Y200000D03*
D16*
X118105Y196687D01*
X113932Y192514D01*
X113932Y181757D01*
X128737Y166952D01*
X193048Y166952D02*
X210000Y150000D01*
D15*
X210000Y150000D03*
D16*
X193048Y166952D02*
X128737Y166952D01*
X362000Y383800D02*
X362000Y443400D01*
X507000Y443400D02*
X507000Y383800D01*
X504300Y123100D02*
X504300Y63500D01*
X359300Y63500D02*
X359300Y123100D01*
X92600Y123100D02*
X92600Y63500D01*
X-174100Y63500D02*
X-174100Y123100D01*
X-29100Y123100D02*
X-29100Y63500D01*
X237600Y63500D02*
X237600Y123100D01*
X359300Y123100D01*
X237600Y63500D02*
X92600Y63500D01*
D15*
X440000Y350000D03*
X540000Y330000D03*
D16*
X447836Y342164D02*
X440000Y350000D01*
X538582Y330000D02*
X540000Y330000D01*
X526418Y342164D02*
X447836Y342164D01*
X526418Y342164D02*
X538582Y330000D01*
D15*
X320000Y80000D03*
D16*
X280000Y80000D01*
D15*
X280000Y80000D03*
X425732Y170092D03*
D16*
X421708Y166068D01*
X360000Y166068D01*
D15*
X360000Y166068D03*
X160000Y110000D03*
D16*
X170000Y100000D01*
X170000Y90000D01*
D15*
X170000Y90000D03*
X420000Y350000D03*
X530000Y330000D03*
D16*
X528582Y330000D01*
X430884Y339116D02*
X420000Y350000D01*
X430884Y339116D02*
X519466Y339116D01*
X528582Y330000D01*
D15*
X320000Y90000D03*
D16*
X280000Y90000D01*
D15*
X280000Y90000D03*
X440000Y160000D03*
D16*
X352136Y160000D01*
X350000Y162136D01*
D15*
X350000Y162136D03*
X170000Y110000D03*
D16*
X190000Y90000D01*
D15*
X190000Y90000D03*
X410000Y350000D03*
D16*
X426952Y333048D01*
D15*
X520000Y330000D03*
D16*
X507855Y336068D02*
X504835Y333048D01*
X507855Y336068D02*
X513932Y336068D01*
X520000Y330000D01*
X504835Y333048D02*
X426952Y333048D01*
D15*
X320000Y100000D03*
D16*
X280000Y100000D01*
D15*
X280000Y100000D03*
X450000Y160000D03*
D16*
X443048Y153048D01*
D15*
X340000Y156068D03*
D16*
X352514Y156068D02*
X355534Y153048D01*
X352514Y156068D02*
X340000Y156068D01*
X355534Y153048D02*
X443048Y153048D01*
D15*
X190100Y110000D03*
D16*
X200000Y100100D01*
X200000Y96068D01*
D15*
X200000Y96068D03*
X400000Y350000D03*
D16*
X420000Y330000D01*
D15*
X510368Y330000D03*
D16*
X420000Y330000D01*
D15*
X320000Y110000D03*
D16*
X280000Y110000D01*
D15*
X280000Y110000D03*
X470000Y150000D03*
D16*
X350000Y150000D01*
D15*
X350000Y150000D03*
X-50000Y110000D03*
D16*
X-70000Y110000D01*
D15*
X-70000Y110000D03*
D16*
X-85532Y110000D01*
D15*
X-85532Y110000D03*
X120000Y249088D03*
X120000Y282136D03*
D16*
X132514Y276068D02*
X136068Y272514D01*
X132514Y276068D02*
X126068Y276068D01*
X120000Y282136D01*
X136068Y258410D02*
X132232Y254574D01*
X136068Y258410D02*
X136068Y272514D01*
X125486Y254574D02*
X120000Y249088D01*
X125486Y254574D02*
X132232Y254574D01*
D15*
X398432Y404272D03*
D16*
X404272Y404272D01*
X410000Y410000D01*
X420000Y410000D02*
X440000Y410000D01*
X420000Y410000D02*
X410000Y410000D01*
D15*
X429500Y403204D03*
D16*
X433204Y403204D01*
X440000Y410000D01*
D15*
X413932Y403772D03*
D16*
X413932Y403932D01*
X420000Y410000D01*
D15*
X446068Y394506D03*
D16*
X446068Y403932D01*
X440000Y410000D01*
D15*
X180000Y420000D03*
D16*
X190000Y420000D01*
X200000Y410000D01*
D15*
X200000Y410000D03*
X428399Y103020D03*
D16*
X433020Y103020D02*
X460000Y103020D01*
X463020Y103020D01*
X470000Y110000D01*
D15*
X470000Y110000D03*
X440000Y110000D03*
D16*
X433020Y103020D01*
X428399Y103020D01*
D15*
X452868Y110000D03*
D16*
X453020Y110000D01*
X460000Y103020D01*
X129718Y260642D02*
X120360Y270000D01*
D15*
X129718Y260642D03*
X79530Y270000D03*
D16*
X120360Y270000D01*
D15*
X206878Y268478D03*
D16*
X206878Y271111D01*
X197375Y280614D01*
D15*
X197375Y280614D03*
D16*
X206878Y268478D02*
X206878Y240000D01*
D15*
X206878Y240000D03*
X130000Y270000D03*
D16*
X124671Y270000D01*
X118603Y276068D01*
D15*
X72164Y250000D03*
D16*
X70000Y252164D01*
X70000Y270000D01*
X76068Y276068D01*
X118603Y276068D01*
D15*
X235626Y268478D03*
D16*
X240000Y272852D01*
X240000Y280614D01*
D15*
X240000Y280614D03*
X90000Y432164D03*
D16*
X90000Y420000D01*
D15*
X90000Y420000D03*
X90000Y335318D03*
D16*
X90000Y320000D01*
D15*
X90000Y320000D03*
X70000Y290000D03*
X190000Y306578D03*
D16*
X81419Y290000D02*
X70000Y290000D01*
X173522Y312889D02*
X178205Y308205D01*
X179833Y306578D01*
X190000Y306578D01*
X104308Y312889D02*
X81419Y290000D01*
X104308Y312889D02*
X173522Y312889D01*
D15*
X-120000Y160000D03*
D16*
X-120000Y340000D01*
D15*
X-120000Y340000D03*
X150000Y110000D03*
D16*
X150000Y73932D01*
D15*
X150000Y73932D03*
X410000Y70000D03*
D16*
X410000Y110000D01*
X411160Y111160D01*
D15*
X411160Y111160D03*
X266068Y220000D03*
D16*
X266068Y253932D01*
X260000Y260000D01*
D15*
X260000Y260000D03*
X486068Y350000D03*
D16*
X470000Y350000D01*
D15*
X470000Y350000D03*
X119243Y159243D03*
D16*
X129032Y149455D01*
D15*
X129032Y149455D03*
X149954Y189954D03*
X179148Y190852D03*
D16*
X177730Y190852D01*
X172514Y196068D01*
X156068Y196068D02*
X149954Y189954D01*
X156068Y196068D02*
X172514Y196068D01*
D15*
X20000Y184800D03*
D16*
X84800Y184800D01*
X90000Y190000D01*
D15*
X90000Y190000D03*
X90527Y261945D03*
D16*
X90527Y240000D01*
X90527Y218332D01*
X90000Y217805D01*
D15*
X90000Y217805D03*
X90000Y290000D03*
D16*
X66096Y247487D02*
X69651Y243932D01*
X74805Y279116D02*
X79116Y279116D01*
X90000Y290000D01*
X66096Y270407D02*
X66096Y247487D01*
X66096Y270407D02*
X74805Y279116D01*
X86595Y243932D02*
X90527Y240000D01*
X86595Y243932D02*
X69651Y243932D01*
D15*
X150000Y278932D03*
D16*
X156022Y284954D01*
X156022Y296821D01*
D15*
X156022Y296821D03*
X370000Y173932D03*
X370000Y220000D03*
X390000Y110000D03*
D16*
X390000Y80000D01*
D15*
X390000Y80000D03*
X120000Y110000D03*
D16*
X120000Y80000D01*
D15*
X120000Y80000D03*
D16*
X370000Y173932D02*
X370000Y220000D01*
D15*
X142004Y306578D03*
X164940Y226137D03*
D16*
X140000Y201197D01*
X140000Y190000D01*
D15*
X140000Y190000D03*
X136503Y244574D03*
D16*
X124574Y244574D01*
X120000Y240000D01*
D15*
X120000Y240000D03*
X140000Y280000D03*
D16*
X140000Y304575D01*
X142004Y306578D01*
D15*
X260000Y270000D03*
D16*
X250000Y260000D01*
X240000Y260000D01*
D15*
X240000Y260000D03*
X240000Y228600D03*
D16*
X240000Y260000D01*
X150000Y270000D02*
X140000Y280000D01*
X150000Y270000D02*
X160000Y270000D01*
X171008Y281008D01*
D15*
X171008Y300000D03*
D16*
X171008Y281008D01*
D15*
X450000Y250000D03*
D16*
X98108Y311000D02*
X31000Y311000D01*
X98108Y311000D02*
X103045Y315937D01*
X384063Y315937D01*
X450000Y250000D01*
D15*
X450000Y260000D03*
D16*
X-16972Y311000D02*
X-19800Y311000D01*
X92514Y341386D02*
X114914Y318985D01*
X13414Y341386D02*
X-16972Y311000D01*
X13414Y341386D02*
X92514Y341386D01*
X114914Y318985D02*
X391015Y318985D01*
X450000Y260000D01*
D15*
X210000Y200000D03*
D16*
X199658Y200000D01*
X137174Y206952D02*
X10000Y206952D01*
X162427Y232205D02*
X167454Y232205D01*
X199658Y200000D01*
X162427Y232205D02*
X137174Y206952D01*
X10000Y206952D02*
X-17848Y234800D01*
X-19800Y234800D01*
X5600Y234800D02*
X30400Y210000D01*
D15*
X230047Y210047D03*
D16*
X193922Y210047D01*
X168716Y235253D02*
X161164Y235253D01*
X168716Y235253D02*
X193922Y210047D01*
X161164Y235253D02*
X135911Y210000D01*
X30400Y210000D01*
D15*
X270000Y333932D03*
X270000Y360000D03*
D16*
X270000Y333932D01*
D15*
X320000Y333932D03*
D16*
X320000Y360000D01*
D15*
X320000Y360000D03*
X330000Y330000D03*
D16*
X330000Y360000D01*
D15*
X330000Y360000D03*
M02*
