G04 EAGLE Gerber RS-274X export*
G75*
%MOMM*%
%FSLAX34Y34*%
%LPD*%
%INSoldermask Top*%
%IPPOS*%
%AMOC8*
5,1,8,0,0,1.08239X$1,22.5*%
G01*
%ADD10C,0.553200*%
%ADD11P,2.556822X8X22.500000*%
%ADD12R,0.503200X2.803200*%
%ADD13R,1.676400X0.482600*%
%ADD14R,0.482600X1.676400*%
%ADD15C,1.666238*%
%ADD16C,0.506016*%
%ADD17R,2.435200X2.435200*%
%ADD18C,2.435200*%
%ADD19C,0.705600*%

G36*
X508663Y366414D02*
X508663Y366414D01*
X508668Y366419D01*
X508673Y366416D01*
X510267Y366900D01*
X510271Y366906D01*
X510276Y366904D01*
X511746Y367689D01*
X511749Y367696D01*
X511754Y367694D01*
X513042Y368752D01*
X513043Y368759D01*
X513048Y368758D01*
X514106Y370046D01*
X514106Y370054D01*
X514111Y370054D01*
X514896Y371524D01*
X514895Y371531D01*
X514900Y371533D01*
X515384Y373127D01*
X515383Y373131D01*
X515385Y373132D01*
X515383Y373135D01*
X515386Y373137D01*
X515549Y374795D01*
X515547Y374798D01*
X515549Y374800D01*
X515549Y392800D01*
X515547Y392803D01*
X515549Y392805D01*
X515386Y394463D01*
X515381Y394468D01*
X515384Y394473D01*
X514900Y396067D01*
X514894Y396071D01*
X514896Y396076D01*
X514111Y397546D01*
X514104Y397549D01*
X514106Y397554D01*
X513048Y398842D01*
X513041Y398843D01*
X513042Y398848D01*
X511754Y399906D01*
X511746Y399906D01*
X511746Y399911D01*
X510276Y400696D01*
X510269Y400695D01*
X510267Y400700D01*
X508673Y401184D01*
X508666Y401181D01*
X508663Y401186D01*
X507005Y401349D01*
X506999Y401345D01*
X506995Y401349D01*
X505337Y401186D01*
X505332Y401181D01*
X505327Y401184D01*
X503733Y400700D01*
X503729Y400694D01*
X503724Y400696D01*
X502254Y399911D01*
X502251Y399904D01*
X502246Y399906D01*
X500958Y398848D01*
X500957Y398841D01*
X500952Y398842D01*
X499894Y397554D01*
X499894Y397546D01*
X499889Y397546D01*
X499104Y396076D01*
X499105Y396069D01*
X499100Y396067D01*
X498616Y394473D01*
X498619Y394466D01*
X498614Y394463D01*
X498451Y392805D01*
X498453Y392802D01*
X498451Y392800D01*
X498451Y374800D01*
X498453Y374797D01*
X498451Y374795D01*
X498614Y373137D01*
X498619Y373132D01*
X498616Y373127D01*
X499100Y371533D01*
X499106Y371529D01*
X499104Y371524D01*
X499889Y370054D01*
X499896Y370051D01*
X499894Y370046D01*
X500952Y368758D01*
X500959Y368757D01*
X500958Y368752D01*
X502246Y367694D01*
X502254Y367694D01*
X502254Y367689D01*
X503724Y366904D01*
X503731Y366905D01*
X503733Y366900D01*
X505327Y366416D01*
X505334Y366419D01*
X505337Y366414D01*
X506995Y366251D01*
X507001Y366255D01*
X507005Y366251D01*
X508663Y366414D01*
G37*
G36*
X363663Y366414D02*
X363663Y366414D01*
X363668Y366419D01*
X363673Y366416D01*
X365267Y366900D01*
X365271Y366906D01*
X365276Y366904D01*
X366746Y367689D01*
X366749Y367696D01*
X366754Y367694D01*
X368042Y368752D01*
X368043Y368759D01*
X368048Y368758D01*
X369106Y370046D01*
X369106Y370054D01*
X369111Y370054D01*
X369896Y371524D01*
X369895Y371531D01*
X369900Y371533D01*
X370384Y373127D01*
X370383Y373131D01*
X370385Y373132D01*
X370383Y373135D01*
X370386Y373137D01*
X370549Y374795D01*
X370547Y374798D01*
X370549Y374800D01*
X370549Y392800D01*
X370547Y392803D01*
X370549Y392805D01*
X370386Y394463D01*
X370381Y394468D01*
X370384Y394473D01*
X369900Y396067D01*
X369894Y396071D01*
X369896Y396076D01*
X369111Y397546D01*
X369104Y397549D01*
X369106Y397554D01*
X368048Y398842D01*
X368041Y398843D01*
X368042Y398848D01*
X366754Y399906D01*
X366746Y399906D01*
X366746Y399911D01*
X365276Y400696D01*
X365269Y400695D01*
X365267Y400700D01*
X363673Y401184D01*
X363666Y401181D01*
X363663Y401186D01*
X362005Y401349D01*
X361999Y401345D01*
X361995Y401349D01*
X360337Y401186D01*
X360332Y401181D01*
X360327Y401184D01*
X358733Y400700D01*
X358729Y400694D01*
X358724Y400696D01*
X357254Y399911D01*
X357251Y399904D01*
X357246Y399906D01*
X355958Y398848D01*
X355957Y398841D01*
X355952Y398842D01*
X354894Y397554D01*
X354894Y397546D01*
X354889Y397546D01*
X354104Y396076D01*
X354105Y396069D01*
X354100Y396067D01*
X353616Y394473D01*
X353619Y394466D01*
X353614Y394463D01*
X353451Y392805D01*
X353453Y392802D01*
X353451Y392800D01*
X353451Y374800D01*
X353453Y374797D01*
X353451Y374795D01*
X353614Y373137D01*
X353619Y373132D01*
X353616Y373127D01*
X354100Y371533D01*
X354106Y371529D01*
X354104Y371524D01*
X354889Y370054D01*
X354896Y370051D01*
X354894Y370046D01*
X355952Y368758D01*
X355959Y368757D01*
X355958Y368752D01*
X357246Y367694D01*
X357254Y367694D01*
X357254Y367689D01*
X358724Y366904D01*
X358731Y366905D01*
X358733Y366900D01*
X360327Y366416D01*
X360334Y366419D01*
X360337Y366414D01*
X361995Y366251D01*
X362001Y366255D01*
X362005Y366251D01*
X363663Y366414D01*
G37*
G36*
X-172437Y105714D02*
X-172437Y105714D01*
X-172432Y105719D01*
X-172427Y105716D01*
X-170833Y106200D01*
X-170829Y106206D01*
X-170824Y106204D01*
X-169354Y106989D01*
X-169351Y106996D01*
X-169346Y106994D01*
X-168058Y108052D01*
X-168057Y108059D01*
X-168052Y108058D01*
X-166994Y109346D01*
X-166994Y109354D01*
X-166989Y109354D01*
X-166204Y110824D01*
X-166205Y110831D01*
X-166200Y110833D01*
X-165716Y112427D01*
X-165718Y112431D01*
X-165716Y112432D01*
X-165717Y112435D01*
X-165714Y112437D01*
X-165551Y114095D01*
X-165553Y114098D01*
X-165551Y114100D01*
X-165551Y132100D01*
X-165553Y132103D01*
X-165551Y132105D01*
X-165714Y133763D01*
X-165719Y133768D01*
X-165716Y133773D01*
X-166200Y135367D01*
X-166206Y135371D01*
X-166204Y135376D01*
X-166989Y136846D01*
X-166996Y136849D01*
X-166994Y136854D01*
X-168052Y138142D01*
X-168059Y138143D01*
X-168058Y138148D01*
X-169346Y139206D01*
X-169354Y139206D01*
X-169354Y139211D01*
X-170824Y139996D01*
X-170831Y139995D01*
X-170833Y140000D01*
X-172427Y140484D01*
X-172434Y140481D01*
X-172437Y140486D01*
X-174095Y140649D01*
X-174101Y140645D01*
X-174105Y140649D01*
X-175763Y140486D01*
X-175768Y140481D01*
X-175773Y140484D01*
X-177367Y140000D01*
X-177371Y139994D01*
X-177376Y139996D01*
X-178846Y139211D01*
X-178849Y139204D01*
X-178854Y139206D01*
X-180142Y138148D01*
X-180143Y138141D01*
X-180148Y138142D01*
X-181206Y136854D01*
X-181206Y136846D01*
X-181211Y136846D01*
X-181996Y135376D01*
X-181995Y135369D01*
X-182000Y135367D01*
X-182484Y133773D01*
X-182481Y133766D01*
X-182486Y133763D01*
X-182649Y132105D01*
X-182647Y132102D01*
X-182649Y132100D01*
X-182649Y114100D01*
X-182647Y114097D01*
X-182649Y114095D01*
X-182486Y112437D01*
X-182481Y112432D01*
X-182484Y112427D01*
X-182000Y110833D01*
X-181994Y110829D01*
X-181996Y110824D01*
X-181211Y109354D01*
X-181204Y109351D01*
X-181206Y109346D01*
X-180148Y108058D01*
X-180141Y108057D01*
X-180142Y108052D01*
X-178854Y106994D01*
X-178846Y106994D01*
X-178846Y106989D01*
X-177376Y106204D01*
X-177369Y106205D01*
X-177367Y106200D01*
X-175773Y105716D01*
X-175766Y105719D01*
X-175763Y105714D01*
X-174105Y105551D01*
X-174099Y105555D01*
X-174095Y105551D01*
X-172437Y105714D01*
G37*
G36*
X94263Y105714D02*
X94263Y105714D01*
X94268Y105719D01*
X94273Y105716D01*
X95867Y106200D01*
X95871Y106206D01*
X95876Y106204D01*
X97346Y106989D01*
X97349Y106996D01*
X97354Y106994D01*
X98642Y108052D01*
X98643Y108059D01*
X98648Y108058D01*
X99706Y109346D01*
X99706Y109354D01*
X99711Y109354D01*
X100496Y110824D01*
X100495Y110831D01*
X100500Y110833D01*
X100984Y112427D01*
X100983Y112431D01*
X100985Y112432D01*
X100983Y112435D01*
X100986Y112437D01*
X101149Y114095D01*
X101147Y114098D01*
X101149Y114100D01*
X101149Y132100D01*
X101147Y132103D01*
X101149Y132105D01*
X100986Y133763D01*
X100981Y133768D01*
X100984Y133773D01*
X100500Y135367D01*
X100494Y135371D01*
X100496Y135376D01*
X99711Y136846D01*
X99704Y136849D01*
X99706Y136854D01*
X98648Y138142D01*
X98641Y138143D01*
X98642Y138148D01*
X97354Y139206D01*
X97346Y139206D01*
X97346Y139211D01*
X95876Y139996D01*
X95869Y139995D01*
X95867Y140000D01*
X94273Y140484D01*
X94266Y140481D01*
X94263Y140486D01*
X92605Y140649D01*
X92599Y140645D01*
X92595Y140649D01*
X90937Y140486D01*
X90932Y140481D01*
X90927Y140484D01*
X89333Y140000D01*
X89329Y139994D01*
X89324Y139996D01*
X87854Y139211D01*
X87851Y139204D01*
X87846Y139206D01*
X86558Y138148D01*
X86557Y138141D01*
X86552Y138142D01*
X85494Y136854D01*
X85494Y136846D01*
X85489Y136846D01*
X84704Y135376D01*
X84705Y135369D01*
X84700Y135367D01*
X84216Y133773D01*
X84219Y133766D01*
X84214Y133763D01*
X84051Y132105D01*
X84053Y132102D01*
X84051Y132100D01*
X84051Y114100D01*
X84053Y114097D01*
X84051Y114095D01*
X84214Y112437D01*
X84219Y112432D01*
X84216Y112427D01*
X84700Y110833D01*
X84706Y110829D01*
X84704Y110824D01*
X85489Y109354D01*
X85496Y109351D01*
X85494Y109346D01*
X86552Y108058D01*
X86559Y108057D01*
X86558Y108052D01*
X87846Y106994D01*
X87854Y106994D01*
X87854Y106989D01*
X89324Y106204D01*
X89331Y106205D01*
X89333Y106200D01*
X90927Y105716D01*
X90934Y105719D01*
X90937Y105714D01*
X92595Y105551D01*
X92601Y105555D01*
X92605Y105551D01*
X94263Y105714D01*
G37*
G36*
X360963Y105714D02*
X360963Y105714D01*
X360968Y105719D01*
X360973Y105716D01*
X362567Y106200D01*
X362571Y106206D01*
X362576Y106204D01*
X364046Y106989D01*
X364049Y106996D01*
X364054Y106994D01*
X365342Y108052D01*
X365343Y108059D01*
X365348Y108058D01*
X366406Y109346D01*
X366406Y109354D01*
X366411Y109354D01*
X367196Y110824D01*
X367195Y110831D01*
X367200Y110833D01*
X367684Y112427D01*
X367683Y112431D01*
X367685Y112432D01*
X367683Y112435D01*
X367686Y112437D01*
X367849Y114095D01*
X367847Y114098D01*
X367849Y114100D01*
X367849Y132100D01*
X367847Y132103D01*
X367849Y132105D01*
X367686Y133763D01*
X367681Y133768D01*
X367684Y133773D01*
X367200Y135367D01*
X367194Y135371D01*
X367196Y135376D01*
X366411Y136846D01*
X366404Y136849D01*
X366406Y136854D01*
X365348Y138142D01*
X365341Y138143D01*
X365342Y138148D01*
X364054Y139206D01*
X364046Y139206D01*
X364046Y139211D01*
X362576Y139996D01*
X362569Y139995D01*
X362567Y140000D01*
X360973Y140484D01*
X360966Y140481D01*
X360963Y140486D01*
X359305Y140649D01*
X359299Y140645D01*
X359295Y140649D01*
X357637Y140486D01*
X357632Y140481D01*
X357627Y140484D01*
X356033Y140000D01*
X356029Y139994D01*
X356024Y139996D01*
X354554Y139211D01*
X354551Y139204D01*
X354546Y139206D01*
X353258Y138148D01*
X353257Y138141D01*
X353252Y138142D01*
X352194Y136854D01*
X352194Y136846D01*
X352189Y136846D01*
X351404Y135376D01*
X351405Y135369D01*
X351400Y135367D01*
X350916Y133773D01*
X350919Y133766D01*
X350914Y133763D01*
X350751Y132105D01*
X350753Y132102D01*
X350751Y132100D01*
X350751Y114100D01*
X350753Y114097D01*
X350751Y114095D01*
X350914Y112437D01*
X350919Y112432D01*
X350916Y112427D01*
X351400Y110833D01*
X351406Y110829D01*
X351404Y110824D01*
X352189Y109354D01*
X352196Y109351D01*
X352194Y109346D01*
X353252Y108058D01*
X353259Y108057D01*
X353258Y108052D01*
X354546Y106994D01*
X354554Y106994D01*
X354554Y106989D01*
X356024Y106204D01*
X356031Y106205D01*
X356033Y106200D01*
X357627Y105716D01*
X357634Y105719D01*
X357637Y105714D01*
X359295Y105551D01*
X359301Y105555D01*
X359305Y105551D01*
X360963Y105714D01*
G37*
G36*
X505963Y105714D02*
X505963Y105714D01*
X505968Y105719D01*
X505973Y105716D01*
X507567Y106200D01*
X507571Y106206D01*
X507576Y106204D01*
X509046Y106989D01*
X509049Y106996D01*
X509054Y106994D01*
X510342Y108052D01*
X510343Y108059D01*
X510348Y108058D01*
X511406Y109346D01*
X511406Y109354D01*
X511411Y109354D01*
X512196Y110824D01*
X512195Y110831D01*
X512200Y110833D01*
X512684Y112427D01*
X512683Y112431D01*
X512685Y112432D01*
X512683Y112435D01*
X512686Y112437D01*
X512849Y114095D01*
X512847Y114098D01*
X512849Y114100D01*
X512849Y132100D01*
X512847Y132103D01*
X512849Y132105D01*
X512686Y133763D01*
X512681Y133768D01*
X512684Y133773D01*
X512200Y135367D01*
X512194Y135371D01*
X512196Y135376D01*
X511411Y136846D01*
X511404Y136849D01*
X511406Y136854D01*
X510348Y138142D01*
X510341Y138143D01*
X510342Y138148D01*
X509054Y139206D01*
X509046Y139206D01*
X509046Y139211D01*
X507576Y139996D01*
X507569Y139995D01*
X507567Y140000D01*
X505973Y140484D01*
X505966Y140481D01*
X505963Y140486D01*
X504305Y140649D01*
X504299Y140645D01*
X504295Y140649D01*
X502637Y140486D01*
X502632Y140481D01*
X502627Y140484D01*
X501033Y140000D01*
X501029Y139994D01*
X501024Y139996D01*
X499554Y139211D01*
X499551Y139204D01*
X499546Y139206D01*
X498258Y138148D01*
X498257Y138141D01*
X498252Y138142D01*
X497194Y136854D01*
X497194Y136846D01*
X497189Y136846D01*
X496404Y135376D01*
X496405Y135369D01*
X496400Y135367D01*
X495916Y133773D01*
X495919Y133766D01*
X495914Y133763D01*
X495751Y132105D01*
X495753Y132102D01*
X495751Y132100D01*
X495751Y114100D01*
X495753Y114097D01*
X495751Y114095D01*
X495914Y112437D01*
X495919Y112432D01*
X495916Y112427D01*
X496400Y110833D01*
X496406Y110829D01*
X496404Y110824D01*
X497189Y109354D01*
X497196Y109351D01*
X497194Y109346D01*
X498252Y108058D01*
X498259Y108057D01*
X498258Y108052D01*
X499546Y106994D01*
X499554Y106994D01*
X499554Y106989D01*
X501024Y106204D01*
X501031Y106205D01*
X501033Y106200D01*
X502627Y105716D01*
X502634Y105719D01*
X502637Y105714D01*
X504295Y105551D01*
X504301Y105555D01*
X504305Y105551D01*
X505963Y105714D01*
G37*
G36*
X-27437Y105714D02*
X-27437Y105714D01*
X-27432Y105719D01*
X-27427Y105716D01*
X-25833Y106200D01*
X-25829Y106206D01*
X-25824Y106204D01*
X-24354Y106989D01*
X-24351Y106996D01*
X-24346Y106994D01*
X-23058Y108052D01*
X-23057Y108059D01*
X-23052Y108058D01*
X-21994Y109346D01*
X-21994Y109354D01*
X-21989Y109354D01*
X-21204Y110824D01*
X-21205Y110831D01*
X-21200Y110833D01*
X-20716Y112427D01*
X-20718Y112431D01*
X-20716Y112432D01*
X-20717Y112435D01*
X-20714Y112437D01*
X-20551Y114095D01*
X-20553Y114098D01*
X-20551Y114100D01*
X-20551Y132100D01*
X-20553Y132103D01*
X-20551Y132105D01*
X-20714Y133763D01*
X-20719Y133768D01*
X-20716Y133773D01*
X-21200Y135367D01*
X-21206Y135371D01*
X-21204Y135376D01*
X-21989Y136846D01*
X-21996Y136849D01*
X-21994Y136854D01*
X-23052Y138142D01*
X-23059Y138143D01*
X-23058Y138148D01*
X-24346Y139206D01*
X-24354Y139206D01*
X-24354Y139211D01*
X-25824Y139996D01*
X-25831Y139995D01*
X-25833Y140000D01*
X-27427Y140484D01*
X-27434Y140481D01*
X-27437Y140486D01*
X-29095Y140649D01*
X-29101Y140645D01*
X-29105Y140649D01*
X-30763Y140486D01*
X-30768Y140481D01*
X-30773Y140484D01*
X-32367Y140000D01*
X-32371Y139994D01*
X-32376Y139996D01*
X-33846Y139211D01*
X-33849Y139204D01*
X-33854Y139206D01*
X-35142Y138148D01*
X-35143Y138141D01*
X-35148Y138142D01*
X-36206Y136854D01*
X-36206Y136846D01*
X-36211Y136846D01*
X-36996Y135376D01*
X-36995Y135369D01*
X-37000Y135367D01*
X-37484Y133773D01*
X-37481Y133766D01*
X-37486Y133763D01*
X-37649Y132105D01*
X-37647Y132102D01*
X-37649Y132100D01*
X-37649Y114100D01*
X-37647Y114097D01*
X-37649Y114095D01*
X-37486Y112437D01*
X-37481Y112432D01*
X-37484Y112427D01*
X-37000Y110833D01*
X-36994Y110829D01*
X-36996Y110824D01*
X-36211Y109354D01*
X-36204Y109351D01*
X-36206Y109346D01*
X-35148Y108058D01*
X-35141Y108057D01*
X-35142Y108052D01*
X-33854Y106994D01*
X-33846Y106994D01*
X-33846Y106989D01*
X-32376Y106204D01*
X-32369Y106205D01*
X-32367Y106200D01*
X-30773Y105716D01*
X-30766Y105719D01*
X-30763Y105714D01*
X-29105Y105551D01*
X-29099Y105555D01*
X-29095Y105551D01*
X-27437Y105714D01*
G37*
G36*
X239263Y105714D02*
X239263Y105714D01*
X239268Y105719D01*
X239273Y105716D01*
X240867Y106200D01*
X240871Y106206D01*
X240876Y106204D01*
X242346Y106989D01*
X242349Y106996D01*
X242354Y106994D01*
X243642Y108052D01*
X243643Y108059D01*
X243648Y108058D01*
X244706Y109346D01*
X244706Y109354D01*
X244711Y109354D01*
X245496Y110824D01*
X245495Y110831D01*
X245500Y110833D01*
X245984Y112427D01*
X245983Y112431D01*
X245985Y112432D01*
X245983Y112435D01*
X245986Y112437D01*
X246149Y114095D01*
X246147Y114098D01*
X246149Y114100D01*
X246149Y132100D01*
X246147Y132103D01*
X246149Y132105D01*
X245986Y133763D01*
X245981Y133768D01*
X245984Y133773D01*
X245500Y135367D01*
X245494Y135371D01*
X245496Y135376D01*
X244711Y136846D01*
X244704Y136849D01*
X244706Y136854D01*
X243648Y138142D01*
X243641Y138143D01*
X243642Y138148D01*
X242354Y139206D01*
X242346Y139206D01*
X242346Y139211D01*
X240876Y139996D01*
X240869Y139995D01*
X240867Y140000D01*
X239273Y140484D01*
X239266Y140481D01*
X239263Y140486D01*
X237605Y140649D01*
X237599Y140645D01*
X237595Y140649D01*
X235937Y140486D01*
X235932Y140481D01*
X235927Y140484D01*
X234333Y140000D01*
X234329Y139994D01*
X234324Y139996D01*
X232854Y139211D01*
X232851Y139204D01*
X232846Y139206D01*
X231558Y138148D01*
X231557Y138141D01*
X231552Y138142D01*
X230494Y136854D01*
X230494Y136846D01*
X230489Y136846D01*
X229704Y135376D01*
X229705Y135369D01*
X229700Y135367D01*
X229216Y133773D01*
X229219Y133766D01*
X229214Y133763D01*
X229051Y132105D01*
X229053Y132102D01*
X229051Y132100D01*
X229051Y114100D01*
X229053Y114097D01*
X229051Y114095D01*
X229214Y112437D01*
X229219Y112432D01*
X229216Y112427D01*
X229700Y110833D01*
X229706Y110829D01*
X229704Y110824D01*
X230489Y109354D01*
X230496Y109351D01*
X230494Y109346D01*
X231552Y108058D01*
X231559Y108057D01*
X231558Y108052D01*
X232846Y106994D01*
X232854Y106994D01*
X232854Y106989D01*
X234324Y106204D01*
X234331Y106205D01*
X234333Y106200D01*
X235927Y105716D01*
X235934Y105719D01*
X235937Y105714D01*
X237595Y105551D01*
X237601Y105555D01*
X237605Y105551D01*
X239263Y105714D01*
G37*
G36*
X508663Y431014D02*
X508663Y431014D01*
X508668Y431019D01*
X508673Y431016D01*
X510267Y431500D01*
X510271Y431506D01*
X510276Y431504D01*
X511746Y432289D01*
X511749Y432296D01*
X511754Y432294D01*
X513042Y433352D01*
X513043Y433359D01*
X513048Y433358D01*
X514106Y434646D01*
X514106Y434654D01*
X514111Y434654D01*
X514896Y436124D01*
X514895Y436131D01*
X514900Y436133D01*
X515384Y437727D01*
X515383Y437731D01*
X515384Y437732D01*
X515383Y437735D01*
X515386Y437737D01*
X515549Y439395D01*
X515547Y439398D01*
X515549Y439400D01*
X515549Y447400D01*
X515547Y447403D01*
X515549Y447405D01*
X515386Y449063D01*
X515381Y449068D01*
X515384Y449073D01*
X514900Y450667D01*
X514894Y450671D01*
X514896Y450676D01*
X514111Y452146D01*
X514104Y452149D01*
X514106Y452154D01*
X513048Y453442D01*
X513041Y453443D01*
X513042Y453448D01*
X511754Y454506D01*
X511746Y454506D01*
X511746Y454511D01*
X510276Y455296D01*
X510269Y455295D01*
X510267Y455300D01*
X508673Y455784D01*
X508666Y455781D01*
X508663Y455786D01*
X507005Y455949D01*
X506999Y455945D01*
X506995Y455949D01*
X505337Y455786D01*
X505332Y455781D01*
X505327Y455784D01*
X503733Y455300D01*
X503729Y455294D01*
X503724Y455296D01*
X502254Y454511D01*
X502251Y454504D01*
X502246Y454506D01*
X500958Y453448D01*
X500957Y453441D01*
X500952Y453442D01*
X499894Y452154D01*
X499894Y452146D01*
X499889Y452146D01*
X499104Y450676D01*
X499105Y450669D01*
X499100Y450667D01*
X498616Y449073D01*
X498619Y449066D01*
X498614Y449063D01*
X498451Y447405D01*
X498453Y447402D01*
X498451Y447400D01*
X498451Y439400D01*
X498453Y439397D01*
X498451Y439395D01*
X498614Y437737D01*
X498619Y437732D01*
X498616Y437727D01*
X499100Y436133D01*
X499106Y436129D01*
X499104Y436124D01*
X499889Y434654D01*
X499896Y434651D01*
X499894Y434646D01*
X500952Y433358D01*
X500959Y433357D01*
X500958Y433352D01*
X502246Y432294D01*
X502254Y432294D01*
X502254Y432289D01*
X503724Y431504D01*
X503731Y431505D01*
X503733Y431500D01*
X505327Y431016D01*
X505334Y431019D01*
X505337Y431014D01*
X506995Y430851D01*
X507001Y430855D01*
X507005Y430851D01*
X508663Y431014D01*
G37*
G36*
X363663Y431014D02*
X363663Y431014D01*
X363668Y431019D01*
X363673Y431016D01*
X365267Y431500D01*
X365271Y431506D01*
X365276Y431504D01*
X366746Y432289D01*
X366749Y432296D01*
X366754Y432294D01*
X368042Y433352D01*
X368043Y433359D01*
X368048Y433358D01*
X369106Y434646D01*
X369106Y434654D01*
X369111Y434654D01*
X369896Y436124D01*
X369895Y436131D01*
X369900Y436133D01*
X370384Y437727D01*
X370383Y437731D01*
X370384Y437732D01*
X370383Y437735D01*
X370386Y437737D01*
X370549Y439395D01*
X370547Y439398D01*
X370549Y439400D01*
X370549Y447400D01*
X370547Y447403D01*
X370549Y447405D01*
X370386Y449063D01*
X370381Y449068D01*
X370384Y449073D01*
X369900Y450667D01*
X369894Y450671D01*
X369896Y450676D01*
X369111Y452146D01*
X369104Y452149D01*
X369106Y452154D01*
X368048Y453442D01*
X368041Y453443D01*
X368042Y453448D01*
X366754Y454506D01*
X366746Y454506D01*
X366746Y454511D01*
X365276Y455296D01*
X365269Y455295D01*
X365267Y455300D01*
X363673Y455784D01*
X363666Y455781D01*
X363663Y455786D01*
X362005Y455949D01*
X361999Y455945D01*
X361995Y455949D01*
X360337Y455786D01*
X360332Y455781D01*
X360327Y455784D01*
X358733Y455300D01*
X358729Y455294D01*
X358724Y455296D01*
X357254Y454511D01*
X357251Y454504D01*
X357246Y454506D01*
X355958Y453448D01*
X355957Y453441D01*
X355952Y453442D01*
X354894Y452154D01*
X354894Y452146D01*
X354889Y452146D01*
X354104Y450676D01*
X354105Y450669D01*
X354100Y450667D01*
X353616Y449073D01*
X353619Y449066D01*
X353614Y449063D01*
X353451Y447405D01*
X353453Y447402D01*
X353451Y447400D01*
X353451Y439400D01*
X353453Y439397D01*
X353451Y439395D01*
X353614Y437737D01*
X353619Y437732D01*
X353616Y437727D01*
X354100Y436133D01*
X354106Y436129D01*
X354104Y436124D01*
X354889Y434654D01*
X354896Y434651D01*
X354894Y434646D01*
X355952Y433358D01*
X355959Y433357D01*
X355958Y433352D01*
X357246Y432294D01*
X357254Y432294D01*
X357254Y432289D01*
X358724Y431504D01*
X358731Y431505D01*
X358733Y431500D01*
X360327Y431016D01*
X360334Y431019D01*
X360337Y431014D01*
X361995Y430851D01*
X362001Y430855D01*
X362005Y430851D01*
X363663Y431014D01*
G37*
G36*
X505963Y51114D02*
X505963Y51114D01*
X505968Y51119D01*
X505973Y51116D01*
X507567Y51600D01*
X507571Y51606D01*
X507576Y51604D01*
X509046Y52389D01*
X509049Y52396D01*
X509054Y52394D01*
X510342Y53452D01*
X510343Y53459D01*
X510348Y53458D01*
X511406Y54746D01*
X511406Y54754D01*
X511411Y54754D01*
X512196Y56224D01*
X512195Y56231D01*
X512200Y56233D01*
X512684Y57827D01*
X512683Y57831D01*
X512684Y57832D01*
X512683Y57835D01*
X512686Y57837D01*
X512849Y59495D01*
X512847Y59498D01*
X512849Y59500D01*
X512849Y67500D01*
X512847Y67503D01*
X512849Y67505D01*
X512686Y69163D01*
X512681Y69168D01*
X512684Y69173D01*
X512200Y70767D01*
X512194Y70771D01*
X512196Y70776D01*
X511411Y72246D01*
X511404Y72249D01*
X511406Y72254D01*
X510348Y73542D01*
X510341Y73543D01*
X510342Y73548D01*
X509054Y74606D01*
X509046Y74606D01*
X509046Y74611D01*
X507576Y75396D01*
X507569Y75395D01*
X507567Y75400D01*
X505973Y75884D01*
X505966Y75881D01*
X505963Y75886D01*
X504305Y76049D01*
X504299Y76045D01*
X504295Y76049D01*
X502637Y75886D01*
X502632Y75881D01*
X502627Y75884D01*
X501033Y75400D01*
X501029Y75394D01*
X501024Y75396D01*
X499554Y74611D01*
X499551Y74604D01*
X499546Y74606D01*
X498258Y73548D01*
X498257Y73541D01*
X498252Y73542D01*
X497194Y72254D01*
X497194Y72246D01*
X497189Y72246D01*
X496404Y70776D01*
X496405Y70769D01*
X496400Y70767D01*
X495916Y69173D01*
X495919Y69166D01*
X495914Y69163D01*
X495751Y67505D01*
X495753Y67502D01*
X495751Y67500D01*
X495751Y59500D01*
X495753Y59497D01*
X495751Y59495D01*
X495914Y57837D01*
X495919Y57832D01*
X495916Y57827D01*
X496400Y56233D01*
X496406Y56229D01*
X496404Y56224D01*
X497189Y54754D01*
X497196Y54751D01*
X497194Y54746D01*
X498252Y53458D01*
X498259Y53457D01*
X498258Y53452D01*
X499546Y52394D01*
X499554Y52394D01*
X499554Y52389D01*
X501024Y51604D01*
X501031Y51605D01*
X501033Y51600D01*
X502627Y51116D01*
X502634Y51119D01*
X502637Y51114D01*
X504295Y50951D01*
X504301Y50955D01*
X504305Y50951D01*
X505963Y51114D01*
G37*
G36*
X94263Y51114D02*
X94263Y51114D01*
X94268Y51119D01*
X94273Y51116D01*
X95867Y51600D01*
X95871Y51606D01*
X95876Y51604D01*
X97346Y52389D01*
X97349Y52396D01*
X97354Y52394D01*
X98642Y53452D01*
X98643Y53459D01*
X98648Y53458D01*
X99706Y54746D01*
X99706Y54754D01*
X99711Y54754D01*
X100496Y56224D01*
X100495Y56231D01*
X100500Y56233D01*
X100984Y57827D01*
X100983Y57831D01*
X100984Y57832D01*
X100983Y57835D01*
X100986Y57837D01*
X101149Y59495D01*
X101147Y59498D01*
X101149Y59500D01*
X101149Y67500D01*
X101147Y67503D01*
X101149Y67505D01*
X100986Y69163D01*
X100981Y69168D01*
X100984Y69173D01*
X100500Y70767D01*
X100494Y70771D01*
X100496Y70776D01*
X99711Y72246D01*
X99704Y72249D01*
X99706Y72254D01*
X98648Y73542D01*
X98641Y73543D01*
X98642Y73548D01*
X97354Y74606D01*
X97346Y74606D01*
X97346Y74611D01*
X95876Y75396D01*
X95869Y75395D01*
X95867Y75400D01*
X94273Y75884D01*
X94266Y75881D01*
X94263Y75886D01*
X92605Y76049D01*
X92599Y76045D01*
X92595Y76049D01*
X90937Y75886D01*
X90932Y75881D01*
X90927Y75884D01*
X89333Y75400D01*
X89329Y75394D01*
X89324Y75396D01*
X87854Y74611D01*
X87851Y74604D01*
X87846Y74606D01*
X86558Y73548D01*
X86557Y73541D01*
X86552Y73542D01*
X85494Y72254D01*
X85494Y72246D01*
X85489Y72246D01*
X84704Y70776D01*
X84705Y70769D01*
X84700Y70767D01*
X84216Y69173D01*
X84219Y69166D01*
X84214Y69163D01*
X84051Y67505D01*
X84053Y67502D01*
X84051Y67500D01*
X84051Y59500D01*
X84053Y59497D01*
X84051Y59495D01*
X84214Y57837D01*
X84219Y57832D01*
X84216Y57827D01*
X84700Y56233D01*
X84706Y56229D01*
X84704Y56224D01*
X85489Y54754D01*
X85496Y54751D01*
X85494Y54746D01*
X86552Y53458D01*
X86559Y53457D01*
X86558Y53452D01*
X87846Y52394D01*
X87854Y52394D01*
X87854Y52389D01*
X89324Y51604D01*
X89331Y51605D01*
X89333Y51600D01*
X90927Y51116D01*
X90934Y51119D01*
X90937Y51114D01*
X92595Y50951D01*
X92601Y50955D01*
X92605Y50951D01*
X94263Y51114D01*
G37*
G36*
X239263Y51114D02*
X239263Y51114D01*
X239268Y51119D01*
X239273Y51116D01*
X240867Y51600D01*
X240871Y51606D01*
X240876Y51604D01*
X242346Y52389D01*
X242349Y52396D01*
X242354Y52394D01*
X243642Y53452D01*
X243643Y53459D01*
X243648Y53458D01*
X244706Y54746D01*
X244706Y54754D01*
X244711Y54754D01*
X245496Y56224D01*
X245495Y56231D01*
X245500Y56233D01*
X245984Y57827D01*
X245983Y57831D01*
X245984Y57832D01*
X245983Y57835D01*
X245986Y57837D01*
X246149Y59495D01*
X246147Y59498D01*
X246149Y59500D01*
X246149Y67500D01*
X246147Y67503D01*
X246149Y67505D01*
X245986Y69163D01*
X245981Y69168D01*
X245984Y69173D01*
X245500Y70767D01*
X245494Y70771D01*
X245496Y70776D01*
X244711Y72246D01*
X244704Y72249D01*
X244706Y72254D01*
X243648Y73542D01*
X243641Y73543D01*
X243642Y73548D01*
X242354Y74606D01*
X242346Y74606D01*
X242346Y74611D01*
X240876Y75396D01*
X240869Y75395D01*
X240867Y75400D01*
X239273Y75884D01*
X239266Y75881D01*
X239263Y75886D01*
X237605Y76049D01*
X237599Y76045D01*
X237595Y76049D01*
X235937Y75886D01*
X235932Y75881D01*
X235927Y75884D01*
X234333Y75400D01*
X234329Y75394D01*
X234324Y75396D01*
X232854Y74611D01*
X232851Y74604D01*
X232846Y74606D01*
X231558Y73548D01*
X231557Y73541D01*
X231552Y73542D01*
X230494Y72254D01*
X230494Y72246D01*
X230489Y72246D01*
X229704Y70776D01*
X229705Y70769D01*
X229700Y70767D01*
X229216Y69173D01*
X229219Y69166D01*
X229214Y69163D01*
X229051Y67505D01*
X229053Y67502D01*
X229051Y67500D01*
X229051Y59500D01*
X229053Y59497D01*
X229051Y59495D01*
X229214Y57837D01*
X229219Y57832D01*
X229216Y57827D01*
X229700Y56233D01*
X229706Y56229D01*
X229704Y56224D01*
X230489Y54754D01*
X230496Y54751D01*
X230494Y54746D01*
X231552Y53458D01*
X231559Y53457D01*
X231558Y53452D01*
X232846Y52394D01*
X232854Y52394D01*
X232854Y52389D01*
X234324Y51604D01*
X234331Y51605D01*
X234333Y51600D01*
X235927Y51116D01*
X235934Y51119D01*
X235937Y51114D01*
X237595Y50951D01*
X237601Y50955D01*
X237605Y50951D01*
X239263Y51114D01*
G37*
G36*
X-27437Y51114D02*
X-27437Y51114D01*
X-27432Y51119D01*
X-27427Y51116D01*
X-25833Y51600D01*
X-25829Y51606D01*
X-25824Y51604D01*
X-24354Y52389D01*
X-24351Y52396D01*
X-24346Y52394D01*
X-23058Y53452D01*
X-23057Y53459D01*
X-23052Y53458D01*
X-21994Y54746D01*
X-21994Y54754D01*
X-21989Y54754D01*
X-21204Y56224D01*
X-21205Y56231D01*
X-21200Y56233D01*
X-20716Y57827D01*
X-20718Y57831D01*
X-20716Y57832D01*
X-20717Y57835D01*
X-20714Y57837D01*
X-20551Y59495D01*
X-20553Y59498D01*
X-20551Y59500D01*
X-20551Y67500D01*
X-20553Y67503D01*
X-20551Y67505D01*
X-20714Y69163D01*
X-20719Y69168D01*
X-20716Y69173D01*
X-21200Y70767D01*
X-21206Y70771D01*
X-21204Y70776D01*
X-21989Y72246D01*
X-21996Y72249D01*
X-21994Y72254D01*
X-23052Y73542D01*
X-23059Y73543D01*
X-23058Y73548D01*
X-24346Y74606D01*
X-24354Y74606D01*
X-24354Y74611D01*
X-25824Y75396D01*
X-25831Y75395D01*
X-25833Y75400D01*
X-27427Y75884D01*
X-27434Y75881D01*
X-27437Y75886D01*
X-29095Y76049D01*
X-29101Y76045D01*
X-29105Y76049D01*
X-30763Y75886D01*
X-30768Y75881D01*
X-30773Y75884D01*
X-32367Y75400D01*
X-32371Y75394D01*
X-32376Y75396D01*
X-33846Y74611D01*
X-33849Y74604D01*
X-33854Y74606D01*
X-35142Y73548D01*
X-35143Y73541D01*
X-35148Y73542D01*
X-36206Y72254D01*
X-36206Y72246D01*
X-36211Y72246D01*
X-36996Y70776D01*
X-36995Y70769D01*
X-37000Y70767D01*
X-37484Y69173D01*
X-37481Y69166D01*
X-37486Y69163D01*
X-37649Y67505D01*
X-37647Y67502D01*
X-37649Y67500D01*
X-37649Y59500D01*
X-37647Y59497D01*
X-37649Y59495D01*
X-37486Y57837D01*
X-37481Y57832D01*
X-37484Y57827D01*
X-37000Y56233D01*
X-36994Y56229D01*
X-36996Y56224D01*
X-36211Y54754D01*
X-36204Y54751D01*
X-36206Y54746D01*
X-35148Y53458D01*
X-35141Y53457D01*
X-35142Y53452D01*
X-33854Y52394D01*
X-33846Y52394D01*
X-33846Y52389D01*
X-32376Y51604D01*
X-32369Y51605D01*
X-32367Y51600D01*
X-30773Y51116D01*
X-30766Y51119D01*
X-30763Y51114D01*
X-29105Y50951D01*
X-29099Y50955D01*
X-29095Y50951D01*
X-27437Y51114D01*
G37*
G36*
X360963Y51114D02*
X360963Y51114D01*
X360968Y51119D01*
X360973Y51116D01*
X362567Y51600D01*
X362571Y51606D01*
X362576Y51604D01*
X364046Y52389D01*
X364049Y52396D01*
X364054Y52394D01*
X365342Y53452D01*
X365343Y53459D01*
X365348Y53458D01*
X366406Y54746D01*
X366406Y54754D01*
X366411Y54754D01*
X367196Y56224D01*
X367195Y56231D01*
X367200Y56233D01*
X367684Y57827D01*
X367683Y57831D01*
X367684Y57832D01*
X367683Y57835D01*
X367686Y57837D01*
X367849Y59495D01*
X367847Y59498D01*
X367849Y59500D01*
X367849Y67500D01*
X367847Y67503D01*
X367849Y67505D01*
X367686Y69163D01*
X367681Y69168D01*
X367684Y69173D01*
X367200Y70767D01*
X367194Y70771D01*
X367196Y70776D01*
X366411Y72246D01*
X366404Y72249D01*
X366406Y72254D01*
X365348Y73542D01*
X365341Y73543D01*
X365342Y73548D01*
X364054Y74606D01*
X364046Y74606D01*
X364046Y74611D01*
X362576Y75396D01*
X362569Y75395D01*
X362567Y75400D01*
X360973Y75884D01*
X360966Y75881D01*
X360963Y75886D01*
X359305Y76049D01*
X359299Y76045D01*
X359295Y76049D01*
X357637Y75886D01*
X357632Y75881D01*
X357627Y75884D01*
X356033Y75400D01*
X356029Y75394D01*
X356024Y75396D01*
X354554Y74611D01*
X354551Y74604D01*
X354546Y74606D01*
X353258Y73548D01*
X353257Y73541D01*
X353252Y73542D01*
X352194Y72254D01*
X352194Y72246D01*
X352189Y72246D01*
X351404Y70776D01*
X351405Y70769D01*
X351400Y70767D01*
X350916Y69173D01*
X350919Y69166D01*
X350914Y69163D01*
X350751Y67505D01*
X350753Y67502D01*
X350751Y67500D01*
X350751Y59500D01*
X350753Y59497D01*
X350751Y59495D01*
X350914Y57837D01*
X350919Y57832D01*
X350916Y57827D01*
X351400Y56233D01*
X351406Y56229D01*
X351404Y56224D01*
X352189Y54754D01*
X352196Y54751D01*
X352194Y54746D01*
X353252Y53458D01*
X353259Y53457D01*
X353258Y53452D01*
X354546Y52394D01*
X354554Y52394D01*
X354554Y52389D01*
X356024Y51604D01*
X356031Y51605D01*
X356033Y51600D01*
X357627Y51116D01*
X357634Y51119D01*
X357637Y51114D01*
X359295Y50951D01*
X359301Y50955D01*
X359305Y50951D01*
X360963Y51114D01*
G37*
G36*
X-172437Y51114D02*
X-172437Y51114D01*
X-172432Y51119D01*
X-172427Y51116D01*
X-170833Y51600D01*
X-170829Y51606D01*
X-170824Y51604D01*
X-169354Y52389D01*
X-169351Y52396D01*
X-169346Y52394D01*
X-168058Y53452D01*
X-168057Y53459D01*
X-168052Y53458D01*
X-166994Y54746D01*
X-166994Y54754D01*
X-166989Y54754D01*
X-166204Y56224D01*
X-166205Y56231D01*
X-166200Y56233D01*
X-165716Y57827D01*
X-165718Y57831D01*
X-165716Y57832D01*
X-165717Y57835D01*
X-165714Y57837D01*
X-165551Y59495D01*
X-165553Y59498D01*
X-165551Y59500D01*
X-165551Y67500D01*
X-165553Y67503D01*
X-165551Y67505D01*
X-165714Y69163D01*
X-165719Y69168D01*
X-165716Y69173D01*
X-166200Y70767D01*
X-166206Y70771D01*
X-166204Y70776D01*
X-166989Y72246D01*
X-166996Y72249D01*
X-166994Y72254D01*
X-168052Y73542D01*
X-168059Y73543D01*
X-168058Y73548D01*
X-169346Y74606D01*
X-169354Y74606D01*
X-169354Y74611D01*
X-170824Y75396D01*
X-170831Y75395D01*
X-170833Y75400D01*
X-172427Y75884D01*
X-172434Y75881D01*
X-172437Y75886D01*
X-174095Y76049D01*
X-174101Y76045D01*
X-174105Y76049D01*
X-175763Y75886D01*
X-175768Y75881D01*
X-175773Y75884D01*
X-177367Y75400D01*
X-177371Y75394D01*
X-177376Y75396D01*
X-178846Y74611D01*
X-178849Y74604D01*
X-178854Y74606D01*
X-180142Y73548D01*
X-180143Y73541D01*
X-180148Y73542D01*
X-181206Y72254D01*
X-181206Y72246D01*
X-181211Y72246D01*
X-181996Y70776D01*
X-181995Y70769D01*
X-182000Y70767D01*
X-182484Y69173D01*
X-182481Y69166D01*
X-182486Y69163D01*
X-182649Y67505D01*
X-182647Y67502D01*
X-182649Y67500D01*
X-182649Y59500D01*
X-182647Y59497D01*
X-182649Y59495D01*
X-182486Y57837D01*
X-182481Y57832D01*
X-182484Y57827D01*
X-182000Y56233D01*
X-181994Y56229D01*
X-181996Y56224D01*
X-181211Y54754D01*
X-181204Y54751D01*
X-181206Y54746D01*
X-180148Y53458D01*
X-180141Y53457D01*
X-180142Y53452D01*
X-178854Y52394D01*
X-178846Y52394D01*
X-178846Y52389D01*
X-177376Y51604D01*
X-177369Y51605D01*
X-177367Y51600D01*
X-175773Y51116D01*
X-175766Y51119D01*
X-175763Y51114D01*
X-174105Y50951D01*
X-174099Y50955D01*
X-174095Y50951D01*
X-172437Y51114D01*
G37*
D10*
X-214600Y443400D03*
X-215900Y63500D03*
X535000Y443400D03*
X535000Y63500D03*
D11*
X167800Y400700D03*
D12*
X386800Y130700D03*
X476800Y130700D03*
X431800Y130700D03*
X456800Y130700D03*
X406800Y130700D03*
X396800Y130700D03*
X391800Y130700D03*
X401800Y130700D03*
X411800Y130700D03*
X416800Y130700D03*
X421800Y130700D03*
X426800Y130700D03*
X436800Y130700D03*
X441800Y130700D03*
X446800Y130700D03*
X451800Y130700D03*
X461800Y130700D03*
X466800Y130700D03*
X471800Y130700D03*
X479500Y376200D03*
X389500Y376200D03*
X434500Y376200D03*
X409500Y376200D03*
X459500Y376200D03*
X469500Y376200D03*
X474500Y376200D03*
X464500Y376200D03*
X454500Y376200D03*
X449500Y376200D03*
X444500Y376200D03*
X439500Y376200D03*
X429500Y376200D03*
X424500Y376200D03*
X419500Y376200D03*
X414500Y376200D03*
X404500Y376200D03*
X399500Y376200D03*
X394500Y376200D03*
X-146600Y130700D03*
X-56600Y130700D03*
X-101600Y130700D03*
X-76600Y130700D03*
X-126600Y130700D03*
X-136600Y130700D03*
X-141600Y130700D03*
X-131600Y130700D03*
X-121600Y130700D03*
X-116600Y130700D03*
X-111600Y130700D03*
X-106600Y130700D03*
X-96600Y130700D03*
X-91600Y130700D03*
X-86600Y130700D03*
X-81600Y130700D03*
X-71600Y130700D03*
X-66600Y130700D03*
X-61600Y130700D03*
X120100Y130700D03*
X210100Y130700D03*
X165100Y130700D03*
X190100Y130700D03*
X140100Y130700D03*
X130100Y130700D03*
X125100Y130700D03*
X135100Y130700D03*
X145100Y130700D03*
X150100Y130700D03*
X155100Y130700D03*
X160100Y130700D03*
X170100Y130700D03*
X175100Y130700D03*
X180100Y130700D03*
X185100Y130700D03*
X195100Y130700D03*
X200100Y130700D03*
X205100Y130700D03*
D13*
X105250Y299692D03*
X105250Y294612D03*
X105250Y289532D03*
X105250Y284706D03*
X105250Y279626D03*
X105250Y274546D03*
X105250Y269720D03*
X105250Y264640D03*
X105250Y259560D03*
X105250Y254480D03*
X105250Y249654D03*
X105250Y244574D03*
X105250Y239494D03*
X105250Y234668D03*
X105250Y229588D03*
X105250Y224508D03*
D14*
X124808Y204950D03*
X129888Y204950D03*
X134968Y204950D03*
X139794Y204950D03*
X144874Y204950D03*
X149954Y204950D03*
X154780Y204950D03*
X159860Y204950D03*
X164940Y204950D03*
X170020Y204950D03*
X174846Y204950D03*
X179926Y204950D03*
X185006Y204950D03*
X189832Y204950D03*
X194912Y204950D03*
X199992Y204950D03*
D13*
X219550Y224508D03*
X219550Y229588D03*
X219550Y234668D03*
X219550Y239494D03*
X219550Y244574D03*
X219550Y249654D03*
X219550Y254480D03*
X219550Y259560D03*
X219550Y264640D03*
X219550Y269720D03*
X219550Y274546D03*
X219550Y279626D03*
X219550Y284706D03*
X219550Y289532D03*
X219550Y294612D03*
X219550Y299692D03*
D14*
X199992Y319250D03*
X194912Y319250D03*
X189832Y319250D03*
X185006Y319250D03*
X179926Y319250D03*
X174846Y319250D03*
X170020Y319250D03*
X164940Y319250D03*
X159860Y319250D03*
X154780Y319250D03*
X149954Y319250D03*
X144874Y319250D03*
X139794Y319250D03*
X134968Y319250D03*
X129888Y319250D03*
X124808Y319250D03*
D15*
X-45200Y234800D03*
X-19800Y234800D03*
X-19800Y311000D03*
X-45200Y311000D03*
X5600Y234800D03*
X31000Y234800D03*
X5600Y311000D03*
X31000Y311000D03*
D16*
X415364Y309514D02*
X431436Y309514D01*
X415364Y309514D02*
X415364Y312486D01*
X431436Y312486D01*
X431436Y309514D01*
X431436Y296814D02*
X415364Y296814D01*
X415364Y299786D01*
X431436Y299786D01*
X431436Y296814D01*
X431436Y284114D02*
X415364Y284114D01*
X415364Y287086D01*
X431436Y287086D01*
X431436Y284114D01*
X431436Y271414D02*
X415364Y271414D01*
X415364Y274386D01*
X431436Y274386D01*
X431436Y271414D01*
X431436Y258714D02*
X415364Y258714D01*
X415364Y261686D01*
X431436Y261686D01*
X431436Y258714D01*
X431436Y246014D02*
X415364Y246014D01*
X415364Y248986D01*
X431436Y248986D01*
X431436Y246014D01*
X431436Y233314D02*
X415364Y233314D01*
X415364Y236286D01*
X431436Y236286D01*
X431436Y233314D01*
X464564Y233314D02*
X480636Y233314D01*
X464564Y233314D02*
X464564Y236286D01*
X480636Y236286D01*
X480636Y233314D01*
X480636Y246014D02*
X464564Y246014D01*
X464564Y248986D01*
X480636Y248986D01*
X480636Y246014D01*
X480636Y258714D02*
X464564Y258714D01*
X464564Y261686D01*
X480636Y261686D01*
X480636Y258714D01*
X480636Y271414D02*
X464564Y271414D01*
X464564Y274386D01*
X480636Y274386D01*
X480636Y271414D01*
X480636Y284114D02*
X464564Y284114D01*
X464564Y287086D01*
X480636Y287086D01*
X480636Y284114D01*
X480636Y296814D02*
X464564Y296814D01*
X464564Y299786D01*
X480636Y299786D01*
X480636Y296814D01*
X480636Y309514D02*
X464564Y309514D01*
X464564Y312486D01*
X480636Y312486D01*
X480636Y309514D01*
D11*
X294800Y400700D03*
X254000Y400700D03*
X215900Y400700D03*
D17*
X299100Y268600D03*
D18*
X324500Y268600D03*
X349900Y268600D03*
D19*
X161080Y186068D03*
X230000Y170000D03*
X170000Y190000D03*
X230047Y179953D03*
X109017Y200000D03*
X190000Y150000D03*
X104816Y190000D03*
X180000Y110000D03*
X120000Y190000D03*
X220000Y150000D03*
X118105Y200000D03*
X210000Y150000D03*
X440000Y350000D03*
X540000Y330000D03*
X320000Y80000D03*
X280000Y80000D03*
X425732Y170092D03*
X360000Y166068D03*
X160000Y110000D03*
X170000Y90000D03*
X420000Y350000D03*
X530000Y330000D03*
X320000Y90000D03*
X280000Y90000D03*
X440000Y160000D03*
X350000Y162136D03*
X170000Y110000D03*
X190000Y90000D03*
X410000Y350000D03*
X520000Y330000D03*
X320000Y100000D03*
X280000Y100000D03*
X450000Y160000D03*
X340000Y156068D03*
X190100Y110000D03*
X200000Y96068D03*
X400000Y350000D03*
X510368Y330000D03*
X320000Y110000D03*
X280000Y110000D03*
X470000Y150000D03*
X350000Y150000D03*
X-50000Y110000D03*
X-70000Y110000D03*
X-85532Y110000D03*
X120000Y249088D03*
X120000Y282136D03*
X398432Y404272D03*
X429500Y403204D03*
X413932Y403772D03*
X446068Y394506D03*
X180000Y420000D03*
X200000Y410000D03*
X428399Y103020D03*
X470000Y110000D03*
X440000Y110000D03*
X452868Y110000D03*
X129718Y260642D03*
X79530Y270000D03*
X206878Y268478D03*
X197375Y280614D03*
X206878Y240000D03*
X130000Y270000D03*
X72164Y250000D03*
X235626Y268478D03*
X240000Y280614D03*
X90000Y432164D03*
X90000Y420000D03*
X90000Y335318D03*
X90000Y320000D03*
X70000Y290000D03*
X190000Y306578D03*
X-120000Y160000D03*
X-120000Y340000D03*
X150000Y110000D03*
X150000Y73932D03*
X410000Y70000D03*
X411160Y111160D03*
X266068Y220000D03*
X260000Y260000D03*
X486068Y350000D03*
X470000Y350000D03*
X119243Y159243D03*
X129032Y149455D03*
X149954Y189954D03*
X179148Y190852D03*
X20000Y184800D03*
X90000Y190000D03*
X90527Y261945D03*
X90000Y217805D03*
X90000Y290000D03*
X150000Y278932D03*
X156022Y296821D03*
X370000Y173932D03*
X370000Y220000D03*
X390000Y110000D03*
X390000Y80000D03*
X120000Y110000D03*
X120000Y80000D03*
X142004Y306578D03*
X164940Y226137D03*
X140000Y190000D03*
X136503Y244574D03*
X120000Y240000D03*
X140000Y280000D03*
X260000Y270000D03*
X240000Y260000D03*
X240000Y228600D03*
X171008Y300000D03*
X450000Y250000D03*
X450000Y260000D03*
X210000Y200000D03*
X230047Y210047D03*
X270000Y333932D03*
X270000Y360000D03*
X320000Y333932D03*
X320000Y360000D03*
X330000Y330000D03*
X330000Y360000D03*
M02*
