G04 EAGLE Gerber RS-274X export*
G75*
%MOMM*%
%FSLAX34Y34*%
%LPD*%
%INSolderpaste Top*%
%IPPOS*%
%AMOC8*
5,1,8,0,0,1.08239X$1,22.5*%
G01*
%ADD10R,0.300000X2.600000*%
%ADD11R,1.473200X0.279400*%
%ADD12R,0.279400X1.473200*%
%ADD13C,0.300000*%


D10*
X386800Y130700D03*
X476800Y130700D03*
X431800Y130700D03*
X456800Y130700D03*
X406800Y130700D03*
X396800Y130700D03*
X391800Y130700D03*
X401800Y130700D03*
X411800Y130700D03*
X416800Y130700D03*
X421800Y130700D03*
X426800Y130700D03*
X436800Y130700D03*
X441800Y130700D03*
X446800Y130700D03*
X451800Y130700D03*
X461800Y130700D03*
X466800Y130700D03*
X471800Y130700D03*
X479500Y376200D03*
X389500Y376200D03*
X434500Y376200D03*
X409500Y376200D03*
X459500Y376200D03*
X469500Y376200D03*
X474500Y376200D03*
X464500Y376200D03*
X454500Y376200D03*
X449500Y376200D03*
X444500Y376200D03*
X439500Y376200D03*
X429500Y376200D03*
X424500Y376200D03*
X419500Y376200D03*
X414500Y376200D03*
X404500Y376200D03*
X399500Y376200D03*
X394500Y376200D03*
X-146600Y130700D03*
X-56600Y130700D03*
X-101600Y130700D03*
X-76600Y130700D03*
X-126600Y130700D03*
X-136600Y130700D03*
X-141600Y130700D03*
X-131600Y130700D03*
X-121600Y130700D03*
X-116600Y130700D03*
X-111600Y130700D03*
X-106600Y130700D03*
X-96600Y130700D03*
X-91600Y130700D03*
X-86600Y130700D03*
X-81600Y130700D03*
X-71600Y130700D03*
X-66600Y130700D03*
X-61600Y130700D03*
X120100Y130700D03*
X210100Y130700D03*
X165100Y130700D03*
X190100Y130700D03*
X140100Y130700D03*
X130100Y130700D03*
X125100Y130700D03*
X135100Y130700D03*
X145100Y130700D03*
X150100Y130700D03*
X155100Y130700D03*
X160100Y130700D03*
X170100Y130700D03*
X175100Y130700D03*
X180100Y130700D03*
X185100Y130700D03*
X195100Y130700D03*
X200100Y130700D03*
X205100Y130700D03*
D11*
X105250Y299692D03*
X105250Y294612D03*
X105250Y289532D03*
X105250Y284706D03*
X105250Y279626D03*
X105250Y274546D03*
X105250Y269720D03*
X105250Y264640D03*
X105250Y259560D03*
X105250Y254480D03*
X105250Y249654D03*
X105250Y244574D03*
X105250Y239494D03*
X105250Y234668D03*
X105250Y229588D03*
X105250Y224508D03*
D12*
X124808Y204950D03*
X129888Y204950D03*
X134968Y204950D03*
X139794Y204950D03*
X144874Y204950D03*
X149954Y204950D03*
X154780Y204950D03*
X159860Y204950D03*
X164940Y204950D03*
X170020Y204950D03*
X174846Y204950D03*
X179926Y204950D03*
X185006Y204950D03*
X189832Y204950D03*
X194912Y204950D03*
X199992Y204950D03*
D11*
X219550Y224508D03*
X219550Y229588D03*
X219550Y234668D03*
X219550Y239494D03*
X219550Y244574D03*
X219550Y249654D03*
X219550Y254480D03*
X219550Y259560D03*
X219550Y264640D03*
X219550Y269720D03*
X219550Y274546D03*
X219550Y279626D03*
X219550Y284706D03*
X219550Y289532D03*
X219550Y294612D03*
X219550Y299692D03*
D12*
X199992Y319250D03*
X194912Y319250D03*
X189832Y319250D03*
X185006Y319250D03*
X179926Y319250D03*
X174846Y319250D03*
X170020Y319250D03*
X164940Y319250D03*
X159860Y319250D03*
X154780Y319250D03*
X149954Y319250D03*
X144874Y319250D03*
X139794Y319250D03*
X134968Y319250D03*
X129888Y319250D03*
X124808Y319250D03*
D13*
X415350Y309500D02*
X431450Y309500D01*
X415350Y309500D02*
X415350Y312500D01*
X431450Y312500D01*
X431450Y309500D01*
X431450Y312350D02*
X415350Y312350D01*
X415350Y296800D02*
X431450Y296800D01*
X415350Y296800D02*
X415350Y299800D01*
X431450Y299800D01*
X431450Y296800D01*
X431450Y299650D02*
X415350Y299650D01*
X415350Y284100D02*
X431450Y284100D01*
X415350Y284100D02*
X415350Y287100D01*
X431450Y287100D01*
X431450Y284100D01*
X431450Y286950D02*
X415350Y286950D01*
X415350Y271400D02*
X431450Y271400D01*
X415350Y271400D02*
X415350Y274400D01*
X431450Y274400D01*
X431450Y271400D01*
X431450Y274250D02*
X415350Y274250D01*
X415350Y258700D02*
X431450Y258700D01*
X415350Y258700D02*
X415350Y261700D01*
X431450Y261700D01*
X431450Y258700D01*
X431450Y261550D02*
X415350Y261550D01*
X415350Y246000D02*
X431450Y246000D01*
X415350Y246000D02*
X415350Y249000D01*
X431450Y249000D01*
X431450Y246000D01*
X431450Y248850D02*
X415350Y248850D01*
X415350Y233300D02*
X431450Y233300D01*
X415350Y233300D02*
X415350Y236300D01*
X431450Y236300D01*
X431450Y233300D01*
X431450Y236150D02*
X415350Y236150D01*
X464550Y233300D02*
X480650Y233300D01*
X464550Y233300D02*
X464550Y236300D01*
X480650Y236300D01*
X480650Y233300D01*
X480650Y236150D02*
X464550Y236150D01*
X464550Y246000D02*
X480650Y246000D01*
X464550Y246000D02*
X464550Y249000D01*
X480650Y249000D01*
X480650Y246000D01*
X480650Y248850D02*
X464550Y248850D01*
X464550Y258700D02*
X480650Y258700D01*
X464550Y258700D02*
X464550Y261700D01*
X480650Y261700D01*
X480650Y258700D01*
X480650Y261550D02*
X464550Y261550D01*
X464550Y271400D02*
X480650Y271400D01*
X464550Y271400D02*
X464550Y274400D01*
X480650Y274400D01*
X480650Y271400D01*
X480650Y274250D02*
X464550Y274250D01*
X464550Y284100D02*
X480650Y284100D01*
X464550Y284100D02*
X464550Y287100D01*
X480650Y287100D01*
X480650Y284100D01*
X480650Y286950D02*
X464550Y286950D01*
X464550Y296800D02*
X480650Y296800D01*
X464550Y296800D02*
X464550Y299800D01*
X480650Y299800D01*
X480650Y296800D01*
X480650Y299650D02*
X464550Y299650D01*
X464550Y309500D02*
X480650Y309500D01*
X464550Y309500D02*
X464550Y312500D01*
X480650Y312500D01*
X480650Y309500D01*
X480650Y312350D02*
X464550Y312350D01*
M02*
