G04 EAGLE Gerber RS-274X export*
G75*
%MOMM*%
%FSLAX34Y34*%
%LPD*%
%INBottom Copper*%
%IPPOS*%
%AMOC8*
5,1,8,0,0,1.08239X$1,22.5*%
G01*
%ADD10C,1.620000*%
%ADD11C,1.463037*%
%ADD12R,2.232000X2.232000*%
%ADD13C,2.232000*%
%ADD14R,1.526000X0.435000*%
%ADD15C,4.284000*%
%ADD16R,1.300000X1.500000*%
%ADD17R,1.100000X1.000000*%
%ADD18C,0.191769*%
%ADD19C,0.502400*%
%ADD20C,0.304800*%
%ADD21C,0.152400*%
%ADD22C,0.200000*%

G36*
X473968Y493995D02*
X473968Y493995D01*
X473972Y493999D01*
X473975Y493999D01*
X473977Y493997D01*
X475384Y494424D01*
X475389Y494430D01*
X475393Y494427D01*
X476690Y495121D01*
X476693Y495127D01*
X476698Y495126D01*
X477835Y496059D01*
X477836Y496066D01*
X477841Y496065D01*
X478774Y497202D01*
X478774Y497209D01*
X478779Y497210D01*
X479473Y498507D01*
X479472Y498513D01*
X479475Y498515D01*
X479476Y498516D01*
X479626Y499009D01*
X479641Y499058D01*
X479865Y499797D01*
X479903Y499923D01*
X479901Y499929D01*
X479905Y499932D01*
X480049Y501395D01*
X480047Y501398D01*
X480049Y501400D01*
X480049Y519400D01*
X480047Y519403D01*
X480049Y519405D01*
X479905Y520868D01*
X479900Y520873D01*
X479903Y520877D01*
X479476Y522284D01*
X479470Y522289D01*
X479473Y522293D01*
X478779Y523590D01*
X478773Y523593D01*
X478774Y523598D01*
X477841Y524735D01*
X477834Y524736D01*
X477835Y524741D01*
X476698Y525674D01*
X476691Y525674D01*
X476690Y525679D01*
X475393Y526373D01*
X475386Y526371D01*
X475384Y526376D01*
X473977Y526803D01*
X473971Y526801D01*
X473968Y526805D01*
X472505Y526949D01*
X472501Y526947D01*
X472497Y526947D01*
X472495Y526949D01*
X471032Y526805D01*
X471027Y526800D01*
X471023Y526803D01*
X469616Y526376D01*
X469611Y526370D01*
X469607Y526373D01*
X468310Y525679D01*
X468307Y525673D01*
X468302Y525674D01*
X467165Y524741D01*
X467164Y524734D01*
X467159Y524735D01*
X466226Y523598D01*
X466226Y523591D01*
X466221Y523590D01*
X465527Y522293D01*
X465529Y522286D01*
X465524Y522284D01*
X465433Y521986D01*
X465418Y521937D01*
X465194Y521198D01*
X465097Y520877D01*
X465100Y520871D01*
X465095Y520868D01*
X464951Y519405D01*
X464953Y519402D01*
X464951Y519400D01*
X464951Y501400D01*
X464953Y501397D01*
X464951Y501395D01*
X465095Y499932D01*
X465100Y499927D01*
X465097Y499923D01*
X465524Y498516D01*
X465530Y498511D01*
X465527Y498507D01*
X466221Y497210D01*
X466227Y497207D01*
X466226Y497202D01*
X467159Y496065D01*
X467166Y496064D01*
X467165Y496059D01*
X468302Y495126D01*
X468309Y495126D01*
X468310Y495121D01*
X469607Y494427D01*
X469614Y494429D01*
X469616Y494424D01*
X471023Y493997D01*
X471027Y493999D01*
X471030Y493999D01*
X471032Y493995D01*
X472495Y493851D01*
X472501Y493855D01*
X472505Y493851D01*
X473968Y493995D01*
G37*
G36*
X328968Y493995D02*
X328968Y493995D01*
X328972Y493999D01*
X328975Y493999D01*
X328977Y493997D01*
X330384Y494424D01*
X330389Y494430D01*
X330393Y494427D01*
X331690Y495121D01*
X331693Y495127D01*
X331698Y495126D01*
X332835Y496059D01*
X332836Y496066D01*
X332841Y496065D01*
X333774Y497202D01*
X333774Y497209D01*
X333779Y497210D01*
X334473Y498507D01*
X334472Y498513D01*
X334475Y498515D01*
X334476Y498516D01*
X334626Y499009D01*
X334641Y499058D01*
X334865Y499797D01*
X334903Y499923D01*
X334901Y499929D01*
X334905Y499932D01*
X335049Y501395D01*
X335047Y501398D01*
X335049Y501400D01*
X335049Y519400D01*
X335047Y519403D01*
X335049Y519405D01*
X334905Y520868D01*
X334900Y520873D01*
X334903Y520877D01*
X334476Y522284D01*
X334470Y522289D01*
X334473Y522293D01*
X333779Y523590D01*
X333773Y523593D01*
X333774Y523598D01*
X332841Y524735D01*
X332834Y524736D01*
X332835Y524741D01*
X331698Y525674D01*
X331691Y525674D01*
X331690Y525679D01*
X330393Y526373D01*
X330386Y526371D01*
X330384Y526376D01*
X328977Y526803D01*
X328971Y526801D01*
X328968Y526805D01*
X327505Y526949D01*
X327501Y526947D01*
X327497Y526947D01*
X327495Y526949D01*
X326032Y526805D01*
X326027Y526800D01*
X326023Y526803D01*
X324616Y526376D01*
X324611Y526370D01*
X324607Y526373D01*
X323310Y525679D01*
X323307Y525673D01*
X323302Y525674D01*
X322165Y524741D01*
X322164Y524734D01*
X322159Y524735D01*
X321226Y523598D01*
X321226Y523591D01*
X321221Y523590D01*
X320527Y522293D01*
X320529Y522286D01*
X320524Y522284D01*
X320433Y521986D01*
X320418Y521937D01*
X320194Y521198D01*
X320097Y520877D01*
X320100Y520871D01*
X320095Y520868D01*
X319951Y519405D01*
X319953Y519402D01*
X319951Y519400D01*
X319951Y501400D01*
X319953Y501397D01*
X319951Y501395D01*
X320095Y499932D01*
X320100Y499927D01*
X320097Y499923D01*
X320524Y498516D01*
X320530Y498511D01*
X320527Y498507D01*
X321221Y497210D01*
X321227Y497207D01*
X321226Y497202D01*
X322159Y496065D01*
X322166Y496064D01*
X322165Y496059D01*
X323302Y495126D01*
X323309Y495126D01*
X323310Y495121D01*
X324607Y494427D01*
X324614Y494429D01*
X324616Y494424D01*
X326023Y493997D01*
X326027Y493999D01*
X326030Y493999D01*
X326032Y493995D01*
X327495Y493851D01*
X327501Y493855D01*
X327505Y493851D01*
X328968Y493995D01*
G37*
G36*
X78968Y73195D02*
X78968Y73195D01*
X78972Y73199D01*
X78975Y73199D01*
X78977Y73197D01*
X80384Y73624D01*
X80389Y73630D01*
X80393Y73627D01*
X81690Y74321D01*
X81693Y74327D01*
X81698Y74326D01*
X82835Y75259D01*
X82836Y75266D01*
X82841Y75265D01*
X83774Y76402D01*
X83774Y76409D01*
X83779Y76410D01*
X84473Y77707D01*
X84472Y77713D01*
X84475Y77715D01*
X84476Y77716D01*
X84626Y78209D01*
X84641Y78258D01*
X84865Y78997D01*
X84903Y79123D01*
X84901Y79129D01*
X84905Y79132D01*
X85049Y80595D01*
X85047Y80598D01*
X85049Y80600D01*
X85049Y98600D01*
X85047Y98603D01*
X85049Y98605D01*
X84905Y100068D01*
X84900Y100073D01*
X84903Y100077D01*
X84476Y101484D01*
X84470Y101489D01*
X84473Y101493D01*
X83779Y102790D01*
X83773Y102793D01*
X83774Y102798D01*
X82841Y103935D01*
X82834Y103936D01*
X82835Y103941D01*
X81698Y104874D01*
X81691Y104874D01*
X81690Y104879D01*
X80393Y105573D01*
X80386Y105571D01*
X80384Y105576D01*
X78977Y106003D01*
X78971Y106001D01*
X78968Y106005D01*
X77505Y106149D01*
X77501Y106147D01*
X77497Y106147D01*
X77495Y106149D01*
X76032Y106005D01*
X76027Y106000D01*
X76023Y106003D01*
X74616Y105576D01*
X74611Y105570D01*
X74607Y105573D01*
X73310Y104879D01*
X73307Y104873D01*
X73302Y104874D01*
X72165Y103941D01*
X72164Y103934D01*
X72159Y103935D01*
X71226Y102798D01*
X71226Y102791D01*
X71221Y102790D01*
X70527Y101493D01*
X70529Y101486D01*
X70524Y101484D01*
X70433Y101186D01*
X70418Y101137D01*
X70194Y100398D01*
X70097Y100077D01*
X70100Y100071D01*
X70095Y100068D01*
X69951Y98605D01*
X69953Y98602D01*
X69951Y98600D01*
X69951Y80600D01*
X69953Y80597D01*
X69951Y80595D01*
X70095Y79132D01*
X70100Y79127D01*
X70097Y79123D01*
X70524Y77716D01*
X70530Y77711D01*
X70527Y77707D01*
X71221Y76410D01*
X71227Y76407D01*
X71226Y76402D01*
X72159Y75265D01*
X72166Y75264D01*
X72165Y75259D01*
X73302Y74326D01*
X73309Y74326D01*
X73310Y74321D01*
X74607Y73627D01*
X74614Y73629D01*
X74616Y73624D01*
X76023Y73197D01*
X76027Y73199D01*
X76030Y73199D01*
X76032Y73195D01*
X77495Y73051D01*
X77501Y73055D01*
X77505Y73051D01*
X78968Y73195D01*
G37*
G36*
X223968Y73195D02*
X223968Y73195D01*
X223972Y73199D01*
X223975Y73199D01*
X223977Y73197D01*
X225384Y73624D01*
X225389Y73630D01*
X225393Y73627D01*
X226690Y74321D01*
X226693Y74327D01*
X226698Y74326D01*
X227835Y75259D01*
X227836Y75266D01*
X227841Y75265D01*
X228774Y76402D01*
X228774Y76409D01*
X228779Y76410D01*
X229473Y77707D01*
X229472Y77713D01*
X229475Y77715D01*
X229476Y77716D01*
X229626Y78209D01*
X229641Y78258D01*
X229865Y78997D01*
X229903Y79123D01*
X229901Y79129D01*
X229905Y79132D01*
X230049Y80595D01*
X230047Y80598D01*
X230049Y80600D01*
X230049Y98600D01*
X230047Y98603D01*
X230049Y98605D01*
X229905Y100068D01*
X229900Y100073D01*
X229903Y100077D01*
X229476Y101484D01*
X229470Y101489D01*
X229473Y101493D01*
X228779Y102790D01*
X228773Y102793D01*
X228774Y102798D01*
X227841Y103935D01*
X227834Y103936D01*
X227835Y103941D01*
X226698Y104874D01*
X226691Y104874D01*
X226690Y104879D01*
X225393Y105573D01*
X225386Y105571D01*
X225384Y105576D01*
X223977Y106003D01*
X223971Y106001D01*
X223968Y106005D01*
X222505Y106149D01*
X222501Y106147D01*
X222497Y106147D01*
X222495Y106149D01*
X221032Y106005D01*
X221027Y106000D01*
X221023Y106003D01*
X219616Y105576D01*
X219611Y105570D01*
X219607Y105573D01*
X218310Y104879D01*
X218307Y104873D01*
X218302Y104874D01*
X217165Y103941D01*
X217164Y103934D01*
X217159Y103935D01*
X216226Y102798D01*
X216226Y102791D01*
X216221Y102790D01*
X215527Y101493D01*
X215529Y101486D01*
X215524Y101484D01*
X215433Y101186D01*
X215418Y101137D01*
X215194Y100398D01*
X215097Y100077D01*
X215100Y100071D01*
X215095Y100068D01*
X214951Y98605D01*
X214953Y98602D01*
X214951Y98600D01*
X214951Y80600D01*
X214953Y80597D01*
X214951Y80595D01*
X215095Y79132D01*
X215100Y79127D01*
X215097Y79123D01*
X215524Y77716D01*
X215530Y77711D01*
X215527Y77707D01*
X216221Y76410D01*
X216227Y76407D01*
X216226Y76402D01*
X217159Y75265D01*
X217166Y75264D01*
X217165Y75259D01*
X218302Y74326D01*
X218309Y74326D01*
X218310Y74321D01*
X219607Y73627D01*
X219614Y73629D01*
X219616Y73624D01*
X221023Y73197D01*
X221027Y73199D01*
X221030Y73199D01*
X221032Y73195D01*
X222495Y73051D01*
X222501Y73055D01*
X222505Y73051D01*
X223968Y73195D01*
G37*
G36*
X578968Y73195D02*
X578968Y73195D01*
X578972Y73199D01*
X578975Y73199D01*
X578977Y73197D01*
X580384Y73624D01*
X580389Y73630D01*
X580393Y73627D01*
X581690Y74321D01*
X581693Y74327D01*
X581698Y74326D01*
X582835Y75259D01*
X582836Y75266D01*
X582841Y75265D01*
X583774Y76402D01*
X583774Y76409D01*
X583779Y76410D01*
X584473Y77707D01*
X584472Y77713D01*
X584475Y77715D01*
X584476Y77716D01*
X584626Y78209D01*
X584641Y78258D01*
X584865Y78997D01*
X584903Y79123D01*
X584901Y79129D01*
X584905Y79132D01*
X585049Y80595D01*
X585047Y80598D01*
X585049Y80600D01*
X585049Y98600D01*
X585047Y98603D01*
X585049Y98605D01*
X584905Y100068D01*
X584900Y100073D01*
X584903Y100077D01*
X584476Y101484D01*
X584470Y101489D01*
X584473Y101493D01*
X583779Y102790D01*
X583773Y102793D01*
X583774Y102798D01*
X582841Y103935D01*
X582834Y103936D01*
X582835Y103941D01*
X581698Y104874D01*
X581691Y104874D01*
X581690Y104879D01*
X580393Y105573D01*
X580386Y105571D01*
X580384Y105576D01*
X578977Y106003D01*
X578971Y106001D01*
X578968Y106005D01*
X577505Y106149D01*
X577501Y106147D01*
X577497Y106147D01*
X577495Y106149D01*
X576032Y106005D01*
X576027Y106000D01*
X576023Y106003D01*
X574616Y105576D01*
X574611Y105570D01*
X574607Y105573D01*
X573310Y104879D01*
X573307Y104873D01*
X573302Y104874D01*
X572165Y103941D01*
X572164Y103934D01*
X572159Y103935D01*
X571226Y102798D01*
X571226Y102791D01*
X571221Y102790D01*
X570527Y101493D01*
X570529Y101486D01*
X570524Y101484D01*
X570433Y101186D01*
X570418Y101137D01*
X570194Y100398D01*
X570097Y100077D01*
X570100Y100071D01*
X570095Y100068D01*
X569951Y98605D01*
X569953Y98602D01*
X569951Y98600D01*
X569951Y80600D01*
X569953Y80597D01*
X569951Y80595D01*
X570095Y79132D01*
X570100Y79127D01*
X570097Y79123D01*
X570524Y77716D01*
X570530Y77711D01*
X570527Y77707D01*
X571221Y76410D01*
X571227Y76407D01*
X571226Y76402D01*
X572159Y75265D01*
X572166Y75264D01*
X572165Y75259D01*
X573302Y74326D01*
X573309Y74326D01*
X573310Y74321D01*
X574607Y73627D01*
X574614Y73629D01*
X574616Y73624D01*
X576023Y73197D01*
X576027Y73199D01*
X576030Y73199D01*
X576032Y73195D01*
X577495Y73051D01*
X577501Y73055D01*
X577505Y73051D01*
X578968Y73195D01*
G37*
G36*
X473968Y73195D02*
X473968Y73195D01*
X473972Y73199D01*
X473975Y73199D01*
X473977Y73197D01*
X475384Y73624D01*
X475389Y73630D01*
X475393Y73627D01*
X476690Y74321D01*
X476693Y74327D01*
X476698Y74326D01*
X477835Y75259D01*
X477836Y75266D01*
X477841Y75265D01*
X478774Y76402D01*
X478774Y76409D01*
X478779Y76410D01*
X479473Y77707D01*
X479472Y77713D01*
X479475Y77715D01*
X479476Y77716D01*
X479626Y78209D01*
X479641Y78258D01*
X479865Y78997D01*
X479903Y79123D01*
X479901Y79129D01*
X479905Y79132D01*
X480049Y80595D01*
X480047Y80598D01*
X480049Y80600D01*
X480049Y98600D01*
X480047Y98603D01*
X480049Y98605D01*
X479905Y100068D01*
X479900Y100073D01*
X479903Y100077D01*
X479476Y101484D01*
X479470Y101489D01*
X479473Y101493D01*
X478779Y102790D01*
X478773Y102793D01*
X478774Y102798D01*
X477841Y103935D01*
X477834Y103936D01*
X477835Y103941D01*
X476698Y104874D01*
X476691Y104874D01*
X476690Y104879D01*
X475393Y105573D01*
X475386Y105571D01*
X475384Y105576D01*
X473977Y106003D01*
X473971Y106001D01*
X473968Y106005D01*
X472505Y106149D01*
X472501Y106147D01*
X472497Y106147D01*
X472495Y106149D01*
X471032Y106005D01*
X471027Y106000D01*
X471023Y106003D01*
X469616Y105576D01*
X469611Y105570D01*
X469607Y105573D01*
X468310Y104879D01*
X468307Y104873D01*
X468302Y104874D01*
X467165Y103941D01*
X467164Y103934D01*
X467159Y103935D01*
X466226Y102798D01*
X466226Y102791D01*
X466221Y102790D01*
X465527Y101493D01*
X465529Y101486D01*
X465524Y101484D01*
X465433Y101186D01*
X465418Y101137D01*
X465194Y100398D01*
X465097Y100077D01*
X465100Y100071D01*
X465095Y100068D01*
X464951Y98605D01*
X464953Y98602D01*
X464951Y98600D01*
X464951Y80600D01*
X464953Y80597D01*
X464951Y80595D01*
X465095Y79132D01*
X465100Y79127D01*
X465097Y79123D01*
X465524Y77716D01*
X465530Y77711D01*
X465527Y77707D01*
X466221Y76410D01*
X466227Y76407D01*
X466226Y76402D01*
X467159Y75265D01*
X467166Y75264D01*
X467165Y75259D01*
X468302Y74326D01*
X468309Y74326D01*
X468310Y74321D01*
X469607Y73627D01*
X469614Y73629D01*
X469616Y73624D01*
X471023Y73197D01*
X471027Y73199D01*
X471030Y73199D01*
X471032Y73195D01*
X472495Y73051D01*
X472501Y73055D01*
X472505Y73051D01*
X473968Y73195D01*
G37*
G36*
X328968Y73195D02*
X328968Y73195D01*
X328972Y73199D01*
X328975Y73199D01*
X328977Y73197D01*
X330384Y73624D01*
X330389Y73630D01*
X330393Y73627D01*
X331690Y74321D01*
X331693Y74327D01*
X331698Y74326D01*
X332835Y75259D01*
X332836Y75266D01*
X332841Y75265D01*
X333774Y76402D01*
X333774Y76409D01*
X333779Y76410D01*
X334473Y77707D01*
X334472Y77713D01*
X334475Y77715D01*
X334476Y77716D01*
X334626Y78209D01*
X334641Y78258D01*
X334865Y78997D01*
X334903Y79123D01*
X334901Y79129D01*
X334905Y79132D01*
X335049Y80595D01*
X335047Y80598D01*
X335049Y80600D01*
X335049Y98600D01*
X335047Y98603D01*
X335049Y98605D01*
X334905Y100068D01*
X334900Y100073D01*
X334903Y100077D01*
X334476Y101484D01*
X334470Y101489D01*
X334473Y101493D01*
X333779Y102790D01*
X333773Y102793D01*
X333774Y102798D01*
X332841Y103935D01*
X332834Y103936D01*
X332835Y103941D01*
X331698Y104874D01*
X331691Y104874D01*
X331690Y104879D01*
X330393Y105573D01*
X330386Y105571D01*
X330384Y105576D01*
X328977Y106003D01*
X328971Y106001D01*
X328968Y106005D01*
X327505Y106149D01*
X327501Y106147D01*
X327497Y106147D01*
X327495Y106149D01*
X326032Y106005D01*
X326027Y106000D01*
X326023Y106003D01*
X324616Y105576D01*
X324611Y105570D01*
X324607Y105573D01*
X323310Y104879D01*
X323307Y104873D01*
X323302Y104874D01*
X322165Y103941D01*
X322164Y103934D01*
X322159Y103935D01*
X321226Y102798D01*
X321226Y102791D01*
X321221Y102790D01*
X320527Y101493D01*
X320529Y101486D01*
X320524Y101484D01*
X320433Y101186D01*
X320418Y101137D01*
X320194Y100398D01*
X320097Y100077D01*
X320100Y100071D01*
X320095Y100068D01*
X319951Y98605D01*
X319953Y98602D01*
X319951Y98600D01*
X319951Y80600D01*
X319953Y80597D01*
X319951Y80595D01*
X320095Y79132D01*
X320100Y79127D01*
X320097Y79123D01*
X320524Y77716D01*
X320530Y77711D01*
X320527Y77707D01*
X321221Y76410D01*
X321227Y76407D01*
X321226Y76402D01*
X322159Y75265D01*
X322166Y75264D01*
X322165Y75259D01*
X323302Y74326D01*
X323309Y74326D01*
X323310Y74321D01*
X324607Y73627D01*
X324614Y73629D01*
X324616Y73624D01*
X326023Y73197D01*
X326027Y73199D01*
X326030Y73199D01*
X326032Y73195D01*
X327495Y73051D01*
X327501Y73055D01*
X327505Y73051D01*
X328968Y73195D01*
G37*
G36*
X723968Y73195D02*
X723968Y73195D01*
X723972Y73199D01*
X723975Y73199D01*
X723977Y73197D01*
X725384Y73624D01*
X725389Y73630D01*
X725393Y73627D01*
X726690Y74321D01*
X726693Y74327D01*
X726698Y74326D01*
X727835Y75259D01*
X727836Y75266D01*
X727841Y75265D01*
X728774Y76402D01*
X728774Y76409D01*
X728779Y76410D01*
X729473Y77707D01*
X729472Y77713D01*
X729475Y77715D01*
X729476Y77716D01*
X729626Y78209D01*
X729641Y78258D01*
X729865Y78997D01*
X729903Y79123D01*
X729901Y79129D01*
X729905Y79132D01*
X730049Y80595D01*
X730047Y80598D01*
X730049Y80600D01*
X730049Y98600D01*
X730047Y98603D01*
X730049Y98605D01*
X729905Y100068D01*
X729900Y100073D01*
X729903Y100077D01*
X729476Y101484D01*
X729470Y101489D01*
X729473Y101493D01*
X728779Y102790D01*
X728773Y102793D01*
X728774Y102798D01*
X727841Y103935D01*
X727834Y103936D01*
X727835Y103941D01*
X726698Y104874D01*
X726691Y104874D01*
X726690Y104879D01*
X725393Y105573D01*
X725386Y105571D01*
X725384Y105576D01*
X723977Y106003D01*
X723971Y106001D01*
X723968Y106005D01*
X722505Y106149D01*
X722501Y106147D01*
X722497Y106147D01*
X722495Y106149D01*
X721032Y106005D01*
X721027Y106000D01*
X721023Y106003D01*
X719616Y105576D01*
X719611Y105570D01*
X719607Y105573D01*
X718310Y104879D01*
X718307Y104873D01*
X718302Y104874D01*
X717165Y103941D01*
X717164Y103934D01*
X717159Y103935D01*
X716226Y102798D01*
X716226Y102791D01*
X716221Y102790D01*
X715527Y101493D01*
X715529Y101486D01*
X715524Y101484D01*
X715433Y101186D01*
X715418Y101137D01*
X715194Y100398D01*
X715097Y100077D01*
X715100Y100071D01*
X715095Y100068D01*
X714951Y98605D01*
X714953Y98602D01*
X714951Y98600D01*
X714951Y80600D01*
X714953Y80597D01*
X714951Y80595D01*
X715095Y79132D01*
X715100Y79127D01*
X715097Y79123D01*
X715524Y77716D01*
X715530Y77711D01*
X715527Y77707D01*
X716221Y76410D01*
X716227Y76407D01*
X716226Y76402D01*
X717159Y75265D01*
X717166Y75264D01*
X717165Y75259D01*
X718302Y74326D01*
X718309Y74326D01*
X718310Y74321D01*
X719607Y73627D01*
X719614Y73629D01*
X719616Y73624D01*
X721023Y73197D01*
X721027Y73199D01*
X721030Y73199D01*
X721032Y73195D01*
X722495Y73051D01*
X722501Y73055D01*
X722505Y73051D01*
X723968Y73195D01*
G37*
G36*
X473968Y558595D02*
X473968Y558595D01*
X473972Y558599D01*
X473975Y558599D01*
X473977Y558597D01*
X475384Y559024D01*
X475389Y559030D01*
X475393Y559027D01*
X476690Y559721D01*
X476693Y559727D01*
X476698Y559726D01*
X477835Y560659D01*
X477836Y560666D01*
X477841Y560665D01*
X478774Y561802D01*
X478774Y561809D01*
X478779Y561810D01*
X479473Y563107D01*
X479472Y563113D01*
X479475Y563115D01*
X479476Y563116D01*
X479626Y563609D01*
X479641Y563658D01*
X479865Y564397D01*
X479903Y564523D01*
X479901Y564529D01*
X479905Y564532D01*
X480049Y565995D01*
X480047Y565998D01*
X480049Y566000D01*
X480049Y574000D01*
X480047Y574003D01*
X480049Y574005D01*
X479905Y575468D01*
X479900Y575473D01*
X479903Y575477D01*
X479476Y576884D01*
X479470Y576889D01*
X479473Y576893D01*
X478779Y578190D01*
X478773Y578193D01*
X478774Y578198D01*
X477841Y579335D01*
X477834Y579336D01*
X477835Y579341D01*
X476698Y580274D01*
X476691Y580274D01*
X476690Y580279D01*
X475393Y580973D01*
X475386Y580971D01*
X475384Y580976D01*
X473977Y581403D01*
X473973Y581401D01*
X473970Y581401D01*
X473968Y581405D01*
X472505Y581549D01*
X472503Y581548D01*
X472503Y581549D01*
X472497Y581549D01*
X472496Y581548D01*
X472495Y581549D01*
X471032Y581405D01*
X471028Y581401D01*
X471025Y581401D01*
X471023Y581403D01*
X469616Y580976D01*
X469611Y580970D01*
X469607Y580973D01*
X468310Y580279D01*
X468307Y580273D01*
X468302Y580274D01*
X467165Y579341D01*
X467164Y579334D01*
X467159Y579335D01*
X466226Y578198D01*
X466226Y578191D01*
X466221Y578190D01*
X465527Y576893D01*
X465528Y576887D01*
X465526Y576885D01*
X465524Y576884D01*
X465464Y576687D01*
X465240Y575948D01*
X465225Y575899D01*
X465097Y575477D01*
X465100Y575471D01*
X465095Y575468D01*
X464951Y574005D01*
X464953Y574002D01*
X464951Y574000D01*
X464951Y566000D01*
X464953Y565997D01*
X464951Y565995D01*
X465095Y564532D01*
X465100Y564527D01*
X465097Y564523D01*
X465524Y563116D01*
X465530Y563111D01*
X465527Y563107D01*
X466221Y561810D01*
X466227Y561807D01*
X466226Y561802D01*
X467159Y560665D01*
X467166Y560664D01*
X467165Y560659D01*
X468302Y559726D01*
X468309Y559726D01*
X468310Y559721D01*
X469607Y559027D01*
X469614Y559029D01*
X469616Y559024D01*
X471023Y558597D01*
X471027Y558599D01*
X471030Y558599D01*
X471032Y558595D01*
X472495Y558451D01*
X472501Y558455D01*
X472505Y558451D01*
X473968Y558595D01*
G37*
G36*
X328968Y558595D02*
X328968Y558595D01*
X328972Y558599D01*
X328975Y558599D01*
X328977Y558597D01*
X330384Y559024D01*
X330389Y559030D01*
X330393Y559027D01*
X331690Y559721D01*
X331693Y559727D01*
X331698Y559726D01*
X332835Y560659D01*
X332836Y560666D01*
X332841Y560665D01*
X333774Y561802D01*
X333774Y561809D01*
X333779Y561810D01*
X334473Y563107D01*
X334472Y563113D01*
X334475Y563115D01*
X334476Y563116D01*
X334626Y563609D01*
X334641Y563658D01*
X334865Y564397D01*
X334903Y564523D01*
X334901Y564529D01*
X334905Y564532D01*
X335049Y565995D01*
X335047Y565998D01*
X335049Y566000D01*
X335049Y574000D01*
X335047Y574003D01*
X335049Y574005D01*
X334905Y575468D01*
X334900Y575473D01*
X334903Y575477D01*
X334476Y576884D01*
X334470Y576889D01*
X334473Y576893D01*
X333779Y578190D01*
X333773Y578193D01*
X333774Y578198D01*
X332841Y579335D01*
X332834Y579336D01*
X332835Y579341D01*
X331698Y580274D01*
X331691Y580274D01*
X331690Y580279D01*
X330393Y580973D01*
X330386Y580971D01*
X330384Y580976D01*
X328977Y581403D01*
X328973Y581401D01*
X328970Y581401D01*
X328968Y581405D01*
X327505Y581549D01*
X327503Y581548D01*
X327503Y581549D01*
X327497Y581549D01*
X327496Y581548D01*
X327495Y581549D01*
X326032Y581405D01*
X326028Y581401D01*
X326025Y581401D01*
X326023Y581403D01*
X324616Y580976D01*
X324611Y580970D01*
X324607Y580973D01*
X323310Y580279D01*
X323307Y580273D01*
X323302Y580274D01*
X322165Y579341D01*
X322164Y579334D01*
X322159Y579335D01*
X321226Y578198D01*
X321226Y578191D01*
X321221Y578190D01*
X320527Y576893D01*
X320528Y576887D01*
X320526Y576885D01*
X320524Y576884D01*
X320464Y576687D01*
X320240Y575948D01*
X320225Y575899D01*
X320097Y575477D01*
X320100Y575471D01*
X320095Y575468D01*
X319951Y574005D01*
X319953Y574002D01*
X319951Y574000D01*
X319951Y566000D01*
X319953Y565997D01*
X319951Y565995D01*
X320095Y564532D01*
X320100Y564527D01*
X320097Y564523D01*
X320524Y563116D01*
X320530Y563111D01*
X320527Y563107D01*
X321221Y561810D01*
X321227Y561807D01*
X321226Y561802D01*
X322159Y560665D01*
X322166Y560664D01*
X322165Y560659D01*
X323302Y559726D01*
X323309Y559726D01*
X323310Y559721D01*
X324607Y559027D01*
X324614Y559029D01*
X324616Y559024D01*
X326023Y558597D01*
X326027Y558599D01*
X326030Y558599D01*
X326032Y558595D01*
X327495Y558451D01*
X327501Y558455D01*
X327505Y558451D01*
X328968Y558595D01*
G37*
G36*
X223968Y18595D02*
X223968Y18595D01*
X223972Y18599D01*
X223975Y18599D01*
X223977Y18597D01*
X225384Y19024D01*
X225389Y19030D01*
X225393Y19027D01*
X226690Y19721D01*
X226693Y19727D01*
X226698Y19726D01*
X227835Y20659D01*
X227836Y20666D01*
X227841Y20665D01*
X228774Y21802D01*
X228774Y21809D01*
X228779Y21810D01*
X229473Y23107D01*
X229472Y23113D01*
X229475Y23115D01*
X229476Y23116D01*
X229626Y23609D01*
X229641Y23658D01*
X229865Y24397D01*
X229903Y24523D01*
X229901Y24529D01*
X229905Y24532D01*
X230049Y25995D01*
X230047Y25998D01*
X230049Y26000D01*
X230049Y34000D01*
X230047Y34003D01*
X230049Y34005D01*
X229905Y35468D01*
X229900Y35473D01*
X229903Y35477D01*
X229476Y36884D01*
X229470Y36889D01*
X229473Y36893D01*
X228779Y38190D01*
X228773Y38193D01*
X228774Y38198D01*
X227841Y39335D01*
X227834Y39336D01*
X227835Y39341D01*
X226698Y40274D01*
X226691Y40274D01*
X226690Y40279D01*
X225393Y40973D01*
X225386Y40971D01*
X225384Y40976D01*
X223977Y41403D01*
X223973Y41401D01*
X223970Y41401D01*
X223968Y41405D01*
X222505Y41549D01*
X222503Y41548D01*
X222503Y41549D01*
X222497Y41549D01*
X222496Y41548D01*
X222495Y41549D01*
X221032Y41405D01*
X221028Y41401D01*
X221025Y41401D01*
X221023Y41403D01*
X219616Y40976D01*
X219611Y40970D01*
X219607Y40973D01*
X218310Y40279D01*
X218307Y40273D01*
X218302Y40274D01*
X217165Y39341D01*
X217164Y39334D01*
X217159Y39335D01*
X216226Y38198D01*
X216226Y38191D01*
X216221Y38190D01*
X215527Y36893D01*
X215528Y36887D01*
X215526Y36885D01*
X215524Y36884D01*
X215464Y36687D01*
X215240Y35948D01*
X215225Y35899D01*
X215097Y35477D01*
X215100Y35471D01*
X215095Y35468D01*
X214951Y34005D01*
X214953Y34002D01*
X214951Y34000D01*
X214951Y26000D01*
X214953Y25997D01*
X214951Y25995D01*
X215095Y24532D01*
X215100Y24527D01*
X215097Y24523D01*
X215524Y23116D01*
X215530Y23111D01*
X215527Y23107D01*
X216221Y21810D01*
X216227Y21807D01*
X216226Y21802D01*
X217159Y20665D01*
X217166Y20664D01*
X217165Y20659D01*
X218302Y19726D01*
X218309Y19726D01*
X218310Y19721D01*
X219607Y19027D01*
X219614Y19029D01*
X219616Y19024D01*
X221023Y18597D01*
X221027Y18599D01*
X221030Y18599D01*
X221032Y18595D01*
X222495Y18451D01*
X222501Y18455D01*
X222505Y18451D01*
X223968Y18595D01*
G37*
G36*
X473968Y18595D02*
X473968Y18595D01*
X473972Y18599D01*
X473975Y18599D01*
X473977Y18597D01*
X475384Y19024D01*
X475389Y19030D01*
X475393Y19027D01*
X476690Y19721D01*
X476693Y19727D01*
X476698Y19726D01*
X477835Y20659D01*
X477836Y20666D01*
X477841Y20665D01*
X478774Y21802D01*
X478774Y21809D01*
X478779Y21810D01*
X479473Y23107D01*
X479472Y23113D01*
X479475Y23115D01*
X479476Y23116D01*
X479626Y23609D01*
X479641Y23658D01*
X479865Y24397D01*
X479903Y24523D01*
X479901Y24529D01*
X479905Y24532D01*
X480049Y25995D01*
X480047Y25998D01*
X480049Y26000D01*
X480049Y34000D01*
X480047Y34003D01*
X480049Y34005D01*
X479905Y35468D01*
X479900Y35473D01*
X479903Y35477D01*
X479476Y36884D01*
X479470Y36889D01*
X479473Y36893D01*
X478779Y38190D01*
X478773Y38193D01*
X478774Y38198D01*
X477841Y39335D01*
X477834Y39336D01*
X477835Y39341D01*
X476698Y40274D01*
X476691Y40274D01*
X476690Y40279D01*
X475393Y40973D01*
X475386Y40971D01*
X475384Y40976D01*
X473977Y41403D01*
X473973Y41401D01*
X473970Y41401D01*
X473968Y41405D01*
X472505Y41549D01*
X472503Y41548D01*
X472503Y41549D01*
X472497Y41549D01*
X472496Y41548D01*
X472495Y41549D01*
X471032Y41405D01*
X471028Y41401D01*
X471025Y41401D01*
X471023Y41403D01*
X469616Y40976D01*
X469611Y40970D01*
X469607Y40973D01*
X468310Y40279D01*
X468307Y40273D01*
X468302Y40274D01*
X467165Y39341D01*
X467164Y39334D01*
X467159Y39335D01*
X466226Y38198D01*
X466226Y38191D01*
X466221Y38190D01*
X465527Y36893D01*
X465528Y36887D01*
X465526Y36885D01*
X465524Y36884D01*
X465464Y36687D01*
X465240Y35948D01*
X465225Y35899D01*
X465097Y35477D01*
X465100Y35471D01*
X465095Y35468D01*
X464951Y34005D01*
X464953Y34002D01*
X464951Y34000D01*
X464951Y26000D01*
X464953Y25997D01*
X464951Y25995D01*
X465095Y24532D01*
X465100Y24527D01*
X465097Y24523D01*
X465524Y23116D01*
X465530Y23111D01*
X465527Y23107D01*
X466221Y21810D01*
X466227Y21807D01*
X466226Y21802D01*
X467159Y20665D01*
X467166Y20664D01*
X467165Y20659D01*
X468302Y19726D01*
X468309Y19726D01*
X468310Y19721D01*
X469607Y19027D01*
X469614Y19029D01*
X469616Y19024D01*
X471023Y18597D01*
X471027Y18599D01*
X471030Y18599D01*
X471032Y18595D01*
X472495Y18451D01*
X472501Y18455D01*
X472505Y18451D01*
X473968Y18595D01*
G37*
G36*
X578968Y18595D02*
X578968Y18595D01*
X578972Y18599D01*
X578975Y18599D01*
X578977Y18597D01*
X580384Y19024D01*
X580389Y19030D01*
X580393Y19027D01*
X581690Y19721D01*
X581693Y19727D01*
X581698Y19726D01*
X582835Y20659D01*
X582836Y20666D01*
X582841Y20665D01*
X583774Y21802D01*
X583774Y21809D01*
X583779Y21810D01*
X584473Y23107D01*
X584472Y23113D01*
X584475Y23115D01*
X584476Y23116D01*
X584626Y23609D01*
X584641Y23658D01*
X584865Y24397D01*
X584903Y24523D01*
X584901Y24529D01*
X584905Y24532D01*
X585049Y25995D01*
X585047Y25998D01*
X585049Y26000D01*
X585049Y34000D01*
X585047Y34003D01*
X585049Y34005D01*
X584905Y35468D01*
X584900Y35473D01*
X584903Y35477D01*
X584476Y36884D01*
X584470Y36889D01*
X584473Y36893D01*
X583779Y38190D01*
X583773Y38193D01*
X583774Y38198D01*
X582841Y39335D01*
X582834Y39336D01*
X582835Y39341D01*
X581698Y40274D01*
X581691Y40274D01*
X581690Y40279D01*
X580393Y40973D01*
X580386Y40971D01*
X580384Y40976D01*
X578977Y41403D01*
X578973Y41401D01*
X578970Y41401D01*
X578968Y41405D01*
X577505Y41549D01*
X577503Y41548D01*
X577503Y41549D01*
X577497Y41549D01*
X577496Y41548D01*
X577495Y41549D01*
X576032Y41405D01*
X576028Y41401D01*
X576025Y41401D01*
X576023Y41403D01*
X574616Y40976D01*
X574611Y40970D01*
X574607Y40973D01*
X573310Y40279D01*
X573307Y40273D01*
X573302Y40274D01*
X572165Y39341D01*
X572164Y39334D01*
X572159Y39335D01*
X571226Y38198D01*
X571226Y38191D01*
X571221Y38190D01*
X570527Y36893D01*
X570528Y36887D01*
X570526Y36885D01*
X570524Y36884D01*
X570464Y36687D01*
X570240Y35948D01*
X570225Y35899D01*
X570097Y35477D01*
X570100Y35471D01*
X570095Y35468D01*
X569951Y34005D01*
X569953Y34002D01*
X569951Y34000D01*
X569951Y26000D01*
X569953Y25997D01*
X569951Y25995D01*
X570095Y24532D01*
X570100Y24527D01*
X570097Y24523D01*
X570524Y23116D01*
X570530Y23111D01*
X570527Y23107D01*
X571221Y21810D01*
X571227Y21807D01*
X571226Y21802D01*
X572159Y20665D01*
X572166Y20664D01*
X572165Y20659D01*
X573302Y19726D01*
X573309Y19726D01*
X573310Y19721D01*
X574607Y19027D01*
X574614Y19029D01*
X574616Y19024D01*
X576023Y18597D01*
X576027Y18599D01*
X576030Y18599D01*
X576032Y18595D01*
X577495Y18451D01*
X577501Y18455D01*
X577505Y18451D01*
X578968Y18595D01*
G37*
G36*
X78968Y18595D02*
X78968Y18595D01*
X78972Y18599D01*
X78975Y18599D01*
X78977Y18597D01*
X80384Y19024D01*
X80389Y19030D01*
X80393Y19027D01*
X81690Y19721D01*
X81693Y19727D01*
X81698Y19726D01*
X82835Y20659D01*
X82836Y20666D01*
X82841Y20665D01*
X83774Y21802D01*
X83774Y21809D01*
X83779Y21810D01*
X84473Y23107D01*
X84472Y23113D01*
X84475Y23115D01*
X84476Y23116D01*
X84626Y23609D01*
X84641Y23658D01*
X84865Y24397D01*
X84903Y24523D01*
X84901Y24529D01*
X84905Y24532D01*
X85049Y25995D01*
X85047Y25998D01*
X85049Y26000D01*
X85049Y34000D01*
X85047Y34003D01*
X85049Y34005D01*
X84905Y35468D01*
X84900Y35473D01*
X84903Y35477D01*
X84476Y36884D01*
X84470Y36889D01*
X84473Y36893D01*
X83779Y38190D01*
X83773Y38193D01*
X83774Y38198D01*
X82841Y39335D01*
X82834Y39336D01*
X82835Y39341D01*
X81698Y40274D01*
X81691Y40274D01*
X81690Y40279D01*
X80393Y40973D01*
X80386Y40971D01*
X80384Y40976D01*
X78977Y41403D01*
X78973Y41401D01*
X78970Y41401D01*
X78968Y41405D01*
X77505Y41549D01*
X77503Y41548D01*
X77503Y41549D01*
X77497Y41549D01*
X77496Y41548D01*
X77495Y41549D01*
X76032Y41405D01*
X76028Y41401D01*
X76025Y41401D01*
X76023Y41403D01*
X74616Y40976D01*
X74611Y40970D01*
X74607Y40973D01*
X73310Y40279D01*
X73307Y40273D01*
X73302Y40274D01*
X72165Y39341D01*
X72164Y39334D01*
X72159Y39335D01*
X71226Y38198D01*
X71226Y38191D01*
X71221Y38190D01*
X70527Y36893D01*
X70528Y36887D01*
X70526Y36885D01*
X70524Y36884D01*
X70464Y36687D01*
X70240Y35948D01*
X70225Y35899D01*
X70097Y35477D01*
X70100Y35471D01*
X70095Y35468D01*
X69951Y34005D01*
X69953Y34002D01*
X69951Y34000D01*
X69951Y26000D01*
X69953Y25997D01*
X69951Y25995D01*
X70095Y24532D01*
X70100Y24527D01*
X70097Y24523D01*
X70524Y23116D01*
X70530Y23111D01*
X70527Y23107D01*
X71221Y21810D01*
X71227Y21807D01*
X71226Y21802D01*
X72159Y20665D01*
X72166Y20664D01*
X72165Y20659D01*
X73302Y19726D01*
X73309Y19726D01*
X73310Y19721D01*
X74607Y19027D01*
X74614Y19029D01*
X74616Y19024D01*
X76023Y18597D01*
X76027Y18599D01*
X76030Y18599D01*
X76032Y18595D01*
X77495Y18451D01*
X77501Y18455D01*
X77505Y18451D01*
X78968Y18595D01*
G37*
G36*
X328968Y18595D02*
X328968Y18595D01*
X328972Y18599D01*
X328975Y18599D01*
X328977Y18597D01*
X330384Y19024D01*
X330389Y19030D01*
X330393Y19027D01*
X331690Y19721D01*
X331693Y19727D01*
X331698Y19726D01*
X332835Y20659D01*
X332836Y20666D01*
X332841Y20665D01*
X333774Y21802D01*
X333774Y21809D01*
X333779Y21810D01*
X334473Y23107D01*
X334472Y23113D01*
X334475Y23115D01*
X334476Y23116D01*
X334626Y23609D01*
X334641Y23658D01*
X334865Y24397D01*
X334903Y24523D01*
X334901Y24529D01*
X334905Y24532D01*
X335049Y25995D01*
X335047Y25998D01*
X335049Y26000D01*
X335049Y34000D01*
X335047Y34003D01*
X335049Y34005D01*
X334905Y35468D01*
X334900Y35473D01*
X334903Y35477D01*
X334476Y36884D01*
X334470Y36889D01*
X334473Y36893D01*
X333779Y38190D01*
X333773Y38193D01*
X333774Y38198D01*
X332841Y39335D01*
X332834Y39336D01*
X332835Y39341D01*
X331698Y40274D01*
X331691Y40274D01*
X331690Y40279D01*
X330393Y40973D01*
X330386Y40971D01*
X330384Y40976D01*
X328977Y41403D01*
X328973Y41401D01*
X328970Y41401D01*
X328968Y41405D01*
X327505Y41549D01*
X327503Y41548D01*
X327503Y41549D01*
X327497Y41549D01*
X327496Y41548D01*
X327495Y41549D01*
X326032Y41405D01*
X326028Y41401D01*
X326025Y41401D01*
X326023Y41403D01*
X324616Y40976D01*
X324611Y40970D01*
X324607Y40973D01*
X323310Y40279D01*
X323307Y40273D01*
X323302Y40274D01*
X322165Y39341D01*
X322164Y39334D01*
X322159Y39335D01*
X321226Y38198D01*
X321226Y38191D01*
X321221Y38190D01*
X320527Y36893D01*
X320528Y36887D01*
X320526Y36885D01*
X320524Y36884D01*
X320464Y36687D01*
X320240Y35948D01*
X320225Y35899D01*
X320097Y35477D01*
X320100Y35471D01*
X320095Y35468D01*
X319951Y34005D01*
X319953Y34002D01*
X319951Y34000D01*
X319951Y26000D01*
X319953Y25997D01*
X319951Y25995D01*
X320095Y24532D01*
X320100Y24527D01*
X320097Y24523D01*
X320524Y23116D01*
X320530Y23111D01*
X320527Y23107D01*
X321221Y21810D01*
X321227Y21807D01*
X321226Y21802D01*
X322159Y20665D01*
X322166Y20664D01*
X322165Y20659D01*
X323302Y19726D01*
X323309Y19726D01*
X323310Y19721D01*
X324607Y19027D01*
X324614Y19029D01*
X324616Y19024D01*
X326023Y18597D01*
X326027Y18599D01*
X326030Y18599D01*
X326032Y18595D01*
X327495Y18451D01*
X327501Y18455D01*
X327505Y18451D01*
X328968Y18595D01*
G37*
G36*
X723968Y18595D02*
X723968Y18595D01*
X723972Y18599D01*
X723975Y18599D01*
X723977Y18597D01*
X725384Y19024D01*
X725389Y19030D01*
X725393Y19027D01*
X726690Y19721D01*
X726693Y19727D01*
X726698Y19726D01*
X727835Y20659D01*
X727836Y20666D01*
X727841Y20665D01*
X728774Y21802D01*
X728774Y21809D01*
X728779Y21810D01*
X729473Y23107D01*
X729472Y23113D01*
X729475Y23115D01*
X729476Y23116D01*
X729626Y23609D01*
X729641Y23658D01*
X729865Y24397D01*
X729903Y24523D01*
X729901Y24529D01*
X729905Y24532D01*
X730049Y25995D01*
X730047Y25998D01*
X730049Y26000D01*
X730049Y34000D01*
X730047Y34003D01*
X730049Y34005D01*
X729905Y35468D01*
X729900Y35473D01*
X729903Y35477D01*
X729476Y36884D01*
X729470Y36889D01*
X729473Y36893D01*
X728779Y38190D01*
X728773Y38193D01*
X728774Y38198D01*
X727841Y39335D01*
X727834Y39336D01*
X727835Y39341D01*
X726698Y40274D01*
X726691Y40274D01*
X726690Y40279D01*
X725393Y40973D01*
X725386Y40971D01*
X725384Y40976D01*
X723977Y41403D01*
X723973Y41401D01*
X723970Y41401D01*
X723968Y41405D01*
X722505Y41549D01*
X722503Y41548D01*
X722503Y41549D01*
X722497Y41549D01*
X722496Y41548D01*
X722495Y41549D01*
X721032Y41405D01*
X721028Y41401D01*
X721025Y41401D01*
X721023Y41403D01*
X719616Y40976D01*
X719611Y40970D01*
X719607Y40973D01*
X718310Y40279D01*
X718307Y40273D01*
X718302Y40274D01*
X717165Y39341D01*
X717164Y39334D01*
X717159Y39335D01*
X716226Y38198D01*
X716226Y38191D01*
X716221Y38190D01*
X715527Y36893D01*
X715528Y36887D01*
X715526Y36885D01*
X715524Y36884D01*
X715464Y36687D01*
X715240Y35948D01*
X715225Y35899D01*
X715097Y35477D01*
X715100Y35471D01*
X715095Y35468D01*
X714951Y34005D01*
X714953Y34002D01*
X714951Y34000D01*
X714951Y26000D01*
X714953Y25997D01*
X714951Y25995D01*
X715095Y24532D01*
X715100Y24527D01*
X715097Y24523D01*
X715524Y23116D01*
X715530Y23111D01*
X715527Y23107D01*
X716221Y21810D01*
X716227Y21807D01*
X716226Y21802D01*
X717159Y20665D01*
X717166Y20664D01*
X717165Y20659D01*
X718302Y19726D01*
X718309Y19726D01*
X718310Y19721D01*
X719607Y19027D01*
X719614Y19029D01*
X719616Y19024D01*
X721023Y18597D01*
X721027Y18599D01*
X721030Y18599D01*
X721032Y18595D01*
X722495Y18451D01*
X722501Y18455D01*
X722505Y18451D01*
X723968Y18595D01*
G37*
D10*
X577500Y89600D03*
X577500Y30000D03*
X722500Y89600D03*
X722500Y30000D03*
X472500Y510400D03*
X472500Y570000D03*
X327500Y510400D03*
X327500Y570000D03*
X77500Y89600D03*
X77500Y30000D03*
X222500Y89600D03*
X222500Y30000D03*
X327500Y89600D03*
X327500Y30000D03*
X472500Y89600D03*
X472500Y30000D03*
D11*
X685000Y307800D03*
X659600Y307800D03*
X659600Y384000D03*
X685000Y384000D03*
X634200Y307800D03*
X608800Y307800D03*
X634200Y384000D03*
X608800Y384000D03*
D12*
X148900Y256600D03*
D13*
X123500Y256600D03*
X98100Y256600D03*
D14*
X122880Y313780D03*
X122880Y320120D03*
X122880Y326480D03*
X122880Y332820D03*
X122880Y339180D03*
X122880Y345520D03*
X122880Y351880D03*
X122880Y358220D03*
X177120Y358220D03*
X177120Y351880D03*
X177120Y345520D03*
X177120Y339180D03*
X177120Y332820D03*
X177120Y326480D03*
X177120Y320120D03*
X177120Y313780D03*
D15*
X214000Y504200D03*
X86000Y504200D03*
D16*
X223500Y394000D03*
X204500Y394000D03*
X161500Y411000D03*
X180500Y411000D03*
X138500Y411000D03*
X119500Y411000D03*
X223500Y370000D03*
X204500Y370000D03*
X119500Y387000D03*
X138500Y387000D03*
X180500Y387000D03*
X161500Y387000D03*
X221500Y346000D03*
X240500Y346000D03*
D17*
X201500Y414000D03*
X218500Y414000D03*
D16*
X76500Y350000D03*
X95500Y350000D03*
X76500Y320000D03*
X95500Y320000D03*
X97500Y218000D03*
X116500Y218000D03*
X139500Y218000D03*
X158500Y218000D03*
D18*
X222500Y89600D02*
X327500Y89600D01*
D19*
X395000Y79000D03*
X146000Y66000D03*
D18*
X147000Y65000D01*
X385000Y65000D01*
X396000Y76000D01*
X396000Y78000D02*
X395000Y79000D01*
X396000Y78000D02*
X396000Y76000D01*
X395000Y79000D02*
X409640Y93640D01*
X445236Y93640D02*
X456391Y82485D01*
X456391Y73062D01*
X445236Y93640D02*
X409640Y93640D01*
X456391Y73062D02*
X465453Y64000D01*
D19*
X647000Y72000D03*
D18*
X639000Y64000D02*
X465453Y64000D01*
X639000Y64000D02*
X647000Y72000D01*
X657577Y72000D01*
X657826Y72249D01*
X706751Y72249D01*
X713000Y66000D01*
X737000Y66000D01*
X754000Y83000D01*
X754000Y444000D01*
X661000Y537000D01*
X421000Y537000D02*
X405000Y521000D01*
D19*
X405000Y521000D03*
D18*
X421000Y537000D02*
X661000Y537000D01*
D19*
X410000Y79000D03*
X160000Y59000D03*
D18*
X392000Y61000D02*
X410000Y79000D01*
X392000Y61000D02*
X162000Y61000D01*
X160000Y59000D01*
X443705Y89945D02*
X452696Y80954D01*
X452696Y70531D01*
X420945Y89945D02*
X410000Y79000D01*
X420945Y89945D02*
X443705Y89945D01*
X452696Y70531D02*
X462922Y60304D01*
D19*
X660000Y67000D03*
D18*
X653304Y60304D01*
X462922Y60304D01*
X711469Y62304D02*
X738531Y62304D01*
X757696Y81469D01*
X711469Y62304D02*
X706774Y67000D01*
X660000Y67000D01*
X757696Y445531D02*
X662531Y540696D01*
X757696Y445531D02*
X757696Y81469D01*
X390000Y521000D02*
X409696Y540696D01*
D19*
X390000Y521000D03*
D18*
X409696Y540696D02*
X662531Y540696D01*
D19*
X425000Y80000D03*
X175000Y55055D03*
D18*
X184000Y55055D02*
X185553Y56609D01*
X184000Y55055D02*
X175000Y55055D01*
X401609Y56609D02*
X425000Y80000D01*
X401609Y56609D02*
X185553Y56609D01*
X425000Y80000D02*
X431249Y86249D01*
X442174Y86249D02*
X449000Y79423D01*
X449000Y69000D01*
X461391Y56609D01*
X442174Y86249D02*
X431249Y86249D01*
D19*
X675000Y61000D03*
D18*
X670609Y56609D01*
X461391Y56609D01*
X709938Y58609D02*
X740062Y58609D01*
X761391Y79938D01*
X709938Y58609D02*
X707547Y61000D01*
X675000Y61000D01*
X761391Y447062D02*
X664062Y544391D01*
X761391Y447062D02*
X761391Y79938D01*
X375000Y521000D02*
X398391Y544391D01*
D19*
X375000Y521000D03*
D18*
X398391Y544391D02*
X664062Y544391D01*
D19*
X440000Y80000D03*
X190000Y51360D03*
D18*
X417751Y52751D02*
X417913Y52913D01*
X412913Y52913D01*
X191553Y52913D01*
X190000Y51360D01*
D19*
X690000Y55000D03*
D18*
X687751Y52751D01*
X417751Y52751D01*
X741592Y54913D02*
X765087Y78408D01*
X741592Y54913D02*
X690087Y54913D01*
X690000Y55000D01*
X765087Y78408D02*
X765087Y448592D01*
X665592Y548087D01*
X387087Y548087D02*
X360000Y521000D01*
D19*
X360000Y521000D03*
D18*
X387087Y548087D02*
X665592Y548087D01*
X440000Y80000D02*
X412913Y52913D01*
D19*
X418788Y188212D03*
D18*
X418788Y164788D01*
X387000Y133000D01*
D19*
X387000Y133000D03*
X422183Y199029D03*
D18*
X422183Y192240D01*
X424037Y190386D01*
X424037Y162811D01*
X397212Y135985D02*
X397212Y130788D01*
D19*
X397212Y130788D03*
D18*
X397212Y135985D02*
X424037Y162811D01*
D19*
X135000Y73000D03*
D18*
X149000Y73000D01*
X153304Y68696D01*
X382000Y68696D02*
X384502Y71198D01*
X384502Y80000D01*
D19*
X384502Y80000D03*
D18*
X382000Y68696D02*
X153304Y68696D01*
X384502Y80000D02*
X386577Y80000D01*
X403913Y97336D01*
X446767Y97336D01*
X460087Y84016D02*
X460087Y75000D01*
X467391Y67696D01*
X630696Y67696D02*
X635000Y72000D01*
D19*
X635000Y72000D03*
D18*
X460087Y84016D02*
X446767Y97336D01*
X467391Y67696D02*
X630696Y67696D01*
X635000Y72000D02*
X636577Y72000D01*
X641826Y77249D01*
X706978Y77249D01*
X714531Y69696D01*
X735469Y69696D01*
X749887Y84113D01*
X749887Y442887D01*
X659774Y533000D01*
X427000Y533000D02*
X415000Y521000D01*
D19*
X415000Y521000D03*
D18*
X427000Y533000D02*
X659774Y533000D01*
D20*
X204500Y394000D02*
X204500Y370000D01*
X197500Y394000D02*
X180500Y411000D01*
X197500Y394000D02*
X204500Y394000D01*
D19*
X115000Y433000D03*
D20*
X115000Y415500D01*
X119500Y411000D01*
D18*
X177120Y332820D02*
X188180Y332820D01*
X190000Y331000D01*
D20*
X111948Y341977D02*
X111948Y345052D01*
X108000Y349000D01*
X114745Y339180D02*
X122880Y339180D01*
X114745Y339180D02*
X111948Y341977D01*
D19*
X115000Y80000D03*
X365000Y79000D03*
X615000Y80000D03*
X435000Y520000D03*
X438000Y363000D03*
X392000Y436249D03*
X355000Y377000D03*
X322000Y346000D03*
X329000Y308000D03*
X387031Y270000D03*
X417000Y271000D03*
D21*
X240500Y330500D02*
X240500Y346000D01*
X240500Y330500D02*
X240000Y330000D01*
D19*
X240000Y330000D03*
D21*
X204500Y357500D02*
X204500Y370000D01*
X204500Y357500D02*
X204000Y357000D01*
D19*
X204000Y357000D03*
X190000Y331000D03*
X108000Y349000D03*
D21*
X170500Y230000D02*
X158500Y218000D01*
X170500Y230000D02*
X171000Y230000D01*
D19*
X171000Y230000D03*
X178000Y426000D03*
D18*
X178000Y413500D02*
X180500Y411000D01*
X178000Y413500D02*
X178000Y426000D01*
D19*
X377000Y396000D03*
X408000Y396000D03*
X446000Y377000D03*
X444970Y347030D03*
X357150Y362150D03*
X355526Y332600D03*
D18*
X357150Y337024D02*
X357150Y362150D01*
X357150Y337024D02*
X353150Y333024D01*
X355526Y332600D01*
X357150Y362150D02*
X377000Y382000D01*
X377000Y396000D01*
X408000Y396000D01*
X427000Y377000D01*
X446000Y377000D01*
X445970Y376970D01*
X445970Y348030D01*
X444970Y347030D01*
D19*
X372000Y304000D03*
X403970Y304030D03*
D18*
X403940Y304000D01*
X372000Y304000D01*
X353150Y322850D01*
X353150Y333024D01*
X355526Y332600D02*
X317474Y332474D01*
X130397Y270497D02*
X123500Y263600D01*
X123500Y256600D01*
X180523Y270497D02*
X208026Y298000D01*
X180523Y270497D02*
X130397Y270497D01*
X283000Y298000D02*
X317474Y332474D01*
X283000Y298000D02*
X208026Y298000D01*
D20*
X139500Y218000D02*
X116500Y218000D01*
X148900Y227400D02*
X148900Y256600D01*
X148900Y227400D02*
X139500Y218000D01*
D18*
X641800Y290000D02*
X659600Y307800D01*
X641800Y290000D02*
X445000Y290000D01*
D19*
X445000Y290000D03*
D18*
X622400Y296000D02*
X634200Y307800D01*
X622400Y296000D02*
X457000Y296000D01*
D19*
X457000Y296000D03*
D20*
X112680Y332820D02*
X95500Y350000D01*
X112680Y332820D02*
X122880Y332820D01*
D19*
X254000Y384000D03*
X96000Y363000D03*
D18*
X96000Y350500D01*
X95500Y350000D01*
X565496Y427304D02*
X608800Y384000D01*
X263174Y383553D02*
X254447Y383553D01*
X254000Y384000D01*
X263174Y383553D02*
X306925Y427304D01*
X565496Y427304D01*
D20*
X122880Y320120D02*
X102000Y320120D01*
X95620Y320120D01*
X95500Y320000D01*
D19*
X263000Y390802D03*
X109000Y314000D03*
D18*
X102880Y320120D01*
X102000Y320120D01*
X612600Y431000D02*
X659600Y384000D01*
X303198Y431000D02*
X263000Y390802D01*
X303198Y431000D02*
X612600Y431000D01*
D20*
X223500Y409000D02*
X218500Y414000D01*
X223500Y409000D02*
X223500Y394000D01*
X223500Y370000D01*
X254000Y370000D01*
X266000Y358000D01*
X266000Y321000D01*
X261000Y316000D01*
X220000Y316000D01*
X218000Y316000D01*
X98100Y281100D02*
X98100Y256600D01*
X177120Y339180D02*
X194820Y339180D01*
X218000Y316000D01*
X98100Y256600D02*
X98100Y218600D01*
X97644Y218144D01*
X97500Y218000D01*
X201000Y297000D02*
X220000Y316000D01*
X114000Y297000D02*
X98100Y281100D01*
X114000Y297000D02*
X201000Y297000D01*
D19*
X110000Y115000D03*
D20*
X110000Y205788D02*
X97644Y218144D01*
D18*
X110000Y116000D02*
X110000Y115000D01*
D20*
X591000Y478000D02*
X685000Y384000D01*
X591000Y478000D02*
X439751Y478000D01*
D19*
X439751Y478000D03*
D20*
X282500Y478000D02*
X218500Y414000D01*
X282500Y478000D02*
X439751Y478000D01*
D19*
X610249Y119000D03*
D20*
X113000Y119000D02*
X110000Y116000D01*
X367000Y119000D02*
X610249Y119000D01*
X367000Y119000D02*
X113000Y119000D01*
D18*
X360016Y112016D02*
X367000Y119000D01*
X360984Y114249D02*
X360188Y113722D01*
X360016Y112016D01*
D19*
X360984Y114249D03*
D20*
X110000Y116000D02*
X110000Y205788D01*
X122880Y358220D02*
X122880Y383620D01*
D18*
X119500Y387000D01*
D20*
X177120Y358220D02*
X180500Y361600D01*
D18*
X180500Y387000D01*
D19*
X140000Y432000D03*
D18*
X138500Y411000D02*
X138500Y387000D01*
D20*
X140000Y412500D02*
X140000Y432000D01*
X140000Y412500D02*
X138500Y411000D01*
D19*
X160000Y432000D03*
D20*
X160000Y412500D01*
X161500Y411000D01*
X161500Y387000D01*
X76500Y350000D02*
X76500Y320000D01*
X89500Y333000D01*
X122017Y327343D02*
X122880Y326480D01*
X111332Y327343D02*
X105675Y333000D01*
X111332Y327343D02*
X122017Y327343D01*
X105675Y333000D02*
X89500Y333000D01*
D22*
X177120Y345520D02*
X177300Y345700D01*
X177600Y346000D01*
X221500Y346000D01*
X177120Y345520D02*
X177120Y351880D01*
D18*
X175692Y344092D02*
X168356Y344092D01*
X175692Y344092D02*
X177300Y345700D01*
X150745Y326480D02*
X122880Y326480D01*
X150745Y326480D02*
X168356Y344092D01*
D19*
X187000Y431000D03*
D20*
X187000Y429000D02*
X201500Y414500D01*
X187000Y429000D02*
X187000Y431000D01*
X201500Y414500D02*
X201500Y414000D01*
D19*
X31000Y549000D03*
X27000Y260000D03*
X77000Y405000D03*
X72000Y155000D03*
X202000Y273000D03*
X245000Y416000D03*
X347000Y460000D03*
X462000Y462000D03*
X466000Y400000D03*
X580000Y357000D03*
X627000Y276000D03*
X584000Y135000D03*
X500000Y103000D03*
X418000Y132000D03*
X341000Y233000D03*
M02*
