G04 EAGLE Gerber RS-274X export*
G75*
%MOMM*%
%FSLAX34Y34*%
%LPD*%
%IN*%
%IPPOS*%
%AMOC8*
5,1,8,0,0,1.08239X$1,22.5*%
G01*
%ADD10C,0.254000*%


D10*
X-241300Y38100D02*
X560200Y38100D01*
X560200Y465500D01*
X-241300Y465500D01*
X-241300Y38100D01*
X233100Y59500D02*
X233117Y59108D01*
X233168Y58719D01*
X233253Y58335D01*
X233371Y57961D01*
X233522Y57598D01*
X233703Y57250D01*
X233914Y56919D01*
X234153Y56607D01*
X234418Y56318D01*
X234707Y56053D01*
X235019Y55814D01*
X235350Y55603D01*
X235698Y55422D01*
X236061Y55271D01*
X236435Y55153D01*
X236819Y55068D01*
X237208Y55017D01*
X237600Y55000D01*
X237992Y55017D01*
X238381Y55068D01*
X238765Y55153D01*
X239139Y55271D01*
X239502Y55422D01*
X239850Y55603D01*
X240181Y55814D01*
X240493Y56053D01*
X240782Y56318D01*
X241047Y56607D01*
X241286Y56919D01*
X241497Y57250D01*
X241678Y57598D01*
X241829Y57961D01*
X241947Y58335D01*
X242032Y58719D01*
X242083Y59108D01*
X242100Y59500D01*
X242100Y67500D01*
X242083Y67892D01*
X242032Y68281D01*
X241947Y68665D01*
X241829Y69039D01*
X241678Y69402D01*
X241497Y69750D01*
X241286Y70081D01*
X241047Y70393D01*
X240782Y70682D01*
X240493Y70947D01*
X240181Y71186D01*
X239850Y71397D01*
X239502Y71578D01*
X239139Y71729D01*
X238765Y71847D01*
X238381Y71932D01*
X237992Y71983D01*
X237600Y72000D01*
X237208Y71983D01*
X236819Y71932D01*
X236435Y71847D01*
X236061Y71729D01*
X235698Y71578D01*
X235350Y71397D01*
X235019Y71186D01*
X234707Y70947D01*
X234418Y70682D01*
X234153Y70393D01*
X233914Y70081D01*
X233703Y69750D01*
X233522Y69402D01*
X233371Y69039D01*
X233253Y68665D01*
X233168Y68281D01*
X233117Y67892D01*
X233100Y67500D01*
X233100Y59500D01*
X88100Y59500D02*
X88117Y59108D01*
X88168Y58719D01*
X88253Y58335D01*
X88371Y57961D01*
X88522Y57598D01*
X88703Y57250D01*
X88914Y56919D01*
X89153Y56607D01*
X89418Y56318D01*
X89707Y56053D01*
X90019Y55814D01*
X90350Y55603D01*
X90698Y55422D01*
X91061Y55271D01*
X91435Y55153D01*
X91819Y55068D01*
X92208Y55017D01*
X92600Y55000D01*
X92992Y55017D01*
X93381Y55068D01*
X93765Y55153D01*
X94139Y55271D01*
X94502Y55422D01*
X94850Y55603D01*
X95181Y55814D01*
X95493Y56053D01*
X95782Y56318D01*
X96047Y56607D01*
X96286Y56919D01*
X96497Y57250D01*
X96678Y57598D01*
X96829Y57961D01*
X96947Y58335D01*
X97032Y58719D01*
X97083Y59108D01*
X97100Y59500D01*
X97100Y67500D01*
X97083Y67892D01*
X97032Y68281D01*
X96947Y68665D01*
X96829Y69039D01*
X96678Y69402D01*
X96497Y69750D01*
X96286Y70081D01*
X96047Y70393D01*
X95782Y70682D01*
X95493Y70947D01*
X95181Y71186D01*
X94850Y71397D01*
X94502Y71578D01*
X94139Y71729D01*
X93765Y71847D01*
X93381Y71932D01*
X92992Y71983D01*
X92600Y72000D01*
X92208Y71983D01*
X91819Y71932D01*
X91435Y71847D01*
X91061Y71729D01*
X90698Y71578D01*
X90350Y71397D01*
X90019Y71186D01*
X89707Y70947D01*
X89418Y70682D01*
X89153Y70393D01*
X88914Y70081D01*
X88703Y69750D01*
X88522Y69402D01*
X88371Y69039D01*
X88253Y68665D01*
X88168Y68281D01*
X88117Y67892D01*
X88100Y67500D01*
X88100Y59500D01*
X233100Y114100D02*
X233117Y113708D01*
X233168Y113319D01*
X233253Y112935D01*
X233371Y112561D01*
X233522Y112198D01*
X233703Y111850D01*
X233914Y111519D01*
X234153Y111207D01*
X234418Y110918D01*
X234707Y110653D01*
X235019Y110414D01*
X235350Y110203D01*
X235698Y110022D01*
X236061Y109871D01*
X236435Y109753D01*
X236819Y109668D01*
X237208Y109617D01*
X237600Y109600D01*
X237992Y109617D01*
X238381Y109668D01*
X238765Y109753D01*
X239139Y109871D01*
X239502Y110022D01*
X239850Y110203D01*
X240181Y110414D01*
X240493Y110653D01*
X240782Y110918D01*
X241047Y111207D01*
X241286Y111519D01*
X241497Y111850D01*
X241678Y112198D01*
X241829Y112561D01*
X241947Y112935D01*
X242032Y113319D01*
X242083Y113708D01*
X242100Y114100D01*
X242100Y132100D01*
X242083Y132492D01*
X242032Y132881D01*
X241947Y133265D01*
X241829Y133639D01*
X241678Y134002D01*
X241497Y134350D01*
X241286Y134681D01*
X241047Y134993D01*
X240782Y135282D01*
X240493Y135547D01*
X240181Y135786D01*
X239850Y135997D01*
X239502Y136178D01*
X239139Y136329D01*
X238765Y136447D01*
X238381Y136532D01*
X237992Y136583D01*
X237600Y136600D01*
X237208Y136583D01*
X236819Y136532D01*
X236435Y136447D01*
X236061Y136329D01*
X235698Y136178D01*
X235350Y135997D01*
X235019Y135786D01*
X234707Y135547D01*
X234418Y135282D01*
X234153Y134993D01*
X233914Y134681D01*
X233703Y134350D01*
X233522Y134002D01*
X233371Y133639D01*
X233253Y133265D01*
X233168Y132881D01*
X233117Y132492D01*
X233100Y132100D01*
X233100Y114100D01*
X88100Y114100D02*
X88117Y113708D01*
X88168Y113319D01*
X88253Y112935D01*
X88371Y112561D01*
X88522Y112198D01*
X88703Y111850D01*
X88914Y111519D01*
X89153Y111207D01*
X89418Y110918D01*
X89707Y110653D01*
X90019Y110414D01*
X90350Y110203D01*
X90698Y110022D01*
X91061Y109871D01*
X91435Y109753D01*
X91819Y109668D01*
X92208Y109617D01*
X92600Y109600D01*
X92992Y109617D01*
X93381Y109668D01*
X93765Y109753D01*
X94139Y109871D01*
X94502Y110022D01*
X94850Y110203D01*
X95181Y110414D01*
X95493Y110653D01*
X95782Y110918D01*
X96047Y111207D01*
X96286Y111519D01*
X96497Y111850D01*
X96678Y112198D01*
X96829Y112561D01*
X96947Y112935D01*
X97032Y113319D01*
X97083Y113708D01*
X97100Y114100D01*
X97100Y132100D01*
X97083Y132492D01*
X97032Y132881D01*
X96947Y133265D01*
X96829Y133639D01*
X96678Y134002D01*
X96497Y134350D01*
X96286Y134681D01*
X96047Y134993D01*
X95782Y135282D01*
X95493Y135547D01*
X95181Y135786D01*
X94850Y135997D01*
X94502Y136178D01*
X94139Y136329D01*
X93765Y136447D01*
X93381Y136532D01*
X92992Y136583D01*
X92600Y136600D01*
X92208Y136583D01*
X91819Y136532D01*
X91435Y136447D01*
X91061Y136329D01*
X90698Y136178D01*
X90350Y135997D01*
X90019Y135786D01*
X89707Y135547D01*
X89418Y135282D01*
X89153Y134993D01*
X88914Y134681D01*
X88703Y134350D01*
X88522Y134002D01*
X88371Y133639D01*
X88253Y133265D01*
X88168Y132881D01*
X88117Y132492D01*
X88100Y132100D01*
X88100Y114100D01*
X499800Y114100D02*
X499817Y113708D01*
X499868Y113319D01*
X499953Y112935D01*
X500071Y112561D01*
X500222Y112198D01*
X500403Y111850D01*
X500614Y111519D01*
X500853Y111207D01*
X501118Y110918D01*
X501407Y110653D01*
X501719Y110414D01*
X502050Y110203D01*
X502398Y110022D01*
X502761Y109871D01*
X503135Y109753D01*
X503519Y109668D01*
X503908Y109617D01*
X504300Y109600D01*
X504692Y109617D01*
X505081Y109668D01*
X505465Y109753D01*
X505839Y109871D01*
X506202Y110022D01*
X506550Y110203D01*
X506881Y110414D01*
X507193Y110653D01*
X507482Y110918D01*
X507747Y111207D01*
X507986Y111519D01*
X508197Y111850D01*
X508378Y112198D01*
X508529Y112561D01*
X508647Y112935D01*
X508732Y113319D01*
X508783Y113708D01*
X508800Y114100D01*
X508800Y132100D01*
X508783Y132492D01*
X508732Y132881D01*
X508647Y133265D01*
X508529Y133639D01*
X508378Y134002D01*
X508197Y134350D01*
X507986Y134681D01*
X507747Y134993D01*
X507482Y135282D01*
X507193Y135547D01*
X506881Y135786D01*
X506550Y135997D01*
X506202Y136178D01*
X505839Y136329D01*
X505465Y136447D01*
X505081Y136532D01*
X504692Y136583D01*
X504300Y136600D01*
X503908Y136583D01*
X503519Y136532D01*
X503135Y136447D01*
X502761Y136329D01*
X502398Y136178D01*
X502050Y135997D01*
X501719Y135786D01*
X501407Y135547D01*
X501118Y135282D01*
X500853Y134993D01*
X500614Y134681D01*
X500403Y134350D01*
X500222Y134002D01*
X500071Y133639D01*
X499953Y133265D01*
X499868Y132881D01*
X499817Y132492D01*
X499800Y132100D01*
X499800Y114100D01*
X499800Y59500D02*
X499817Y59108D01*
X499868Y58719D01*
X499953Y58335D01*
X500071Y57961D01*
X500222Y57598D01*
X500403Y57250D01*
X500614Y56919D01*
X500853Y56607D01*
X501118Y56318D01*
X501407Y56053D01*
X501719Y55814D01*
X502050Y55603D01*
X502398Y55422D01*
X502761Y55271D01*
X503135Y55153D01*
X503519Y55068D01*
X503908Y55017D01*
X504300Y55000D01*
X504692Y55017D01*
X505081Y55068D01*
X505465Y55153D01*
X505839Y55271D01*
X506202Y55422D01*
X506550Y55603D01*
X506881Y55814D01*
X507193Y56053D01*
X507482Y56318D01*
X507747Y56607D01*
X507986Y56919D01*
X508197Y57250D01*
X508378Y57598D01*
X508529Y57961D01*
X508647Y58335D01*
X508732Y58719D01*
X508783Y59108D01*
X508800Y59500D01*
X508800Y67500D01*
X508783Y67892D01*
X508732Y68281D01*
X508647Y68665D01*
X508529Y69039D01*
X508378Y69402D01*
X508197Y69750D01*
X507986Y70081D01*
X507747Y70393D01*
X507482Y70682D01*
X507193Y70947D01*
X506881Y71186D01*
X506550Y71397D01*
X506202Y71578D01*
X505839Y71729D01*
X505465Y71847D01*
X505081Y71932D01*
X504692Y71983D01*
X504300Y72000D01*
X503908Y71983D01*
X503519Y71932D01*
X503135Y71847D01*
X502761Y71729D01*
X502398Y71578D01*
X502050Y71397D01*
X501719Y71186D01*
X501407Y70947D01*
X501118Y70682D01*
X500853Y70393D01*
X500614Y70081D01*
X500403Y69750D01*
X500222Y69402D01*
X500071Y69039D01*
X499953Y68665D01*
X499868Y68281D01*
X499817Y67892D01*
X499800Y67500D01*
X499800Y59500D01*
X502500Y374800D02*
X502517Y374408D01*
X502568Y374019D01*
X502653Y373635D01*
X502771Y373261D01*
X502922Y372898D01*
X503103Y372550D01*
X503314Y372219D01*
X503553Y371907D01*
X503818Y371618D01*
X504107Y371353D01*
X504419Y371114D01*
X504750Y370903D01*
X505098Y370722D01*
X505461Y370571D01*
X505835Y370453D01*
X506219Y370368D01*
X506608Y370317D01*
X507000Y370300D01*
X507392Y370317D01*
X507781Y370368D01*
X508165Y370453D01*
X508539Y370571D01*
X508902Y370722D01*
X509250Y370903D01*
X509581Y371114D01*
X509893Y371353D01*
X510182Y371618D01*
X510447Y371907D01*
X510686Y372219D01*
X510897Y372550D01*
X511078Y372898D01*
X511229Y373261D01*
X511347Y373635D01*
X511432Y374019D01*
X511483Y374408D01*
X511500Y374800D01*
X511500Y392800D01*
X511483Y393192D01*
X511432Y393581D01*
X511347Y393965D01*
X511229Y394339D01*
X511078Y394702D01*
X510897Y395050D01*
X510686Y395381D01*
X510447Y395693D01*
X510182Y395982D01*
X509893Y396247D01*
X509581Y396486D01*
X509250Y396697D01*
X508902Y396878D01*
X508539Y397029D01*
X508165Y397147D01*
X507781Y397232D01*
X507392Y397283D01*
X507000Y397300D01*
X506608Y397283D01*
X506219Y397232D01*
X505835Y397147D01*
X505461Y397029D01*
X505098Y396878D01*
X504750Y396697D01*
X504419Y396486D01*
X504107Y396247D01*
X503818Y395982D01*
X503553Y395693D01*
X503314Y395381D01*
X503103Y395050D01*
X502922Y394702D01*
X502771Y394339D01*
X502653Y393965D01*
X502568Y393581D01*
X502517Y393192D01*
X502500Y392800D01*
X502500Y374800D01*
X357500Y374800D02*
X357517Y374408D01*
X357568Y374019D01*
X357653Y373635D01*
X357771Y373261D01*
X357922Y372898D01*
X358103Y372550D01*
X358314Y372219D01*
X358553Y371907D01*
X358818Y371618D01*
X359107Y371353D01*
X359419Y371114D01*
X359750Y370903D01*
X360098Y370722D01*
X360461Y370571D01*
X360835Y370453D01*
X361219Y370368D01*
X361608Y370317D01*
X362000Y370300D01*
X362392Y370317D01*
X362781Y370368D01*
X363165Y370453D01*
X363539Y370571D01*
X363902Y370722D01*
X364250Y370903D01*
X364581Y371114D01*
X364893Y371353D01*
X365182Y371618D01*
X365447Y371907D01*
X365686Y372219D01*
X365897Y372550D01*
X366078Y372898D01*
X366229Y373261D01*
X366347Y373635D01*
X366432Y374019D01*
X366483Y374408D01*
X366500Y374800D01*
X366500Y392800D01*
X366483Y393192D01*
X366432Y393581D01*
X366347Y393965D01*
X366229Y394339D01*
X366078Y394702D01*
X365897Y395050D01*
X365686Y395381D01*
X365447Y395693D01*
X365182Y395982D01*
X364893Y396247D01*
X364581Y396486D01*
X364250Y396697D01*
X363902Y396878D01*
X363539Y397029D01*
X363165Y397147D01*
X362781Y397232D01*
X362392Y397283D01*
X362000Y397300D01*
X361608Y397283D01*
X361219Y397232D01*
X360835Y397147D01*
X360461Y397029D01*
X360098Y396878D01*
X359750Y396697D01*
X359419Y396486D01*
X359107Y396247D01*
X358818Y395982D01*
X358553Y395693D01*
X358314Y395381D01*
X358103Y395050D01*
X357922Y394702D01*
X357771Y394339D01*
X357653Y393965D01*
X357568Y393581D01*
X357517Y393192D01*
X357500Y392800D01*
X357500Y374800D01*
X502500Y439400D02*
X502517Y439008D01*
X502568Y438619D01*
X502653Y438235D01*
X502771Y437861D01*
X502922Y437498D01*
X503103Y437150D01*
X503314Y436819D01*
X503553Y436507D01*
X503818Y436218D01*
X504107Y435953D01*
X504419Y435714D01*
X504750Y435503D01*
X505098Y435322D01*
X505461Y435171D01*
X505835Y435053D01*
X506219Y434968D01*
X506608Y434917D01*
X507000Y434900D01*
X507392Y434917D01*
X507781Y434968D01*
X508165Y435053D01*
X508539Y435171D01*
X508902Y435322D01*
X509250Y435503D01*
X509581Y435714D01*
X509893Y435953D01*
X510182Y436218D01*
X510447Y436507D01*
X510686Y436819D01*
X510897Y437150D01*
X511078Y437498D01*
X511229Y437861D01*
X511347Y438235D01*
X511432Y438619D01*
X511483Y439008D01*
X511500Y439400D01*
X511500Y447400D01*
X511483Y447792D01*
X511432Y448181D01*
X511347Y448565D01*
X511229Y448939D01*
X511078Y449302D01*
X510897Y449650D01*
X510686Y449981D01*
X510447Y450293D01*
X510182Y450582D01*
X509893Y450847D01*
X509581Y451086D01*
X509250Y451297D01*
X508902Y451478D01*
X508539Y451629D01*
X508165Y451747D01*
X507781Y451832D01*
X507392Y451883D01*
X507000Y451900D01*
X506608Y451883D01*
X506219Y451832D01*
X505835Y451747D01*
X505461Y451629D01*
X505098Y451478D01*
X504750Y451297D01*
X504419Y451086D01*
X504107Y450847D01*
X503818Y450582D01*
X503553Y450293D01*
X503314Y449981D01*
X503103Y449650D01*
X502922Y449302D01*
X502771Y448939D01*
X502653Y448565D01*
X502568Y448181D01*
X502517Y447792D01*
X502500Y447400D01*
X502500Y439400D01*
X357500Y439400D02*
X357517Y439008D01*
X357568Y438619D01*
X357653Y438235D01*
X357771Y437861D01*
X357922Y437498D01*
X358103Y437150D01*
X358314Y436819D01*
X358553Y436507D01*
X358818Y436218D01*
X359107Y435953D01*
X359419Y435714D01*
X359750Y435503D01*
X360098Y435322D01*
X360461Y435171D01*
X360835Y435053D01*
X361219Y434968D01*
X361608Y434917D01*
X362000Y434900D01*
X362392Y434917D01*
X362781Y434968D01*
X363165Y435053D01*
X363539Y435171D01*
X363902Y435322D01*
X364250Y435503D01*
X364581Y435714D01*
X364893Y435953D01*
X365182Y436218D01*
X365447Y436507D01*
X365686Y436819D01*
X365897Y437150D01*
X366078Y437498D01*
X366229Y437861D01*
X366347Y438235D01*
X366432Y438619D01*
X366483Y439008D01*
X366500Y439400D01*
X366500Y447400D01*
X366483Y447792D01*
X366432Y448181D01*
X366347Y448565D01*
X366229Y448939D01*
X366078Y449302D01*
X365897Y449650D01*
X365686Y449981D01*
X365447Y450293D01*
X365182Y450582D01*
X364893Y450847D01*
X364581Y451086D01*
X364250Y451297D01*
X363902Y451478D01*
X363539Y451629D01*
X363165Y451747D01*
X362781Y451832D01*
X362392Y451883D01*
X362000Y451900D01*
X361608Y451883D01*
X361219Y451832D01*
X360835Y451747D01*
X360461Y451629D01*
X360098Y451478D01*
X359750Y451297D01*
X359419Y451086D01*
X359107Y450847D01*
X358818Y450582D01*
X358553Y450293D01*
X358314Y449981D01*
X358103Y449650D01*
X357922Y449302D01*
X357771Y448939D01*
X357653Y448565D01*
X357568Y448181D01*
X357517Y447792D01*
X357500Y447400D01*
X357500Y439400D01*
X-178600Y114100D02*
X-178583Y113708D01*
X-178532Y113319D01*
X-178447Y112935D01*
X-178329Y112561D01*
X-178178Y112198D01*
X-177997Y111850D01*
X-177786Y111519D01*
X-177547Y111207D01*
X-177282Y110918D01*
X-176993Y110653D01*
X-176681Y110414D01*
X-176350Y110203D01*
X-176002Y110022D01*
X-175639Y109871D01*
X-175265Y109753D01*
X-174881Y109668D01*
X-174492Y109617D01*
X-174100Y109600D01*
X-173708Y109617D01*
X-173319Y109668D01*
X-172935Y109753D01*
X-172561Y109871D01*
X-172198Y110022D01*
X-171850Y110203D01*
X-171519Y110414D01*
X-171207Y110653D01*
X-170918Y110918D01*
X-170653Y111207D01*
X-170414Y111519D01*
X-170203Y111850D01*
X-170022Y112198D01*
X-169871Y112561D01*
X-169753Y112935D01*
X-169668Y113319D01*
X-169617Y113708D01*
X-169600Y114100D01*
X-169600Y132100D01*
X-169617Y132492D01*
X-169668Y132881D01*
X-169753Y133265D01*
X-169871Y133639D01*
X-170022Y134002D01*
X-170203Y134350D01*
X-170414Y134681D01*
X-170653Y134993D01*
X-170918Y135282D01*
X-171207Y135547D01*
X-171519Y135786D01*
X-171850Y135997D01*
X-172198Y136178D01*
X-172561Y136329D01*
X-172935Y136447D01*
X-173319Y136532D01*
X-173708Y136583D01*
X-174100Y136600D01*
X-174492Y136583D01*
X-174881Y136532D01*
X-175265Y136447D01*
X-175639Y136329D01*
X-176002Y136178D01*
X-176350Y135997D01*
X-176681Y135786D01*
X-176993Y135547D01*
X-177282Y135282D01*
X-177547Y134993D01*
X-177786Y134681D01*
X-177997Y134350D01*
X-178178Y134002D01*
X-178329Y133639D01*
X-178447Y133265D01*
X-178532Y132881D01*
X-178583Y132492D01*
X-178600Y132100D01*
X-178600Y114100D01*
X-178600Y59500D02*
X-178583Y59108D01*
X-178532Y58719D01*
X-178447Y58335D01*
X-178329Y57961D01*
X-178178Y57598D01*
X-177997Y57250D01*
X-177786Y56919D01*
X-177547Y56607D01*
X-177282Y56318D01*
X-176993Y56053D01*
X-176681Y55814D01*
X-176350Y55603D01*
X-176002Y55422D01*
X-175639Y55271D01*
X-175265Y55153D01*
X-174881Y55068D01*
X-174492Y55017D01*
X-174100Y55000D01*
X-173708Y55017D01*
X-173319Y55068D01*
X-172935Y55153D01*
X-172561Y55271D01*
X-172198Y55422D01*
X-171850Y55603D01*
X-171519Y55814D01*
X-171207Y56053D01*
X-170918Y56318D01*
X-170653Y56607D01*
X-170414Y56919D01*
X-170203Y57250D01*
X-170022Y57598D01*
X-169871Y57961D01*
X-169753Y58335D01*
X-169668Y58719D01*
X-169617Y59108D01*
X-169600Y59500D01*
X-169600Y67500D01*
X-169617Y67892D01*
X-169668Y68281D01*
X-169753Y68665D01*
X-169871Y69039D01*
X-170022Y69402D01*
X-170203Y69750D01*
X-170414Y70081D01*
X-170653Y70393D01*
X-170918Y70682D01*
X-171207Y70947D01*
X-171519Y71186D01*
X-171850Y71397D01*
X-172198Y71578D01*
X-172561Y71729D01*
X-172935Y71847D01*
X-173319Y71932D01*
X-173708Y71983D01*
X-174100Y72000D01*
X-174492Y71983D01*
X-174881Y71932D01*
X-175265Y71847D01*
X-175639Y71729D01*
X-176002Y71578D01*
X-176350Y71397D01*
X-176681Y71186D01*
X-176993Y70947D01*
X-177282Y70682D01*
X-177547Y70393D01*
X-177786Y70081D01*
X-177997Y69750D01*
X-178178Y69402D01*
X-178329Y69039D01*
X-178447Y68665D01*
X-178532Y68281D01*
X-178583Y67892D01*
X-178600Y67500D01*
X-178600Y59500D01*
X-33600Y59500D02*
X-33583Y59108D01*
X-33532Y58719D01*
X-33447Y58335D01*
X-33329Y57961D01*
X-33178Y57598D01*
X-32997Y57250D01*
X-32786Y56919D01*
X-32547Y56607D01*
X-32282Y56318D01*
X-31993Y56053D01*
X-31681Y55814D01*
X-31350Y55603D01*
X-31002Y55422D01*
X-30639Y55271D01*
X-30265Y55153D01*
X-29881Y55068D01*
X-29492Y55017D01*
X-29100Y55000D01*
X-28708Y55017D01*
X-28319Y55068D01*
X-27935Y55153D01*
X-27561Y55271D01*
X-27198Y55422D01*
X-26850Y55603D01*
X-26519Y55814D01*
X-26207Y56053D01*
X-25918Y56318D01*
X-25653Y56607D01*
X-25414Y56919D01*
X-25203Y57250D01*
X-25022Y57598D01*
X-24871Y57961D01*
X-24753Y58335D01*
X-24668Y58719D01*
X-24617Y59108D01*
X-24600Y59500D01*
X-24600Y67500D01*
X-24617Y67892D01*
X-24668Y68281D01*
X-24753Y68665D01*
X-24871Y69039D01*
X-25022Y69402D01*
X-25203Y69750D01*
X-25414Y70081D01*
X-25653Y70393D01*
X-25918Y70682D01*
X-26207Y70947D01*
X-26519Y71186D01*
X-26850Y71397D01*
X-27198Y71578D01*
X-27561Y71729D01*
X-27935Y71847D01*
X-28319Y71932D01*
X-28708Y71983D01*
X-29100Y72000D01*
X-29492Y71983D01*
X-29881Y71932D01*
X-30265Y71847D01*
X-30639Y71729D01*
X-31002Y71578D01*
X-31350Y71397D01*
X-31681Y71186D01*
X-31993Y70947D01*
X-32282Y70682D01*
X-32547Y70393D01*
X-32786Y70081D01*
X-32997Y69750D01*
X-33178Y69402D01*
X-33329Y69039D01*
X-33447Y68665D01*
X-33532Y68281D01*
X-33583Y67892D01*
X-33600Y67500D01*
X-33600Y59500D01*
X354800Y114100D02*
X354817Y113708D01*
X354868Y113319D01*
X354953Y112935D01*
X355071Y112561D01*
X355222Y112198D01*
X355403Y111850D01*
X355614Y111519D01*
X355853Y111207D01*
X356118Y110918D01*
X356407Y110653D01*
X356719Y110414D01*
X357050Y110203D01*
X357398Y110022D01*
X357761Y109871D01*
X358135Y109753D01*
X358519Y109668D01*
X358908Y109617D01*
X359300Y109600D01*
X359692Y109617D01*
X360081Y109668D01*
X360465Y109753D01*
X360839Y109871D01*
X361202Y110022D01*
X361550Y110203D01*
X361881Y110414D01*
X362193Y110653D01*
X362482Y110918D01*
X362747Y111207D01*
X362986Y111519D01*
X363197Y111850D01*
X363378Y112198D01*
X363529Y112561D01*
X363647Y112935D01*
X363732Y113319D01*
X363783Y113708D01*
X363800Y114100D01*
X363800Y132100D01*
X363783Y132492D01*
X363732Y132881D01*
X363647Y133265D01*
X363529Y133639D01*
X363378Y134002D01*
X363197Y134350D01*
X362986Y134681D01*
X362747Y134993D01*
X362482Y135282D01*
X362193Y135547D01*
X361881Y135786D01*
X361550Y135997D01*
X361202Y136178D01*
X360839Y136329D01*
X360465Y136447D01*
X360081Y136532D01*
X359692Y136583D01*
X359300Y136600D01*
X358908Y136583D01*
X358519Y136532D01*
X358135Y136447D01*
X357761Y136329D01*
X357398Y136178D01*
X357050Y135997D01*
X356719Y135786D01*
X356407Y135547D01*
X356118Y135282D01*
X355853Y134993D01*
X355614Y134681D01*
X355403Y134350D01*
X355222Y134002D01*
X355071Y133639D01*
X354953Y133265D01*
X354868Y132881D01*
X354817Y132492D01*
X354800Y132100D01*
X354800Y114100D01*
X354800Y59500D02*
X354817Y59108D01*
X354868Y58719D01*
X354953Y58335D01*
X355071Y57961D01*
X355222Y57598D01*
X355403Y57250D01*
X355614Y56919D01*
X355853Y56607D01*
X356118Y56318D01*
X356407Y56053D01*
X356719Y55814D01*
X357050Y55603D01*
X357398Y55422D01*
X357761Y55271D01*
X358135Y55153D01*
X358519Y55068D01*
X358908Y55017D01*
X359300Y55000D01*
X359692Y55017D01*
X360081Y55068D01*
X360465Y55153D01*
X360839Y55271D01*
X361202Y55422D01*
X361550Y55603D01*
X361881Y55814D01*
X362193Y56053D01*
X362482Y56318D01*
X362747Y56607D01*
X362986Y56919D01*
X363197Y57250D01*
X363378Y57598D01*
X363529Y57961D01*
X363647Y58335D01*
X363732Y58719D01*
X363783Y59108D01*
X363800Y59500D01*
X363800Y67500D01*
X363783Y67892D01*
X363732Y68281D01*
X363647Y68665D01*
X363529Y69039D01*
X363378Y69402D01*
X363197Y69750D01*
X362986Y70081D01*
X362747Y70393D01*
X362482Y70682D01*
X362193Y70947D01*
X361881Y71186D01*
X361550Y71397D01*
X361202Y71578D01*
X360839Y71729D01*
X360465Y71847D01*
X360081Y71932D01*
X359692Y71983D01*
X359300Y72000D01*
X358908Y71983D01*
X358519Y71932D01*
X358135Y71847D01*
X357761Y71729D01*
X357398Y71578D01*
X357050Y71397D01*
X356719Y71186D01*
X356407Y70947D01*
X356118Y70682D01*
X355853Y70393D01*
X355614Y70081D01*
X355403Y69750D01*
X355222Y69402D01*
X355071Y69039D01*
X354953Y68665D01*
X354868Y68281D01*
X354817Y67892D01*
X354800Y67500D01*
X354800Y59500D01*
X-33600Y114100D02*
X-33583Y113708D01*
X-33532Y113319D01*
X-33447Y112935D01*
X-33329Y112561D01*
X-33178Y112198D01*
X-32997Y111850D01*
X-32786Y111519D01*
X-32547Y111207D01*
X-32282Y110918D01*
X-31993Y110653D01*
X-31681Y110414D01*
X-31350Y110203D01*
X-31002Y110022D01*
X-30639Y109871D01*
X-30265Y109753D01*
X-29881Y109668D01*
X-29492Y109617D01*
X-29100Y109600D01*
X-28708Y109617D01*
X-28319Y109668D01*
X-27935Y109753D01*
X-27561Y109871D01*
X-27198Y110022D01*
X-26850Y110203D01*
X-26519Y110414D01*
X-26207Y110653D01*
X-25918Y110918D01*
X-25653Y111207D01*
X-25414Y111519D01*
X-25203Y111850D01*
X-25022Y112198D01*
X-24871Y112561D01*
X-24753Y112935D01*
X-24668Y113319D01*
X-24617Y113708D01*
X-24600Y114100D01*
X-24600Y132100D01*
X-24617Y132492D01*
X-24668Y132881D01*
X-24753Y133265D01*
X-24871Y133639D01*
X-25022Y134002D01*
X-25203Y134350D01*
X-25414Y134681D01*
X-25653Y134993D01*
X-25918Y135282D01*
X-26207Y135547D01*
X-26519Y135786D01*
X-26850Y135997D01*
X-27198Y136178D01*
X-27561Y136329D01*
X-27935Y136447D01*
X-28319Y136532D01*
X-28708Y136583D01*
X-29100Y136600D01*
X-29492Y136583D01*
X-29881Y136532D01*
X-30265Y136447D01*
X-30639Y136329D01*
X-31002Y136178D01*
X-31350Y135997D01*
X-31681Y135786D01*
X-31993Y135547D01*
X-32282Y135282D01*
X-32547Y134993D01*
X-32786Y134681D01*
X-32997Y134350D01*
X-33178Y134002D01*
X-33329Y133639D01*
X-33447Y133265D01*
X-33532Y132881D01*
X-33583Y132492D01*
X-33600Y132100D01*
X-33600Y114100D01*
X-212850Y443228D02*
X-212917Y442890D01*
X-213049Y442571D01*
X-213241Y442284D01*
X-213484Y442041D01*
X-213771Y441849D01*
X-214090Y441717D01*
X-214428Y441650D01*
X-214772Y441650D01*
X-215110Y441717D01*
X-215429Y441849D01*
X-215716Y442041D01*
X-215959Y442284D01*
X-216151Y442571D01*
X-216283Y442890D01*
X-216350Y443228D01*
X-216350Y443572D01*
X-216283Y443910D01*
X-216151Y444229D01*
X-215959Y444516D01*
X-215716Y444759D01*
X-215429Y444951D01*
X-215110Y445083D01*
X-214772Y445150D01*
X-214428Y445150D01*
X-214090Y445083D01*
X-213771Y444951D01*
X-213484Y444759D01*
X-213241Y444516D01*
X-213049Y444229D01*
X-212917Y443910D01*
X-212850Y443572D01*
X-212850Y443228D01*
X-214150Y63328D02*
X-214217Y62990D01*
X-214349Y62671D01*
X-214541Y62384D01*
X-214784Y62141D01*
X-215071Y61949D01*
X-215390Y61817D01*
X-215728Y61750D01*
X-216072Y61750D01*
X-216410Y61817D01*
X-216729Y61949D01*
X-217016Y62141D01*
X-217259Y62384D01*
X-217451Y62671D01*
X-217583Y62990D01*
X-217650Y63328D01*
X-217650Y63672D01*
X-217583Y64010D01*
X-217451Y64329D01*
X-217259Y64616D01*
X-217016Y64859D01*
X-216729Y65051D01*
X-216410Y65183D01*
X-216072Y65250D01*
X-215728Y65250D01*
X-215390Y65183D01*
X-215071Y65051D01*
X-214784Y64859D01*
X-214541Y64616D01*
X-214349Y64329D01*
X-214217Y64010D01*
X-214150Y63672D01*
X-214150Y63328D01*
X536750Y443228D02*
X536683Y442890D01*
X536551Y442571D01*
X536359Y442284D01*
X536116Y442041D01*
X535829Y441849D01*
X535510Y441717D01*
X535172Y441650D01*
X534828Y441650D01*
X534490Y441717D01*
X534171Y441849D01*
X533884Y442041D01*
X533641Y442284D01*
X533449Y442571D01*
X533317Y442890D01*
X533250Y443228D01*
X533250Y443572D01*
X533317Y443910D01*
X533449Y444229D01*
X533641Y444516D01*
X533884Y444759D01*
X534171Y444951D01*
X534490Y445083D01*
X534828Y445150D01*
X535172Y445150D01*
X535510Y445083D01*
X535829Y444951D01*
X536116Y444759D01*
X536359Y444516D01*
X536551Y444229D01*
X536683Y443910D01*
X536750Y443572D01*
X536750Y443228D01*
X536750Y63328D02*
X536683Y62990D01*
X536551Y62671D01*
X536359Y62384D01*
X536116Y62141D01*
X535829Y61949D01*
X535510Y61817D01*
X535172Y61750D01*
X534828Y61750D01*
X534490Y61817D01*
X534171Y61949D01*
X533884Y62141D01*
X533641Y62384D01*
X533449Y62671D01*
X533317Y62990D01*
X533250Y63328D01*
X533250Y63672D01*
X533317Y64010D01*
X533449Y64329D01*
X533641Y64616D01*
X533884Y64859D01*
X534171Y65051D01*
X534490Y65183D01*
X534828Y65250D01*
X535172Y65250D01*
X535510Y65183D01*
X535829Y65051D01*
X536116Y64859D01*
X536359Y64616D01*
X536551Y64329D01*
X536683Y64010D01*
X536750Y63672D01*
X536750Y63328D01*
M02*
