G04 EAGLE Gerber RS-274X export*
G75*
%MOMM*%
%FSLAX34Y34*%
%LPD*%
%INSilkscreen Top*%
%IPPOS*%
%AMOC8*
5,1,8,0,0,1.08239X$1,22.5*%
G01*
%ADD10C,0.076200*%
%ADD11C,0.152400*%
%ADD12C,0.101600*%
%ADD13C,0.127000*%
%ADD14C,0.200000*%
%ADD15C,0.300000*%
%ADD16R,0.508000X0.381000*%


D10*
X499619Y210381D02*
X490221Y210381D01*
X495442Y213514D01*
X490221Y216646D01*
X499619Y216646D01*
X499619Y223024D02*
X499619Y225113D01*
X499619Y223024D02*
X499617Y222935D01*
X499611Y222847D01*
X499602Y222759D01*
X499589Y222671D01*
X499572Y222584D01*
X499552Y222498D01*
X499527Y222413D01*
X499500Y222328D01*
X499468Y222245D01*
X499434Y222164D01*
X499395Y222084D01*
X499354Y222006D01*
X499309Y221929D01*
X499261Y221855D01*
X499210Y221782D01*
X499156Y221712D01*
X499098Y221645D01*
X499038Y221579D01*
X498976Y221517D01*
X498910Y221457D01*
X498843Y221399D01*
X498773Y221345D01*
X498700Y221294D01*
X498626Y221246D01*
X498549Y221201D01*
X498471Y221160D01*
X498391Y221121D01*
X498310Y221087D01*
X498227Y221055D01*
X498142Y221028D01*
X498057Y221003D01*
X497971Y220983D01*
X497884Y220966D01*
X497796Y220953D01*
X497708Y220944D01*
X497620Y220938D01*
X497531Y220936D01*
X492309Y220936D01*
X492309Y220935D02*
X492218Y220937D01*
X492127Y220943D01*
X492036Y220953D01*
X491946Y220967D01*
X491857Y220985D01*
X491768Y221006D01*
X491681Y221032D01*
X491595Y221061D01*
X491510Y221094D01*
X491426Y221131D01*
X491344Y221171D01*
X491265Y221215D01*
X491187Y221262D01*
X491111Y221313D01*
X491037Y221367D01*
X490966Y221424D01*
X490898Y221484D01*
X490832Y221547D01*
X490769Y221613D01*
X490709Y221681D01*
X490652Y221752D01*
X490598Y221826D01*
X490547Y221902D01*
X490500Y221979D01*
X490456Y222059D01*
X490416Y222141D01*
X490379Y222225D01*
X490346Y222309D01*
X490317Y222396D01*
X490291Y222483D01*
X490270Y222572D01*
X490252Y222661D01*
X490238Y222751D01*
X490228Y222842D01*
X490222Y222933D01*
X490220Y223024D01*
X490221Y223024D02*
X490221Y225113D01*
X490221Y229017D02*
X499619Y229017D01*
X490221Y229017D02*
X490221Y231628D01*
X490223Y231729D01*
X490229Y231830D01*
X490239Y231931D01*
X490252Y232031D01*
X490270Y232131D01*
X490291Y232230D01*
X490317Y232328D01*
X490346Y232425D01*
X490378Y232521D01*
X490415Y232615D01*
X490455Y232708D01*
X490499Y232800D01*
X490546Y232889D01*
X490597Y232977D01*
X490651Y233063D01*
X490708Y233146D01*
X490768Y233228D01*
X490832Y233306D01*
X490898Y233383D01*
X490968Y233456D01*
X491040Y233527D01*
X491115Y233595D01*
X491193Y233660D01*
X491273Y233722D01*
X491355Y233781D01*
X491440Y233837D01*
X491527Y233889D01*
X491615Y233938D01*
X491706Y233984D01*
X491798Y234025D01*
X491892Y234064D01*
X491987Y234098D01*
X492083Y234129D01*
X492181Y234156D01*
X492279Y234180D01*
X492379Y234199D01*
X492479Y234215D01*
X492579Y234227D01*
X492680Y234235D01*
X492781Y234239D01*
X492883Y234239D01*
X492984Y234235D01*
X493085Y234227D01*
X493185Y234215D01*
X493285Y234199D01*
X493385Y234180D01*
X493483Y234156D01*
X493581Y234129D01*
X493677Y234098D01*
X493772Y234064D01*
X493866Y234025D01*
X493958Y233984D01*
X494049Y233938D01*
X494138Y233889D01*
X494224Y233837D01*
X494309Y233781D01*
X494391Y233722D01*
X494471Y233660D01*
X494549Y233595D01*
X494624Y233527D01*
X494696Y233456D01*
X494766Y233383D01*
X494832Y233306D01*
X494896Y233228D01*
X494956Y233146D01*
X495013Y233063D01*
X495067Y232977D01*
X495118Y232889D01*
X495165Y232800D01*
X495209Y232708D01*
X495249Y232615D01*
X495286Y232521D01*
X495318Y232425D01*
X495347Y232328D01*
X495373Y232230D01*
X495394Y232131D01*
X495412Y232031D01*
X495425Y231931D01*
X495435Y231830D01*
X495441Y231729D01*
X495443Y231628D01*
X495442Y231628D02*
X495442Y229017D01*
X490221Y240597D02*
X490223Y240692D01*
X490229Y240786D01*
X490238Y240880D01*
X490251Y240974D01*
X490268Y241067D01*
X490289Y241159D01*
X490314Y241251D01*
X490342Y241341D01*
X490374Y241430D01*
X490409Y241518D01*
X490448Y241604D01*
X490490Y241689D01*
X490536Y241772D01*
X490585Y241853D01*
X490637Y241932D01*
X490692Y242009D01*
X490751Y242083D01*
X490812Y242155D01*
X490876Y242225D01*
X490943Y242292D01*
X491013Y242356D01*
X491085Y242417D01*
X491159Y242476D01*
X491236Y242531D01*
X491315Y242583D01*
X491396Y242632D01*
X491479Y242678D01*
X491564Y242720D01*
X491650Y242759D01*
X491738Y242794D01*
X491827Y242826D01*
X491917Y242854D01*
X492009Y242879D01*
X492101Y242900D01*
X492194Y242917D01*
X492288Y242930D01*
X492382Y242939D01*
X492476Y242945D01*
X492571Y242947D01*
X490221Y240597D02*
X490223Y240489D01*
X490229Y240380D01*
X490239Y240272D01*
X490252Y240165D01*
X490270Y240058D01*
X490291Y239951D01*
X490316Y239846D01*
X490345Y239741D01*
X490377Y239638D01*
X490414Y239536D01*
X490454Y239435D01*
X490497Y239336D01*
X490544Y239238D01*
X490595Y239142D01*
X490649Y239048D01*
X490706Y238956D01*
X490767Y238866D01*
X490831Y238778D01*
X490897Y238693D01*
X490967Y238610D01*
X491040Y238530D01*
X491116Y238452D01*
X491194Y238377D01*
X491275Y238305D01*
X491359Y238236D01*
X491445Y238170D01*
X491533Y238107D01*
X491624Y238048D01*
X491716Y237991D01*
X491811Y237938D01*
X491908Y237889D01*
X492006Y237843D01*
X492105Y237800D01*
X492207Y237761D01*
X492309Y237726D01*
X494399Y242164D02*
X494330Y242233D01*
X494259Y242299D01*
X494186Y242363D01*
X494110Y242424D01*
X494031Y242482D01*
X493951Y242536D01*
X493868Y242588D01*
X493784Y242636D01*
X493698Y242682D01*
X493610Y242723D01*
X493520Y242762D01*
X493429Y242797D01*
X493337Y242828D01*
X493244Y242856D01*
X493150Y242880D01*
X493055Y242900D01*
X492959Y242917D01*
X492862Y242930D01*
X492765Y242939D01*
X492668Y242945D01*
X492571Y242947D01*
X494398Y242163D02*
X499619Y237725D01*
X499619Y242946D01*
X492571Y252091D02*
X492476Y252089D01*
X492382Y252083D01*
X492288Y252074D01*
X492194Y252061D01*
X492101Y252044D01*
X492009Y252023D01*
X491917Y251998D01*
X491827Y251970D01*
X491738Y251938D01*
X491650Y251903D01*
X491564Y251864D01*
X491479Y251822D01*
X491396Y251776D01*
X491315Y251727D01*
X491236Y251675D01*
X491159Y251620D01*
X491085Y251561D01*
X491013Y251500D01*
X490943Y251436D01*
X490876Y251369D01*
X490812Y251299D01*
X490751Y251227D01*
X490692Y251153D01*
X490637Y251076D01*
X490585Y250997D01*
X490536Y250916D01*
X490490Y250833D01*
X490448Y250748D01*
X490409Y250662D01*
X490374Y250574D01*
X490342Y250485D01*
X490314Y250395D01*
X490289Y250303D01*
X490268Y250211D01*
X490251Y250118D01*
X490238Y250024D01*
X490229Y249930D01*
X490223Y249836D01*
X490221Y249741D01*
X490223Y249633D01*
X490229Y249524D01*
X490239Y249416D01*
X490252Y249309D01*
X490270Y249202D01*
X490291Y249095D01*
X490316Y248990D01*
X490345Y248885D01*
X490377Y248782D01*
X490414Y248680D01*
X490454Y248579D01*
X490497Y248480D01*
X490544Y248382D01*
X490595Y248286D01*
X490649Y248192D01*
X490706Y248100D01*
X490767Y248010D01*
X490831Y247922D01*
X490897Y247837D01*
X490967Y247754D01*
X491040Y247674D01*
X491116Y247596D01*
X491194Y247521D01*
X491275Y247449D01*
X491359Y247380D01*
X491445Y247314D01*
X491533Y247251D01*
X491624Y247192D01*
X491716Y247135D01*
X491811Y247082D01*
X491908Y247033D01*
X492006Y246987D01*
X492105Y246944D01*
X492207Y246905D01*
X492309Y246870D01*
X494399Y251308D02*
X494330Y251377D01*
X494259Y251443D01*
X494186Y251507D01*
X494110Y251568D01*
X494031Y251626D01*
X493951Y251680D01*
X493868Y251732D01*
X493784Y251780D01*
X493698Y251826D01*
X493610Y251867D01*
X493520Y251906D01*
X493429Y251941D01*
X493337Y251972D01*
X493244Y252000D01*
X493150Y252024D01*
X493055Y252044D01*
X492959Y252061D01*
X492862Y252074D01*
X492765Y252083D01*
X492668Y252089D01*
X492571Y252091D01*
X494398Y251307D02*
X499619Y246869D01*
X499619Y252090D01*
X492571Y261235D02*
X492476Y261233D01*
X492382Y261227D01*
X492288Y261218D01*
X492194Y261205D01*
X492101Y261188D01*
X492009Y261167D01*
X491917Y261142D01*
X491827Y261114D01*
X491738Y261082D01*
X491650Y261047D01*
X491564Y261008D01*
X491479Y260966D01*
X491396Y260920D01*
X491315Y260871D01*
X491236Y260819D01*
X491159Y260764D01*
X491085Y260705D01*
X491013Y260644D01*
X490943Y260580D01*
X490876Y260513D01*
X490812Y260443D01*
X490751Y260371D01*
X490692Y260297D01*
X490637Y260220D01*
X490585Y260141D01*
X490536Y260060D01*
X490490Y259977D01*
X490448Y259892D01*
X490409Y259806D01*
X490374Y259718D01*
X490342Y259629D01*
X490314Y259539D01*
X490289Y259447D01*
X490268Y259355D01*
X490251Y259262D01*
X490238Y259168D01*
X490229Y259074D01*
X490223Y258980D01*
X490221Y258885D01*
X490223Y258777D01*
X490229Y258668D01*
X490239Y258560D01*
X490252Y258453D01*
X490270Y258346D01*
X490291Y258239D01*
X490316Y258134D01*
X490345Y258029D01*
X490377Y257926D01*
X490414Y257824D01*
X490454Y257723D01*
X490497Y257624D01*
X490544Y257526D01*
X490595Y257430D01*
X490649Y257336D01*
X490706Y257244D01*
X490767Y257154D01*
X490831Y257066D01*
X490897Y256981D01*
X490967Y256898D01*
X491040Y256818D01*
X491116Y256740D01*
X491194Y256665D01*
X491275Y256593D01*
X491359Y256524D01*
X491445Y256458D01*
X491533Y256395D01*
X491624Y256336D01*
X491716Y256279D01*
X491811Y256226D01*
X491908Y256177D01*
X492006Y256131D01*
X492105Y256088D01*
X492207Y256049D01*
X492309Y256014D01*
X494399Y260452D02*
X494330Y260521D01*
X494259Y260587D01*
X494186Y260651D01*
X494110Y260712D01*
X494031Y260770D01*
X493951Y260824D01*
X493868Y260876D01*
X493784Y260924D01*
X493698Y260970D01*
X493610Y261011D01*
X493520Y261050D01*
X493429Y261085D01*
X493337Y261116D01*
X493244Y261144D01*
X493150Y261168D01*
X493055Y261188D01*
X492959Y261205D01*
X492862Y261218D01*
X492765Y261227D01*
X492668Y261233D01*
X492571Y261235D01*
X494398Y260451D02*
X499619Y256013D01*
X499619Y261234D01*
X492309Y265157D02*
X490221Y267768D01*
X499619Y267768D01*
X499619Y270378D02*
X499619Y265157D01*
X499619Y273779D02*
X490221Y276912D01*
X499619Y280044D01*
X497270Y279261D02*
X497270Y274562D01*
X495964Y283533D02*
X495964Y289798D01*
X499619Y294590D02*
X490221Y294590D01*
X499619Y293546D02*
X499619Y295634D01*
X490221Y295634D02*
X490221Y293546D01*
X489177Y303079D02*
X500663Y298902D01*
X499619Y309438D02*
X499617Y309527D01*
X499611Y309615D01*
X499602Y309703D01*
X499589Y309791D01*
X499572Y309878D01*
X499552Y309964D01*
X499527Y310049D01*
X499500Y310134D01*
X499468Y310217D01*
X499434Y310298D01*
X499395Y310378D01*
X499354Y310456D01*
X499309Y310533D01*
X499261Y310607D01*
X499210Y310680D01*
X499156Y310750D01*
X499098Y310817D01*
X499038Y310883D01*
X498976Y310945D01*
X498910Y311005D01*
X498843Y311063D01*
X498773Y311117D01*
X498700Y311168D01*
X498626Y311216D01*
X498549Y311261D01*
X498471Y311302D01*
X498391Y311341D01*
X498310Y311375D01*
X498227Y311407D01*
X498142Y311434D01*
X498057Y311459D01*
X497971Y311479D01*
X497884Y311496D01*
X497796Y311509D01*
X497708Y311518D01*
X497620Y311524D01*
X497531Y311526D01*
X499619Y309438D02*
X499617Y309309D01*
X499611Y309180D01*
X499602Y309051D01*
X499589Y308923D01*
X499572Y308795D01*
X499551Y308668D01*
X499527Y308541D01*
X499499Y308415D01*
X499467Y308290D01*
X499432Y308166D01*
X499393Y308043D01*
X499350Y307921D01*
X499304Y307801D01*
X499254Y307682D01*
X499201Y307564D01*
X499145Y307448D01*
X499085Y307334D01*
X499022Y307221D01*
X498955Y307111D01*
X498886Y307002D01*
X498813Y306896D01*
X498737Y306791D01*
X498658Y306689D01*
X498576Y306590D01*
X498492Y306492D01*
X498404Y306397D01*
X498314Y306305D01*
X492309Y306567D02*
X492220Y306569D01*
X492132Y306575D01*
X492044Y306584D01*
X491956Y306597D01*
X491869Y306614D01*
X491783Y306634D01*
X491698Y306659D01*
X491613Y306686D01*
X491530Y306718D01*
X491449Y306752D01*
X491369Y306791D01*
X491291Y306832D01*
X491214Y306877D01*
X491140Y306925D01*
X491067Y306976D01*
X490997Y307030D01*
X490930Y307088D01*
X490864Y307148D01*
X490802Y307210D01*
X490742Y307276D01*
X490684Y307343D01*
X490630Y307413D01*
X490579Y307486D01*
X490531Y307560D01*
X490486Y307637D01*
X490445Y307715D01*
X490406Y307795D01*
X490372Y307876D01*
X490340Y307959D01*
X490313Y308044D01*
X490288Y308129D01*
X490268Y308215D01*
X490251Y308302D01*
X490238Y308390D01*
X490229Y308478D01*
X490223Y308566D01*
X490221Y308655D01*
X490223Y308775D01*
X490228Y308895D01*
X490238Y309014D01*
X490250Y309134D01*
X490267Y309253D01*
X490287Y309371D01*
X490311Y309489D01*
X490338Y309605D01*
X490369Y309721D01*
X490403Y309836D01*
X490441Y309950D01*
X490483Y310063D01*
X490528Y310174D01*
X490576Y310284D01*
X490627Y310392D01*
X490682Y310499D01*
X490740Y310604D01*
X490802Y310707D01*
X490866Y310808D01*
X490934Y310908D01*
X491004Y311005D01*
X494136Y307610D02*
X494088Y307532D01*
X494036Y307456D01*
X493982Y307383D01*
X493924Y307312D01*
X493863Y307243D01*
X493799Y307177D01*
X493732Y307114D01*
X493663Y307054D01*
X493591Y306997D01*
X493517Y306943D01*
X493440Y306893D01*
X493361Y306845D01*
X493281Y306802D01*
X493198Y306761D01*
X493114Y306725D01*
X493029Y306692D01*
X492942Y306663D01*
X492853Y306637D01*
X492764Y306615D01*
X492674Y306598D01*
X492584Y306584D01*
X492492Y306574D01*
X492401Y306568D01*
X492309Y306566D01*
X495704Y310482D02*
X495752Y310560D01*
X495804Y310636D01*
X495858Y310709D01*
X495916Y310780D01*
X495977Y310849D01*
X496041Y310915D01*
X496108Y310978D01*
X496177Y311038D01*
X496249Y311095D01*
X496323Y311149D01*
X496400Y311199D01*
X496479Y311247D01*
X496559Y311290D01*
X496642Y311331D01*
X496726Y311367D01*
X496811Y311400D01*
X496898Y311429D01*
X496987Y311455D01*
X497076Y311477D01*
X497166Y311494D01*
X497256Y311508D01*
X497348Y311518D01*
X497439Y311524D01*
X497531Y311526D01*
X495703Y310482D02*
X494137Y307610D01*
X490221Y315467D02*
X499619Y315467D01*
X499619Y319643D01*
D11*
X155100Y398160D02*
X155100Y403240D01*
X180500Y403240D02*
X180500Y398160D01*
X180500Y403240D02*
X179230Y403240D01*
X179230Y398160D02*
X180500Y398160D01*
X156370Y398160D02*
X155100Y398160D01*
X155100Y403240D02*
X156370Y403240D01*
D12*
X169512Y358988D02*
X169512Y357464D01*
X169512Y358988D02*
X174592Y358988D01*
X174592Y355940D01*
X174590Y355851D01*
X174584Y355763D01*
X174575Y355675D01*
X174561Y355587D01*
X174544Y355500D01*
X174523Y355414D01*
X174498Y355329D01*
X174469Y355245D01*
X174437Y355162D01*
X174402Y355081D01*
X174362Y355002D01*
X174320Y354924D01*
X174274Y354848D01*
X174225Y354774D01*
X174172Y354703D01*
X174117Y354634D01*
X174058Y354567D01*
X173997Y354503D01*
X173933Y354442D01*
X173866Y354383D01*
X173797Y354328D01*
X173726Y354275D01*
X173652Y354226D01*
X173576Y354180D01*
X173498Y354138D01*
X173419Y354098D01*
X173338Y354063D01*
X173255Y354031D01*
X173171Y354002D01*
X173086Y353977D01*
X173000Y353956D01*
X172913Y353939D01*
X172825Y353925D01*
X172737Y353916D01*
X172649Y353910D01*
X172560Y353908D01*
X167480Y353908D01*
X167391Y353910D01*
X167303Y353916D01*
X167215Y353925D01*
X167127Y353939D01*
X167040Y353956D01*
X166954Y353977D01*
X166869Y354002D01*
X166785Y354031D01*
X166702Y354063D01*
X166621Y354098D01*
X166542Y354138D01*
X166464Y354180D01*
X166388Y354226D01*
X166314Y354275D01*
X166243Y354328D01*
X166174Y354383D01*
X166107Y354442D01*
X166043Y354503D01*
X165982Y354567D01*
X165923Y354634D01*
X165868Y354703D01*
X165815Y354774D01*
X165766Y354848D01*
X165720Y354924D01*
X165678Y355002D01*
X165638Y355081D01*
X165603Y355162D01*
X165571Y355245D01*
X165542Y355329D01*
X165517Y355414D01*
X165496Y355500D01*
X165479Y355587D01*
X165465Y355675D01*
X165456Y355763D01*
X165450Y355851D01*
X165448Y355940D01*
X165448Y358988D01*
X165448Y363662D02*
X174592Y363662D01*
X174592Y368742D02*
X165448Y363662D01*
X165448Y368742D02*
X174592Y368742D01*
X174592Y373415D02*
X165448Y373415D01*
X165448Y375955D01*
X165450Y376055D01*
X165456Y376154D01*
X165466Y376254D01*
X165479Y376352D01*
X165497Y376451D01*
X165518Y376548D01*
X165543Y376644D01*
X165572Y376740D01*
X165605Y376834D01*
X165641Y376927D01*
X165681Y377018D01*
X165725Y377108D01*
X165772Y377196D01*
X165822Y377282D01*
X165876Y377366D01*
X165933Y377448D01*
X165993Y377527D01*
X166057Y377605D01*
X166123Y377679D01*
X166192Y377751D01*
X166264Y377820D01*
X166338Y377886D01*
X166416Y377950D01*
X166495Y378010D01*
X166577Y378067D01*
X166661Y378121D01*
X166747Y378171D01*
X166835Y378218D01*
X166925Y378262D01*
X167016Y378302D01*
X167109Y378338D01*
X167203Y378371D01*
X167299Y378400D01*
X167395Y378425D01*
X167492Y378446D01*
X167591Y378464D01*
X167689Y378477D01*
X167789Y378487D01*
X167888Y378493D01*
X167988Y378495D01*
X172052Y378495D01*
X172152Y378493D01*
X172251Y378487D01*
X172351Y378477D01*
X172449Y378464D01*
X172548Y378446D01*
X172645Y378425D01*
X172741Y378400D01*
X172837Y378371D01*
X172931Y378338D01*
X173024Y378302D01*
X173115Y378262D01*
X173205Y378218D01*
X173293Y378171D01*
X173379Y378121D01*
X173463Y378067D01*
X173545Y378010D01*
X173624Y377950D01*
X173702Y377886D01*
X173776Y377820D01*
X173848Y377751D01*
X173917Y377679D01*
X173983Y377605D01*
X174047Y377527D01*
X174107Y377448D01*
X174164Y377366D01*
X174218Y377282D01*
X174268Y377196D01*
X174315Y377108D01*
X174359Y377018D01*
X174399Y376927D01*
X174435Y376834D01*
X174468Y376740D01*
X174497Y376644D01*
X174522Y376548D01*
X174543Y376451D01*
X174561Y376352D01*
X174574Y376254D01*
X174584Y376154D01*
X174590Y376055D01*
X174592Y375955D01*
X174592Y373415D01*
D13*
X508800Y104100D02*
X508800Y77500D01*
X508800Y49500D02*
X508800Y17100D01*
X354800Y77500D02*
X354800Y104100D01*
X354800Y49500D02*
X354800Y17100D01*
X508800Y17100D01*
D14*
X475800Y153700D02*
X475802Y153763D01*
X475808Y153825D01*
X475818Y153887D01*
X475831Y153949D01*
X475849Y154009D01*
X475870Y154068D01*
X475895Y154126D01*
X475924Y154182D01*
X475956Y154236D01*
X475991Y154288D01*
X476029Y154337D01*
X476071Y154385D01*
X476115Y154429D01*
X476163Y154471D01*
X476212Y154509D01*
X476264Y154544D01*
X476318Y154576D01*
X476374Y154605D01*
X476432Y154630D01*
X476491Y154651D01*
X476551Y154669D01*
X476613Y154682D01*
X476675Y154692D01*
X476737Y154698D01*
X476800Y154700D01*
X476863Y154698D01*
X476925Y154692D01*
X476987Y154682D01*
X477049Y154669D01*
X477109Y154651D01*
X477168Y154630D01*
X477226Y154605D01*
X477282Y154576D01*
X477336Y154544D01*
X477388Y154509D01*
X477437Y154471D01*
X477485Y154429D01*
X477529Y154385D01*
X477571Y154337D01*
X477609Y154288D01*
X477644Y154236D01*
X477676Y154182D01*
X477705Y154126D01*
X477730Y154068D01*
X477751Y154009D01*
X477769Y153949D01*
X477782Y153887D01*
X477792Y153825D01*
X477798Y153763D01*
X477800Y153700D01*
X477798Y153637D01*
X477792Y153575D01*
X477782Y153513D01*
X477769Y153451D01*
X477751Y153391D01*
X477730Y153332D01*
X477705Y153274D01*
X477676Y153218D01*
X477644Y153164D01*
X477609Y153112D01*
X477571Y153063D01*
X477529Y153015D01*
X477485Y152971D01*
X477437Y152929D01*
X477388Y152891D01*
X477336Y152856D01*
X477282Y152824D01*
X477226Y152795D01*
X477168Y152770D01*
X477109Y152749D01*
X477049Y152731D01*
X476987Y152718D01*
X476925Y152708D01*
X476863Y152702D01*
X476800Y152700D01*
X476737Y152702D01*
X476675Y152708D01*
X476613Y152718D01*
X476551Y152731D01*
X476491Y152749D01*
X476432Y152770D01*
X476374Y152795D01*
X476318Y152824D01*
X476264Y152856D01*
X476212Y152891D01*
X476163Y152929D01*
X476115Y152971D01*
X476071Y153015D01*
X476029Y153063D01*
X475991Y153112D01*
X475956Y153164D01*
X475924Y153218D01*
X475895Y153274D01*
X475870Y153332D01*
X475849Y153391D01*
X475831Y153451D01*
X475818Y153513D01*
X475808Y153575D01*
X475802Y153637D01*
X475800Y153700D01*
D13*
X357500Y402800D02*
X357500Y429400D01*
X357500Y457400D02*
X357500Y489800D01*
X511500Y429400D02*
X511500Y402800D01*
X511500Y457400D02*
X511500Y489800D01*
X357500Y489800D01*
D14*
X388500Y353200D02*
X388502Y353263D01*
X388508Y353325D01*
X388518Y353387D01*
X388531Y353449D01*
X388549Y353509D01*
X388570Y353568D01*
X388595Y353626D01*
X388624Y353682D01*
X388656Y353736D01*
X388691Y353788D01*
X388729Y353837D01*
X388771Y353885D01*
X388815Y353929D01*
X388863Y353971D01*
X388912Y354009D01*
X388964Y354044D01*
X389018Y354076D01*
X389074Y354105D01*
X389132Y354130D01*
X389191Y354151D01*
X389251Y354169D01*
X389313Y354182D01*
X389375Y354192D01*
X389437Y354198D01*
X389500Y354200D01*
X389563Y354198D01*
X389625Y354192D01*
X389687Y354182D01*
X389749Y354169D01*
X389809Y354151D01*
X389868Y354130D01*
X389926Y354105D01*
X389982Y354076D01*
X390036Y354044D01*
X390088Y354009D01*
X390137Y353971D01*
X390185Y353929D01*
X390229Y353885D01*
X390271Y353837D01*
X390309Y353788D01*
X390344Y353736D01*
X390376Y353682D01*
X390405Y353626D01*
X390430Y353568D01*
X390451Y353509D01*
X390469Y353449D01*
X390482Y353387D01*
X390492Y353325D01*
X390498Y353263D01*
X390500Y353200D01*
X390498Y353137D01*
X390492Y353075D01*
X390482Y353013D01*
X390469Y352951D01*
X390451Y352891D01*
X390430Y352832D01*
X390405Y352774D01*
X390376Y352718D01*
X390344Y352664D01*
X390309Y352612D01*
X390271Y352563D01*
X390229Y352515D01*
X390185Y352471D01*
X390137Y352429D01*
X390088Y352391D01*
X390036Y352356D01*
X389982Y352324D01*
X389926Y352295D01*
X389868Y352270D01*
X389809Y352249D01*
X389749Y352231D01*
X389687Y352218D01*
X389625Y352208D01*
X389563Y352202D01*
X389500Y352200D01*
X389437Y352202D01*
X389375Y352208D01*
X389313Y352218D01*
X389251Y352231D01*
X389191Y352249D01*
X389132Y352270D01*
X389074Y352295D01*
X389018Y352324D01*
X388964Y352356D01*
X388912Y352391D01*
X388863Y352429D01*
X388815Y352471D01*
X388771Y352515D01*
X388729Y352563D01*
X388691Y352612D01*
X388656Y352664D01*
X388624Y352718D01*
X388595Y352774D01*
X388570Y352832D01*
X388549Y352891D01*
X388531Y352951D01*
X388518Y353013D01*
X388508Y353075D01*
X388502Y353137D01*
X388500Y353200D01*
D13*
X-24600Y104100D02*
X-24600Y77500D01*
X-24600Y49500D02*
X-24600Y17100D01*
X-178600Y77500D02*
X-178600Y104100D01*
X-178600Y49500D02*
X-178600Y17100D01*
X-24600Y17100D01*
D14*
X-57600Y153700D02*
X-57598Y153763D01*
X-57592Y153825D01*
X-57582Y153887D01*
X-57569Y153949D01*
X-57551Y154009D01*
X-57530Y154068D01*
X-57505Y154126D01*
X-57476Y154182D01*
X-57444Y154236D01*
X-57409Y154288D01*
X-57371Y154337D01*
X-57329Y154385D01*
X-57285Y154429D01*
X-57237Y154471D01*
X-57188Y154509D01*
X-57136Y154544D01*
X-57082Y154576D01*
X-57026Y154605D01*
X-56968Y154630D01*
X-56909Y154651D01*
X-56849Y154669D01*
X-56787Y154682D01*
X-56725Y154692D01*
X-56663Y154698D01*
X-56600Y154700D01*
X-56537Y154698D01*
X-56475Y154692D01*
X-56413Y154682D01*
X-56351Y154669D01*
X-56291Y154651D01*
X-56232Y154630D01*
X-56174Y154605D01*
X-56118Y154576D01*
X-56064Y154544D01*
X-56012Y154509D01*
X-55963Y154471D01*
X-55915Y154429D01*
X-55871Y154385D01*
X-55829Y154337D01*
X-55791Y154288D01*
X-55756Y154236D01*
X-55724Y154182D01*
X-55695Y154126D01*
X-55670Y154068D01*
X-55649Y154009D01*
X-55631Y153949D01*
X-55618Y153887D01*
X-55608Y153825D01*
X-55602Y153763D01*
X-55600Y153700D01*
X-55602Y153637D01*
X-55608Y153575D01*
X-55618Y153513D01*
X-55631Y153451D01*
X-55649Y153391D01*
X-55670Y153332D01*
X-55695Y153274D01*
X-55724Y153218D01*
X-55756Y153164D01*
X-55791Y153112D01*
X-55829Y153063D01*
X-55871Y153015D01*
X-55915Y152971D01*
X-55963Y152929D01*
X-56012Y152891D01*
X-56064Y152856D01*
X-56118Y152824D01*
X-56174Y152795D01*
X-56232Y152770D01*
X-56291Y152749D01*
X-56351Y152731D01*
X-56413Y152718D01*
X-56475Y152708D01*
X-56537Y152702D01*
X-56600Y152700D01*
X-56663Y152702D01*
X-56725Y152708D01*
X-56787Y152718D01*
X-56849Y152731D01*
X-56909Y152749D01*
X-56968Y152770D01*
X-57026Y152795D01*
X-57082Y152824D01*
X-57136Y152856D01*
X-57188Y152891D01*
X-57237Y152929D01*
X-57285Y152971D01*
X-57329Y153015D01*
X-57371Y153063D01*
X-57409Y153112D01*
X-57444Y153164D01*
X-57476Y153218D01*
X-57505Y153274D01*
X-57530Y153332D01*
X-57551Y153391D01*
X-57569Y153451D01*
X-57582Y153513D01*
X-57592Y153575D01*
X-57598Y153637D01*
X-57600Y153700D01*
D13*
X242100Y104100D02*
X242100Y77500D01*
X242100Y49500D02*
X242100Y17100D01*
X88100Y77500D02*
X88100Y104100D01*
X88100Y49500D02*
X88100Y17100D01*
X242100Y17100D01*
D14*
X209100Y153700D02*
X209102Y153763D01*
X209108Y153825D01*
X209118Y153887D01*
X209131Y153949D01*
X209149Y154009D01*
X209170Y154068D01*
X209195Y154126D01*
X209224Y154182D01*
X209256Y154236D01*
X209291Y154288D01*
X209329Y154337D01*
X209371Y154385D01*
X209415Y154429D01*
X209463Y154471D01*
X209512Y154509D01*
X209564Y154544D01*
X209618Y154576D01*
X209674Y154605D01*
X209732Y154630D01*
X209791Y154651D01*
X209851Y154669D01*
X209913Y154682D01*
X209975Y154692D01*
X210037Y154698D01*
X210100Y154700D01*
X210163Y154698D01*
X210225Y154692D01*
X210287Y154682D01*
X210349Y154669D01*
X210409Y154651D01*
X210468Y154630D01*
X210526Y154605D01*
X210582Y154576D01*
X210636Y154544D01*
X210688Y154509D01*
X210737Y154471D01*
X210785Y154429D01*
X210829Y154385D01*
X210871Y154337D01*
X210909Y154288D01*
X210944Y154236D01*
X210976Y154182D01*
X211005Y154126D01*
X211030Y154068D01*
X211051Y154009D01*
X211069Y153949D01*
X211082Y153887D01*
X211092Y153825D01*
X211098Y153763D01*
X211100Y153700D01*
X211098Y153637D01*
X211092Y153575D01*
X211082Y153513D01*
X211069Y153451D01*
X211051Y153391D01*
X211030Y153332D01*
X211005Y153274D01*
X210976Y153218D01*
X210944Y153164D01*
X210909Y153112D01*
X210871Y153063D01*
X210829Y153015D01*
X210785Y152971D01*
X210737Y152929D01*
X210688Y152891D01*
X210636Y152856D01*
X210582Y152824D01*
X210526Y152795D01*
X210468Y152770D01*
X210409Y152749D01*
X210349Y152731D01*
X210287Y152718D01*
X210225Y152708D01*
X210163Y152702D01*
X210100Y152700D01*
X210037Y152702D01*
X209975Y152708D01*
X209913Y152718D01*
X209851Y152731D01*
X209791Y152749D01*
X209732Y152770D01*
X209674Y152795D01*
X209618Y152824D01*
X209564Y152856D01*
X209512Y152891D01*
X209463Y152929D01*
X209415Y152971D01*
X209371Y153015D01*
X209329Y153063D01*
X209291Y153112D01*
X209256Y153164D01*
X209224Y153218D01*
X209195Y153274D01*
X209170Y153332D01*
X209149Y153391D01*
X209131Y153451D01*
X209118Y153513D01*
X209108Y153575D01*
X209102Y153637D01*
X209100Y153700D01*
D11*
X94582Y254734D02*
X84422Y254734D01*
X144874Y329918D02*
X144874Y340078D01*
X194912Y340078D02*
X194912Y329918D01*
X230218Y260068D02*
X240378Y260068D01*
X189832Y194536D02*
X189832Y184376D01*
X139794Y184122D02*
X139794Y194282D01*
X120236Y313154D02*
X111346Y313154D01*
X114648Y303502D02*
X120998Y309852D01*
X120236Y211046D02*
X111346Y211046D01*
X213454Y211046D02*
X213454Y219936D01*
X213454Y313154D02*
X204564Y313154D01*
X111346Y313154D02*
X111346Y304264D01*
X111346Y219936D02*
X111346Y211046D01*
X204564Y211046D02*
X213454Y211046D01*
X213454Y304264D02*
X213454Y313154D01*
D10*
X89721Y308441D02*
X89721Y304462D01*
X92042Y301477D01*
X89721Y304462D02*
X87399Y301477D01*
X89721Y304462D02*
X93368Y305788D01*
X89721Y304462D02*
X86073Y305788D01*
D11*
X43700Y302110D02*
X-57900Y302110D01*
X-57900Y243690D02*
X43700Y243690D01*
X43700Y302110D01*
X-57900Y302110D02*
X-57900Y283060D01*
X-57900Y262740D02*
X-57900Y243690D01*
X-57900Y262740D02*
X-57653Y262743D01*
X-57405Y262752D01*
X-57158Y262767D01*
X-56912Y262788D01*
X-56666Y262815D01*
X-56421Y262848D01*
X-56176Y262887D01*
X-55933Y262932D01*
X-55691Y262983D01*
X-55450Y263040D01*
X-55211Y263102D01*
X-54973Y263171D01*
X-54737Y263245D01*
X-54503Y263325D01*
X-54271Y263410D01*
X-54041Y263502D01*
X-53813Y263598D01*
X-53588Y263701D01*
X-53365Y263808D01*
X-53145Y263922D01*
X-52928Y264040D01*
X-52713Y264164D01*
X-52502Y264293D01*
X-52294Y264427D01*
X-52089Y264566D01*
X-51888Y264710D01*
X-51690Y264858D01*
X-51496Y265012D01*
X-51306Y265170D01*
X-51120Y265333D01*
X-50938Y265500D01*
X-50760Y265672D01*
X-50586Y265848D01*
X-50416Y266028D01*
X-50251Y266213D01*
X-50091Y266401D01*
X-49935Y266593D01*
X-49783Y266789D01*
X-49637Y266988D01*
X-49495Y267191D01*
X-49359Y267398D01*
X-49227Y267607D01*
X-49101Y267820D01*
X-48980Y268036D01*
X-48864Y268254D01*
X-48754Y268476D01*
X-48649Y268700D01*
X-48549Y268926D01*
X-48455Y269155D01*
X-48367Y269386D01*
X-48284Y269620D01*
X-48207Y269855D01*
X-48136Y270092D01*
X-48070Y270330D01*
X-48011Y270570D01*
X-47957Y270812D01*
X-47909Y271055D01*
X-47867Y271298D01*
X-47831Y271543D01*
X-47801Y271789D01*
X-47777Y272035D01*
X-47759Y272282D01*
X-47747Y272529D01*
X-47741Y272776D01*
X-47741Y273024D01*
X-47747Y273271D01*
X-47759Y273518D01*
X-47777Y273765D01*
X-47801Y274011D01*
X-47831Y274257D01*
X-47867Y274502D01*
X-47909Y274745D01*
X-47957Y274988D01*
X-48011Y275230D01*
X-48070Y275470D01*
X-48136Y275708D01*
X-48207Y275945D01*
X-48284Y276180D01*
X-48367Y276414D01*
X-48455Y276645D01*
X-48549Y276874D01*
X-48649Y277100D01*
X-48754Y277324D01*
X-48864Y277546D01*
X-48980Y277764D01*
X-49101Y277980D01*
X-49227Y278193D01*
X-49359Y278402D01*
X-49495Y278609D01*
X-49637Y278812D01*
X-49783Y279011D01*
X-49935Y279207D01*
X-50091Y279399D01*
X-50251Y279587D01*
X-50416Y279772D01*
X-50586Y279952D01*
X-50760Y280128D01*
X-50938Y280300D01*
X-51120Y280467D01*
X-51306Y280630D01*
X-51496Y280788D01*
X-51690Y280942D01*
X-51888Y281090D01*
X-52089Y281234D01*
X-52294Y281373D01*
X-52502Y281507D01*
X-52713Y281636D01*
X-52928Y281760D01*
X-53145Y281878D01*
X-53365Y281992D01*
X-53588Y282099D01*
X-53813Y282202D01*
X-54041Y282298D01*
X-54271Y282390D01*
X-54503Y282475D01*
X-54737Y282555D01*
X-54973Y282629D01*
X-55211Y282698D01*
X-55450Y282760D01*
X-55691Y282817D01*
X-55933Y282868D01*
X-56176Y282913D01*
X-56421Y282952D01*
X-56666Y282985D01*
X-56912Y283012D01*
X-57158Y283033D01*
X-57405Y283048D01*
X-57653Y283057D01*
X-57900Y283060D01*
D13*
X-38215Y279885D02*
X-34405Y291315D01*
X-30595Y279885D01*
X-31548Y282743D02*
X-37263Y282743D01*
X-23737Y279885D02*
X-23737Y291315D01*
X-26912Y291315D02*
X-20562Y291315D01*
X-13831Y291315D02*
X-13831Y279885D01*
X-17006Y291315D02*
X-10656Y291315D01*
X-5449Y291315D02*
X-5449Y279885D01*
X-6719Y279885D02*
X-4179Y279885D01*
X-4179Y291315D02*
X-6719Y291315D01*
X901Y291315D02*
X901Y279885D01*
X7251Y279885D02*
X901Y291315D01*
X7251Y291315D02*
X7251Y279885D01*
X15887Y285918D02*
X12077Y291315D01*
X15887Y285918D02*
X19697Y291315D01*
X15887Y285918D02*
X15887Y279885D01*
X24142Y283060D02*
X24144Y283171D01*
X24150Y283281D01*
X24159Y283392D01*
X24173Y283502D01*
X24190Y283611D01*
X24211Y283720D01*
X24236Y283828D01*
X24265Y283935D01*
X24297Y284041D01*
X24333Y284146D01*
X24373Y284249D01*
X24416Y284351D01*
X24463Y284452D01*
X24514Y284551D01*
X24567Y284648D01*
X24624Y284742D01*
X24685Y284835D01*
X24748Y284926D01*
X24815Y285015D01*
X24885Y285101D01*
X24958Y285184D01*
X25033Y285266D01*
X25111Y285344D01*
X25193Y285419D01*
X25276Y285492D01*
X25362Y285562D01*
X25451Y285629D01*
X25542Y285692D01*
X25635Y285753D01*
X25729Y285810D01*
X25826Y285863D01*
X25925Y285914D01*
X26026Y285961D01*
X26128Y286004D01*
X26231Y286044D01*
X26336Y286080D01*
X26442Y286112D01*
X26549Y286141D01*
X26657Y286166D01*
X26766Y286187D01*
X26875Y286204D01*
X26985Y286218D01*
X27096Y286227D01*
X27206Y286233D01*
X27317Y286235D01*
X27428Y286233D01*
X27538Y286227D01*
X27649Y286218D01*
X27759Y286204D01*
X27868Y286187D01*
X27977Y286166D01*
X28085Y286141D01*
X28192Y286112D01*
X28298Y286080D01*
X28403Y286044D01*
X28506Y286004D01*
X28608Y285961D01*
X28709Y285914D01*
X28808Y285863D01*
X28905Y285810D01*
X28999Y285753D01*
X29092Y285692D01*
X29183Y285629D01*
X29272Y285562D01*
X29358Y285492D01*
X29441Y285419D01*
X29523Y285344D01*
X29601Y285266D01*
X29676Y285184D01*
X29749Y285101D01*
X29819Y285015D01*
X29886Y284926D01*
X29949Y284835D01*
X30010Y284742D01*
X30067Y284648D01*
X30120Y284551D01*
X30171Y284452D01*
X30218Y284351D01*
X30261Y284249D01*
X30301Y284146D01*
X30337Y284041D01*
X30369Y283935D01*
X30398Y283828D01*
X30423Y283720D01*
X30444Y283611D01*
X30461Y283502D01*
X30475Y283392D01*
X30484Y283281D01*
X30490Y283171D01*
X30492Y283060D01*
X30490Y282949D01*
X30484Y282839D01*
X30475Y282728D01*
X30461Y282618D01*
X30444Y282509D01*
X30423Y282400D01*
X30398Y282292D01*
X30369Y282185D01*
X30337Y282079D01*
X30301Y281974D01*
X30261Y281871D01*
X30218Y281769D01*
X30171Y281668D01*
X30120Y281569D01*
X30067Y281472D01*
X30010Y281378D01*
X29949Y281285D01*
X29886Y281194D01*
X29819Y281105D01*
X29749Y281019D01*
X29676Y280936D01*
X29601Y280854D01*
X29523Y280776D01*
X29441Y280701D01*
X29358Y280628D01*
X29272Y280558D01*
X29183Y280491D01*
X29092Y280428D01*
X28999Y280367D01*
X28904Y280310D01*
X28808Y280257D01*
X28709Y280206D01*
X28608Y280159D01*
X28506Y280116D01*
X28403Y280076D01*
X28298Y280040D01*
X28192Y280008D01*
X28085Y279979D01*
X27977Y279954D01*
X27868Y279933D01*
X27759Y279916D01*
X27649Y279902D01*
X27538Y279893D01*
X27428Y279887D01*
X27317Y279885D01*
X27206Y279887D01*
X27096Y279893D01*
X26985Y279902D01*
X26875Y279916D01*
X26766Y279933D01*
X26657Y279954D01*
X26549Y279979D01*
X26442Y280008D01*
X26336Y280040D01*
X26231Y280076D01*
X26128Y280116D01*
X26026Y280159D01*
X25925Y280206D01*
X25826Y280257D01*
X25729Y280310D01*
X25635Y280367D01*
X25542Y280428D01*
X25451Y280491D01*
X25362Y280558D01*
X25276Y280628D01*
X25193Y280701D01*
X25111Y280776D01*
X25033Y280854D01*
X24958Y280936D01*
X24885Y281019D01*
X24815Y281105D01*
X24748Y281194D01*
X24685Y281285D01*
X24624Y281378D01*
X24567Y281473D01*
X24514Y281569D01*
X24463Y281668D01*
X24416Y281769D01*
X24373Y281871D01*
X24333Y281974D01*
X24297Y282079D01*
X24265Y282185D01*
X24236Y282292D01*
X24211Y282400D01*
X24190Y282509D01*
X24173Y282618D01*
X24159Y282728D01*
X24150Y282839D01*
X24144Y282949D01*
X24142Y283060D01*
X24777Y288775D02*
X24779Y288875D01*
X24785Y288974D01*
X24795Y289074D01*
X24808Y289172D01*
X24826Y289271D01*
X24847Y289368D01*
X24872Y289464D01*
X24901Y289560D01*
X24934Y289654D01*
X24970Y289747D01*
X25010Y289838D01*
X25054Y289928D01*
X25101Y290016D01*
X25151Y290102D01*
X25205Y290186D01*
X25262Y290268D01*
X25322Y290347D01*
X25386Y290425D01*
X25452Y290499D01*
X25521Y290571D01*
X25593Y290640D01*
X25667Y290706D01*
X25745Y290770D01*
X25824Y290830D01*
X25906Y290887D01*
X25990Y290941D01*
X26076Y290991D01*
X26164Y291038D01*
X26254Y291082D01*
X26345Y291122D01*
X26438Y291158D01*
X26532Y291191D01*
X26628Y291220D01*
X26724Y291245D01*
X26821Y291266D01*
X26920Y291284D01*
X27018Y291297D01*
X27118Y291307D01*
X27217Y291313D01*
X27317Y291315D01*
X27417Y291313D01*
X27516Y291307D01*
X27616Y291297D01*
X27714Y291284D01*
X27813Y291266D01*
X27910Y291245D01*
X28006Y291220D01*
X28102Y291191D01*
X28196Y291158D01*
X28289Y291122D01*
X28380Y291082D01*
X28470Y291038D01*
X28558Y290991D01*
X28644Y290941D01*
X28728Y290887D01*
X28810Y290830D01*
X28889Y290770D01*
X28967Y290706D01*
X29041Y290640D01*
X29113Y290571D01*
X29182Y290499D01*
X29248Y290425D01*
X29312Y290347D01*
X29372Y290268D01*
X29429Y290186D01*
X29483Y290102D01*
X29533Y290016D01*
X29580Y289928D01*
X29624Y289838D01*
X29664Y289747D01*
X29700Y289654D01*
X29733Y289560D01*
X29762Y289464D01*
X29787Y289368D01*
X29808Y289271D01*
X29826Y289172D01*
X29839Y289074D01*
X29849Y288974D01*
X29855Y288875D01*
X29857Y288775D01*
X29855Y288675D01*
X29849Y288576D01*
X29839Y288476D01*
X29826Y288378D01*
X29808Y288279D01*
X29787Y288182D01*
X29762Y288086D01*
X29733Y287990D01*
X29700Y287896D01*
X29664Y287803D01*
X29624Y287712D01*
X29580Y287622D01*
X29533Y287534D01*
X29483Y287448D01*
X29429Y287364D01*
X29372Y287282D01*
X29312Y287203D01*
X29248Y287125D01*
X29182Y287051D01*
X29113Y286979D01*
X29041Y286910D01*
X28967Y286844D01*
X28889Y286780D01*
X28810Y286720D01*
X28728Y286663D01*
X28644Y286609D01*
X28558Y286559D01*
X28470Y286512D01*
X28380Y286468D01*
X28289Y286428D01*
X28196Y286392D01*
X28102Y286359D01*
X28006Y286330D01*
X27910Y286305D01*
X27813Y286284D01*
X27714Y286266D01*
X27616Y286253D01*
X27516Y286243D01*
X27417Y286237D01*
X27317Y286235D01*
X27217Y286237D01*
X27118Y286243D01*
X27018Y286253D01*
X26920Y286266D01*
X26821Y286284D01*
X26724Y286305D01*
X26628Y286330D01*
X26532Y286359D01*
X26438Y286392D01*
X26345Y286428D01*
X26254Y286468D01*
X26164Y286512D01*
X26076Y286559D01*
X25990Y286609D01*
X25906Y286663D01*
X25824Y286720D01*
X25745Y286780D01*
X25667Y286844D01*
X25593Y286910D01*
X25521Y286979D01*
X25452Y287051D01*
X25386Y287125D01*
X25322Y287203D01*
X25262Y287282D01*
X25205Y287364D01*
X25151Y287448D01*
X25101Y287534D01*
X25054Y287622D01*
X25010Y287712D01*
X24970Y287803D01*
X24934Y287896D01*
X24901Y287990D01*
X24872Y288086D01*
X24847Y288182D01*
X24826Y288279D01*
X24808Y288378D01*
X24795Y288476D01*
X24785Y288576D01*
X24779Y288675D01*
X24777Y288775D01*
X35572Y279885D02*
X39382Y279885D01*
X39482Y279887D01*
X39581Y279893D01*
X39681Y279903D01*
X39779Y279916D01*
X39878Y279934D01*
X39975Y279955D01*
X40071Y279980D01*
X40167Y280009D01*
X40261Y280042D01*
X40354Y280078D01*
X40445Y280118D01*
X40535Y280162D01*
X40623Y280209D01*
X40709Y280259D01*
X40793Y280313D01*
X40875Y280370D01*
X40954Y280430D01*
X41032Y280494D01*
X41106Y280560D01*
X41178Y280629D01*
X41247Y280701D01*
X41313Y280775D01*
X41377Y280853D01*
X41437Y280932D01*
X41494Y281014D01*
X41548Y281098D01*
X41598Y281184D01*
X41645Y281272D01*
X41689Y281362D01*
X41729Y281453D01*
X41765Y281546D01*
X41798Y281640D01*
X41827Y281736D01*
X41852Y281832D01*
X41873Y281929D01*
X41891Y282028D01*
X41904Y282126D01*
X41914Y282226D01*
X41920Y282325D01*
X41922Y282425D01*
X41922Y283695D01*
X41920Y283795D01*
X41914Y283894D01*
X41904Y283994D01*
X41891Y284092D01*
X41873Y284191D01*
X41852Y284288D01*
X41827Y284384D01*
X41798Y284480D01*
X41765Y284574D01*
X41729Y284667D01*
X41689Y284758D01*
X41645Y284848D01*
X41598Y284936D01*
X41548Y285022D01*
X41494Y285106D01*
X41437Y285188D01*
X41377Y285267D01*
X41313Y285345D01*
X41247Y285419D01*
X41178Y285491D01*
X41106Y285560D01*
X41032Y285626D01*
X40954Y285690D01*
X40875Y285750D01*
X40793Y285807D01*
X40709Y285861D01*
X40623Y285911D01*
X40535Y285958D01*
X40445Y286002D01*
X40354Y286042D01*
X40261Y286078D01*
X40167Y286111D01*
X40071Y286140D01*
X39975Y286165D01*
X39878Y286186D01*
X39779Y286204D01*
X39681Y286217D01*
X39581Y286227D01*
X39482Y286233D01*
X39382Y286235D01*
X35572Y286235D01*
X35572Y291315D01*
X41922Y291315D01*
X428000Y316600D02*
X468000Y316600D01*
X468000Y229200D02*
X428000Y229200D01*
D15*
X404000Y311900D02*
X404002Y311963D01*
X404008Y312025D01*
X404018Y312087D01*
X404031Y312149D01*
X404049Y312209D01*
X404070Y312268D01*
X404095Y312326D01*
X404124Y312382D01*
X404156Y312436D01*
X404191Y312488D01*
X404229Y312537D01*
X404271Y312585D01*
X404315Y312629D01*
X404363Y312671D01*
X404412Y312709D01*
X404464Y312744D01*
X404518Y312776D01*
X404574Y312805D01*
X404632Y312830D01*
X404691Y312851D01*
X404751Y312869D01*
X404813Y312882D01*
X404875Y312892D01*
X404937Y312898D01*
X405000Y312900D01*
X405063Y312898D01*
X405125Y312892D01*
X405187Y312882D01*
X405249Y312869D01*
X405309Y312851D01*
X405368Y312830D01*
X405426Y312805D01*
X405482Y312776D01*
X405536Y312744D01*
X405588Y312709D01*
X405637Y312671D01*
X405685Y312629D01*
X405729Y312585D01*
X405771Y312537D01*
X405809Y312488D01*
X405844Y312436D01*
X405876Y312382D01*
X405905Y312326D01*
X405930Y312268D01*
X405951Y312209D01*
X405969Y312149D01*
X405982Y312087D01*
X405992Y312025D01*
X405998Y311963D01*
X406000Y311900D01*
X405998Y311837D01*
X405992Y311775D01*
X405982Y311713D01*
X405969Y311651D01*
X405951Y311591D01*
X405930Y311532D01*
X405905Y311474D01*
X405876Y311418D01*
X405844Y311364D01*
X405809Y311312D01*
X405771Y311263D01*
X405729Y311215D01*
X405685Y311171D01*
X405637Y311129D01*
X405588Y311091D01*
X405536Y311056D01*
X405482Y311024D01*
X405426Y310995D01*
X405368Y310970D01*
X405309Y310949D01*
X405249Y310931D01*
X405187Y310918D01*
X405125Y310908D01*
X405063Y310902D01*
X405000Y310900D01*
X404937Y310902D01*
X404875Y310908D01*
X404813Y310918D01*
X404751Y310931D01*
X404691Y310949D01*
X404632Y310970D01*
X404574Y310995D01*
X404518Y311024D01*
X404464Y311056D01*
X404412Y311091D01*
X404363Y311129D01*
X404315Y311171D01*
X404271Y311215D01*
X404229Y311263D01*
X404191Y311312D01*
X404156Y311364D01*
X404124Y311418D01*
X404095Y311474D01*
X404070Y311532D01*
X404049Y311591D01*
X404031Y311651D01*
X404018Y311713D01*
X404008Y311775D01*
X404002Y311837D01*
X404000Y311900D01*
D11*
X282100Y398160D02*
X282100Y403240D01*
X307500Y403240D02*
X307500Y398160D01*
X307500Y403240D02*
X306230Y403240D01*
X306230Y398160D02*
X307500Y398160D01*
X283370Y398160D02*
X282100Y398160D01*
X282100Y403240D02*
X283370Y403240D01*
D12*
X282448Y343908D02*
X289052Y343908D01*
X289152Y343910D01*
X289251Y343916D01*
X289351Y343926D01*
X289449Y343939D01*
X289548Y343957D01*
X289645Y343978D01*
X289741Y344003D01*
X289837Y344032D01*
X289931Y344065D01*
X290024Y344101D01*
X290115Y344141D01*
X290205Y344185D01*
X290293Y344232D01*
X290379Y344282D01*
X290463Y344336D01*
X290545Y344393D01*
X290624Y344453D01*
X290702Y344517D01*
X290776Y344583D01*
X290848Y344652D01*
X290917Y344724D01*
X290983Y344798D01*
X291047Y344876D01*
X291107Y344955D01*
X291164Y345037D01*
X291218Y345121D01*
X291268Y345207D01*
X291315Y345295D01*
X291359Y345385D01*
X291399Y345476D01*
X291435Y345569D01*
X291468Y345663D01*
X291497Y345759D01*
X291522Y345855D01*
X291543Y345952D01*
X291561Y346051D01*
X291574Y346149D01*
X291584Y346249D01*
X291590Y346348D01*
X291592Y346448D01*
X291590Y346548D01*
X291584Y346647D01*
X291574Y346747D01*
X291561Y346845D01*
X291543Y346944D01*
X291522Y347041D01*
X291497Y347137D01*
X291468Y347233D01*
X291435Y347327D01*
X291399Y347420D01*
X291359Y347511D01*
X291315Y347601D01*
X291268Y347689D01*
X291218Y347775D01*
X291164Y347859D01*
X291107Y347941D01*
X291047Y348020D01*
X290983Y348098D01*
X290917Y348172D01*
X290848Y348244D01*
X290776Y348313D01*
X290702Y348379D01*
X290624Y348443D01*
X290545Y348503D01*
X290463Y348560D01*
X290379Y348614D01*
X290293Y348664D01*
X290205Y348711D01*
X290115Y348755D01*
X290024Y348795D01*
X289931Y348831D01*
X289837Y348864D01*
X289741Y348893D01*
X289645Y348918D01*
X289548Y348939D01*
X289449Y348957D01*
X289351Y348970D01*
X289251Y348980D01*
X289152Y348986D01*
X289052Y348988D01*
X282448Y348988D01*
X291592Y356100D02*
X291590Y356189D01*
X291584Y356277D01*
X291575Y356365D01*
X291561Y356453D01*
X291544Y356540D01*
X291523Y356626D01*
X291498Y356711D01*
X291469Y356795D01*
X291437Y356878D01*
X291402Y356959D01*
X291362Y357038D01*
X291320Y357116D01*
X291274Y357192D01*
X291225Y357266D01*
X291172Y357337D01*
X291117Y357406D01*
X291058Y357473D01*
X290997Y357537D01*
X290933Y357598D01*
X290866Y357657D01*
X290797Y357712D01*
X290726Y357765D01*
X290652Y357814D01*
X290576Y357860D01*
X290498Y357902D01*
X290419Y357942D01*
X290338Y357977D01*
X290255Y358009D01*
X290171Y358038D01*
X290086Y358063D01*
X290000Y358084D01*
X289913Y358101D01*
X289825Y358115D01*
X289737Y358124D01*
X289649Y358130D01*
X289560Y358132D01*
X291592Y356100D02*
X291590Y355970D01*
X291584Y355839D01*
X291574Y355709D01*
X291560Y355580D01*
X291543Y355451D01*
X291521Y355322D01*
X291495Y355194D01*
X291466Y355067D01*
X291433Y354941D01*
X291396Y354816D01*
X291355Y354692D01*
X291310Y354570D01*
X291262Y354449D01*
X291210Y354329D01*
X291154Y354211D01*
X291095Y354095D01*
X291032Y353981D01*
X290966Y353868D01*
X290897Y353758D01*
X290824Y353650D01*
X290748Y353544D01*
X290669Y353440D01*
X290587Y353339D01*
X290501Y353241D01*
X290413Y353145D01*
X290322Y353052D01*
X284480Y353306D02*
X284391Y353308D01*
X284303Y353314D01*
X284215Y353323D01*
X284127Y353337D01*
X284040Y353354D01*
X283954Y353375D01*
X283869Y353400D01*
X283785Y353429D01*
X283702Y353461D01*
X283621Y353496D01*
X283542Y353536D01*
X283464Y353578D01*
X283388Y353624D01*
X283314Y353673D01*
X283243Y353726D01*
X283174Y353781D01*
X283107Y353840D01*
X283043Y353901D01*
X282982Y353965D01*
X282923Y354032D01*
X282868Y354101D01*
X282815Y354172D01*
X282766Y354246D01*
X282720Y354322D01*
X282678Y354400D01*
X282638Y354479D01*
X282603Y354560D01*
X282571Y354643D01*
X282542Y354727D01*
X282517Y354812D01*
X282496Y354898D01*
X282479Y354985D01*
X282465Y355073D01*
X282456Y355161D01*
X282450Y355249D01*
X282448Y355338D01*
X282450Y355461D01*
X282456Y355583D01*
X282466Y355705D01*
X282480Y355827D01*
X282497Y355948D01*
X282519Y356069D01*
X282544Y356189D01*
X282574Y356308D01*
X282607Y356426D01*
X282644Y356543D01*
X282684Y356658D01*
X282728Y356773D01*
X282776Y356886D01*
X282828Y356997D01*
X282883Y357106D01*
X282942Y357214D01*
X283004Y357320D01*
X283069Y357423D01*
X283138Y357525D01*
X283210Y357624D01*
X286258Y354322D02*
X286211Y354246D01*
X286161Y354172D01*
X286108Y354101D01*
X286051Y354032D01*
X285992Y353965D01*
X285930Y353901D01*
X285865Y353839D01*
X285797Y353781D01*
X285727Y353726D01*
X285655Y353673D01*
X285581Y353624D01*
X285504Y353578D01*
X285426Y353535D01*
X285345Y353496D01*
X285263Y353460D01*
X285180Y353428D01*
X285096Y353400D01*
X285010Y353375D01*
X284923Y353354D01*
X284835Y353337D01*
X284747Y353323D01*
X284658Y353314D01*
X284569Y353308D01*
X284480Y353306D01*
X287782Y357116D02*
X287829Y357192D01*
X287879Y357266D01*
X287932Y357337D01*
X287989Y357406D01*
X288048Y357473D01*
X288110Y357537D01*
X288175Y357599D01*
X288243Y357657D01*
X288313Y357712D01*
X288385Y357765D01*
X288459Y357814D01*
X288536Y357860D01*
X288614Y357903D01*
X288695Y357942D01*
X288777Y357978D01*
X288860Y358010D01*
X288944Y358038D01*
X289030Y358063D01*
X289117Y358084D01*
X289205Y358101D01*
X289293Y358115D01*
X289382Y358124D01*
X289471Y358130D01*
X289560Y358132D01*
X287782Y357116D02*
X286258Y354322D01*
X286512Y362348D02*
X286512Y364888D01*
X286514Y364988D01*
X286520Y365087D01*
X286530Y365187D01*
X286543Y365285D01*
X286561Y365384D01*
X286582Y365481D01*
X286607Y365577D01*
X286636Y365673D01*
X286669Y365767D01*
X286705Y365860D01*
X286745Y365951D01*
X286789Y366041D01*
X286836Y366129D01*
X286886Y366215D01*
X286940Y366299D01*
X286997Y366381D01*
X287057Y366460D01*
X287121Y366538D01*
X287187Y366612D01*
X287256Y366684D01*
X287328Y366753D01*
X287402Y366819D01*
X287480Y366883D01*
X287559Y366943D01*
X287641Y367000D01*
X287725Y367054D01*
X287811Y367104D01*
X287899Y367151D01*
X287989Y367195D01*
X288080Y367235D01*
X288173Y367271D01*
X288267Y367304D01*
X288363Y367333D01*
X288459Y367358D01*
X288556Y367379D01*
X288655Y367397D01*
X288753Y367410D01*
X288853Y367420D01*
X288952Y367426D01*
X289052Y367428D01*
X289152Y367426D01*
X289251Y367420D01*
X289351Y367410D01*
X289449Y367397D01*
X289548Y367379D01*
X289645Y367358D01*
X289741Y367333D01*
X289837Y367304D01*
X289931Y367271D01*
X290024Y367235D01*
X290115Y367195D01*
X290205Y367151D01*
X290293Y367104D01*
X290379Y367054D01*
X290463Y367000D01*
X290545Y366943D01*
X290624Y366883D01*
X290702Y366819D01*
X290776Y366753D01*
X290848Y366684D01*
X290917Y366612D01*
X290983Y366538D01*
X291047Y366460D01*
X291107Y366381D01*
X291164Y366299D01*
X291218Y366215D01*
X291268Y366129D01*
X291315Y366041D01*
X291359Y365951D01*
X291399Y365860D01*
X291435Y365767D01*
X291468Y365673D01*
X291497Y365577D01*
X291522Y365481D01*
X291543Y365384D01*
X291561Y365285D01*
X291574Y365187D01*
X291584Y365087D01*
X291590Y364988D01*
X291592Y364888D01*
X291592Y362348D01*
X282448Y362348D01*
X282448Y364888D01*
X282450Y364977D01*
X282456Y365065D01*
X282465Y365153D01*
X282479Y365241D01*
X282496Y365328D01*
X282517Y365414D01*
X282542Y365499D01*
X282571Y365583D01*
X282603Y365666D01*
X282638Y365747D01*
X282678Y365826D01*
X282720Y365904D01*
X282766Y365980D01*
X282815Y366054D01*
X282868Y366125D01*
X282923Y366194D01*
X282982Y366261D01*
X283043Y366325D01*
X283107Y366386D01*
X283174Y366445D01*
X283243Y366500D01*
X283314Y366553D01*
X283388Y366602D01*
X283464Y366648D01*
X283542Y366690D01*
X283621Y366730D01*
X283702Y366765D01*
X283785Y366797D01*
X283869Y366826D01*
X283954Y366851D01*
X284040Y366872D01*
X284127Y366889D01*
X284215Y366903D01*
X284303Y366912D01*
X284391Y366918D01*
X284480Y366920D01*
X284569Y366918D01*
X284657Y366912D01*
X284745Y366903D01*
X284833Y366889D01*
X284920Y366872D01*
X285006Y366851D01*
X285091Y366826D01*
X285175Y366797D01*
X285258Y366765D01*
X285339Y366730D01*
X285418Y366690D01*
X285496Y366648D01*
X285572Y366602D01*
X285646Y366553D01*
X285717Y366500D01*
X285786Y366445D01*
X285853Y366386D01*
X285917Y366325D01*
X285978Y366261D01*
X286037Y366194D01*
X286092Y366125D01*
X286145Y366054D01*
X286194Y365980D01*
X286240Y365904D01*
X286282Y365826D01*
X286322Y365747D01*
X286357Y365666D01*
X286389Y365583D01*
X286418Y365499D01*
X286443Y365414D01*
X286464Y365328D01*
X286481Y365241D01*
X286495Y365153D01*
X286504Y365065D01*
X286510Y364977D01*
X286512Y364888D01*
X282448Y371340D02*
X291592Y371340D01*
X282448Y371340D02*
X282448Y373880D01*
X282450Y373980D01*
X282456Y374079D01*
X282466Y374179D01*
X282479Y374277D01*
X282497Y374376D01*
X282518Y374473D01*
X282543Y374569D01*
X282572Y374665D01*
X282605Y374759D01*
X282641Y374852D01*
X282681Y374943D01*
X282725Y375033D01*
X282772Y375121D01*
X282822Y375207D01*
X282876Y375291D01*
X282933Y375373D01*
X282993Y375452D01*
X283057Y375530D01*
X283123Y375604D01*
X283192Y375676D01*
X283264Y375745D01*
X283338Y375811D01*
X283416Y375875D01*
X283495Y375935D01*
X283577Y375992D01*
X283661Y376046D01*
X283747Y376096D01*
X283835Y376143D01*
X283925Y376187D01*
X284016Y376227D01*
X284109Y376263D01*
X284203Y376296D01*
X284299Y376325D01*
X284395Y376350D01*
X284492Y376371D01*
X284591Y376389D01*
X284689Y376402D01*
X284789Y376412D01*
X284888Y376418D01*
X284988Y376420D01*
X289052Y376420D01*
X289152Y376418D01*
X289251Y376412D01*
X289351Y376402D01*
X289449Y376389D01*
X289548Y376371D01*
X289645Y376350D01*
X289741Y376325D01*
X289837Y376296D01*
X289931Y376263D01*
X290024Y376227D01*
X290115Y376187D01*
X290205Y376143D01*
X290293Y376096D01*
X290379Y376046D01*
X290463Y375992D01*
X290545Y375935D01*
X290624Y375875D01*
X290702Y375811D01*
X290776Y375745D01*
X290848Y375676D01*
X290917Y375604D01*
X290983Y375530D01*
X291047Y375452D01*
X291107Y375373D01*
X291164Y375291D01*
X291218Y375207D01*
X291268Y375121D01*
X291315Y375033D01*
X291359Y374943D01*
X291399Y374852D01*
X291435Y374759D01*
X291468Y374665D01*
X291497Y374569D01*
X291522Y374473D01*
X291543Y374376D01*
X291561Y374277D01*
X291574Y374179D01*
X291584Y374079D01*
X291590Y373980D01*
X291592Y373880D01*
X291592Y371340D01*
X288036Y380890D02*
X288036Y386986D01*
X291084Y383938D02*
X284988Y383938D01*
D11*
X241300Y398160D02*
X241300Y403240D01*
X266700Y403240D02*
X266700Y398160D01*
X266700Y403240D02*
X265430Y403240D01*
X265430Y398160D02*
X266700Y398160D01*
X242570Y398160D02*
X241300Y398160D01*
X241300Y403240D02*
X242570Y403240D01*
D12*
X251648Y323908D02*
X258252Y323908D01*
X258352Y323910D01*
X258451Y323916D01*
X258551Y323926D01*
X258649Y323939D01*
X258748Y323957D01*
X258845Y323978D01*
X258941Y324003D01*
X259037Y324032D01*
X259131Y324065D01*
X259224Y324101D01*
X259315Y324141D01*
X259405Y324185D01*
X259493Y324232D01*
X259579Y324282D01*
X259663Y324336D01*
X259745Y324393D01*
X259824Y324453D01*
X259902Y324517D01*
X259976Y324583D01*
X260048Y324652D01*
X260117Y324724D01*
X260183Y324798D01*
X260247Y324876D01*
X260307Y324955D01*
X260364Y325037D01*
X260418Y325121D01*
X260468Y325207D01*
X260515Y325295D01*
X260559Y325385D01*
X260599Y325476D01*
X260635Y325569D01*
X260668Y325663D01*
X260697Y325759D01*
X260722Y325855D01*
X260743Y325952D01*
X260761Y326051D01*
X260774Y326149D01*
X260784Y326249D01*
X260790Y326348D01*
X260792Y326448D01*
X260790Y326548D01*
X260784Y326647D01*
X260774Y326747D01*
X260761Y326845D01*
X260743Y326944D01*
X260722Y327041D01*
X260697Y327137D01*
X260668Y327233D01*
X260635Y327327D01*
X260599Y327420D01*
X260559Y327511D01*
X260515Y327601D01*
X260468Y327689D01*
X260418Y327775D01*
X260364Y327859D01*
X260307Y327941D01*
X260247Y328020D01*
X260183Y328098D01*
X260117Y328172D01*
X260048Y328244D01*
X259976Y328313D01*
X259902Y328379D01*
X259824Y328443D01*
X259745Y328503D01*
X259663Y328560D01*
X259579Y328614D01*
X259493Y328664D01*
X259405Y328711D01*
X259315Y328755D01*
X259224Y328795D01*
X259131Y328831D01*
X259037Y328864D01*
X258941Y328893D01*
X258845Y328918D01*
X258748Y328939D01*
X258649Y328957D01*
X258551Y328970D01*
X258451Y328980D01*
X258352Y328986D01*
X258252Y328988D01*
X251648Y328988D01*
X260792Y336100D02*
X260790Y336189D01*
X260784Y336277D01*
X260775Y336365D01*
X260761Y336453D01*
X260744Y336540D01*
X260723Y336626D01*
X260698Y336711D01*
X260669Y336795D01*
X260637Y336878D01*
X260602Y336959D01*
X260562Y337038D01*
X260520Y337116D01*
X260474Y337192D01*
X260425Y337266D01*
X260372Y337337D01*
X260317Y337406D01*
X260258Y337473D01*
X260197Y337537D01*
X260133Y337598D01*
X260066Y337657D01*
X259997Y337712D01*
X259926Y337765D01*
X259852Y337814D01*
X259776Y337860D01*
X259698Y337902D01*
X259619Y337942D01*
X259538Y337977D01*
X259455Y338009D01*
X259371Y338038D01*
X259286Y338063D01*
X259200Y338084D01*
X259113Y338101D01*
X259025Y338115D01*
X258937Y338124D01*
X258849Y338130D01*
X258760Y338132D01*
X260792Y336100D02*
X260790Y335970D01*
X260784Y335839D01*
X260774Y335709D01*
X260760Y335580D01*
X260743Y335451D01*
X260721Y335322D01*
X260695Y335194D01*
X260666Y335067D01*
X260633Y334941D01*
X260596Y334816D01*
X260555Y334692D01*
X260510Y334570D01*
X260462Y334449D01*
X260410Y334329D01*
X260354Y334211D01*
X260295Y334095D01*
X260232Y333981D01*
X260166Y333868D01*
X260097Y333758D01*
X260024Y333650D01*
X259948Y333544D01*
X259869Y333440D01*
X259787Y333339D01*
X259701Y333241D01*
X259613Y333145D01*
X259522Y333052D01*
X253680Y333306D02*
X253591Y333308D01*
X253503Y333314D01*
X253415Y333323D01*
X253327Y333337D01*
X253240Y333354D01*
X253154Y333375D01*
X253069Y333400D01*
X252985Y333429D01*
X252902Y333461D01*
X252821Y333496D01*
X252742Y333536D01*
X252664Y333578D01*
X252588Y333624D01*
X252514Y333673D01*
X252443Y333726D01*
X252374Y333781D01*
X252307Y333840D01*
X252243Y333901D01*
X252182Y333965D01*
X252123Y334032D01*
X252068Y334101D01*
X252015Y334172D01*
X251966Y334246D01*
X251920Y334322D01*
X251878Y334400D01*
X251838Y334479D01*
X251803Y334560D01*
X251771Y334643D01*
X251742Y334727D01*
X251717Y334812D01*
X251696Y334898D01*
X251679Y334985D01*
X251665Y335073D01*
X251656Y335161D01*
X251650Y335249D01*
X251648Y335338D01*
X251650Y335461D01*
X251656Y335583D01*
X251666Y335705D01*
X251680Y335827D01*
X251697Y335948D01*
X251719Y336069D01*
X251744Y336189D01*
X251774Y336308D01*
X251807Y336426D01*
X251844Y336543D01*
X251884Y336658D01*
X251928Y336773D01*
X251976Y336886D01*
X252028Y336997D01*
X252083Y337106D01*
X252142Y337214D01*
X252204Y337320D01*
X252269Y337423D01*
X252338Y337525D01*
X252410Y337624D01*
X255458Y334322D02*
X255411Y334246D01*
X255361Y334172D01*
X255308Y334101D01*
X255251Y334032D01*
X255192Y333965D01*
X255130Y333901D01*
X255065Y333839D01*
X254997Y333781D01*
X254927Y333726D01*
X254855Y333673D01*
X254781Y333624D01*
X254704Y333578D01*
X254626Y333535D01*
X254545Y333496D01*
X254463Y333460D01*
X254380Y333428D01*
X254296Y333400D01*
X254210Y333375D01*
X254123Y333354D01*
X254035Y333337D01*
X253947Y333323D01*
X253858Y333314D01*
X253769Y333308D01*
X253680Y333306D01*
X256982Y337116D02*
X257029Y337192D01*
X257079Y337266D01*
X257132Y337337D01*
X257189Y337406D01*
X257248Y337473D01*
X257310Y337537D01*
X257375Y337599D01*
X257443Y337657D01*
X257513Y337712D01*
X257585Y337765D01*
X257659Y337814D01*
X257736Y337860D01*
X257814Y337903D01*
X257895Y337942D01*
X257977Y337978D01*
X258060Y338010D01*
X258144Y338038D01*
X258230Y338063D01*
X258317Y338084D01*
X258405Y338101D01*
X258493Y338115D01*
X258582Y338124D01*
X258671Y338130D01*
X258760Y338132D01*
X256982Y337116D02*
X255458Y334322D01*
X255712Y342348D02*
X255712Y344888D01*
X255714Y344988D01*
X255720Y345087D01*
X255730Y345187D01*
X255743Y345285D01*
X255761Y345384D01*
X255782Y345481D01*
X255807Y345577D01*
X255836Y345673D01*
X255869Y345767D01*
X255905Y345860D01*
X255945Y345951D01*
X255989Y346041D01*
X256036Y346129D01*
X256086Y346215D01*
X256140Y346299D01*
X256197Y346381D01*
X256257Y346460D01*
X256321Y346538D01*
X256387Y346612D01*
X256456Y346684D01*
X256528Y346753D01*
X256602Y346819D01*
X256680Y346883D01*
X256759Y346943D01*
X256841Y347000D01*
X256925Y347054D01*
X257011Y347104D01*
X257099Y347151D01*
X257189Y347195D01*
X257280Y347235D01*
X257373Y347271D01*
X257467Y347304D01*
X257563Y347333D01*
X257659Y347358D01*
X257756Y347379D01*
X257855Y347397D01*
X257953Y347410D01*
X258053Y347420D01*
X258152Y347426D01*
X258252Y347428D01*
X258352Y347426D01*
X258451Y347420D01*
X258551Y347410D01*
X258649Y347397D01*
X258748Y347379D01*
X258845Y347358D01*
X258941Y347333D01*
X259037Y347304D01*
X259131Y347271D01*
X259224Y347235D01*
X259315Y347195D01*
X259405Y347151D01*
X259493Y347104D01*
X259579Y347054D01*
X259663Y347000D01*
X259745Y346943D01*
X259824Y346883D01*
X259902Y346819D01*
X259976Y346753D01*
X260048Y346684D01*
X260117Y346612D01*
X260183Y346538D01*
X260247Y346460D01*
X260307Y346381D01*
X260364Y346299D01*
X260418Y346215D01*
X260468Y346129D01*
X260515Y346041D01*
X260559Y345951D01*
X260599Y345860D01*
X260635Y345767D01*
X260668Y345673D01*
X260697Y345577D01*
X260722Y345481D01*
X260743Y345384D01*
X260761Y345285D01*
X260774Y345187D01*
X260784Y345087D01*
X260790Y344988D01*
X260792Y344888D01*
X260792Y342348D01*
X251648Y342348D01*
X251648Y344888D01*
X251650Y344977D01*
X251656Y345065D01*
X251665Y345153D01*
X251679Y345241D01*
X251696Y345328D01*
X251717Y345414D01*
X251742Y345499D01*
X251771Y345583D01*
X251803Y345666D01*
X251838Y345747D01*
X251878Y345826D01*
X251920Y345904D01*
X251966Y345980D01*
X252015Y346054D01*
X252068Y346125D01*
X252123Y346194D01*
X252182Y346261D01*
X252243Y346325D01*
X252307Y346386D01*
X252374Y346445D01*
X252443Y346500D01*
X252514Y346553D01*
X252588Y346602D01*
X252664Y346648D01*
X252742Y346690D01*
X252821Y346730D01*
X252902Y346765D01*
X252985Y346797D01*
X253069Y346826D01*
X253154Y346851D01*
X253240Y346872D01*
X253327Y346889D01*
X253415Y346903D01*
X253503Y346912D01*
X253591Y346918D01*
X253680Y346920D01*
X253769Y346918D01*
X253857Y346912D01*
X253945Y346903D01*
X254033Y346889D01*
X254120Y346872D01*
X254206Y346851D01*
X254291Y346826D01*
X254375Y346797D01*
X254458Y346765D01*
X254539Y346730D01*
X254618Y346690D01*
X254696Y346648D01*
X254772Y346602D01*
X254846Y346553D01*
X254917Y346500D01*
X254986Y346445D01*
X255053Y346386D01*
X255117Y346325D01*
X255178Y346261D01*
X255237Y346194D01*
X255292Y346125D01*
X255345Y346054D01*
X255394Y345980D01*
X255440Y345904D01*
X255482Y345826D01*
X255522Y345747D01*
X255557Y345666D01*
X255589Y345583D01*
X255618Y345499D01*
X255643Y345414D01*
X255664Y345328D01*
X255681Y345241D01*
X255695Y345153D01*
X255704Y345065D01*
X255710Y344977D01*
X255712Y344888D01*
X251648Y351492D02*
X260792Y351492D01*
X251648Y351492D02*
X251648Y354032D01*
X251650Y354132D01*
X251656Y354231D01*
X251666Y354331D01*
X251679Y354429D01*
X251697Y354528D01*
X251718Y354625D01*
X251743Y354721D01*
X251772Y354817D01*
X251805Y354911D01*
X251841Y355004D01*
X251881Y355095D01*
X251925Y355185D01*
X251972Y355273D01*
X252022Y355359D01*
X252076Y355443D01*
X252133Y355525D01*
X252193Y355604D01*
X252257Y355682D01*
X252323Y355756D01*
X252392Y355828D01*
X252464Y355897D01*
X252538Y355963D01*
X252616Y356027D01*
X252695Y356087D01*
X252777Y356144D01*
X252861Y356198D01*
X252947Y356248D01*
X253035Y356295D01*
X253125Y356339D01*
X253216Y356379D01*
X253309Y356415D01*
X253403Y356448D01*
X253499Y356477D01*
X253595Y356502D01*
X253692Y356523D01*
X253791Y356541D01*
X253889Y356554D01*
X253989Y356564D01*
X254088Y356570D01*
X254188Y356572D01*
X254288Y356570D01*
X254387Y356564D01*
X254487Y356554D01*
X254585Y356541D01*
X254684Y356523D01*
X254781Y356502D01*
X254877Y356477D01*
X254973Y356448D01*
X255067Y356415D01*
X255160Y356379D01*
X255251Y356339D01*
X255341Y356295D01*
X255429Y356248D01*
X255515Y356198D01*
X255599Y356144D01*
X255681Y356087D01*
X255760Y356027D01*
X255838Y355963D01*
X255912Y355897D01*
X255984Y355828D01*
X256053Y355756D01*
X256119Y355682D01*
X256183Y355604D01*
X256243Y355525D01*
X256300Y355443D01*
X256354Y355359D01*
X256404Y355273D01*
X256451Y355185D01*
X256495Y355095D01*
X256535Y355004D01*
X256571Y354911D01*
X256604Y354817D01*
X256633Y354721D01*
X256658Y354625D01*
X256679Y354528D01*
X256697Y354429D01*
X256710Y354331D01*
X256720Y354231D01*
X256726Y354132D01*
X256728Y354032D01*
X256728Y351492D01*
X258252Y360179D02*
X254188Y360179D01*
X254088Y360181D01*
X253989Y360187D01*
X253889Y360197D01*
X253791Y360210D01*
X253692Y360228D01*
X253595Y360249D01*
X253499Y360274D01*
X253403Y360303D01*
X253309Y360336D01*
X253216Y360372D01*
X253125Y360412D01*
X253035Y360456D01*
X252947Y360503D01*
X252861Y360553D01*
X252777Y360607D01*
X252695Y360664D01*
X252616Y360724D01*
X252538Y360788D01*
X252464Y360854D01*
X252392Y360923D01*
X252323Y360995D01*
X252257Y361069D01*
X252193Y361147D01*
X252133Y361226D01*
X252076Y361308D01*
X252022Y361392D01*
X251972Y361478D01*
X251925Y361566D01*
X251881Y361656D01*
X251841Y361747D01*
X251805Y361840D01*
X251772Y361934D01*
X251743Y362030D01*
X251718Y362126D01*
X251697Y362223D01*
X251679Y362322D01*
X251666Y362420D01*
X251656Y362520D01*
X251650Y362619D01*
X251648Y362719D01*
X251650Y362819D01*
X251656Y362918D01*
X251666Y363018D01*
X251679Y363116D01*
X251697Y363215D01*
X251718Y363312D01*
X251743Y363408D01*
X251772Y363504D01*
X251805Y363598D01*
X251841Y363691D01*
X251881Y363782D01*
X251925Y363872D01*
X251972Y363960D01*
X252022Y364046D01*
X252076Y364130D01*
X252133Y364212D01*
X252193Y364291D01*
X252257Y364369D01*
X252323Y364443D01*
X252392Y364515D01*
X252464Y364584D01*
X252538Y364650D01*
X252616Y364714D01*
X252695Y364774D01*
X252777Y364831D01*
X252861Y364885D01*
X252947Y364935D01*
X253035Y364982D01*
X253125Y365026D01*
X253216Y365066D01*
X253309Y365102D01*
X253403Y365135D01*
X253499Y365164D01*
X253595Y365189D01*
X253692Y365210D01*
X253791Y365228D01*
X253889Y365241D01*
X253989Y365251D01*
X254088Y365257D01*
X254188Y365259D01*
X258252Y365259D01*
X258352Y365257D01*
X258451Y365251D01*
X258551Y365241D01*
X258649Y365228D01*
X258748Y365210D01*
X258845Y365189D01*
X258941Y365164D01*
X259037Y365135D01*
X259131Y365102D01*
X259224Y365066D01*
X259315Y365026D01*
X259405Y364982D01*
X259493Y364935D01*
X259579Y364885D01*
X259663Y364831D01*
X259745Y364774D01*
X259824Y364714D01*
X259902Y364650D01*
X259976Y364584D01*
X260048Y364515D01*
X260117Y364443D01*
X260183Y364369D01*
X260247Y364291D01*
X260307Y364212D01*
X260364Y364130D01*
X260418Y364046D01*
X260468Y363960D01*
X260515Y363872D01*
X260559Y363782D01*
X260599Y363691D01*
X260635Y363598D01*
X260668Y363504D01*
X260697Y363408D01*
X260722Y363312D01*
X260743Y363215D01*
X260761Y363116D01*
X260774Y363018D01*
X260784Y362918D01*
X260790Y362819D01*
X260792Y362719D01*
X260790Y362619D01*
X260784Y362520D01*
X260774Y362420D01*
X260761Y362322D01*
X260743Y362223D01*
X260722Y362126D01*
X260697Y362030D01*
X260668Y361934D01*
X260635Y361840D01*
X260599Y361747D01*
X260559Y361656D01*
X260515Y361566D01*
X260468Y361478D01*
X260418Y361392D01*
X260364Y361308D01*
X260307Y361226D01*
X260247Y361147D01*
X260183Y361069D01*
X260117Y360995D01*
X260048Y360923D01*
X259976Y360854D01*
X259902Y360788D01*
X259824Y360724D01*
X259745Y360664D01*
X259663Y360607D01*
X259579Y360553D01*
X259493Y360503D01*
X259405Y360456D01*
X259315Y360412D01*
X259224Y360372D01*
X259131Y360336D01*
X259037Y360303D01*
X258941Y360274D01*
X258845Y360249D01*
X258748Y360228D01*
X258649Y360210D01*
X258551Y360197D01*
X258451Y360187D01*
X258352Y360181D01*
X258252Y360179D01*
X251648Y369018D02*
X260792Y371050D01*
X254696Y373082D01*
X260792Y375114D01*
X251648Y377146D01*
D11*
X203200Y398160D02*
X203200Y403240D01*
X228600Y403240D02*
X228600Y398160D01*
X228600Y403240D02*
X227330Y403240D01*
X227330Y398160D02*
X228600Y398160D01*
X204470Y398160D02*
X203200Y398160D01*
X203200Y403240D02*
X204470Y403240D01*
D12*
X213548Y343908D02*
X220152Y343908D01*
X220252Y343910D01*
X220351Y343916D01*
X220451Y343926D01*
X220549Y343939D01*
X220648Y343957D01*
X220745Y343978D01*
X220841Y344003D01*
X220937Y344032D01*
X221031Y344065D01*
X221124Y344101D01*
X221215Y344141D01*
X221305Y344185D01*
X221393Y344232D01*
X221479Y344282D01*
X221563Y344336D01*
X221645Y344393D01*
X221724Y344453D01*
X221802Y344517D01*
X221876Y344583D01*
X221948Y344652D01*
X222017Y344724D01*
X222083Y344798D01*
X222147Y344876D01*
X222207Y344955D01*
X222264Y345037D01*
X222318Y345121D01*
X222368Y345207D01*
X222415Y345295D01*
X222459Y345385D01*
X222499Y345476D01*
X222535Y345569D01*
X222568Y345663D01*
X222597Y345759D01*
X222622Y345855D01*
X222643Y345952D01*
X222661Y346051D01*
X222674Y346149D01*
X222684Y346249D01*
X222690Y346348D01*
X222692Y346448D01*
X222690Y346548D01*
X222684Y346647D01*
X222674Y346747D01*
X222661Y346845D01*
X222643Y346944D01*
X222622Y347041D01*
X222597Y347137D01*
X222568Y347233D01*
X222535Y347327D01*
X222499Y347420D01*
X222459Y347511D01*
X222415Y347601D01*
X222368Y347689D01*
X222318Y347775D01*
X222264Y347859D01*
X222207Y347941D01*
X222147Y348020D01*
X222083Y348098D01*
X222017Y348172D01*
X221948Y348244D01*
X221876Y348313D01*
X221802Y348379D01*
X221724Y348443D01*
X221645Y348503D01*
X221563Y348560D01*
X221479Y348614D01*
X221393Y348664D01*
X221305Y348711D01*
X221215Y348755D01*
X221124Y348795D01*
X221031Y348831D01*
X220937Y348864D01*
X220841Y348893D01*
X220745Y348918D01*
X220648Y348939D01*
X220549Y348957D01*
X220451Y348970D01*
X220351Y348980D01*
X220252Y348986D01*
X220152Y348988D01*
X213548Y348988D01*
X222692Y356100D02*
X222690Y356189D01*
X222684Y356277D01*
X222675Y356365D01*
X222661Y356453D01*
X222644Y356540D01*
X222623Y356626D01*
X222598Y356711D01*
X222569Y356795D01*
X222537Y356878D01*
X222502Y356959D01*
X222462Y357038D01*
X222420Y357116D01*
X222374Y357192D01*
X222325Y357266D01*
X222272Y357337D01*
X222217Y357406D01*
X222158Y357473D01*
X222097Y357537D01*
X222033Y357598D01*
X221966Y357657D01*
X221897Y357712D01*
X221826Y357765D01*
X221752Y357814D01*
X221676Y357860D01*
X221598Y357902D01*
X221519Y357942D01*
X221438Y357977D01*
X221355Y358009D01*
X221271Y358038D01*
X221186Y358063D01*
X221100Y358084D01*
X221013Y358101D01*
X220925Y358115D01*
X220837Y358124D01*
X220749Y358130D01*
X220660Y358132D01*
X222692Y356100D02*
X222690Y355970D01*
X222684Y355839D01*
X222674Y355709D01*
X222660Y355580D01*
X222643Y355451D01*
X222621Y355322D01*
X222595Y355194D01*
X222566Y355067D01*
X222533Y354941D01*
X222496Y354816D01*
X222455Y354692D01*
X222410Y354570D01*
X222362Y354449D01*
X222310Y354329D01*
X222254Y354211D01*
X222195Y354095D01*
X222132Y353981D01*
X222066Y353868D01*
X221997Y353758D01*
X221924Y353650D01*
X221848Y353544D01*
X221769Y353440D01*
X221687Y353339D01*
X221601Y353241D01*
X221513Y353145D01*
X221422Y353052D01*
X215580Y353306D02*
X215491Y353308D01*
X215403Y353314D01*
X215315Y353323D01*
X215227Y353337D01*
X215140Y353354D01*
X215054Y353375D01*
X214969Y353400D01*
X214885Y353429D01*
X214802Y353461D01*
X214721Y353496D01*
X214642Y353536D01*
X214564Y353578D01*
X214488Y353624D01*
X214414Y353673D01*
X214343Y353726D01*
X214274Y353781D01*
X214207Y353840D01*
X214143Y353901D01*
X214082Y353965D01*
X214023Y354032D01*
X213968Y354101D01*
X213915Y354172D01*
X213866Y354246D01*
X213820Y354322D01*
X213778Y354400D01*
X213738Y354479D01*
X213703Y354560D01*
X213671Y354643D01*
X213642Y354727D01*
X213617Y354812D01*
X213596Y354898D01*
X213579Y354985D01*
X213565Y355073D01*
X213556Y355161D01*
X213550Y355249D01*
X213548Y355338D01*
X213550Y355461D01*
X213556Y355583D01*
X213566Y355705D01*
X213580Y355827D01*
X213597Y355948D01*
X213619Y356069D01*
X213644Y356189D01*
X213674Y356308D01*
X213707Y356426D01*
X213744Y356543D01*
X213784Y356658D01*
X213828Y356773D01*
X213876Y356886D01*
X213928Y356997D01*
X213983Y357106D01*
X214042Y357214D01*
X214104Y357320D01*
X214169Y357423D01*
X214238Y357525D01*
X214310Y357624D01*
X217358Y354322D02*
X217311Y354246D01*
X217261Y354172D01*
X217208Y354101D01*
X217151Y354032D01*
X217092Y353965D01*
X217030Y353901D01*
X216965Y353839D01*
X216897Y353781D01*
X216827Y353726D01*
X216755Y353673D01*
X216681Y353624D01*
X216604Y353578D01*
X216526Y353535D01*
X216445Y353496D01*
X216363Y353460D01*
X216280Y353428D01*
X216196Y353400D01*
X216110Y353375D01*
X216023Y353354D01*
X215935Y353337D01*
X215847Y353323D01*
X215758Y353314D01*
X215669Y353308D01*
X215580Y353306D01*
X218882Y357116D02*
X218929Y357192D01*
X218979Y357266D01*
X219032Y357337D01*
X219089Y357406D01*
X219148Y357473D01*
X219210Y357537D01*
X219275Y357599D01*
X219343Y357657D01*
X219413Y357712D01*
X219485Y357765D01*
X219559Y357814D01*
X219636Y357860D01*
X219714Y357903D01*
X219795Y357942D01*
X219877Y357978D01*
X219960Y358010D01*
X220044Y358038D01*
X220130Y358063D01*
X220217Y358084D01*
X220305Y358101D01*
X220393Y358115D01*
X220482Y358124D01*
X220571Y358130D01*
X220660Y358132D01*
X218882Y357116D02*
X217358Y354322D01*
X213548Y362348D02*
X222692Y362348D01*
X213548Y362348D02*
X213548Y364888D01*
X213550Y364988D01*
X213556Y365087D01*
X213566Y365187D01*
X213579Y365285D01*
X213597Y365384D01*
X213618Y365481D01*
X213643Y365577D01*
X213672Y365673D01*
X213705Y365767D01*
X213741Y365860D01*
X213781Y365951D01*
X213825Y366041D01*
X213872Y366129D01*
X213922Y366215D01*
X213976Y366299D01*
X214033Y366381D01*
X214093Y366460D01*
X214157Y366538D01*
X214223Y366612D01*
X214292Y366684D01*
X214364Y366753D01*
X214438Y366819D01*
X214516Y366883D01*
X214595Y366943D01*
X214677Y367000D01*
X214761Y367054D01*
X214847Y367104D01*
X214935Y367151D01*
X215025Y367195D01*
X215116Y367235D01*
X215209Y367271D01*
X215303Y367304D01*
X215399Y367333D01*
X215495Y367358D01*
X215592Y367379D01*
X215691Y367397D01*
X215789Y367410D01*
X215889Y367420D01*
X215988Y367426D01*
X216088Y367428D01*
X216188Y367426D01*
X216287Y367420D01*
X216387Y367410D01*
X216485Y367397D01*
X216584Y367379D01*
X216681Y367358D01*
X216777Y367333D01*
X216873Y367304D01*
X216967Y367271D01*
X217060Y367235D01*
X217151Y367195D01*
X217241Y367151D01*
X217329Y367104D01*
X217415Y367054D01*
X217499Y367000D01*
X217581Y366943D01*
X217660Y366883D01*
X217738Y366819D01*
X217812Y366753D01*
X217884Y366684D01*
X217953Y366612D01*
X218019Y366538D01*
X218083Y366460D01*
X218143Y366381D01*
X218200Y366299D01*
X218254Y366215D01*
X218304Y366129D01*
X218351Y366041D01*
X218395Y365951D01*
X218435Y365860D01*
X218471Y365767D01*
X218504Y365673D01*
X218533Y365577D01*
X218558Y365481D01*
X218579Y365384D01*
X218597Y365285D01*
X218610Y365187D01*
X218620Y365087D01*
X218626Y364988D01*
X218628Y364888D01*
X218628Y362348D01*
X222692Y371340D02*
X213548Y371340D01*
X213548Y373880D01*
X213550Y373980D01*
X213556Y374079D01*
X213566Y374179D01*
X213579Y374277D01*
X213597Y374376D01*
X213618Y374473D01*
X213643Y374569D01*
X213672Y374665D01*
X213705Y374759D01*
X213741Y374852D01*
X213781Y374943D01*
X213825Y375033D01*
X213872Y375121D01*
X213922Y375207D01*
X213976Y375291D01*
X214033Y375373D01*
X214093Y375452D01*
X214157Y375530D01*
X214223Y375604D01*
X214292Y375676D01*
X214364Y375745D01*
X214438Y375811D01*
X214516Y375875D01*
X214595Y375935D01*
X214677Y375992D01*
X214761Y376046D01*
X214847Y376096D01*
X214935Y376143D01*
X215025Y376187D01*
X215116Y376227D01*
X215209Y376263D01*
X215303Y376296D01*
X215399Y376325D01*
X215495Y376350D01*
X215592Y376371D01*
X215691Y376389D01*
X215789Y376402D01*
X215889Y376412D01*
X215988Y376418D01*
X216088Y376420D01*
X220152Y376420D01*
X220252Y376418D01*
X220351Y376412D01*
X220451Y376402D01*
X220549Y376389D01*
X220648Y376371D01*
X220745Y376350D01*
X220841Y376325D01*
X220937Y376296D01*
X221031Y376263D01*
X221124Y376227D01*
X221215Y376187D01*
X221305Y376143D01*
X221393Y376096D01*
X221479Y376046D01*
X221563Y375992D01*
X221645Y375935D01*
X221724Y375875D01*
X221802Y375811D01*
X221876Y375745D01*
X221948Y375676D01*
X222017Y375604D01*
X222083Y375530D01*
X222147Y375452D01*
X222207Y375373D01*
X222264Y375291D01*
X222318Y375207D01*
X222368Y375121D01*
X222415Y375033D01*
X222459Y374943D01*
X222499Y374852D01*
X222535Y374759D01*
X222568Y374665D01*
X222597Y374569D01*
X222622Y374473D01*
X222643Y374376D01*
X222661Y374277D01*
X222674Y374179D01*
X222684Y374079D01*
X222690Y373980D01*
X222692Y373880D01*
X222692Y371340D01*
X219136Y380890D02*
X219136Y386986D01*
D13*
X271800Y297200D02*
X271800Y250200D01*
X377200Y250200D01*
X377200Y297200D01*
X271800Y297200D01*
D14*
X298100Y243200D02*
X298102Y243263D01*
X298108Y243325D01*
X298118Y243387D01*
X298131Y243449D01*
X298149Y243509D01*
X298170Y243568D01*
X298195Y243626D01*
X298224Y243682D01*
X298256Y243736D01*
X298291Y243788D01*
X298329Y243837D01*
X298371Y243885D01*
X298415Y243929D01*
X298463Y243971D01*
X298512Y244009D01*
X298564Y244044D01*
X298618Y244076D01*
X298674Y244105D01*
X298732Y244130D01*
X298791Y244151D01*
X298851Y244169D01*
X298913Y244182D01*
X298975Y244192D01*
X299037Y244198D01*
X299100Y244200D01*
X299163Y244198D01*
X299225Y244192D01*
X299287Y244182D01*
X299349Y244169D01*
X299409Y244151D01*
X299468Y244130D01*
X299526Y244105D01*
X299582Y244076D01*
X299636Y244044D01*
X299688Y244009D01*
X299737Y243971D01*
X299785Y243929D01*
X299829Y243885D01*
X299871Y243837D01*
X299909Y243788D01*
X299944Y243736D01*
X299976Y243682D01*
X300005Y243626D01*
X300030Y243568D01*
X300051Y243509D01*
X300069Y243449D01*
X300082Y243387D01*
X300092Y243325D01*
X300098Y243263D01*
X300100Y243200D01*
X300098Y243137D01*
X300092Y243075D01*
X300082Y243013D01*
X300069Y242951D01*
X300051Y242891D01*
X300030Y242832D01*
X300005Y242774D01*
X299976Y242718D01*
X299944Y242664D01*
X299909Y242612D01*
X299871Y242563D01*
X299829Y242515D01*
X299785Y242471D01*
X299737Y242429D01*
X299688Y242391D01*
X299636Y242356D01*
X299582Y242324D01*
X299526Y242295D01*
X299468Y242270D01*
X299409Y242249D01*
X299349Y242231D01*
X299287Y242218D01*
X299225Y242208D01*
X299163Y242202D01*
X299100Y242200D01*
X299037Y242202D01*
X298975Y242208D01*
X298913Y242218D01*
X298851Y242231D01*
X298791Y242249D01*
X298732Y242270D01*
X298674Y242295D01*
X298618Y242324D01*
X298564Y242356D01*
X298512Y242391D01*
X298463Y242429D01*
X298415Y242471D01*
X298371Y242515D01*
X298329Y242563D01*
X298291Y242612D01*
X298256Y242664D01*
X298224Y242718D01*
X298195Y242774D01*
X298170Y242832D01*
X298149Y242891D01*
X298131Y242951D01*
X298118Y243013D01*
X298108Y243075D01*
X298102Y243137D01*
X298100Y243200D01*
D10*
X282081Y284081D02*
X282081Y293479D01*
X282081Y284081D02*
X286258Y284081D01*
X290076Y284081D02*
X290076Y293479D01*
X293208Y288258D01*
X296341Y293479D01*
X296341Y284081D01*
X300656Y284081D02*
X303267Y284081D01*
X303368Y284083D01*
X303469Y284089D01*
X303570Y284099D01*
X303670Y284112D01*
X303770Y284130D01*
X303869Y284151D01*
X303967Y284177D01*
X304064Y284206D01*
X304160Y284238D01*
X304254Y284275D01*
X304347Y284315D01*
X304439Y284359D01*
X304528Y284406D01*
X304616Y284457D01*
X304702Y284511D01*
X304785Y284568D01*
X304867Y284628D01*
X304945Y284692D01*
X305022Y284758D01*
X305095Y284828D01*
X305166Y284900D01*
X305234Y284975D01*
X305299Y285053D01*
X305361Y285133D01*
X305420Y285215D01*
X305476Y285300D01*
X305528Y285387D01*
X305577Y285475D01*
X305623Y285566D01*
X305664Y285658D01*
X305703Y285752D01*
X305737Y285847D01*
X305768Y285943D01*
X305795Y286041D01*
X305819Y286139D01*
X305838Y286239D01*
X305854Y286339D01*
X305866Y286439D01*
X305874Y286540D01*
X305878Y286641D01*
X305878Y286743D01*
X305874Y286844D01*
X305866Y286945D01*
X305854Y287045D01*
X305838Y287145D01*
X305819Y287245D01*
X305795Y287343D01*
X305768Y287441D01*
X305737Y287537D01*
X305703Y287632D01*
X305664Y287726D01*
X305623Y287818D01*
X305577Y287909D01*
X305528Y287997D01*
X305476Y288084D01*
X305420Y288169D01*
X305361Y288251D01*
X305299Y288331D01*
X305234Y288409D01*
X305166Y288484D01*
X305095Y288556D01*
X305022Y288626D01*
X304945Y288692D01*
X304867Y288756D01*
X304785Y288816D01*
X304702Y288873D01*
X304616Y288927D01*
X304528Y288978D01*
X304439Y289025D01*
X304347Y289069D01*
X304254Y289109D01*
X304160Y289146D01*
X304064Y289178D01*
X303967Y289207D01*
X303869Y289233D01*
X303770Y289254D01*
X303670Y289272D01*
X303570Y289285D01*
X303469Y289295D01*
X303368Y289301D01*
X303267Y289303D01*
X303789Y293479D02*
X300656Y293479D01*
X303789Y293479D02*
X303879Y293477D01*
X303968Y293471D01*
X304058Y293462D01*
X304147Y293448D01*
X304235Y293431D01*
X304322Y293410D01*
X304409Y293385D01*
X304494Y293356D01*
X304578Y293324D01*
X304660Y293289D01*
X304741Y293249D01*
X304820Y293207D01*
X304897Y293161D01*
X304972Y293111D01*
X305045Y293059D01*
X305116Y293003D01*
X305184Y292945D01*
X305249Y292883D01*
X305312Y292819D01*
X305372Y292752D01*
X305429Y292683D01*
X305483Y292611D01*
X305534Y292537D01*
X305582Y292461D01*
X305626Y292383D01*
X305667Y292303D01*
X305705Y292221D01*
X305739Y292138D01*
X305769Y292053D01*
X305796Y291967D01*
X305819Y291881D01*
X305838Y291793D01*
X305853Y291704D01*
X305865Y291615D01*
X305873Y291526D01*
X305877Y291436D01*
X305877Y291346D01*
X305873Y291256D01*
X305865Y291167D01*
X305853Y291078D01*
X305838Y290989D01*
X305819Y290901D01*
X305796Y290815D01*
X305769Y290729D01*
X305739Y290644D01*
X305705Y290561D01*
X305667Y290479D01*
X305626Y290399D01*
X305582Y290321D01*
X305534Y290245D01*
X305483Y290171D01*
X305429Y290099D01*
X305372Y290030D01*
X305312Y289963D01*
X305249Y289899D01*
X305184Y289837D01*
X305116Y289779D01*
X305045Y289723D01*
X304972Y289671D01*
X304897Y289621D01*
X304820Y289575D01*
X304741Y289533D01*
X304660Y289493D01*
X304578Y289458D01*
X304494Y289426D01*
X304409Y289397D01*
X304322Y289372D01*
X304235Y289351D01*
X304147Y289334D01*
X304058Y289320D01*
X303968Y289311D01*
X303879Y289305D01*
X303789Y289303D01*
X303789Y289302D02*
X301700Y289302D01*
X309800Y291391D02*
X312411Y293479D01*
X312411Y284081D01*
X315021Y284081D02*
X309800Y284081D01*
X318944Y292435D02*
X318944Y293479D01*
X324165Y293479D01*
X321555Y284081D01*
X330089Y284081D02*
X330089Y293479D01*
X327479Y293479D02*
X332700Y293479D01*
X339972Y289302D02*
X341539Y289302D01*
X341539Y284081D01*
X338406Y284081D01*
X338317Y284083D01*
X338229Y284089D01*
X338141Y284098D01*
X338053Y284111D01*
X337966Y284128D01*
X337880Y284148D01*
X337795Y284173D01*
X337710Y284200D01*
X337627Y284232D01*
X337546Y284266D01*
X337466Y284305D01*
X337388Y284346D01*
X337311Y284391D01*
X337237Y284439D01*
X337164Y284490D01*
X337094Y284544D01*
X337027Y284602D01*
X336961Y284662D01*
X336899Y284724D01*
X336839Y284790D01*
X336781Y284857D01*
X336727Y284927D01*
X336676Y285000D01*
X336628Y285074D01*
X336583Y285151D01*
X336542Y285229D01*
X336503Y285309D01*
X336469Y285390D01*
X336437Y285473D01*
X336410Y285558D01*
X336385Y285643D01*
X336365Y285729D01*
X336348Y285816D01*
X336335Y285904D01*
X336326Y285992D01*
X336320Y286080D01*
X336318Y286169D01*
X336318Y291391D01*
X336320Y291482D01*
X336326Y291573D01*
X336336Y291664D01*
X336350Y291754D01*
X336367Y291843D01*
X336389Y291931D01*
X336415Y292019D01*
X336444Y292105D01*
X336477Y292190D01*
X336514Y292273D01*
X336554Y292355D01*
X336598Y292435D01*
X336645Y292513D01*
X336696Y292589D01*
X336749Y292662D01*
X336806Y292733D01*
X336867Y292802D01*
X336930Y292867D01*
X336995Y292930D01*
X337064Y292990D01*
X337135Y293048D01*
X337208Y293101D01*
X337284Y293152D01*
X337362Y293199D01*
X337442Y293243D01*
X337524Y293283D01*
X337607Y293320D01*
X337692Y293353D01*
X337778Y293382D01*
X337866Y293408D01*
X337954Y293430D01*
X338043Y293447D01*
X338133Y293461D01*
X338224Y293471D01*
X338315Y293477D01*
X338406Y293479D01*
X341539Y293479D01*
D11*
X-137620Y214600D02*
X-137720Y214602D01*
X-137819Y214608D01*
X-137919Y214618D01*
X-138017Y214631D01*
X-138116Y214649D01*
X-138213Y214670D01*
X-138309Y214695D01*
X-138405Y214724D01*
X-138499Y214757D01*
X-138592Y214793D01*
X-138683Y214833D01*
X-138773Y214877D01*
X-138861Y214924D01*
X-138947Y214974D01*
X-139031Y215028D01*
X-139113Y215085D01*
X-139192Y215145D01*
X-139270Y215209D01*
X-139344Y215275D01*
X-139416Y215344D01*
X-139485Y215416D01*
X-139551Y215490D01*
X-139615Y215568D01*
X-139675Y215647D01*
X-139732Y215729D01*
X-139786Y215813D01*
X-139836Y215899D01*
X-139883Y215987D01*
X-139927Y216077D01*
X-139967Y216168D01*
X-140003Y216261D01*
X-140036Y216355D01*
X-140065Y216451D01*
X-140090Y216547D01*
X-140111Y216644D01*
X-140129Y216743D01*
X-140142Y216841D01*
X-140152Y216941D01*
X-140158Y217040D01*
X-140160Y217140D01*
X-122380Y214600D02*
X-122280Y214602D01*
X-122181Y214608D01*
X-122081Y214618D01*
X-121983Y214631D01*
X-121884Y214649D01*
X-121787Y214670D01*
X-121691Y214695D01*
X-121595Y214724D01*
X-121501Y214757D01*
X-121408Y214793D01*
X-121317Y214833D01*
X-121227Y214877D01*
X-121139Y214924D01*
X-121053Y214974D01*
X-120969Y215028D01*
X-120887Y215085D01*
X-120808Y215145D01*
X-120730Y215209D01*
X-120656Y215275D01*
X-120584Y215344D01*
X-120515Y215416D01*
X-120449Y215490D01*
X-120385Y215568D01*
X-120325Y215647D01*
X-120268Y215729D01*
X-120214Y215813D01*
X-120164Y215899D01*
X-120117Y215987D01*
X-120073Y216077D01*
X-120033Y216168D01*
X-119997Y216261D01*
X-119964Y216355D01*
X-119935Y216451D01*
X-119910Y216547D01*
X-119889Y216644D01*
X-119871Y216743D01*
X-119858Y216841D01*
X-119848Y216941D01*
X-119842Y217040D01*
X-119840Y217140D01*
X-119840Y262860D02*
X-119842Y262960D01*
X-119848Y263059D01*
X-119858Y263159D01*
X-119871Y263257D01*
X-119889Y263356D01*
X-119910Y263453D01*
X-119935Y263549D01*
X-119964Y263645D01*
X-119997Y263739D01*
X-120033Y263832D01*
X-120073Y263923D01*
X-120117Y264013D01*
X-120164Y264101D01*
X-120214Y264187D01*
X-120268Y264271D01*
X-120325Y264353D01*
X-120385Y264432D01*
X-120449Y264510D01*
X-120515Y264584D01*
X-120584Y264656D01*
X-120656Y264725D01*
X-120730Y264791D01*
X-120808Y264855D01*
X-120887Y264915D01*
X-120969Y264972D01*
X-121053Y265026D01*
X-121139Y265076D01*
X-121227Y265123D01*
X-121317Y265167D01*
X-121408Y265207D01*
X-121501Y265243D01*
X-121595Y265276D01*
X-121691Y265305D01*
X-121787Y265330D01*
X-121884Y265351D01*
X-121983Y265369D01*
X-122081Y265382D01*
X-122181Y265392D01*
X-122280Y265398D01*
X-122380Y265400D01*
X-137620Y265400D02*
X-137720Y265398D01*
X-137819Y265392D01*
X-137919Y265382D01*
X-138017Y265369D01*
X-138116Y265351D01*
X-138213Y265330D01*
X-138309Y265305D01*
X-138405Y265276D01*
X-138499Y265243D01*
X-138592Y265207D01*
X-138683Y265167D01*
X-138773Y265123D01*
X-138861Y265076D01*
X-138947Y265026D01*
X-139031Y264972D01*
X-139113Y264915D01*
X-139192Y264855D01*
X-139270Y264791D01*
X-139344Y264725D01*
X-139416Y264656D01*
X-139485Y264584D01*
X-139551Y264510D01*
X-139615Y264432D01*
X-139675Y264353D01*
X-139732Y264271D01*
X-139786Y264187D01*
X-139836Y264101D01*
X-139883Y264013D01*
X-139927Y263923D01*
X-139967Y263832D01*
X-140003Y263739D01*
X-140036Y263645D01*
X-140065Y263549D01*
X-140090Y263453D01*
X-140111Y263356D01*
X-140129Y263257D01*
X-140142Y263159D01*
X-140152Y263059D01*
X-140158Y262960D01*
X-140160Y262860D01*
X-137620Y214600D02*
X-122380Y214600D01*
X-140160Y217140D02*
X-140160Y220950D01*
X-138890Y222220D01*
X-119840Y220950D02*
X-119840Y217140D01*
X-119840Y220950D02*
X-121110Y222220D01*
X-138890Y257780D02*
X-140160Y259050D01*
X-138890Y257780D02*
X-138890Y222220D01*
X-121110Y257780D02*
X-119840Y259050D01*
X-121110Y257780D02*
X-121110Y222220D01*
X-140160Y259050D02*
X-140160Y262860D01*
X-119840Y262860D02*
X-119840Y259050D01*
X-122380Y265400D02*
X-137620Y265400D01*
D16*
X-130000Y267305D03*
X-130000Y212695D03*
D10*
X-130701Y214981D02*
X-123335Y214981D01*
X-130701Y214981D02*
X-130701Y217027D01*
X-130699Y217116D01*
X-130693Y217205D01*
X-130683Y217294D01*
X-130670Y217382D01*
X-130653Y217470D01*
X-130631Y217557D01*
X-130606Y217642D01*
X-130578Y217727D01*
X-130545Y217810D01*
X-130509Y217892D01*
X-130470Y217972D01*
X-130427Y218050D01*
X-130381Y218126D01*
X-130331Y218201D01*
X-130278Y218273D01*
X-130222Y218342D01*
X-130163Y218409D01*
X-130102Y218474D01*
X-130037Y218535D01*
X-129970Y218594D01*
X-129901Y218650D01*
X-129829Y218703D01*
X-129754Y218753D01*
X-129678Y218799D01*
X-129600Y218842D01*
X-129520Y218881D01*
X-129438Y218917D01*
X-129355Y218950D01*
X-129270Y218978D01*
X-129185Y219003D01*
X-129098Y219025D01*
X-129010Y219042D01*
X-128922Y219055D01*
X-128833Y219065D01*
X-128744Y219071D01*
X-128655Y219073D01*
X-128566Y219071D01*
X-128477Y219065D01*
X-128388Y219055D01*
X-128300Y219042D01*
X-128212Y219025D01*
X-128125Y219003D01*
X-128040Y218978D01*
X-127955Y218950D01*
X-127872Y218917D01*
X-127790Y218881D01*
X-127710Y218842D01*
X-127632Y218799D01*
X-127556Y218753D01*
X-127481Y218703D01*
X-127409Y218650D01*
X-127340Y218594D01*
X-127273Y218535D01*
X-127208Y218474D01*
X-127147Y218409D01*
X-127088Y218342D01*
X-127032Y218273D01*
X-126979Y218201D01*
X-126929Y218126D01*
X-126883Y218050D01*
X-126840Y217972D01*
X-126801Y217892D01*
X-126765Y217810D01*
X-126732Y217727D01*
X-126704Y217642D01*
X-126679Y217557D01*
X-126657Y217470D01*
X-126640Y217382D01*
X-126627Y217294D01*
X-126617Y217205D01*
X-126611Y217116D01*
X-126609Y217027D01*
X-126609Y214981D01*
X-126609Y217436D02*
X-123335Y219073D01*
X-124972Y222245D02*
X-130701Y223882D01*
X-124972Y222245D02*
X-124972Y226337D01*
X-126609Y225110D02*
X-123335Y225110D01*
D11*
X-197620Y214600D02*
X-197720Y214602D01*
X-197819Y214608D01*
X-197919Y214618D01*
X-198017Y214631D01*
X-198116Y214649D01*
X-198213Y214670D01*
X-198309Y214695D01*
X-198405Y214724D01*
X-198499Y214757D01*
X-198592Y214793D01*
X-198683Y214833D01*
X-198773Y214877D01*
X-198861Y214924D01*
X-198947Y214974D01*
X-199031Y215028D01*
X-199113Y215085D01*
X-199192Y215145D01*
X-199270Y215209D01*
X-199344Y215275D01*
X-199416Y215344D01*
X-199485Y215416D01*
X-199551Y215490D01*
X-199615Y215568D01*
X-199675Y215647D01*
X-199732Y215729D01*
X-199786Y215813D01*
X-199836Y215899D01*
X-199883Y215987D01*
X-199927Y216077D01*
X-199967Y216168D01*
X-200003Y216261D01*
X-200036Y216355D01*
X-200065Y216451D01*
X-200090Y216547D01*
X-200111Y216644D01*
X-200129Y216743D01*
X-200142Y216841D01*
X-200152Y216941D01*
X-200158Y217040D01*
X-200160Y217140D01*
X-182380Y214600D02*
X-182280Y214602D01*
X-182181Y214608D01*
X-182081Y214618D01*
X-181983Y214631D01*
X-181884Y214649D01*
X-181787Y214670D01*
X-181691Y214695D01*
X-181595Y214724D01*
X-181501Y214757D01*
X-181408Y214793D01*
X-181317Y214833D01*
X-181227Y214877D01*
X-181139Y214924D01*
X-181053Y214974D01*
X-180969Y215028D01*
X-180887Y215085D01*
X-180808Y215145D01*
X-180730Y215209D01*
X-180656Y215275D01*
X-180584Y215344D01*
X-180515Y215416D01*
X-180449Y215490D01*
X-180385Y215568D01*
X-180325Y215647D01*
X-180268Y215729D01*
X-180214Y215813D01*
X-180164Y215899D01*
X-180117Y215987D01*
X-180073Y216077D01*
X-180033Y216168D01*
X-179997Y216261D01*
X-179964Y216355D01*
X-179935Y216451D01*
X-179910Y216547D01*
X-179889Y216644D01*
X-179871Y216743D01*
X-179858Y216841D01*
X-179848Y216941D01*
X-179842Y217040D01*
X-179840Y217140D01*
X-179840Y262860D02*
X-179842Y262960D01*
X-179848Y263059D01*
X-179858Y263159D01*
X-179871Y263257D01*
X-179889Y263356D01*
X-179910Y263453D01*
X-179935Y263549D01*
X-179964Y263645D01*
X-179997Y263739D01*
X-180033Y263832D01*
X-180073Y263923D01*
X-180117Y264013D01*
X-180164Y264101D01*
X-180214Y264187D01*
X-180268Y264271D01*
X-180325Y264353D01*
X-180385Y264432D01*
X-180449Y264510D01*
X-180515Y264584D01*
X-180584Y264656D01*
X-180656Y264725D01*
X-180730Y264791D01*
X-180808Y264855D01*
X-180887Y264915D01*
X-180969Y264972D01*
X-181053Y265026D01*
X-181139Y265076D01*
X-181227Y265123D01*
X-181317Y265167D01*
X-181408Y265207D01*
X-181501Y265243D01*
X-181595Y265276D01*
X-181691Y265305D01*
X-181787Y265330D01*
X-181884Y265351D01*
X-181983Y265369D01*
X-182081Y265382D01*
X-182181Y265392D01*
X-182280Y265398D01*
X-182380Y265400D01*
X-197620Y265400D02*
X-197720Y265398D01*
X-197819Y265392D01*
X-197919Y265382D01*
X-198017Y265369D01*
X-198116Y265351D01*
X-198213Y265330D01*
X-198309Y265305D01*
X-198405Y265276D01*
X-198499Y265243D01*
X-198592Y265207D01*
X-198683Y265167D01*
X-198773Y265123D01*
X-198861Y265076D01*
X-198947Y265026D01*
X-199031Y264972D01*
X-199113Y264915D01*
X-199192Y264855D01*
X-199270Y264791D01*
X-199344Y264725D01*
X-199416Y264656D01*
X-199485Y264584D01*
X-199551Y264510D01*
X-199615Y264432D01*
X-199675Y264353D01*
X-199732Y264271D01*
X-199786Y264187D01*
X-199836Y264101D01*
X-199883Y264013D01*
X-199927Y263923D01*
X-199967Y263832D01*
X-200003Y263739D01*
X-200036Y263645D01*
X-200065Y263549D01*
X-200090Y263453D01*
X-200111Y263356D01*
X-200129Y263257D01*
X-200142Y263159D01*
X-200152Y263059D01*
X-200158Y262960D01*
X-200160Y262860D01*
X-197620Y214600D02*
X-182380Y214600D01*
X-200160Y217140D02*
X-200160Y220950D01*
X-198890Y222220D01*
X-179840Y220950D02*
X-179840Y217140D01*
X-179840Y220950D02*
X-181110Y222220D01*
X-198890Y257780D02*
X-200160Y259050D01*
X-198890Y257780D02*
X-198890Y222220D01*
X-181110Y257780D02*
X-179840Y259050D01*
X-181110Y257780D02*
X-181110Y222220D01*
X-200160Y259050D02*
X-200160Y262860D01*
X-179840Y262860D02*
X-179840Y259050D01*
X-182380Y265400D02*
X-197620Y265400D01*
D16*
X-190000Y267305D03*
X-190000Y212695D03*
D10*
X-190701Y224981D02*
X-183335Y224981D01*
X-190701Y224981D02*
X-190701Y227027D01*
X-190699Y227116D01*
X-190693Y227205D01*
X-190683Y227294D01*
X-190670Y227382D01*
X-190653Y227470D01*
X-190631Y227557D01*
X-190606Y227642D01*
X-190578Y227727D01*
X-190545Y227810D01*
X-190509Y227892D01*
X-190470Y227972D01*
X-190427Y228050D01*
X-190381Y228126D01*
X-190331Y228201D01*
X-190278Y228273D01*
X-190222Y228342D01*
X-190163Y228409D01*
X-190102Y228474D01*
X-190037Y228535D01*
X-189970Y228594D01*
X-189901Y228650D01*
X-189829Y228703D01*
X-189754Y228753D01*
X-189678Y228799D01*
X-189600Y228842D01*
X-189520Y228881D01*
X-189438Y228917D01*
X-189355Y228950D01*
X-189270Y228978D01*
X-189185Y229003D01*
X-189098Y229025D01*
X-189010Y229042D01*
X-188922Y229055D01*
X-188833Y229065D01*
X-188744Y229071D01*
X-188655Y229073D01*
X-188566Y229071D01*
X-188477Y229065D01*
X-188388Y229055D01*
X-188300Y229042D01*
X-188212Y229025D01*
X-188125Y229003D01*
X-188040Y228978D01*
X-187955Y228950D01*
X-187872Y228917D01*
X-187790Y228881D01*
X-187710Y228842D01*
X-187632Y228799D01*
X-187556Y228753D01*
X-187481Y228703D01*
X-187409Y228650D01*
X-187340Y228594D01*
X-187273Y228535D01*
X-187208Y228474D01*
X-187147Y228409D01*
X-187088Y228342D01*
X-187032Y228273D01*
X-186979Y228201D01*
X-186929Y228126D01*
X-186883Y228050D01*
X-186840Y227972D01*
X-186801Y227892D01*
X-186765Y227810D01*
X-186732Y227727D01*
X-186704Y227642D01*
X-186679Y227557D01*
X-186657Y227470D01*
X-186640Y227382D01*
X-186627Y227294D01*
X-186617Y227205D01*
X-186611Y227116D01*
X-186609Y227027D01*
X-186609Y224981D01*
X-186609Y227436D02*
X-183335Y229073D01*
X-183335Y232245D02*
X-183335Y234700D01*
X-183337Y234780D01*
X-183343Y234860D01*
X-183353Y234940D01*
X-183366Y235019D01*
X-183384Y235098D01*
X-183405Y235175D01*
X-183431Y235251D01*
X-183460Y235326D01*
X-183492Y235400D01*
X-183528Y235472D01*
X-183568Y235542D01*
X-183611Y235609D01*
X-183657Y235675D01*
X-183707Y235738D01*
X-183759Y235799D01*
X-183814Y235858D01*
X-183873Y235913D01*
X-183933Y235965D01*
X-183997Y236015D01*
X-184063Y236061D01*
X-184130Y236104D01*
X-184200Y236144D01*
X-184272Y236180D01*
X-184346Y236212D01*
X-184420Y236241D01*
X-184497Y236267D01*
X-184574Y236288D01*
X-184653Y236306D01*
X-184732Y236319D01*
X-184812Y236329D01*
X-184892Y236335D01*
X-184972Y236337D01*
X-185790Y236337D01*
X-185868Y236335D01*
X-185946Y236330D01*
X-186023Y236320D01*
X-186100Y236307D01*
X-186176Y236291D01*
X-186251Y236271D01*
X-186325Y236247D01*
X-186398Y236220D01*
X-186470Y236189D01*
X-186540Y236155D01*
X-186609Y236118D01*
X-186675Y236077D01*
X-186740Y236033D01*
X-186802Y235987D01*
X-186862Y235937D01*
X-186920Y235885D01*
X-186975Y235830D01*
X-187027Y235772D01*
X-187077Y235712D01*
X-187123Y235650D01*
X-187167Y235585D01*
X-187208Y235519D01*
X-187245Y235450D01*
X-187279Y235380D01*
X-187310Y235308D01*
X-187337Y235235D01*
X-187361Y235161D01*
X-187381Y235086D01*
X-187397Y235010D01*
X-187410Y234933D01*
X-187420Y234856D01*
X-187425Y234778D01*
X-187427Y234700D01*
X-187427Y232245D01*
X-190701Y232245D01*
X-190701Y236337D01*
D11*
X-152380Y265400D02*
X-152280Y265398D01*
X-152181Y265392D01*
X-152081Y265382D01*
X-151983Y265369D01*
X-151884Y265351D01*
X-151787Y265330D01*
X-151691Y265305D01*
X-151595Y265276D01*
X-151501Y265243D01*
X-151408Y265207D01*
X-151317Y265167D01*
X-151227Y265123D01*
X-151139Y265076D01*
X-151053Y265026D01*
X-150969Y264972D01*
X-150887Y264915D01*
X-150808Y264855D01*
X-150730Y264791D01*
X-150656Y264725D01*
X-150584Y264656D01*
X-150515Y264584D01*
X-150449Y264510D01*
X-150385Y264432D01*
X-150325Y264353D01*
X-150268Y264271D01*
X-150214Y264187D01*
X-150164Y264101D01*
X-150117Y264013D01*
X-150073Y263923D01*
X-150033Y263832D01*
X-149997Y263739D01*
X-149964Y263645D01*
X-149935Y263549D01*
X-149910Y263453D01*
X-149889Y263356D01*
X-149871Y263257D01*
X-149858Y263159D01*
X-149848Y263059D01*
X-149842Y262960D01*
X-149840Y262860D01*
X-167620Y265400D02*
X-167720Y265398D01*
X-167819Y265392D01*
X-167919Y265382D01*
X-168017Y265369D01*
X-168116Y265351D01*
X-168213Y265330D01*
X-168309Y265305D01*
X-168405Y265276D01*
X-168499Y265243D01*
X-168592Y265207D01*
X-168683Y265167D01*
X-168773Y265123D01*
X-168861Y265076D01*
X-168947Y265026D01*
X-169031Y264972D01*
X-169113Y264915D01*
X-169192Y264855D01*
X-169270Y264791D01*
X-169344Y264725D01*
X-169416Y264656D01*
X-169485Y264584D01*
X-169551Y264510D01*
X-169615Y264432D01*
X-169675Y264353D01*
X-169732Y264271D01*
X-169786Y264187D01*
X-169836Y264101D01*
X-169883Y264013D01*
X-169927Y263923D01*
X-169967Y263832D01*
X-170003Y263739D01*
X-170036Y263645D01*
X-170065Y263549D01*
X-170090Y263453D01*
X-170111Y263356D01*
X-170129Y263257D01*
X-170142Y263159D01*
X-170152Y263059D01*
X-170158Y262960D01*
X-170160Y262860D01*
X-170160Y217140D02*
X-170158Y217040D01*
X-170152Y216941D01*
X-170142Y216841D01*
X-170129Y216743D01*
X-170111Y216644D01*
X-170090Y216547D01*
X-170065Y216451D01*
X-170036Y216355D01*
X-170003Y216261D01*
X-169967Y216168D01*
X-169927Y216077D01*
X-169883Y215987D01*
X-169836Y215899D01*
X-169786Y215813D01*
X-169732Y215729D01*
X-169675Y215647D01*
X-169615Y215568D01*
X-169551Y215490D01*
X-169485Y215416D01*
X-169416Y215344D01*
X-169344Y215275D01*
X-169270Y215209D01*
X-169192Y215145D01*
X-169113Y215085D01*
X-169031Y215028D01*
X-168947Y214974D01*
X-168861Y214924D01*
X-168773Y214877D01*
X-168683Y214833D01*
X-168592Y214793D01*
X-168499Y214757D01*
X-168405Y214724D01*
X-168309Y214695D01*
X-168213Y214670D01*
X-168116Y214649D01*
X-168017Y214631D01*
X-167919Y214618D01*
X-167819Y214608D01*
X-167720Y214602D01*
X-167620Y214600D01*
X-152380Y214600D02*
X-152280Y214602D01*
X-152181Y214608D01*
X-152081Y214618D01*
X-151983Y214631D01*
X-151884Y214649D01*
X-151787Y214670D01*
X-151691Y214695D01*
X-151595Y214724D01*
X-151501Y214757D01*
X-151408Y214793D01*
X-151317Y214833D01*
X-151227Y214877D01*
X-151139Y214924D01*
X-151053Y214974D01*
X-150969Y215028D01*
X-150887Y215085D01*
X-150808Y215145D01*
X-150730Y215209D01*
X-150656Y215275D01*
X-150584Y215344D01*
X-150515Y215416D01*
X-150449Y215490D01*
X-150385Y215568D01*
X-150325Y215647D01*
X-150268Y215729D01*
X-150214Y215813D01*
X-150164Y215899D01*
X-150117Y215987D01*
X-150073Y216077D01*
X-150033Y216168D01*
X-149997Y216261D01*
X-149964Y216355D01*
X-149935Y216451D01*
X-149910Y216547D01*
X-149889Y216644D01*
X-149871Y216743D01*
X-149858Y216841D01*
X-149848Y216941D01*
X-149842Y217040D01*
X-149840Y217140D01*
X-152380Y265400D02*
X-167620Y265400D01*
X-149840Y262860D02*
X-149840Y259050D01*
X-151110Y257780D01*
X-170160Y259050D02*
X-170160Y262860D01*
X-170160Y259050D02*
X-168890Y257780D01*
X-151110Y222220D02*
X-149840Y220950D01*
X-151110Y222220D02*
X-151110Y257780D01*
X-168890Y222220D02*
X-170160Y220950D01*
X-168890Y222220D02*
X-168890Y257780D01*
X-149840Y220950D02*
X-149840Y217140D01*
X-170160Y217140D02*
X-170160Y220950D01*
X-167620Y214600D02*
X-152380Y214600D01*
D16*
X-160000Y212695D03*
X-160000Y267305D03*
D10*
X-159299Y223663D02*
X-166665Y223663D01*
X-166665Y225709D01*
X-166663Y225798D01*
X-166657Y225887D01*
X-166647Y225976D01*
X-166634Y226064D01*
X-166617Y226152D01*
X-166595Y226239D01*
X-166570Y226324D01*
X-166542Y226409D01*
X-166509Y226492D01*
X-166473Y226574D01*
X-166434Y226654D01*
X-166391Y226732D01*
X-166345Y226808D01*
X-166295Y226883D01*
X-166242Y226955D01*
X-166186Y227024D01*
X-166127Y227091D01*
X-166066Y227156D01*
X-166001Y227217D01*
X-165934Y227276D01*
X-165865Y227332D01*
X-165793Y227385D01*
X-165718Y227435D01*
X-165642Y227481D01*
X-165564Y227524D01*
X-165484Y227563D01*
X-165402Y227599D01*
X-165319Y227632D01*
X-165234Y227660D01*
X-165149Y227685D01*
X-165062Y227707D01*
X-164974Y227724D01*
X-164886Y227737D01*
X-164797Y227747D01*
X-164708Y227753D01*
X-164619Y227755D01*
X-164530Y227753D01*
X-164441Y227747D01*
X-164352Y227737D01*
X-164264Y227724D01*
X-164176Y227707D01*
X-164089Y227685D01*
X-164004Y227660D01*
X-163919Y227632D01*
X-163836Y227599D01*
X-163754Y227563D01*
X-163674Y227524D01*
X-163596Y227481D01*
X-163520Y227435D01*
X-163445Y227385D01*
X-163373Y227332D01*
X-163304Y227276D01*
X-163237Y227217D01*
X-163172Y227156D01*
X-163111Y227091D01*
X-163052Y227024D01*
X-162996Y226955D01*
X-162943Y226883D01*
X-162893Y226808D01*
X-162847Y226732D01*
X-162804Y226654D01*
X-162765Y226574D01*
X-162729Y226492D01*
X-162696Y226409D01*
X-162668Y226324D01*
X-162643Y226239D01*
X-162621Y226152D01*
X-162604Y226064D01*
X-162591Y225976D01*
X-162581Y225887D01*
X-162575Y225798D01*
X-162573Y225709D01*
X-162573Y223663D01*
X-162573Y226118D02*
X-159299Y227755D01*
X-163391Y230927D02*
X-163391Y233382D01*
X-163389Y233460D01*
X-163384Y233538D01*
X-163374Y233615D01*
X-163361Y233692D01*
X-163345Y233768D01*
X-163325Y233843D01*
X-163301Y233917D01*
X-163274Y233990D01*
X-163243Y234062D01*
X-163209Y234132D01*
X-163172Y234201D01*
X-163131Y234267D01*
X-163087Y234332D01*
X-163041Y234394D01*
X-162991Y234454D01*
X-162939Y234512D01*
X-162884Y234567D01*
X-162826Y234619D01*
X-162766Y234669D01*
X-162704Y234715D01*
X-162639Y234759D01*
X-162573Y234800D01*
X-162504Y234837D01*
X-162434Y234871D01*
X-162362Y234902D01*
X-162289Y234929D01*
X-162215Y234953D01*
X-162140Y234973D01*
X-162064Y234989D01*
X-161987Y235002D01*
X-161910Y235012D01*
X-161832Y235017D01*
X-161754Y235019D01*
X-161345Y235019D01*
X-161256Y235017D01*
X-161167Y235011D01*
X-161078Y235001D01*
X-160990Y234988D01*
X-160902Y234971D01*
X-160815Y234949D01*
X-160730Y234924D01*
X-160645Y234896D01*
X-160562Y234863D01*
X-160480Y234827D01*
X-160400Y234788D01*
X-160322Y234745D01*
X-160246Y234699D01*
X-160171Y234649D01*
X-160099Y234596D01*
X-160030Y234540D01*
X-159963Y234481D01*
X-159898Y234420D01*
X-159837Y234355D01*
X-159778Y234288D01*
X-159722Y234219D01*
X-159669Y234147D01*
X-159619Y234072D01*
X-159573Y233996D01*
X-159530Y233918D01*
X-159491Y233838D01*
X-159455Y233756D01*
X-159422Y233673D01*
X-159394Y233588D01*
X-159369Y233503D01*
X-159347Y233416D01*
X-159330Y233328D01*
X-159317Y233240D01*
X-159307Y233151D01*
X-159301Y233062D01*
X-159299Y232973D01*
X-159301Y232884D01*
X-159307Y232795D01*
X-159317Y232706D01*
X-159330Y232618D01*
X-159347Y232530D01*
X-159369Y232443D01*
X-159394Y232358D01*
X-159422Y232273D01*
X-159455Y232190D01*
X-159491Y232108D01*
X-159530Y232028D01*
X-159573Y231950D01*
X-159619Y231874D01*
X-159669Y231799D01*
X-159722Y231727D01*
X-159778Y231658D01*
X-159837Y231591D01*
X-159898Y231526D01*
X-159963Y231465D01*
X-160030Y231406D01*
X-160099Y231350D01*
X-160171Y231297D01*
X-160246Y231247D01*
X-160322Y231201D01*
X-160400Y231158D01*
X-160480Y231119D01*
X-160562Y231083D01*
X-160645Y231050D01*
X-160730Y231022D01*
X-160815Y230997D01*
X-160902Y230975D01*
X-160990Y230958D01*
X-161078Y230945D01*
X-161167Y230935D01*
X-161256Y230929D01*
X-161345Y230927D01*
X-163391Y230927D01*
X-163505Y230929D01*
X-163619Y230935D01*
X-163733Y230945D01*
X-163847Y230959D01*
X-163960Y230977D01*
X-164072Y230999D01*
X-164183Y231024D01*
X-164293Y231054D01*
X-164403Y231087D01*
X-164511Y231124D01*
X-164617Y231165D01*
X-164723Y231210D01*
X-164826Y231258D01*
X-164928Y231310D01*
X-165028Y231366D01*
X-165126Y231424D01*
X-165222Y231487D01*
X-165315Y231552D01*
X-165407Y231621D01*
X-165495Y231693D01*
X-165582Y231768D01*
X-165665Y231846D01*
X-165746Y231927D01*
X-165824Y232010D01*
X-165899Y232097D01*
X-165971Y232185D01*
X-166040Y232277D01*
X-166105Y232370D01*
X-166167Y232466D01*
X-166226Y232564D01*
X-166282Y232664D01*
X-166334Y232766D01*
X-166382Y232869D01*
X-166427Y232975D01*
X-166468Y233081D01*
X-166505Y233189D01*
X-166538Y233299D01*
X-166568Y233409D01*
X-166593Y233520D01*
X-166615Y233632D01*
X-166633Y233745D01*
X-166647Y233859D01*
X-166657Y233973D01*
X-166663Y234087D01*
X-166665Y234201D01*
M02*
