M48
;GenerationSoftware,Autodesk,EAGLE,9.6.2*%
;CreationDate,2022-07-09T11:52:30Z*%
FMAT,2
ICI,OFF
METRIC,TZ,000.000
T5C0.350
T4C0.813
T3C0.900
T2C1.016
T1C1.240
%
G90
M71
T1
X29910Y26860
X32450Y26860
X34990Y26860
T2
X16780Y40070
X29480Y40070
X25400Y40070
X21590Y40070
T3
X23760Y12310
X23760Y6350
X35930Y12310
X35930Y6350
X50430Y12310
X50430Y6350
X50700Y38380
X50700Y44340
X36200Y38380
X36200Y44340
X-17410Y12310
X-17410Y6350
X-2910Y12310
X-2910Y6350
X9260Y12310
X9260Y6350
T4
X3100Y23480
X560Y31100
X3100Y31100
X-16000Y20190
X-4520Y23480
X-1980Y23480
X-1980Y31100
X-4520Y31100
X560Y23480
X-13000Y20190
X-13000Y27810
X-19000Y20190
X-19000Y27810
X-16000Y27810
T5
X51037Y33000
X32000Y11000
X28000Y11000
X47000Y15000
X35000Y15000
X-5000Y11000
X-7000Y11000
X-8553Y11000
X12000Y24909
X12000Y28214
X39843Y40427
X42950Y40320
X41393Y40377
X44607Y39451
X18000Y42000
X20000Y41000
X42840Y10302
X47000Y11000
X44000Y11000
X45287Y11000
X12972Y26064
X7953Y27000
X20688Y26848
X19738Y28061
X20688Y24000
X13000Y27000
X7216Y25000
X23563Y26848
X24000Y28061
X9000Y43216
X9000Y42000
X9000Y33532
X9000Y32000
X7000Y29000
X19000Y30658
X-12000Y16000
X-12000Y34000
X15000Y11000
X15000Y7393
X41000Y7000
X41116Y11116
X26607Y22000
X26000Y26000
X48607Y35000
X42000Y35000
X11924Y15924
X12903Y14945
X14995Y18995
X17915Y19085
X2000Y18480
X9000Y19000
X9053Y26194
X9000Y21781
X9000Y29000
X15000Y27893
X15602Y29682
X37000Y17393
X37000Y22000
X39000Y11000
X39000Y8000
X12000Y11000
X12000Y8000
X14200Y30658
X16494Y22614
X14000Y19000
X13650Y24457
X12000Y24000
X14000Y28000
X26000Y27000
X24000Y26000
X24000Y22860
X17101Y30000
X45000Y25000
X45000Y26000
X21000Y20000
X23005Y21005
X27000Y33393
X27000Y36000
X32000Y33393
X32000Y36000
X33000Y33000
X33000Y36000
X2000Y19109
X9841Y20000
X16108Y18607
X-21590Y6350
X53500Y44340
X53500Y6350
X23000Y17000
X17000Y19000
X23005Y17995
X10902Y20000
X19000Y15000
X10482Y19000
X18000Y11000
X12000Y19000
X22000Y15000
X11810Y20000
X21000Y15000
X44000Y35000
X54000Y33000
X32000Y8000
X28000Y8000
X42573Y17009
X47000Y35000
X36000Y16607
X16000Y11000
X17000Y9000
X53000Y33000
X32000Y9000
X28000Y9000
X44000Y16000
X35000Y16214
X17000Y11000
X19000Y9000
X41000Y35000
X52000Y33000
X32000Y10000
X28000Y10000
X45000Y16000
X34000Y15607
X19010Y11000
X20000Y9607
X40000Y35000
X-21460Y44340
M30